<?xml version="1.0" encoding="utf-8" standalone="no"?>
<!DOCTYPE svg PUBLIC "-//W3C//DTD SVG 1.1//EN"
  "http://www.w3.org/Graphics/SVG/1.1/DTD/svg11.dtd">
<svg xmlns:xlink="http://www.w3.org/1999/xlink" width="720pt" height="360pt" viewBox="0 0 720 360" xmlns="http://www.w3.org/2000/svg" version="1.1">
 <metadata>
  <rdf:RDF xmlns:dc="http://purl.org/dc/elements/1.1/" xmlns:cc="http://creativecommons.org/ns#" xmlns:rdf="http://www.w3.org/1999/02/22-rdf-syntax-ns#">
   <cc:Work>
    <dc:type rdf:resource="http://purl.org/dc/dcmitype/StillImage"/>
    <dc:date>2024-04-03T20:16:01.442649</dc:date>
    <dc:format>image/svg+xml</dc:format>
    <dc:creator>
     <cc:Agent>
      <dc:title>Matplotlib v3.8.3, https://matplotlib.org/</dc:title>
     </cc:Agent>
    </dc:creator>
   </cc:Work>
  </rdf:RDF>
 </metadata>
 <defs>
  <style type="text/css">*{stroke-linejoin: round; stroke-linecap: butt}</style>
 </defs>
 <g id="figure_1">
  <g id="patch_1">
   <path d="M 0 360 
L 720 360 
L 720 0 
L 0 0 
z
" style="fill: #ffffff"/>
  </g>
  <g id="axes_1">
   <g id="patch_2">
    <path d="M 53.75 277.446653 
L 696.695789 277.446653 
L 696.695789 27.6 
L 53.75 27.6 
z
" style="fill: #ffffff"/>
   </g>
   <g id="matplotlib.axis_1">
    <g id="xtick_1">
     <g id="line2d_1">
      <path d="M 64.822846 277.446653 
L 64.822846 27.6 
" clip-path="url(#p49e954ce30)" style="fill: none; stroke: #b0b0b0; stroke-width: 0.8; stroke-linecap: square"/>
     </g>
     <g id="line2d_2">
      <defs>
       <path id="me742609e9e" d="M 0 0 
L 0 3.5 
" style="stroke: #000000; stroke-width: 0.8"/>
      </defs>
      <g>
       <use xlink:href="#me742609e9e" x="64.822846" y="277.446653" style="stroke: #000000; stroke-width: 0.8"/>
      </g>
     </g>
     <g id="text_1">
      <!-- 2024-03-29 -->
      <g transform="translate(46.227043 330.913512) rotate(-45) scale(0.1 -0.1)">
       <defs>
        <path id="DejaVuSans-32" d="M 1228 531 
L 3431 531 
L 3431 0 
L 469 0 
L 469 531 
Q 828 903 1448 1529 
Q 2069 2156 2228 2338 
Q 2531 2678 2651 2914 
Q 2772 3150 2772 3378 
Q 2772 3750 2511 3984 
Q 2250 4219 1831 4219 
Q 1534 4219 1204 4116 
Q 875 4013 500 3803 
L 500 4441 
Q 881 4594 1212 4672 
Q 1544 4750 1819 4750 
Q 2544 4750 2975 4387 
Q 3406 4025 3406 3419 
Q 3406 3131 3298 2873 
Q 3191 2616 2906 2266 
Q 2828 2175 2409 1742 
Q 1991 1309 1228 531 
z
" transform="scale(0.015625)"/>
        <path id="DejaVuSans-30" d="M 2034 4250 
Q 1547 4250 1301 3770 
Q 1056 3291 1056 2328 
Q 1056 1369 1301 889 
Q 1547 409 2034 409 
Q 2525 409 2770 889 
Q 3016 1369 3016 2328 
Q 3016 3291 2770 3770 
Q 2525 4250 2034 4250 
z
M 2034 4750 
Q 2819 4750 3233 4129 
Q 3647 3509 3647 2328 
Q 3647 1150 3233 529 
Q 2819 -91 2034 -91 
Q 1250 -91 836 529 
Q 422 1150 422 2328 
Q 422 3509 836 4129 
Q 1250 4750 2034 4750 
z
" transform="scale(0.015625)"/>
        <path id="DejaVuSans-34" d="M 2419 4116 
L 825 1625 
L 2419 1625 
L 2419 4116 
z
M 2253 4666 
L 3047 4666 
L 3047 1625 
L 3713 1625 
L 3713 1100 
L 3047 1100 
L 3047 0 
L 2419 0 
L 2419 1100 
L 313 1100 
L 313 1709 
L 2253 4666 
z
" transform="scale(0.015625)"/>
        <path id="DejaVuSans-2d" d="M 313 2009 
L 1997 2009 
L 1997 1497 
L 313 1497 
L 313 2009 
z
" transform="scale(0.015625)"/>
        <path id="DejaVuSans-33" d="M 2597 2516 
Q 3050 2419 3304 2112 
Q 3559 1806 3559 1356 
Q 3559 666 3084 287 
Q 2609 -91 1734 -91 
Q 1441 -91 1130 -33 
Q 819 25 488 141 
L 488 750 
Q 750 597 1062 519 
Q 1375 441 1716 441 
Q 2309 441 2620 675 
Q 2931 909 2931 1356 
Q 2931 1769 2642 2001 
Q 2353 2234 1838 2234 
L 1294 2234 
L 1294 2753 
L 1863 2753 
Q 2328 2753 2575 2939 
Q 2822 3125 2822 3475 
Q 2822 3834 2567 4026 
Q 2313 4219 1838 4219 
Q 1578 4219 1281 4162 
Q 984 4106 628 3988 
L 628 4550 
Q 988 4650 1302 4700 
Q 1616 4750 1894 4750 
Q 2613 4750 3031 4423 
Q 3450 4097 3450 3541 
Q 3450 3153 3228 2886 
Q 3006 2619 2597 2516 
z
" transform="scale(0.015625)"/>
        <path id="DejaVuSans-39" d="M 703 97 
L 703 672 
Q 941 559 1184 500 
Q 1428 441 1663 441 
Q 2288 441 2617 861 
Q 2947 1281 2994 2138 
Q 2813 1869 2534 1725 
Q 2256 1581 1919 1581 
Q 1219 1581 811 2004 
Q 403 2428 403 3163 
Q 403 3881 828 4315 
Q 1253 4750 1959 4750 
Q 2769 4750 3195 4129 
Q 3622 3509 3622 2328 
Q 3622 1225 3098 567 
Q 2575 -91 1691 -91 
Q 1453 -91 1209 -44 
Q 966 3 703 97 
z
M 1959 2075 
Q 2384 2075 2632 2365 
Q 2881 2656 2881 3163 
Q 2881 3666 2632 3958 
Q 2384 4250 1959 4250 
Q 1534 4250 1286 3958 
Q 1038 3666 1038 3163 
Q 1038 2656 1286 2365 
Q 1534 2075 1959 2075 
z
" transform="scale(0.015625)"/>
       </defs>
       <use xlink:href="#DejaVuSans-32"/>
       <use xlink:href="#DejaVuSans-30" x="63.623047"/>
       <use xlink:href="#DejaVuSans-32" x="127.246094"/>
       <use xlink:href="#DejaVuSans-34" x="190.869141"/>
       <use xlink:href="#DejaVuSans-2d" x="254.492188"/>
       <use xlink:href="#DejaVuSans-30" x="290.576172"/>
       <use xlink:href="#DejaVuSans-33" x="354.199219"/>
       <use xlink:href="#DejaVuSans-2d" x="417.822266"/>
       <use xlink:href="#DejaVuSans-32" x="453.90625"/>
       <use xlink:href="#DejaVuSans-39" x="517.529297"/>
      </g>
     </g>
    </g>
    <g id="xtick_2">
     <g id="line2d_3">
      <path d="M 167.95332 277.446653 
L 167.95332 27.6 
" clip-path="url(#p49e954ce30)" style="fill: none; stroke: #b0b0b0; stroke-width: 0.8; stroke-linecap: square"/>
     </g>
     <g id="line2d_4">
      <g>
       <use xlink:href="#me742609e9e" x="167.95332" y="277.446653" style="stroke: #000000; stroke-width: 0.8"/>
      </g>
     </g>
     <g id="text_2">
      <!-- 2024-03-30 -->
      <g transform="translate(149.357516 330.913512) rotate(-45) scale(0.1 -0.1)">
       <use xlink:href="#DejaVuSans-32"/>
       <use xlink:href="#DejaVuSans-30" x="63.623047"/>
       <use xlink:href="#DejaVuSans-32" x="127.246094"/>
       <use xlink:href="#DejaVuSans-34" x="190.869141"/>
       <use xlink:href="#DejaVuSans-2d" x="254.492188"/>
       <use xlink:href="#DejaVuSans-30" x="290.576172"/>
       <use xlink:href="#DejaVuSans-33" x="354.199219"/>
       <use xlink:href="#DejaVuSans-2d" x="417.822266"/>
       <use xlink:href="#DejaVuSans-33" x="453.90625"/>
       <use xlink:href="#DejaVuSans-30" x="517.529297"/>
      </g>
     </g>
    </g>
    <g id="xtick_3">
     <g id="line2d_5">
      <path d="M 271.083793 277.446653 
L 271.083793 27.6 
" clip-path="url(#p49e954ce30)" style="fill: none; stroke: #b0b0b0; stroke-width: 0.8; stroke-linecap: square"/>
     </g>
     <g id="line2d_6">
      <g>
       <use xlink:href="#me742609e9e" x="271.083793" y="277.446653" style="stroke: #000000; stroke-width: 0.8"/>
      </g>
     </g>
     <g id="text_3">
      <!-- 2024-03-31 -->
      <g transform="translate(252.487989 330.913512) rotate(-45) scale(0.1 -0.1)">
       <defs>
        <path id="DejaVuSans-31" d="M 794 531 
L 1825 531 
L 1825 4091 
L 703 3866 
L 703 4441 
L 1819 4666 
L 2450 4666 
L 2450 531 
L 3481 531 
L 3481 0 
L 794 0 
L 794 531 
z
" transform="scale(0.015625)"/>
       </defs>
       <use xlink:href="#DejaVuSans-32"/>
       <use xlink:href="#DejaVuSans-30" x="63.623047"/>
       <use xlink:href="#DejaVuSans-32" x="127.246094"/>
       <use xlink:href="#DejaVuSans-34" x="190.869141"/>
       <use xlink:href="#DejaVuSans-2d" x="254.492188"/>
       <use xlink:href="#DejaVuSans-30" x="290.576172"/>
       <use xlink:href="#DejaVuSans-33" x="354.199219"/>
       <use xlink:href="#DejaVuSans-2d" x="417.822266"/>
       <use xlink:href="#DejaVuSans-33" x="453.90625"/>
       <use xlink:href="#DejaVuSans-31" x="517.529297"/>
      </g>
     </g>
    </g>
    <g id="xtick_4">
     <g id="line2d_7">
      <path d="M 374.214266 277.446653 
L 374.214266 27.6 
" clip-path="url(#p49e954ce30)" style="fill: none; stroke: #b0b0b0; stroke-width: 0.8; stroke-linecap: square"/>
     </g>
     <g id="line2d_8">
      <g>
       <use xlink:href="#me742609e9e" x="374.214266" y="277.446653" style="stroke: #000000; stroke-width: 0.8"/>
      </g>
     </g>
     <g id="text_4">
      <!-- 2024-04-01 -->
      <g transform="translate(355.618463 330.913512) rotate(-45) scale(0.1 -0.1)">
       <use xlink:href="#DejaVuSans-32"/>
       <use xlink:href="#DejaVuSans-30" x="63.623047"/>
       <use xlink:href="#DejaVuSans-32" x="127.246094"/>
       <use xlink:href="#DejaVuSans-34" x="190.869141"/>
       <use xlink:href="#DejaVuSans-2d" x="254.492188"/>
       <use xlink:href="#DejaVuSans-30" x="290.576172"/>
       <use xlink:href="#DejaVuSans-34" x="354.199219"/>
       <use xlink:href="#DejaVuSans-2d" x="417.822266"/>
       <use xlink:href="#DejaVuSans-30" x="453.90625"/>
       <use xlink:href="#DejaVuSans-31" x="517.529297"/>
      </g>
     </g>
    </g>
    <g id="xtick_5">
     <g id="line2d_9">
      <path d="M 477.344739 277.446653 
L 477.344739 27.6 
" clip-path="url(#p49e954ce30)" style="fill: none; stroke: #b0b0b0; stroke-width: 0.8; stroke-linecap: square"/>
     </g>
     <g id="line2d_10">
      <g>
       <use xlink:href="#me742609e9e" x="477.344739" y="277.446653" style="stroke: #000000; stroke-width: 0.8"/>
      </g>
     </g>
     <g id="text_5">
      <!-- 2024-04-02 -->
      <g transform="translate(458.748936 330.913512) rotate(-45) scale(0.1 -0.1)">
       <use xlink:href="#DejaVuSans-32"/>
       <use xlink:href="#DejaVuSans-30" x="63.623047"/>
       <use xlink:href="#DejaVuSans-32" x="127.246094"/>
       <use xlink:href="#DejaVuSans-34" x="190.869141"/>
       <use xlink:href="#DejaVuSans-2d" x="254.492188"/>
       <use xlink:href="#DejaVuSans-30" x="290.576172"/>
       <use xlink:href="#DejaVuSans-34" x="354.199219"/>
       <use xlink:href="#DejaVuSans-2d" x="417.822266"/>
       <use xlink:href="#DejaVuSans-30" x="453.90625"/>
       <use xlink:href="#DejaVuSans-32" x="517.529297"/>
      </g>
     </g>
    </g>
    <g id="xtick_6">
     <g id="line2d_11">
      <path d="M 580.475213 277.446653 
L 580.475213 27.6 
" clip-path="url(#p49e954ce30)" style="fill: none; stroke: #b0b0b0; stroke-width: 0.8; stroke-linecap: square"/>
     </g>
     <g id="line2d_12">
      <g>
       <use xlink:href="#me742609e9e" x="580.475213" y="277.446653" style="stroke: #000000; stroke-width: 0.8"/>
      </g>
     </g>
     <g id="text_6">
      <!-- 2024-04-03 -->
      <g transform="translate(561.879409 330.913512) rotate(-45) scale(0.1 -0.1)">
       <use xlink:href="#DejaVuSans-32"/>
       <use xlink:href="#DejaVuSans-30" x="63.623047"/>
       <use xlink:href="#DejaVuSans-32" x="127.246094"/>
       <use xlink:href="#DejaVuSans-34" x="190.869141"/>
       <use xlink:href="#DejaVuSans-2d" x="254.492188"/>
       <use xlink:href="#DejaVuSans-30" x="290.576172"/>
       <use xlink:href="#DejaVuSans-34" x="354.199219"/>
       <use xlink:href="#DejaVuSans-2d" x="417.822266"/>
       <use xlink:href="#DejaVuSans-30" x="453.90625"/>
       <use xlink:href="#DejaVuSans-33" x="517.529297"/>
      </g>
     </g>
    </g>
    <g id="xtick_7">
     <g id="line2d_13">
      <path d="M 683.605686 277.446653 
L 683.605686 27.6 
" clip-path="url(#p49e954ce30)" style="fill: none; stroke: #b0b0b0; stroke-width: 0.8; stroke-linecap: square"/>
     </g>
     <g id="line2d_14">
      <g>
       <use xlink:href="#me742609e9e" x="683.605686" y="277.446653" style="stroke: #000000; stroke-width: 0.8"/>
      </g>
     </g>
     <g id="text_7">
      <!-- 2024-04-04 -->
      <g transform="translate(665.009882 330.913512) rotate(-45) scale(0.1 -0.1)">
       <use xlink:href="#DejaVuSans-32"/>
       <use xlink:href="#DejaVuSans-30" x="63.623047"/>
       <use xlink:href="#DejaVuSans-32" x="127.246094"/>
       <use xlink:href="#DejaVuSans-34" x="190.869141"/>
       <use xlink:href="#DejaVuSans-2d" x="254.492188"/>
       <use xlink:href="#DejaVuSans-30" x="290.576172"/>
       <use xlink:href="#DejaVuSans-34" x="354.199219"/>
       <use xlink:href="#DejaVuSans-2d" x="417.822266"/>
       <use xlink:href="#DejaVuSans-30" x="453.90625"/>
       <use xlink:href="#DejaVuSans-34" x="517.529297"/>
      </g>
     </g>
    </g>
    <g id="text_8">
     <!-- Time -->
     <g transform="translate(360.542582 345.502198) scale(0.12 -0.12)">
      <defs>
       <path id="DejaVuSans-54" d="M -19 4666 
L 3928 4666 
L 3928 4134 
L 2272 4134 
L 2272 0 
L 1638 0 
L 1638 4134 
L -19 4134 
L -19 4666 
z
" transform="scale(0.015625)"/>
       <path id="DejaVuSans-69" d="M 603 3500 
L 1178 3500 
L 1178 0 
L 603 0 
L 603 3500 
z
M 603 4863 
L 1178 4863 
L 1178 4134 
L 603 4134 
L 603 4863 
z
" transform="scale(0.015625)"/>
       <path id="DejaVuSans-6d" d="M 3328 2828 
Q 3544 3216 3844 3400 
Q 4144 3584 4550 3584 
Q 5097 3584 5394 3201 
Q 5691 2819 5691 2113 
L 5691 0 
L 5113 0 
L 5113 2094 
Q 5113 2597 4934 2840 
Q 4756 3084 4391 3084 
Q 3944 3084 3684 2787 
Q 3425 2491 3425 1978 
L 3425 0 
L 2847 0 
L 2847 2094 
Q 2847 2600 2669 2842 
Q 2491 3084 2119 3084 
Q 1678 3084 1418 2786 
Q 1159 2488 1159 1978 
L 1159 0 
L 581 0 
L 581 3500 
L 1159 3500 
L 1159 2956 
Q 1356 3278 1631 3431 
Q 1906 3584 2284 3584 
Q 2666 3584 2933 3390 
Q 3200 3197 3328 2828 
z
" transform="scale(0.015625)"/>
       <path id="DejaVuSans-65" d="M 3597 1894 
L 3597 1613 
L 953 1613 
Q 991 1019 1311 708 
Q 1631 397 2203 397 
Q 2534 397 2845 478 
Q 3156 559 3463 722 
L 3463 178 
Q 3153 47 2828 -22 
Q 2503 -91 2169 -91 
Q 1331 -91 842 396 
Q 353 884 353 1716 
Q 353 2575 817 3079 
Q 1281 3584 2069 3584 
Q 2775 3584 3186 3129 
Q 3597 2675 3597 1894 
z
M 3022 2063 
Q 3016 2534 2758 2815 
Q 2500 3097 2075 3097 
Q 1594 3097 1305 2825 
Q 1016 2553 972 2059 
L 3022 2063 
z
" transform="scale(0.015625)"/>
      </defs>
      <use xlink:href="#DejaVuSans-54"/>
      <use xlink:href="#DejaVuSans-69" x="57.958984"/>
      <use xlink:href="#DejaVuSans-6d" x="85.742188"/>
      <use xlink:href="#DejaVuSans-65" x="183.154297"/>
     </g>
    </g>
   </g>
   <g id="matplotlib.axis_2">
    <g id="ytick_1">
     <g id="line2d_15">
      <path d="M 53.75 255.673388 
L 696.695789 255.673388 
" clip-path="url(#p49e954ce30)" style="fill: none; stroke: #b0b0b0; stroke-width: 0.8; stroke-linecap: square"/>
     </g>
     <g id="line2d_16">
      <defs>
       <path id="m3fdf0ec52c" d="M 0 0 
L -3.5 0 
" style="stroke: #000000; stroke-width: 0.8"/>
      </defs>
      <g>
       <use xlink:href="#m3fdf0ec52c" x="53.75" y="255.673388" style="stroke: #000000; stroke-width: 0.8"/>
      </g>
     </g>
     <g id="text_9">
      <!-- 200 -->
      <g transform="translate(27.6625 259.472607) scale(0.1 -0.1)">
       <use xlink:href="#DejaVuSans-32"/>
       <use xlink:href="#DejaVuSans-30" x="63.623047"/>
       <use xlink:href="#DejaVuSans-30" x="127.246094"/>
      </g>
     </g>
    </g>
    <g id="ytick_2">
     <g id="line2d_17">
      <path d="M 53.75 225.480349 
L 696.695789 225.480349 
" clip-path="url(#p49e954ce30)" style="fill: none; stroke: #b0b0b0; stroke-width: 0.8; stroke-linecap: square"/>
     </g>
     <g id="line2d_18">
      <g>
       <use xlink:href="#m3fdf0ec52c" x="53.75" y="225.480349" style="stroke: #000000; stroke-width: 0.8"/>
      </g>
     </g>
     <g id="text_10">
      <!-- 300 -->
      <g transform="translate(27.6625 229.279568) scale(0.1 -0.1)">
       <use xlink:href="#DejaVuSans-33"/>
       <use xlink:href="#DejaVuSans-30" x="63.623047"/>
       <use xlink:href="#DejaVuSans-30" x="127.246094"/>
      </g>
     </g>
    </g>
    <g id="ytick_3">
     <g id="line2d_19">
      <path d="M 53.75 195.28731 
L 696.695789 195.28731 
" clip-path="url(#p49e954ce30)" style="fill: none; stroke: #b0b0b0; stroke-width: 0.8; stroke-linecap: square"/>
     </g>
     <g id="line2d_20">
      <g>
       <use xlink:href="#m3fdf0ec52c" x="53.75" y="195.28731" style="stroke: #000000; stroke-width: 0.8"/>
      </g>
     </g>
     <g id="text_11">
      <!-- 400 -->
      <g transform="translate(27.6625 199.086529) scale(0.1 -0.1)">
       <use xlink:href="#DejaVuSans-34"/>
       <use xlink:href="#DejaVuSans-30" x="63.623047"/>
       <use xlink:href="#DejaVuSans-30" x="127.246094"/>
      </g>
     </g>
    </g>
    <g id="ytick_4">
     <g id="line2d_21">
      <path d="M 53.75 165.094271 
L 696.695789 165.094271 
" clip-path="url(#p49e954ce30)" style="fill: none; stroke: #b0b0b0; stroke-width: 0.8; stroke-linecap: square"/>
     </g>
     <g id="line2d_22">
      <g>
       <use xlink:href="#m3fdf0ec52c" x="53.75" y="165.094271" style="stroke: #000000; stroke-width: 0.8"/>
      </g>
     </g>
     <g id="text_12">
      <!-- 500 -->
      <g transform="translate(27.6625 168.89349) scale(0.1 -0.1)">
       <defs>
        <path id="DejaVuSans-35" d="M 691 4666 
L 3169 4666 
L 3169 4134 
L 1269 4134 
L 1269 2991 
Q 1406 3038 1543 3061 
Q 1681 3084 1819 3084 
Q 2600 3084 3056 2656 
Q 3513 2228 3513 1497 
Q 3513 744 3044 326 
Q 2575 -91 1722 -91 
Q 1428 -91 1123 -41 
Q 819 9 494 109 
L 494 744 
Q 775 591 1075 516 
Q 1375 441 1709 441 
Q 2250 441 2565 725 
Q 2881 1009 2881 1497 
Q 2881 1984 2565 2268 
Q 2250 2553 1709 2553 
Q 1456 2553 1204 2497 
Q 953 2441 691 2322 
L 691 4666 
z
" transform="scale(0.015625)"/>
       </defs>
       <use xlink:href="#DejaVuSans-35"/>
       <use xlink:href="#DejaVuSans-30" x="63.623047"/>
       <use xlink:href="#DejaVuSans-30" x="127.246094"/>
      </g>
     </g>
    </g>
    <g id="ytick_5">
     <g id="line2d_23">
      <path d="M 53.75 134.901232 
L 696.695789 134.901232 
" clip-path="url(#p49e954ce30)" style="fill: none; stroke: #b0b0b0; stroke-width: 0.8; stroke-linecap: square"/>
     </g>
     <g id="line2d_24">
      <g>
       <use xlink:href="#m3fdf0ec52c" x="53.75" y="134.901232" style="stroke: #000000; stroke-width: 0.8"/>
      </g>
     </g>
     <g id="text_13">
      <!-- 600 -->
      <g transform="translate(27.6625 138.700451) scale(0.1 -0.1)">
       <defs>
        <path id="DejaVuSans-36" d="M 2113 2584 
Q 1688 2584 1439 2293 
Q 1191 2003 1191 1497 
Q 1191 994 1439 701 
Q 1688 409 2113 409 
Q 2538 409 2786 701 
Q 3034 994 3034 1497 
Q 3034 2003 2786 2293 
Q 2538 2584 2113 2584 
z
M 3366 4563 
L 3366 3988 
Q 3128 4100 2886 4159 
Q 2644 4219 2406 4219 
Q 1781 4219 1451 3797 
Q 1122 3375 1075 2522 
Q 1259 2794 1537 2939 
Q 1816 3084 2150 3084 
Q 2853 3084 3261 2657 
Q 3669 2231 3669 1497 
Q 3669 778 3244 343 
Q 2819 -91 2113 -91 
Q 1303 -91 875 529 
Q 447 1150 447 2328 
Q 447 3434 972 4092 
Q 1497 4750 2381 4750 
Q 2619 4750 2861 4703 
Q 3103 4656 3366 4563 
z
" transform="scale(0.015625)"/>
       </defs>
       <use xlink:href="#DejaVuSans-36"/>
       <use xlink:href="#DejaVuSans-30" x="63.623047"/>
       <use xlink:href="#DejaVuSans-30" x="127.246094"/>
      </g>
     </g>
    </g>
    <g id="ytick_6">
     <g id="line2d_25">
      <path d="M 53.75 104.708193 
L 696.695789 104.708193 
" clip-path="url(#p49e954ce30)" style="fill: none; stroke: #b0b0b0; stroke-width: 0.8; stroke-linecap: square"/>
     </g>
     <g id="line2d_26">
      <g>
       <use xlink:href="#m3fdf0ec52c" x="53.75" y="104.708193" style="stroke: #000000; stroke-width: 0.8"/>
      </g>
     </g>
     <g id="text_14">
      <!-- 700 -->
      <g transform="translate(27.6625 108.507412) scale(0.1 -0.1)">
       <defs>
        <path id="DejaVuSans-37" d="M 525 4666 
L 3525 4666 
L 3525 4397 
L 1831 0 
L 1172 0 
L 2766 4134 
L 525 4134 
L 525 4666 
z
" transform="scale(0.015625)"/>
       </defs>
       <use xlink:href="#DejaVuSans-37"/>
       <use xlink:href="#DejaVuSans-30" x="63.623047"/>
       <use xlink:href="#DejaVuSans-30" x="127.246094"/>
      </g>
     </g>
    </g>
    <g id="ytick_7">
     <g id="line2d_27">
      <path d="M 53.75 74.515154 
L 696.695789 74.515154 
" clip-path="url(#p49e954ce30)" style="fill: none; stroke: #b0b0b0; stroke-width: 0.8; stroke-linecap: square"/>
     </g>
     <g id="line2d_28">
      <g>
       <use xlink:href="#m3fdf0ec52c" x="53.75" y="74.515154" style="stroke: #000000; stroke-width: 0.8"/>
      </g>
     </g>
     <g id="text_15">
      <!-- 800 -->
      <g transform="translate(27.6625 78.314373) scale(0.1 -0.1)">
       <defs>
        <path id="DejaVuSans-38" d="M 2034 2216 
Q 1584 2216 1326 1975 
Q 1069 1734 1069 1313 
Q 1069 891 1326 650 
Q 1584 409 2034 409 
Q 2484 409 2743 651 
Q 3003 894 3003 1313 
Q 3003 1734 2745 1975 
Q 2488 2216 2034 2216 
z
M 1403 2484 
Q 997 2584 770 2862 
Q 544 3141 544 3541 
Q 544 4100 942 4425 
Q 1341 4750 2034 4750 
Q 2731 4750 3128 4425 
Q 3525 4100 3525 3541 
Q 3525 3141 3298 2862 
Q 3072 2584 2669 2484 
Q 3125 2378 3379 2068 
Q 3634 1759 3634 1313 
Q 3634 634 3220 271 
Q 2806 -91 2034 -91 
Q 1263 -91 848 271 
Q 434 634 434 1313 
Q 434 1759 690 2068 
Q 947 2378 1403 2484 
z
M 1172 3481 
Q 1172 3119 1398 2916 
Q 1625 2713 2034 2713 
Q 2441 2713 2670 2916 
Q 2900 3119 2900 3481 
Q 2900 3844 2670 4047 
Q 2441 4250 2034 4250 
Q 1625 4250 1398 4047 
Q 1172 3844 1172 3481 
z
" transform="scale(0.015625)"/>
       </defs>
       <use xlink:href="#DejaVuSans-38"/>
       <use xlink:href="#DejaVuSans-30" x="63.623047"/>
       <use xlink:href="#DejaVuSans-30" x="127.246094"/>
      </g>
     </g>
    </g>
    <g id="ytick_8">
     <g id="line2d_29">
      <path d="M 53.75 44.322115 
L 696.695789 44.322115 
" clip-path="url(#p49e954ce30)" style="fill: none; stroke: #b0b0b0; stroke-width: 0.8; stroke-linecap: square"/>
     </g>
     <g id="line2d_30">
      <g>
       <use xlink:href="#m3fdf0ec52c" x="53.75" y="44.322115" style="stroke: #000000; stroke-width: 0.8"/>
      </g>
     </g>
     <g id="text_16">
      <!-- 900 -->
      <g transform="translate(27.6625 48.121334) scale(0.1 -0.1)">
       <use xlink:href="#DejaVuSans-39"/>
       <use xlink:href="#DejaVuSans-30" x="63.623047"/>
       <use xlink:href="#DejaVuSans-30" x="127.246094"/>
      </g>
     </g>
    </g>
    <g id="text_17">
     <!-- Response Time (ms) -->
     <g transform="translate(21.166875 213.486139) rotate(-90) scale(0.12 -0.12)">
      <defs>
       <path id="DejaVuSans-52" d="M 2841 2188 
Q 3044 2119 3236 1894 
Q 3428 1669 3622 1275 
L 4263 0 
L 3584 0 
L 2988 1197 
Q 2756 1666 2539 1819 
Q 2322 1972 1947 1972 
L 1259 1972 
L 1259 0 
L 628 0 
L 628 4666 
L 2053 4666 
Q 2853 4666 3247 4331 
Q 3641 3997 3641 3322 
Q 3641 2881 3436 2590 
Q 3231 2300 2841 2188 
z
M 1259 4147 
L 1259 2491 
L 2053 2491 
Q 2509 2491 2742 2702 
Q 2975 2913 2975 3322 
Q 2975 3731 2742 3939 
Q 2509 4147 2053 4147 
L 1259 4147 
z
" transform="scale(0.015625)"/>
       <path id="DejaVuSans-73" d="M 2834 3397 
L 2834 2853 
Q 2591 2978 2328 3040 
Q 2066 3103 1784 3103 
Q 1356 3103 1142 2972 
Q 928 2841 928 2578 
Q 928 2378 1081 2264 
Q 1234 2150 1697 2047 
L 1894 2003 
Q 2506 1872 2764 1633 
Q 3022 1394 3022 966 
Q 3022 478 2636 193 
Q 2250 -91 1575 -91 
Q 1294 -91 989 -36 
Q 684 19 347 128 
L 347 722 
Q 666 556 975 473 
Q 1284 391 1588 391 
Q 1994 391 2212 530 
Q 2431 669 2431 922 
Q 2431 1156 2273 1281 
Q 2116 1406 1581 1522 
L 1381 1569 
Q 847 1681 609 1914 
Q 372 2147 372 2553 
Q 372 3047 722 3315 
Q 1072 3584 1716 3584 
Q 2034 3584 2315 3537 
Q 2597 3491 2834 3397 
z
" transform="scale(0.015625)"/>
       <path id="DejaVuSans-70" d="M 1159 525 
L 1159 -1331 
L 581 -1331 
L 581 3500 
L 1159 3500 
L 1159 2969 
Q 1341 3281 1617 3432 
Q 1894 3584 2278 3584 
Q 2916 3584 3314 3078 
Q 3713 2572 3713 1747 
Q 3713 922 3314 415 
Q 2916 -91 2278 -91 
Q 1894 -91 1617 61 
Q 1341 213 1159 525 
z
M 3116 1747 
Q 3116 2381 2855 2742 
Q 2594 3103 2138 3103 
Q 1681 3103 1420 2742 
Q 1159 2381 1159 1747 
Q 1159 1113 1420 752 
Q 1681 391 2138 391 
Q 2594 391 2855 752 
Q 3116 1113 3116 1747 
z
" transform="scale(0.015625)"/>
       <path id="DejaVuSans-6f" d="M 1959 3097 
Q 1497 3097 1228 2736 
Q 959 2375 959 1747 
Q 959 1119 1226 758 
Q 1494 397 1959 397 
Q 2419 397 2687 759 
Q 2956 1122 2956 1747 
Q 2956 2369 2687 2733 
Q 2419 3097 1959 3097 
z
M 1959 3584 
Q 2709 3584 3137 3096 
Q 3566 2609 3566 1747 
Q 3566 888 3137 398 
Q 2709 -91 1959 -91 
Q 1206 -91 779 398 
Q 353 888 353 1747 
Q 353 2609 779 3096 
Q 1206 3584 1959 3584 
z
" transform="scale(0.015625)"/>
       <path id="DejaVuSans-6e" d="M 3513 2113 
L 3513 0 
L 2938 0 
L 2938 2094 
Q 2938 2591 2744 2837 
Q 2550 3084 2163 3084 
Q 1697 3084 1428 2787 
Q 1159 2491 1159 1978 
L 1159 0 
L 581 0 
L 581 3500 
L 1159 3500 
L 1159 2956 
Q 1366 3272 1645 3428 
Q 1925 3584 2291 3584 
Q 2894 3584 3203 3211 
Q 3513 2838 3513 2113 
z
" transform="scale(0.015625)"/>
       <path id="DejaVuSans-20" transform="scale(0.015625)"/>
       <path id="DejaVuSans-28" d="M 1984 4856 
Q 1566 4138 1362 3434 
Q 1159 2731 1159 2009 
Q 1159 1288 1364 580 
Q 1569 -128 1984 -844 
L 1484 -844 
Q 1016 -109 783 600 
Q 550 1309 550 2009 
Q 550 2706 781 3412 
Q 1013 4119 1484 4856 
L 1984 4856 
z
" transform="scale(0.015625)"/>
       <path id="DejaVuSans-29" d="M 513 4856 
L 1013 4856 
Q 1481 4119 1714 3412 
Q 1947 2706 1947 2009 
Q 1947 1309 1714 600 
Q 1481 -109 1013 -844 
L 513 -844 
Q 928 -128 1133 580 
Q 1338 1288 1338 2009 
Q 1338 2731 1133 3434 
Q 928 4138 513 4856 
z
" transform="scale(0.015625)"/>
      </defs>
      <use xlink:href="#DejaVuSans-52"/>
      <use xlink:href="#DejaVuSans-65" x="64.982422"/>
      <use xlink:href="#DejaVuSans-73" x="126.505859"/>
      <use xlink:href="#DejaVuSans-70" x="178.605469"/>
      <use xlink:href="#DejaVuSans-6f" x="242.082031"/>
      <use xlink:href="#DejaVuSans-6e" x="303.263672"/>
      <use xlink:href="#DejaVuSans-73" x="366.642578"/>
      <use xlink:href="#DejaVuSans-65" x="418.742188"/>
      <use xlink:href="#DejaVuSans-20" x="480.265625"/>
      <use xlink:href="#DejaVuSans-54" x="512.052734"/>
      <use xlink:href="#DejaVuSans-69" x="570.011719"/>
      <use xlink:href="#DejaVuSans-6d" x="597.794922"/>
      <use xlink:href="#DejaVuSans-65" x="695.207031"/>
      <use xlink:href="#DejaVuSans-20" x="756.730469"/>
      <use xlink:href="#DejaVuSans-28" x="788.517578"/>
      <use xlink:href="#DejaVuSans-6d" x="827.53125"/>
      <use xlink:href="#DejaVuSans-73" x="924.943359"/>
      <use xlink:href="#DejaVuSans-29" x="977.042969"/>
     </g>
    </g>
   </g>
   <g id="line2d_31">
    <path d="M 82.974809 252.729567 
L 87.228602 251.295398 
L 91.44521 255.522423 
L 95.661219 254.767597 
L 100.011445 260.277827 
L 104.329901 261.938444 
L 108.608013 261.636513 
L 117.422115 253.635358 
L 121.4727 257.711418 
L 125.768591 257.786901 
L 130.134261 262.315857 
L 134.544662 263.448096 
L 151.647424 258.541727 
L 169.787643 255.069527 
L 174.674797 249.181885 
L 177.829151 251.37088 
L 181.839032 251.219915 
L 186.326693 240.954282 
L 190.463967 246.917407 
L 194.918257 240.576869 
L 199.180677 241.48266 
L 203.35998 255.14501 
L 207.571045 250.993467 
L 212.012603 252.427636 
L 216.302354 251.295398 
L 220.643125 249.483815 
L 224.853886 253.40891 
L 229.162154 253.861806 
L 237.879142 259.372035 
L 241.954745 260.353309 
L 246.486128 254.767597 
L 250.542928 253.559875 
L 254.837742 253.333428 
L 259.156437 254.163736 
L 263.538363 259.900414 
L 267.770775 266.089987 
L 273.26547 257.635936 
L 278.095408 252.880532 
L 281.199714 253.10698 
L 285.116951 248.502541 
L 289.291532 245.86065 
L 293.675236 251.67281 
L 297.932952 244.879377 
L 302.120444 238.840769 
L 306.433706 250.087676 
L 310.718716 242.765864 
L 315.003101 243.52069 
L 319.47326 246.087098 
L 323.786892 241.256212 
L 327.909671 247.59675 
L 332.293029 249.257367 
L 336.591193 247.747715 
L 345.170427 247.370302 
L 349.459911 241.860073 
L 353.784347 242.086521 
L 358.027475 246.841924 
L 362.247426 251.748293 
L 366.625451 249.936711 
L 370.891719 253.861806 
L 376.31324 256.201766 
L 381.395632 252.654084 
L 384.572777 259.900414 
L 388.408916 254.918562 
L 392.401561 257.334005 
L 396.752955 255.673388 
L 401.082711 252.503119 
L 405.276133 257.937866 
L 409.694846 258.013349 
L 413.872111 263.674544 
L 418.144029 261.410066 
L 422.517059 261.032653 
L 426.93238 256.956592 
L 431.043191 256.730145 
L 435.373183 261.938444 
L 439.753636 255.899836 
L 448.325948 255.069527 
L 452.554587 254.390184 
L 456.887164 256.126284 
L 461.14489 260.202344 
L 465.398478 260.428792 
L 469.702983 253.861806 
L 474.058613 256.579179 
L 479.236882 249.33285 
L 484.257587 249.559298 
L 487.515128 249.861228 
L 491.199526 251.67281 
L 495.504736 254.767597 
L 499.783389 244.350999 
L 504.143177 251.597328 
L 508.47584 244.879377 
L 512.838824 245.030342 
L 517.038542 255.597906 
L 521.662789 252.503119 
L 525.651288 246.238063 
L 530.060177 245.709685 
L 534.281968 239.44463 
L 538.460119 242.312968 
L 547.530041 247.898681 
L 551.530482 248.427059 
L 553.218458 249.785746 
L 559.849415 248.049646 
L 565.264128 245.25679 
L 568.62845 246.766442 
L 572.982674 246.766442 
L 577.307302 240.350421 
L 582.43875 247.219337 
L 587.186864 249.106402 
L 594.513349 246.238063 
L 598.715157 251.219915 
L 603.059813 249.936711 
L 607.29139 250.767019 
L 611.753552 248.502541 
L 615.958781 251.899258 
L 620.300644 256.277249 
L 624.544287 250.389606 
L 628.94514 254.616632 
L 633.346586 254.541149 
L 637.695785 248.351576 
L 646.04014 259.598483 
L 650.248183 259.673966 
L 654.659364 263.674544 
L 658.857945 263.825509 
L 663.234759 258.088831 
L 667.470981 255.14501 
L 667.470981 255.14501 
" clip-path="url(#p49e954ce30)" style="fill: none; stroke: #1f77b4; stroke-opacity: 0.5; stroke-width: 1.5; stroke-linecap: square"/>
    <defs>
     <path id="ma228492f1b" d="M 0 1 
C 0.265203 1 0.51958 0.894634 0.707107 0.707107 
C 0.894634 0.51958 1 0.265203 1 0 
C 1 -0.265203 0.894634 -0.51958 0.707107 -0.707107 
C 0.51958 -0.894634 0.265203 -1 0 -1 
C -0.265203 -1 -0.51958 -0.894634 -0.707107 -0.707107 
C -0.894634 -0.51958 -1 -0.265203 -1 0 
C -1 0.265203 -0.894634 0.51958 -0.707107 0.707107 
C -0.51958 0.894634 -0.265203 1 0 1 
z
" style="stroke: #1f77b4; stroke-opacity: 0.5"/>
    </defs>
    <g clip-path="url(#p49e954ce30)">
     <use xlink:href="#ma228492f1b" x="82.974809" y="252.729567" style="fill: #1f77b4; fill-opacity: 0.5; stroke: #1f77b4; stroke-opacity: 0.5"/>
     <use xlink:href="#ma228492f1b" x="87.228602" y="251.295398" style="fill: #1f77b4; fill-opacity: 0.5; stroke: #1f77b4; stroke-opacity: 0.5"/>
     <use xlink:href="#ma228492f1b" x="91.44521" y="255.522423" style="fill: #1f77b4; fill-opacity: 0.5; stroke: #1f77b4; stroke-opacity: 0.5"/>
     <use xlink:href="#ma228492f1b" x="95.661219" y="254.767597" style="fill: #1f77b4; fill-opacity: 0.5; stroke: #1f77b4; stroke-opacity: 0.5"/>
     <use xlink:href="#ma228492f1b" x="100.011445" y="260.277827" style="fill: #1f77b4; fill-opacity: 0.5; stroke: #1f77b4; stroke-opacity: 0.5"/>
     <use xlink:href="#ma228492f1b" x="104.329901" y="261.938444" style="fill: #1f77b4; fill-opacity: 0.5; stroke: #1f77b4; stroke-opacity: 0.5"/>
     <use xlink:href="#ma228492f1b" x="108.608013" y="261.636513" style="fill: #1f77b4; fill-opacity: 0.5; stroke: #1f77b4; stroke-opacity: 0.5"/>
     <use xlink:href="#ma228492f1b" x="113.057348" y="257.635936" style="fill: #1f77b4; fill-opacity: 0.5; stroke: #1f77b4; stroke-opacity: 0.5"/>
     <use xlink:href="#ma228492f1b" x="117.422115" y="253.635358" style="fill: #1f77b4; fill-opacity: 0.5; stroke: #1f77b4; stroke-opacity: 0.5"/>
     <use xlink:href="#ma228492f1b" x="121.4727" y="257.711418" style="fill: #1f77b4; fill-opacity: 0.5; stroke: #1f77b4; stroke-opacity: 0.5"/>
     <use xlink:href="#ma228492f1b" x="125.768591" y="257.786901" style="fill: #1f77b4; fill-opacity: 0.5; stroke: #1f77b4; stroke-opacity: 0.5"/>
     <use xlink:href="#ma228492f1b" x="130.134261" y="262.315857" style="fill: #1f77b4; fill-opacity: 0.5; stroke: #1f77b4; stroke-opacity: 0.5"/>
     <use xlink:href="#ma228492f1b" x="134.544662" y="263.448096" style="fill: #1f77b4; fill-opacity: 0.5; stroke: #1f77b4; stroke-opacity: 0.5"/>
     <use xlink:href="#ma228492f1b" x="151.647424" y="258.541727" style="fill: #1f77b4; fill-opacity: 0.5; stroke: #1f77b4; stroke-opacity: 0.5"/>
     <use xlink:href="#ma228492f1b" x="169.787643" y="255.069527" style="fill: #1f77b4; fill-opacity: 0.5; stroke: #1f77b4; stroke-opacity: 0.5"/>
     <use xlink:href="#ma228492f1b" x="174.674797" y="249.181885" style="fill: #1f77b4; fill-opacity: 0.5; stroke: #1f77b4; stroke-opacity: 0.5"/>
     <use xlink:href="#ma228492f1b" x="177.829151" y="251.37088" style="fill: #1f77b4; fill-opacity: 0.5; stroke: #1f77b4; stroke-opacity: 0.5"/>
     <use xlink:href="#ma228492f1b" x="181.839032" y="251.219915" style="fill: #1f77b4; fill-opacity: 0.5; stroke: #1f77b4; stroke-opacity: 0.5"/>
     <use xlink:href="#ma228492f1b" x="186.326693" y="240.954282" style="fill: #1f77b4; fill-opacity: 0.5; stroke: #1f77b4; stroke-opacity: 0.5"/>
     <use xlink:href="#ma228492f1b" x="190.463967" y="246.917407" style="fill: #1f77b4; fill-opacity: 0.5; stroke: #1f77b4; stroke-opacity: 0.5"/>
     <use xlink:href="#ma228492f1b" x="194.918257" y="240.576869" style="fill: #1f77b4; fill-opacity: 0.5; stroke: #1f77b4; stroke-opacity: 0.5"/>
     <use xlink:href="#ma228492f1b" x="199.180677" y="241.48266" style="fill: #1f77b4; fill-opacity: 0.5; stroke: #1f77b4; stroke-opacity: 0.5"/>
     <use xlink:href="#ma228492f1b" x="203.35998" y="255.14501" style="fill: #1f77b4; fill-opacity: 0.5; stroke: #1f77b4; stroke-opacity: 0.5"/>
     <use xlink:href="#ma228492f1b" x="207.571045" y="250.993467" style="fill: #1f77b4; fill-opacity: 0.5; stroke: #1f77b4; stroke-opacity: 0.5"/>
     <use xlink:href="#ma228492f1b" x="212.012603" y="252.427636" style="fill: #1f77b4; fill-opacity: 0.5; stroke: #1f77b4; stroke-opacity: 0.5"/>
     <use xlink:href="#ma228492f1b" x="216.302354" y="251.295398" style="fill: #1f77b4; fill-opacity: 0.5; stroke: #1f77b4; stroke-opacity: 0.5"/>
     <use xlink:href="#ma228492f1b" x="220.643125" y="249.483815" style="fill: #1f77b4; fill-opacity: 0.5; stroke: #1f77b4; stroke-opacity: 0.5"/>
     <use xlink:href="#ma228492f1b" x="224.853886" y="253.40891" style="fill: #1f77b4; fill-opacity: 0.5; stroke: #1f77b4; stroke-opacity: 0.5"/>
     <use xlink:href="#ma228492f1b" x="229.162154" y="253.861806" style="fill: #1f77b4; fill-opacity: 0.5; stroke: #1f77b4; stroke-opacity: 0.5"/>
     <use xlink:href="#ma228492f1b" x="237.879142" y="259.372035" style="fill: #1f77b4; fill-opacity: 0.5; stroke: #1f77b4; stroke-opacity: 0.5"/>
     <use xlink:href="#ma228492f1b" x="241.954745" y="260.353309" style="fill: #1f77b4; fill-opacity: 0.5; stroke: #1f77b4; stroke-opacity: 0.5"/>
     <use xlink:href="#ma228492f1b" x="246.486128" y="254.767597" style="fill: #1f77b4; fill-opacity: 0.5; stroke: #1f77b4; stroke-opacity: 0.5"/>
     <use xlink:href="#ma228492f1b" x="250.542928" y="253.559875" style="fill: #1f77b4; fill-opacity: 0.5; stroke: #1f77b4; stroke-opacity: 0.5"/>
     <use xlink:href="#ma228492f1b" x="254.837742" y="253.333428" style="fill: #1f77b4; fill-opacity: 0.5; stroke: #1f77b4; stroke-opacity: 0.5"/>
     <use xlink:href="#ma228492f1b" x="259.156437" y="254.163736" style="fill: #1f77b4; fill-opacity: 0.5; stroke: #1f77b4; stroke-opacity: 0.5"/>
     <use xlink:href="#ma228492f1b" x="263.538363" y="259.900414" style="fill: #1f77b4; fill-opacity: 0.5; stroke: #1f77b4; stroke-opacity: 0.5"/>
     <use xlink:href="#ma228492f1b" x="267.770775" y="266.089987" style="fill: #1f77b4; fill-opacity: 0.5; stroke: #1f77b4; stroke-opacity: 0.5"/>
     <use xlink:href="#ma228492f1b" x="273.26547" y="257.635936" style="fill: #1f77b4; fill-opacity: 0.5; stroke: #1f77b4; stroke-opacity: 0.5"/>
     <use xlink:href="#ma228492f1b" x="278.095408" y="252.880532" style="fill: #1f77b4; fill-opacity: 0.5; stroke: #1f77b4; stroke-opacity: 0.5"/>
     <use xlink:href="#ma228492f1b" x="281.199714" y="253.10698" style="fill: #1f77b4; fill-opacity: 0.5; stroke: #1f77b4; stroke-opacity: 0.5"/>
     <use xlink:href="#ma228492f1b" x="285.116951" y="248.502541" style="fill: #1f77b4; fill-opacity: 0.5; stroke: #1f77b4; stroke-opacity: 0.5"/>
     <use xlink:href="#ma228492f1b" x="289.291532" y="245.86065" style="fill: #1f77b4; fill-opacity: 0.5; stroke: #1f77b4; stroke-opacity: 0.5"/>
     <use xlink:href="#ma228492f1b" x="293.675236" y="251.67281" style="fill: #1f77b4; fill-opacity: 0.5; stroke: #1f77b4; stroke-opacity: 0.5"/>
     <use xlink:href="#ma228492f1b" x="297.932952" y="244.879377" style="fill: #1f77b4; fill-opacity: 0.5; stroke: #1f77b4; stroke-opacity: 0.5"/>
     <use xlink:href="#ma228492f1b" x="302.120444" y="238.840769" style="fill: #1f77b4; fill-opacity: 0.5; stroke: #1f77b4; stroke-opacity: 0.5"/>
     <use xlink:href="#ma228492f1b" x="306.433706" y="250.087676" style="fill: #1f77b4; fill-opacity: 0.5; stroke: #1f77b4; stroke-opacity: 0.5"/>
     <use xlink:href="#ma228492f1b" x="310.718716" y="242.765864" style="fill: #1f77b4; fill-opacity: 0.5; stroke: #1f77b4; stroke-opacity: 0.5"/>
     <use xlink:href="#ma228492f1b" x="315.003101" y="243.52069" style="fill: #1f77b4; fill-opacity: 0.5; stroke: #1f77b4; stroke-opacity: 0.5"/>
     <use xlink:href="#ma228492f1b" x="319.47326" y="246.087098" style="fill: #1f77b4; fill-opacity: 0.5; stroke: #1f77b4; stroke-opacity: 0.5"/>
     <use xlink:href="#ma228492f1b" x="323.786892" y="241.256212" style="fill: #1f77b4; fill-opacity: 0.5; stroke: #1f77b4; stroke-opacity: 0.5"/>
     <use xlink:href="#ma228492f1b" x="327.909671" y="247.59675" style="fill: #1f77b4; fill-opacity: 0.5; stroke: #1f77b4; stroke-opacity: 0.5"/>
     <use xlink:href="#ma228492f1b" x="332.293029" y="249.257367" style="fill: #1f77b4; fill-opacity: 0.5; stroke: #1f77b4; stroke-opacity: 0.5"/>
     <use xlink:href="#ma228492f1b" x="336.591193" y="247.747715" style="fill: #1f77b4; fill-opacity: 0.5; stroke: #1f77b4; stroke-opacity: 0.5"/>
     <use xlink:href="#ma228492f1b" x="345.170427" y="247.370302" style="fill: #1f77b4; fill-opacity: 0.5; stroke: #1f77b4; stroke-opacity: 0.5"/>
     <use xlink:href="#ma228492f1b" x="349.459911" y="241.860073" style="fill: #1f77b4; fill-opacity: 0.5; stroke: #1f77b4; stroke-opacity: 0.5"/>
     <use xlink:href="#ma228492f1b" x="353.784347" y="242.086521" style="fill: #1f77b4; fill-opacity: 0.5; stroke: #1f77b4; stroke-opacity: 0.5"/>
     <use xlink:href="#ma228492f1b" x="358.027475" y="246.841924" style="fill: #1f77b4; fill-opacity: 0.5; stroke: #1f77b4; stroke-opacity: 0.5"/>
     <use xlink:href="#ma228492f1b" x="362.247426" y="251.748293" style="fill: #1f77b4; fill-opacity: 0.5; stroke: #1f77b4; stroke-opacity: 0.5"/>
     <use xlink:href="#ma228492f1b" x="366.625451" y="249.936711" style="fill: #1f77b4; fill-opacity: 0.5; stroke: #1f77b4; stroke-opacity: 0.5"/>
     <use xlink:href="#ma228492f1b" x="370.891719" y="253.861806" style="fill: #1f77b4; fill-opacity: 0.5; stroke: #1f77b4; stroke-opacity: 0.5"/>
     <use xlink:href="#ma228492f1b" x="376.31324" y="256.201766" style="fill: #1f77b4; fill-opacity: 0.5; stroke: #1f77b4; stroke-opacity: 0.5"/>
     <use xlink:href="#ma228492f1b" x="381.395632" y="252.654084" style="fill: #1f77b4; fill-opacity: 0.5; stroke: #1f77b4; stroke-opacity: 0.5"/>
     <use xlink:href="#ma228492f1b" x="384.572777" y="259.900414" style="fill: #1f77b4; fill-opacity: 0.5; stroke: #1f77b4; stroke-opacity: 0.5"/>
     <use xlink:href="#ma228492f1b" x="388.408916" y="254.918562" style="fill: #1f77b4; fill-opacity: 0.5; stroke: #1f77b4; stroke-opacity: 0.5"/>
     <use xlink:href="#ma228492f1b" x="392.401561" y="257.334005" style="fill: #1f77b4; fill-opacity: 0.5; stroke: #1f77b4; stroke-opacity: 0.5"/>
     <use xlink:href="#ma228492f1b" x="396.752955" y="255.673388" style="fill: #1f77b4; fill-opacity: 0.5; stroke: #1f77b4; stroke-opacity: 0.5"/>
     <use xlink:href="#ma228492f1b" x="401.082711" y="252.503119" style="fill: #1f77b4; fill-opacity: 0.5; stroke: #1f77b4; stroke-opacity: 0.5"/>
     <use xlink:href="#ma228492f1b" x="405.276133" y="257.937866" style="fill: #1f77b4; fill-opacity: 0.5; stroke: #1f77b4; stroke-opacity: 0.5"/>
     <use xlink:href="#ma228492f1b" x="409.694846" y="258.013349" style="fill: #1f77b4; fill-opacity: 0.5; stroke: #1f77b4; stroke-opacity: 0.5"/>
     <use xlink:href="#ma228492f1b" x="413.872111" y="263.674544" style="fill: #1f77b4; fill-opacity: 0.5; stroke: #1f77b4; stroke-opacity: 0.5"/>
     <use xlink:href="#ma228492f1b" x="418.144029" y="261.410066" style="fill: #1f77b4; fill-opacity: 0.5; stroke: #1f77b4; stroke-opacity: 0.5"/>
     <use xlink:href="#ma228492f1b" x="422.517059" y="261.032653" style="fill: #1f77b4; fill-opacity: 0.5; stroke: #1f77b4; stroke-opacity: 0.5"/>
     <use xlink:href="#ma228492f1b" x="426.93238" y="256.956592" style="fill: #1f77b4; fill-opacity: 0.5; stroke: #1f77b4; stroke-opacity: 0.5"/>
     <use xlink:href="#ma228492f1b" x="431.043191" y="256.730145" style="fill: #1f77b4; fill-opacity: 0.5; stroke: #1f77b4; stroke-opacity: 0.5"/>
     <use xlink:href="#ma228492f1b" x="435.373183" y="261.938444" style="fill: #1f77b4; fill-opacity: 0.5; stroke: #1f77b4; stroke-opacity: 0.5"/>
     <use xlink:href="#ma228492f1b" x="439.753636" y="255.899836" style="fill: #1f77b4; fill-opacity: 0.5; stroke: #1f77b4; stroke-opacity: 0.5"/>
     <use xlink:href="#ma228492f1b" x="444.077538" y="255.522423" style="fill: #1f77b4; fill-opacity: 0.5; stroke: #1f77b4; stroke-opacity: 0.5"/>
     <use xlink:href="#ma228492f1b" x="448.325948" y="255.069527" style="fill: #1f77b4; fill-opacity: 0.5; stroke: #1f77b4; stroke-opacity: 0.5"/>
     <use xlink:href="#ma228492f1b" x="452.554587" y="254.390184" style="fill: #1f77b4; fill-opacity: 0.5; stroke: #1f77b4; stroke-opacity: 0.5"/>
     <use xlink:href="#ma228492f1b" x="456.887164" y="256.126284" style="fill: #1f77b4; fill-opacity: 0.5; stroke: #1f77b4; stroke-opacity: 0.5"/>
     <use xlink:href="#ma228492f1b" x="461.14489" y="260.202344" style="fill: #1f77b4; fill-opacity: 0.5; stroke: #1f77b4; stroke-opacity: 0.5"/>
     <use xlink:href="#ma228492f1b" x="465.398478" y="260.428792" style="fill: #1f77b4; fill-opacity: 0.5; stroke: #1f77b4; stroke-opacity: 0.5"/>
     <use xlink:href="#ma228492f1b" x="469.702983" y="253.861806" style="fill: #1f77b4; fill-opacity: 0.5; stroke: #1f77b4; stroke-opacity: 0.5"/>
     <use xlink:href="#ma228492f1b" x="474.058613" y="256.579179" style="fill: #1f77b4; fill-opacity: 0.5; stroke: #1f77b4; stroke-opacity: 0.5"/>
     <use xlink:href="#ma228492f1b" x="479.236882" y="249.33285" style="fill: #1f77b4; fill-opacity: 0.5; stroke: #1f77b4; stroke-opacity: 0.5"/>
     <use xlink:href="#ma228492f1b" x="484.257587" y="249.559298" style="fill: #1f77b4; fill-opacity: 0.5; stroke: #1f77b4; stroke-opacity: 0.5"/>
     <use xlink:href="#ma228492f1b" x="487.515128" y="249.861228" style="fill: #1f77b4; fill-opacity: 0.5; stroke: #1f77b4; stroke-opacity: 0.5"/>
     <use xlink:href="#ma228492f1b" x="491.199526" y="251.67281" style="fill: #1f77b4; fill-opacity: 0.5; stroke: #1f77b4; stroke-opacity: 0.5"/>
     <use xlink:href="#ma228492f1b" x="495.504736" y="254.767597" style="fill: #1f77b4; fill-opacity: 0.5; stroke: #1f77b4; stroke-opacity: 0.5"/>
     <use xlink:href="#ma228492f1b" x="499.783389" y="244.350999" style="fill: #1f77b4; fill-opacity: 0.5; stroke: #1f77b4; stroke-opacity: 0.5"/>
     <use xlink:href="#ma228492f1b" x="504.143177" y="251.597328" style="fill: #1f77b4; fill-opacity: 0.5; stroke: #1f77b4; stroke-opacity: 0.5"/>
     <use xlink:href="#ma228492f1b" x="508.47584" y="244.879377" style="fill: #1f77b4; fill-opacity: 0.5; stroke: #1f77b4; stroke-opacity: 0.5"/>
     <use xlink:href="#ma228492f1b" x="512.838824" y="245.030342" style="fill: #1f77b4; fill-opacity: 0.5; stroke: #1f77b4; stroke-opacity: 0.5"/>
     <use xlink:href="#ma228492f1b" x="517.038542" y="255.597906" style="fill: #1f77b4; fill-opacity: 0.5; stroke: #1f77b4; stroke-opacity: 0.5"/>
     <use xlink:href="#ma228492f1b" x="521.662789" y="252.503119" style="fill: #1f77b4; fill-opacity: 0.5; stroke: #1f77b4; stroke-opacity: 0.5"/>
     <use xlink:href="#ma228492f1b" x="525.651288" y="246.238063" style="fill: #1f77b4; fill-opacity: 0.5; stroke: #1f77b4; stroke-opacity: 0.5"/>
     <use xlink:href="#ma228492f1b" x="530.060177" y="245.709685" style="fill: #1f77b4; fill-opacity: 0.5; stroke: #1f77b4; stroke-opacity: 0.5"/>
     <use xlink:href="#ma228492f1b" x="534.281968" y="239.44463" style="fill: #1f77b4; fill-opacity: 0.5; stroke: #1f77b4; stroke-opacity: 0.5"/>
     <use xlink:href="#ma228492f1b" x="538.460119" y="242.312968" style="fill: #1f77b4; fill-opacity: 0.5; stroke: #1f77b4; stroke-opacity: 0.5"/>
     <use xlink:href="#ma228492f1b" x="547.530041" y="247.898681" style="fill: #1f77b4; fill-opacity: 0.5; stroke: #1f77b4; stroke-opacity: 0.5"/>
     <use xlink:href="#ma228492f1b" x="551.530482" y="248.427059" style="fill: #1f77b4; fill-opacity: 0.5; stroke: #1f77b4; stroke-opacity: 0.5"/>
     <use xlink:href="#ma228492f1b" x="553.218458" y="249.785746" style="fill: #1f77b4; fill-opacity: 0.5; stroke: #1f77b4; stroke-opacity: 0.5"/>
     <use xlink:href="#ma228492f1b" x="559.849415" y="248.049646" style="fill: #1f77b4; fill-opacity: 0.5; stroke: #1f77b4; stroke-opacity: 0.5"/>
     <use xlink:href="#ma228492f1b" x="565.264128" y="245.25679" style="fill: #1f77b4; fill-opacity: 0.5; stroke: #1f77b4; stroke-opacity: 0.5"/>
     <use xlink:href="#ma228492f1b" x="568.62845" y="246.766442" style="fill: #1f77b4; fill-opacity: 0.5; stroke: #1f77b4; stroke-opacity: 0.5"/>
     <use xlink:href="#ma228492f1b" x="572.982674" y="246.766442" style="fill: #1f77b4; fill-opacity: 0.5; stroke: #1f77b4; stroke-opacity: 0.5"/>
     <use xlink:href="#ma228492f1b" x="577.307302" y="240.350421" style="fill: #1f77b4; fill-opacity: 0.5; stroke: #1f77b4; stroke-opacity: 0.5"/>
     <use xlink:href="#ma228492f1b" x="582.43875" y="247.219337" style="fill: #1f77b4; fill-opacity: 0.5; stroke: #1f77b4; stroke-opacity: 0.5"/>
     <use xlink:href="#ma228492f1b" x="587.186864" y="249.106402" style="fill: #1f77b4; fill-opacity: 0.5; stroke: #1f77b4; stroke-opacity: 0.5"/>
     <use xlink:href="#ma228492f1b" x="594.513349" y="246.238063" style="fill: #1f77b4; fill-opacity: 0.5; stroke: #1f77b4; stroke-opacity: 0.5"/>
     <use xlink:href="#ma228492f1b" x="598.715157" y="251.219915" style="fill: #1f77b4; fill-opacity: 0.5; stroke: #1f77b4; stroke-opacity: 0.5"/>
     <use xlink:href="#ma228492f1b" x="603.059813" y="249.936711" style="fill: #1f77b4; fill-opacity: 0.5; stroke: #1f77b4; stroke-opacity: 0.5"/>
     <use xlink:href="#ma228492f1b" x="607.29139" y="250.767019" style="fill: #1f77b4; fill-opacity: 0.5; stroke: #1f77b4; stroke-opacity: 0.5"/>
     <use xlink:href="#ma228492f1b" x="611.753552" y="248.502541" style="fill: #1f77b4; fill-opacity: 0.5; stroke: #1f77b4; stroke-opacity: 0.5"/>
     <use xlink:href="#ma228492f1b" x="615.958781" y="251.899258" style="fill: #1f77b4; fill-opacity: 0.5; stroke: #1f77b4; stroke-opacity: 0.5"/>
     <use xlink:href="#ma228492f1b" x="620.300644" y="256.277249" style="fill: #1f77b4; fill-opacity: 0.5; stroke: #1f77b4; stroke-opacity: 0.5"/>
     <use xlink:href="#ma228492f1b" x="624.544287" y="250.389606" style="fill: #1f77b4; fill-opacity: 0.5; stroke: #1f77b4; stroke-opacity: 0.5"/>
     <use xlink:href="#ma228492f1b" x="628.94514" y="254.616632" style="fill: #1f77b4; fill-opacity: 0.5; stroke: #1f77b4; stroke-opacity: 0.5"/>
     <use xlink:href="#ma228492f1b" x="633.346586" y="254.541149" style="fill: #1f77b4; fill-opacity: 0.5; stroke: #1f77b4; stroke-opacity: 0.5"/>
     <use xlink:href="#ma228492f1b" x="637.695785" y="248.351576" style="fill: #1f77b4; fill-opacity: 0.5; stroke: #1f77b4; stroke-opacity: 0.5"/>
     <use xlink:href="#ma228492f1b" x="641.611146" y="253.710841" style="fill: #1f77b4; fill-opacity: 0.5; stroke: #1f77b4; stroke-opacity: 0.5"/>
     <use xlink:href="#ma228492f1b" x="646.04014" y="259.598483" style="fill: #1f77b4; fill-opacity: 0.5; stroke: #1f77b4; stroke-opacity: 0.5"/>
     <use xlink:href="#ma228492f1b" x="650.248183" y="259.673966" style="fill: #1f77b4; fill-opacity: 0.5; stroke: #1f77b4; stroke-opacity: 0.5"/>
     <use xlink:href="#ma228492f1b" x="654.659364" y="263.674544" style="fill: #1f77b4; fill-opacity: 0.5; stroke: #1f77b4; stroke-opacity: 0.5"/>
     <use xlink:href="#ma228492f1b" x="658.857945" y="263.825509" style="fill: #1f77b4; fill-opacity: 0.5; stroke: #1f77b4; stroke-opacity: 0.5"/>
     <use xlink:href="#ma228492f1b" x="663.234759" y="258.088831" style="fill: #1f77b4; fill-opacity: 0.5; stroke: #1f77b4; stroke-opacity: 0.5"/>
     <use xlink:href="#ma228492f1b" x="667.470981" y="255.14501" style="fill: #1f77b4; fill-opacity: 0.5; stroke: #1f77b4; stroke-opacity: 0.5"/>
    </g>
   </g>
   <g id="line2d_32">
    <path d="M 194.918257 253.673099 
L 199.180677 253.69826 
L 203.35998 254.352443 
L 207.571045 253.635358 
L 216.302354 253.69826 
L 220.643125 253.346008 
L 224.853886 253.40891 
L 229.162154 252.553441 
L 237.879142 253.270525 
L 246.486128 252.930854 
L 250.542928 252.54086 
L 263.538363 252.52828 
L 267.770775 252.981176 
L 273.26547 252.389895 
L 278.095408 252.163447 
L 281.199714 253.182462 
L 285.116951 252.503119 
L 289.291532 251.496684 
L 293.675236 253.949869 
L 297.932952 252.842791 
L 302.120444 252.213769 
L 306.433706 252.930854 
L 310.718716 251.886678 
L 315.003101 251.597328 
L 319.47326 251.157013 
L 323.786892 251.257656 
L 327.909671 251.572167 
L 332.293029 250.905404 
L 336.591193 250.137998 
L 345.170427 249.257367 
L 349.459911 248.489961 
L 358.027475 249.018339 
L 362.247426 248.993178 
L 366.625451 247.785457 
L 370.891719 247.785457 
L 376.31324 247.370302 
L 381.395632 248.16287 
L 384.572777 248.955437 
L 388.408916 248.087387 
L 392.401561 248.842213 
L 396.752955 249.798326 
L 401.082711 249.093822 
L 405.276133 250.263802 
L 409.694846 252.037643 
L 413.872111 252.062804 
L 418.144029 252.201189 
L 422.517059 253.182462 
L 426.93238 253.849225 
L 431.043191 254.641793 
L 435.373183 254.591471 
L 439.753636 254.289541 
L 448.325948 255.924997 
L 452.554587 256.679823 
L 456.887164 256.629501 
L 461.14489 257.371747 
L 469.702983 257.334005 
L 474.058613 257.082397 
L 479.236882 256.226927 
L 484.257587 256.855949 
L 487.515128 255.660808 
L 491.199526 256.541438 
L 499.783389 254.968884 
L 504.143177 255.509843 
L 508.47584 254.365023 
L 512.838824 253.635358 
L 517.038542 253.622778 
L 521.662789 254.025351 
L 525.651288 251.899258 
L 530.060177 251.760874 
L 534.281968 250.741858 
L 538.460119 250.754439 
L 551.530482 250.578313 
L 553.218458 249.861228 
L 559.849415 249.697683 
L 565.264128 248.75415 
L 568.62845 248.338996 
L 572.982674 247.58417 
L 582.43875 247.194176 
L 587.186864 248.301254 
L 594.513349 247.030631 
L 598.715157 247.672233 
L 603.059813 246.904826 
L 607.29139 247.634492 
L 615.958781 247.722555 
L 620.300644 248.804472 
L 624.544287 248.527702 
L 628.94514 247.559009 
L 633.346586 248.062226 
L 637.695785 249.156724 
L 641.611146 249.861228 
L 646.04014 250.917985 
L 650.248183 250.955726 
L 654.659364 251.786034 
L 658.857945 252.427636 
L 667.470981 252.138287 
L 667.470981 252.138287 
" clip-path="url(#p49e954ce30)" style="fill: none; stroke: #ff7f0e; stroke-width: 1.5; stroke-linecap: square"/>
   </g>
   <g id="line2d_33">
    <path d="M 53.75 38.956666 
L 696.695789 38.956666 
" clip-path="url(#p49e954ce30)" style="fill: none; stroke-dasharray: 5.55,2.4; stroke-dashoffset: 0; stroke: #ff0000; stroke-width: 1.5"/>
   </g>
   <g id="patch_3">
    <path d="M 53.75 277.446653 
L 53.75 27.6 
" style="fill: none; stroke: #000000; stroke-width: 0.8; stroke-linejoin: miter; stroke-linecap: square"/>
   </g>
   <g id="patch_4">
    <path d="M 696.695789 277.446653 
L 696.695789 27.6 
" style="fill: none; stroke: #000000; stroke-width: 0.8; stroke-linejoin: miter; stroke-linecap: square"/>
   </g>
   <g id="patch_5">
    <path d="M 53.75 277.446653 
L 696.695789 277.446653 
" style="fill: none; stroke: #000000; stroke-width: 0.8; stroke-linejoin: miter; stroke-linecap: square"/>
   </g>
   <g id="patch_6">
    <path d="M 53.75 27.6 
L 696.695789 27.6 
" style="fill: none; stroke: #000000; stroke-width: 0.8; stroke-linejoin: miter; stroke-linecap: square"/>
   </g>
   <g id="text_18">
    <!-- Response Time Over Time for https://api.customer.io (4-Hour and 24-Hour Rolling Averages) -->
    <g transform="translate(53.164926 21.6) scale(0.14 -0.14)">
     <defs>
      <path id="DejaVuSans-4f" d="M 2522 4238 
Q 1834 4238 1429 3725 
Q 1025 3213 1025 2328 
Q 1025 1447 1429 934 
Q 1834 422 2522 422 
Q 3209 422 3611 934 
Q 4013 1447 4013 2328 
Q 4013 3213 3611 3725 
Q 3209 4238 2522 4238 
z
M 2522 4750 
Q 3503 4750 4090 4092 
Q 4678 3434 4678 2328 
Q 4678 1225 4090 567 
Q 3503 -91 2522 -91 
Q 1538 -91 948 565 
Q 359 1222 359 2328 
Q 359 3434 948 4092 
Q 1538 4750 2522 4750 
z
" transform="scale(0.015625)"/>
      <path id="DejaVuSans-76" d="M 191 3500 
L 800 3500 
L 1894 563 
L 2988 3500 
L 3597 3500 
L 2284 0 
L 1503 0 
L 191 3500 
z
" transform="scale(0.015625)"/>
      <path id="DejaVuSans-72" d="M 2631 2963 
Q 2534 3019 2420 3045 
Q 2306 3072 2169 3072 
Q 1681 3072 1420 2755 
Q 1159 2438 1159 1844 
L 1159 0 
L 581 0 
L 581 3500 
L 1159 3500 
L 1159 2956 
Q 1341 3275 1631 3429 
Q 1922 3584 2338 3584 
Q 2397 3584 2469 3576 
Q 2541 3569 2628 3553 
L 2631 2963 
z
" transform="scale(0.015625)"/>
      <path id="DejaVuSans-66" d="M 2375 4863 
L 2375 4384 
L 1825 4384 
Q 1516 4384 1395 4259 
Q 1275 4134 1275 3809 
L 1275 3500 
L 2222 3500 
L 2222 3053 
L 1275 3053 
L 1275 0 
L 697 0 
L 697 3053 
L 147 3053 
L 147 3500 
L 697 3500 
L 697 3744 
Q 697 4328 969 4595 
Q 1241 4863 1831 4863 
L 2375 4863 
z
" transform="scale(0.015625)"/>
      <path id="DejaVuSans-68" d="M 3513 2113 
L 3513 0 
L 2938 0 
L 2938 2094 
Q 2938 2591 2744 2837 
Q 2550 3084 2163 3084 
Q 1697 3084 1428 2787 
Q 1159 2491 1159 1978 
L 1159 0 
L 581 0 
L 581 4863 
L 1159 4863 
L 1159 2956 
Q 1366 3272 1645 3428 
Q 1925 3584 2291 3584 
Q 2894 3584 3203 3211 
Q 3513 2838 3513 2113 
z
" transform="scale(0.015625)"/>
      <path id="DejaVuSans-74" d="M 1172 4494 
L 1172 3500 
L 2356 3500 
L 2356 3053 
L 1172 3053 
L 1172 1153 
Q 1172 725 1289 603 
Q 1406 481 1766 481 
L 2356 481 
L 2356 0 
L 1766 0 
Q 1100 0 847 248 
Q 594 497 594 1153 
L 594 3053 
L 172 3053 
L 172 3500 
L 594 3500 
L 594 4494 
L 1172 4494 
z
" transform="scale(0.015625)"/>
      <path id="DejaVuSans-3a" d="M 750 794 
L 1409 794 
L 1409 0 
L 750 0 
L 750 794 
z
M 750 3309 
L 1409 3309 
L 1409 2516 
L 750 2516 
L 750 3309 
z
" transform="scale(0.015625)"/>
      <path id="DejaVuSans-2f" d="M 1625 4666 
L 2156 4666 
L 531 -594 
L 0 -594 
L 1625 4666 
z
" transform="scale(0.015625)"/>
      <path id="DejaVuSans-61" d="M 2194 1759 
Q 1497 1759 1228 1600 
Q 959 1441 959 1056 
Q 959 750 1161 570 
Q 1363 391 1709 391 
Q 2188 391 2477 730 
Q 2766 1069 2766 1631 
L 2766 1759 
L 2194 1759 
z
M 3341 1997 
L 3341 0 
L 2766 0 
L 2766 531 
Q 2569 213 2275 61 
Q 1981 -91 1556 -91 
Q 1019 -91 701 211 
Q 384 513 384 1019 
Q 384 1609 779 1909 
Q 1175 2209 1959 2209 
L 2766 2209 
L 2766 2266 
Q 2766 2663 2505 2880 
Q 2244 3097 1772 3097 
Q 1472 3097 1187 3025 
Q 903 2953 641 2809 
L 641 3341 
Q 956 3463 1253 3523 
Q 1550 3584 1831 3584 
Q 2591 3584 2966 3190 
Q 3341 2797 3341 1997 
z
" transform="scale(0.015625)"/>
      <path id="DejaVuSans-2e" d="M 684 794 
L 1344 794 
L 1344 0 
L 684 0 
L 684 794 
z
" transform="scale(0.015625)"/>
      <path id="DejaVuSans-63" d="M 3122 3366 
L 3122 2828 
Q 2878 2963 2633 3030 
Q 2388 3097 2138 3097 
Q 1578 3097 1268 2742 
Q 959 2388 959 1747 
Q 959 1106 1268 751 
Q 1578 397 2138 397 
Q 2388 397 2633 464 
Q 2878 531 3122 666 
L 3122 134 
Q 2881 22 2623 -34 
Q 2366 -91 2075 -91 
Q 1284 -91 818 406 
Q 353 903 353 1747 
Q 353 2603 823 3093 
Q 1294 3584 2113 3584 
Q 2378 3584 2631 3529 
Q 2884 3475 3122 3366 
z
" transform="scale(0.015625)"/>
      <path id="DejaVuSans-75" d="M 544 1381 
L 544 3500 
L 1119 3500 
L 1119 1403 
Q 1119 906 1312 657 
Q 1506 409 1894 409 
Q 2359 409 2629 706 
Q 2900 1003 2900 1516 
L 2900 3500 
L 3475 3500 
L 3475 0 
L 2900 0 
L 2900 538 
Q 2691 219 2414 64 
Q 2138 -91 1772 -91 
Q 1169 -91 856 284 
Q 544 659 544 1381 
z
M 1991 3584 
L 1991 3584 
z
" transform="scale(0.015625)"/>
      <path id="DejaVuSans-48" d="M 628 4666 
L 1259 4666 
L 1259 2753 
L 3553 2753 
L 3553 4666 
L 4184 4666 
L 4184 0 
L 3553 0 
L 3553 2222 
L 1259 2222 
L 1259 0 
L 628 0 
L 628 4666 
z
" transform="scale(0.015625)"/>
      <path id="DejaVuSans-64" d="M 2906 2969 
L 2906 4863 
L 3481 4863 
L 3481 0 
L 2906 0 
L 2906 525 
Q 2725 213 2448 61 
Q 2172 -91 1784 -91 
Q 1150 -91 751 415 
Q 353 922 353 1747 
Q 353 2572 751 3078 
Q 1150 3584 1784 3584 
Q 2172 3584 2448 3432 
Q 2725 3281 2906 2969 
z
M 947 1747 
Q 947 1113 1208 752 
Q 1469 391 1925 391 
Q 2381 391 2643 752 
Q 2906 1113 2906 1747 
Q 2906 2381 2643 2742 
Q 2381 3103 1925 3103 
Q 1469 3103 1208 2742 
Q 947 2381 947 1747 
z
" transform="scale(0.015625)"/>
      <path id="DejaVuSans-6c" d="M 603 4863 
L 1178 4863 
L 1178 0 
L 603 0 
L 603 4863 
z
" transform="scale(0.015625)"/>
      <path id="DejaVuSans-67" d="M 2906 1791 
Q 2906 2416 2648 2759 
Q 2391 3103 1925 3103 
Q 1463 3103 1205 2759 
Q 947 2416 947 1791 
Q 947 1169 1205 825 
Q 1463 481 1925 481 
Q 2391 481 2648 825 
Q 2906 1169 2906 1791 
z
M 3481 434 
Q 3481 -459 3084 -895 
Q 2688 -1331 1869 -1331 
Q 1566 -1331 1297 -1286 
Q 1028 -1241 775 -1147 
L 775 -588 
Q 1028 -725 1275 -790 
Q 1522 -856 1778 -856 
Q 2344 -856 2625 -561 
Q 2906 -266 2906 331 
L 2906 616 
Q 2728 306 2450 153 
Q 2172 0 1784 0 
Q 1141 0 747 490 
Q 353 981 353 1791 
Q 353 2603 747 3093 
Q 1141 3584 1784 3584 
Q 2172 3584 2450 3431 
Q 2728 3278 2906 2969 
L 2906 3500 
L 3481 3500 
L 3481 434 
z
" transform="scale(0.015625)"/>
      <path id="DejaVuSans-41" d="M 2188 4044 
L 1331 1722 
L 3047 1722 
L 2188 4044 
z
M 1831 4666 
L 2547 4666 
L 4325 0 
L 3669 0 
L 3244 1197 
L 1141 1197 
L 716 0 
L 50 0 
L 1831 4666 
z
" transform="scale(0.015625)"/>
     </defs>
     <use xlink:href="#DejaVuSans-52"/>
     <use xlink:href="#DejaVuSans-65" x="64.982422"/>
     <use xlink:href="#DejaVuSans-73" x="126.505859"/>
     <use xlink:href="#DejaVuSans-70" x="178.605469"/>
     <use xlink:href="#DejaVuSans-6f" x="242.082031"/>
     <use xlink:href="#DejaVuSans-6e" x="303.263672"/>
     <use xlink:href="#DejaVuSans-73" x="366.642578"/>
     <use xlink:href="#DejaVuSans-65" x="418.742188"/>
     <use xlink:href="#DejaVuSans-20" x="480.265625"/>
     <use xlink:href="#DejaVuSans-54" x="512.052734"/>
     <use xlink:href="#DejaVuSans-69" x="570.011719"/>
     <use xlink:href="#DejaVuSans-6d" x="597.794922"/>
     <use xlink:href="#DejaVuSans-65" x="695.207031"/>
     <use xlink:href="#DejaVuSans-20" x="756.730469"/>
     <use xlink:href="#DejaVuSans-4f" x="788.517578"/>
     <use xlink:href="#DejaVuSans-76" x="867.228516"/>
     <use xlink:href="#DejaVuSans-65" x="926.408203"/>
     <use xlink:href="#DejaVuSans-72" x="987.931641"/>
     <use xlink:href="#DejaVuSans-20" x="1029.044922"/>
     <use xlink:href="#DejaVuSans-54" x="1060.832031"/>
     <use xlink:href="#DejaVuSans-69" x="1118.791016"/>
     <use xlink:href="#DejaVuSans-6d" x="1146.574219"/>
     <use xlink:href="#DejaVuSans-65" x="1243.986328"/>
     <use xlink:href="#DejaVuSans-20" x="1305.509766"/>
     <use xlink:href="#DejaVuSans-66" x="1337.296875"/>
     <use xlink:href="#DejaVuSans-6f" x="1372.501953"/>
     <use xlink:href="#DejaVuSans-72" x="1433.683594"/>
     <use xlink:href="#DejaVuSans-20" x="1474.796875"/>
     <use xlink:href="#DejaVuSans-68" x="1506.583984"/>
     <use xlink:href="#DejaVuSans-74" x="1569.962891"/>
     <use xlink:href="#DejaVuSans-74" x="1609.171875"/>
     <use xlink:href="#DejaVuSans-70" x="1648.380859"/>
     <use xlink:href="#DejaVuSans-73" x="1711.857422"/>
     <use xlink:href="#DejaVuSans-3a" x="1763.957031"/>
     <use xlink:href="#DejaVuSans-2f" x="1797.648438"/>
     <use xlink:href="#DejaVuSans-2f" x="1831.339844"/>
     <use xlink:href="#DejaVuSans-61" x="1865.03125"/>
     <use xlink:href="#DejaVuSans-70" x="1926.310547"/>
     <use xlink:href="#DejaVuSans-69" x="1989.787109"/>
     <use xlink:href="#DejaVuSans-2e" x="2017.570312"/>
     <use xlink:href="#DejaVuSans-63" x="2049.357422"/>
     <use xlink:href="#DejaVuSans-75" x="2104.337891"/>
     <use xlink:href="#DejaVuSans-73" x="2167.716797"/>
     <use xlink:href="#DejaVuSans-74" x="2219.816406"/>
     <use xlink:href="#DejaVuSans-6f" x="2259.025391"/>
     <use xlink:href="#DejaVuSans-6d" x="2320.207031"/>
     <use xlink:href="#DejaVuSans-65" x="2417.619141"/>
     <use xlink:href="#DejaVuSans-72" x="2479.142578"/>
     <use xlink:href="#DejaVuSans-2e" x="2511.130859"/>
     <use xlink:href="#DejaVuSans-69" x="2542.917969"/>
     <use xlink:href="#DejaVuSans-6f" x="2570.701172"/>
     <use xlink:href="#DejaVuSans-20" x="2631.882812"/>
     <use xlink:href="#DejaVuSans-28" x="2663.669922"/>
     <use xlink:href="#DejaVuSans-34" x="2702.683594"/>
     <use xlink:href="#DejaVuSans-2d" x="2766.306641"/>
     <use xlink:href="#DejaVuSans-48" x="2802.390625"/>
     <use xlink:href="#DejaVuSans-6f" x="2877.585938"/>
     <use xlink:href="#DejaVuSans-75" x="2938.767578"/>
     <use xlink:href="#DejaVuSans-72" x="3002.146484"/>
     <use xlink:href="#DejaVuSans-20" x="3043.259766"/>
     <use xlink:href="#DejaVuSans-61" x="3075.046875"/>
     <use xlink:href="#DejaVuSans-6e" x="3136.326172"/>
     <use xlink:href="#DejaVuSans-64" x="3199.705078"/>
     <use xlink:href="#DejaVuSans-20" x="3263.181641"/>
     <use xlink:href="#DejaVuSans-32" x="3294.96875"/>
     <use xlink:href="#DejaVuSans-34" x="3358.591797"/>
     <use xlink:href="#DejaVuSans-2d" x="3422.214844"/>
     <use xlink:href="#DejaVuSans-48" x="3458.298828"/>
     <use xlink:href="#DejaVuSans-6f" x="3533.494141"/>
     <use xlink:href="#DejaVuSans-75" x="3594.675781"/>
     <use xlink:href="#DejaVuSans-72" x="3658.054688"/>
     <use xlink:href="#DejaVuSans-20" x="3699.167969"/>
     <use xlink:href="#DejaVuSans-52" x="3730.955078"/>
     <use xlink:href="#DejaVuSans-6f" x="3795.9375"/>
     <use xlink:href="#DejaVuSans-6c" x="3857.119141"/>
     <use xlink:href="#DejaVuSans-6c" x="3884.902344"/>
     <use xlink:href="#DejaVuSans-69" x="3912.685547"/>
     <use xlink:href="#DejaVuSans-6e" x="3940.46875"/>
     <use xlink:href="#DejaVuSans-67" x="4003.847656"/>
     <use xlink:href="#DejaVuSans-20" x="4067.324219"/>
     <use xlink:href="#DejaVuSans-41" x="4099.111328"/>
     <use xlink:href="#DejaVuSans-76" x="4161.644531"/>
     <use xlink:href="#DejaVuSans-65" x="4220.824219"/>
     <use xlink:href="#DejaVuSans-72" x="4282.347656"/>
     <use xlink:href="#DejaVuSans-61" x="4323.460938"/>
     <use xlink:href="#DejaVuSans-67" x="4384.740234"/>
     <use xlink:href="#DejaVuSans-65" x="4448.216797"/>
     <use xlink:href="#DejaVuSans-73" x="4509.740234"/>
     <use xlink:href="#DejaVuSans-29" x="4561.839844"/>
    </g>
   </g>
   <g id="legend_1">
    <g id="patch_7">
     <path d="M 471.552039 176.040514 
L 689.695789 176.040514 
Q 691.695789 176.040514 691.695789 174.040514 
L 691.695789 131.006139 
Q 691.695789 129.006139 689.695789 129.006139 
L 471.552039 129.006139 
Q 469.552039 129.006139 469.552039 131.006139 
L 469.552039 174.040514 
Q 469.552039 176.040514 471.552039 176.040514 
z
" style="fill: #ffffff; opacity: 0.8; stroke: #cccccc; stroke-linejoin: miter"/>
    </g>
    <g id="line2d_34">
     <path d="M 473.552039 137.104576 
L 483.552039 137.104576 
L 493.552039 137.104576 
" style="fill: none; stroke: #1f77b4; stroke-opacity: 0.5; stroke-width: 1.5; stroke-linecap: square"/>
     <g>
      <use xlink:href="#ma228492f1b" x="483.552039" y="137.104576" style="fill: #1f77b4; fill-opacity: 0.5; stroke: #1f77b4; stroke-opacity: 0.5"/>
     </g>
    </g>
    <g id="text_19">
     <!-- 4-Hour Rolling Average -->
     <g transform="translate(501.552039 140.604576) scale(0.1 -0.1)">
      <use xlink:href="#DejaVuSans-34"/>
      <use xlink:href="#DejaVuSans-2d" x="63.623047"/>
      <use xlink:href="#DejaVuSans-48" x="99.707031"/>
      <use xlink:href="#DejaVuSans-6f" x="174.902344"/>
      <use xlink:href="#DejaVuSans-75" x="236.083984"/>
      <use xlink:href="#DejaVuSans-72" x="299.462891"/>
      <use xlink:href="#DejaVuSans-20" x="340.576172"/>
      <use xlink:href="#DejaVuSans-52" x="372.363281"/>
      <use xlink:href="#DejaVuSans-6f" x="437.345703"/>
      <use xlink:href="#DejaVuSans-6c" x="498.527344"/>
      <use xlink:href="#DejaVuSans-6c" x="526.310547"/>
      <use xlink:href="#DejaVuSans-69" x="554.09375"/>
      <use xlink:href="#DejaVuSans-6e" x="581.876953"/>
      <use xlink:href="#DejaVuSans-67" x="645.255859"/>
      <use xlink:href="#DejaVuSans-20" x="708.732422"/>
      <use xlink:href="#DejaVuSans-41" x="740.519531"/>
      <use xlink:href="#DejaVuSans-76" x="803.052734"/>
      <use xlink:href="#DejaVuSans-65" x="862.232422"/>
      <use xlink:href="#DejaVuSans-72" x="923.755859"/>
      <use xlink:href="#DejaVuSans-61" x="964.869141"/>
      <use xlink:href="#DejaVuSans-67" x="1026.148438"/>
      <use xlink:href="#DejaVuSans-65" x="1089.625"/>
     </g>
    </g>
    <g id="line2d_35">
     <path d="M 473.552039 151.782701 
L 483.552039 151.782701 
L 493.552039 151.782701 
" style="fill: none; stroke: #ff7f0e; stroke-width: 1.5; stroke-linecap: square"/>
    </g>
    <g id="text_20">
     <!-- 24-Hour Rolling Average -->
     <g transform="translate(501.552039 155.282701) scale(0.1 -0.1)">
      <use xlink:href="#DejaVuSans-32"/>
      <use xlink:href="#DejaVuSans-34" x="63.623047"/>
      <use xlink:href="#DejaVuSans-2d" x="127.246094"/>
      <use xlink:href="#DejaVuSans-48" x="163.330078"/>
      <use xlink:href="#DejaVuSans-6f" x="238.525391"/>
      <use xlink:href="#DejaVuSans-75" x="299.707031"/>
      <use xlink:href="#DejaVuSans-72" x="363.085938"/>
      <use xlink:href="#DejaVuSans-20" x="404.199219"/>
      <use xlink:href="#DejaVuSans-52" x="435.986328"/>
      <use xlink:href="#DejaVuSans-6f" x="500.96875"/>
      <use xlink:href="#DejaVuSans-6c" x="562.150391"/>
      <use xlink:href="#DejaVuSans-6c" x="589.933594"/>
      <use xlink:href="#DejaVuSans-69" x="617.716797"/>
      <use xlink:href="#DejaVuSans-6e" x="645.5"/>
      <use xlink:href="#DejaVuSans-67" x="708.878906"/>
      <use xlink:href="#DejaVuSans-20" x="772.355469"/>
      <use xlink:href="#DejaVuSans-41" x="804.142578"/>
      <use xlink:href="#DejaVuSans-76" x="866.675781"/>
      <use xlink:href="#DejaVuSans-65" x="925.855469"/>
      <use xlink:href="#DejaVuSans-72" x="987.378906"/>
      <use xlink:href="#DejaVuSans-61" x="1028.492188"/>
      <use xlink:href="#DejaVuSans-67" x="1089.771484"/>
      <use xlink:href="#DejaVuSans-65" x="1153.248047"/>
     </g>
    </g>
    <g id="line2d_36">
     <path d="M 473.552039 166.460826 
L 483.552039 166.460826 
L 493.552039 166.460826 
" style="fill: none; stroke-dasharray: 5.55,2.4; stroke-dashoffset: 0; stroke: #ff0000; stroke-width: 1.5"/>
    </g>
    <g id="text_21">
     <!-- Average Response Time from All APIs -->
     <g transform="translate(501.552039 169.960826) scale(0.1 -0.1)">
      <defs>
       <path id="DejaVuSans-50" d="M 1259 4147 
L 1259 2394 
L 2053 2394 
Q 2494 2394 2734 2622 
Q 2975 2850 2975 3272 
Q 2975 3691 2734 3919 
Q 2494 4147 2053 4147 
L 1259 4147 
z
M 628 4666 
L 2053 4666 
Q 2838 4666 3239 4311 
Q 3641 3956 3641 3272 
Q 3641 2581 3239 2228 
Q 2838 1875 2053 1875 
L 1259 1875 
L 1259 0 
L 628 0 
L 628 4666 
z
" transform="scale(0.015625)"/>
       <path id="DejaVuSans-49" d="M 628 4666 
L 1259 4666 
L 1259 0 
L 628 0 
L 628 4666 
z
" transform="scale(0.015625)"/>
      </defs>
      <use xlink:href="#DejaVuSans-41"/>
      <use xlink:href="#DejaVuSans-76" x="62.533203"/>
      <use xlink:href="#DejaVuSans-65" x="121.712891"/>
      <use xlink:href="#DejaVuSans-72" x="183.236328"/>
      <use xlink:href="#DejaVuSans-61" x="224.349609"/>
      <use xlink:href="#DejaVuSans-67" x="285.628906"/>
      <use xlink:href="#DejaVuSans-65" x="349.105469"/>
      <use xlink:href="#DejaVuSans-20" x="410.628906"/>
      <use xlink:href="#DejaVuSans-52" x="442.416016"/>
      <use xlink:href="#DejaVuSans-65" x="507.398438"/>
      <use xlink:href="#DejaVuSans-73" x="568.921875"/>
      <use xlink:href="#DejaVuSans-70" x="621.021484"/>
      <use xlink:href="#DejaVuSans-6f" x="684.498047"/>
      <use xlink:href="#DejaVuSans-6e" x="745.679688"/>
      <use xlink:href="#DejaVuSans-73" x="809.058594"/>
      <use xlink:href="#DejaVuSans-65" x="861.158203"/>
      <use xlink:href="#DejaVuSans-20" x="922.681641"/>
      <use xlink:href="#DejaVuSans-54" x="954.46875"/>
      <use xlink:href="#DejaVuSans-69" x="1012.427734"/>
      <use xlink:href="#DejaVuSans-6d" x="1040.210938"/>
      <use xlink:href="#DejaVuSans-65" x="1137.623047"/>
      <use xlink:href="#DejaVuSans-20" x="1199.146484"/>
      <use xlink:href="#DejaVuSans-66" x="1230.933594"/>
      <use xlink:href="#DejaVuSans-72" x="1266.138672"/>
      <use xlink:href="#DejaVuSans-6f" x="1305.001953"/>
      <use xlink:href="#DejaVuSans-6d" x="1366.183594"/>
      <use xlink:href="#DejaVuSans-20" x="1463.595703"/>
      <use xlink:href="#DejaVuSans-41" x="1495.382812"/>
      <use xlink:href="#DejaVuSans-6c" x="1563.791016"/>
      <use xlink:href="#DejaVuSans-6c" x="1591.574219"/>
      <use xlink:href="#DejaVuSans-20" x="1619.357422"/>
      <use xlink:href="#DejaVuSans-41" x="1651.144531"/>
      <use xlink:href="#DejaVuSans-50" x="1719.552734"/>
      <use xlink:href="#DejaVuSans-49" x="1779.855469"/>
      <use xlink:href="#DejaVuSans-73" x="1809.347656"/>
     </g>
    </g>
   </g>
  </g>
 </g>
 <defs>
  <clipPath id="p49e954ce30">
   <rect x="53.75" y="27.6" width="642.945789" height="249.846653"/>
  </clipPath>
 </defs>
</svg>
