<?xml version="1.0" encoding="utf-8" standalone="no"?>
<!DOCTYPE svg PUBLIC "-//W3C//DTD SVG 1.1//EN"
  "http://www.w3.org/Graphics/SVG/1.1/DTD/svg11.dtd">
<svg xmlns:xlink="http://www.w3.org/1999/xlink" width="720pt" height="360pt" viewBox="0 0 720 360" xmlns="http://www.w3.org/2000/svg" version="1.1">
 <metadata>
  <rdf:RDF xmlns:dc="http://purl.org/dc/elements/1.1/" xmlns:cc="http://creativecommons.org/ns#" xmlns:rdf="http://www.w3.org/1999/02/22-rdf-syntax-ns#">
   <cc:Work>
    <dc:type rdf:resource="http://purl.org/dc/dcmitype/StillImage"/>
    <dc:date>2024-04-04T05:33:02.358820</dc:date>
    <dc:format>image/svg+xml</dc:format>
    <dc:creator>
     <cc:Agent>
      <dc:title>Matplotlib v3.8.3, https://matplotlib.org/</dc:title>
     </cc:Agent>
    </dc:creator>
   </cc:Work>
  </rdf:RDF>
 </metadata>
 <defs>
  <style type="text/css">*{stroke-linejoin: round; stroke-linecap: butt}</style>
 </defs>
 <g id="figure_1">
  <g id="patch_1">
   <path d="M 0 360 
L 720 360 
L 720 0 
L 0 0 
z
" style="fill: #ffffff"/>
  </g>
  <g id="axes_1">
   <g id="patch_2">
    <path d="M 53.75 277.446653 
L 709.2 277.446653 
L 709.2 27.6 
L 53.75 27.6 
z
" style="fill: #ffffff"/>
   </g>
   <g id="matplotlib.axis_1">
    <g id="xtick_1">
     <g id="line2d_1">
      <path d="M 68.040508 277.446653 
L 68.040508 27.6 
" clip-path="url(#p2349a8acf9)" style="fill: none; stroke: #b0b0b0; stroke-width: 0.8; stroke-linecap: square"/>
     </g>
     <g id="line2d_2">
      <defs>
       <path id="m51e89b3a74" d="M 0 0 
L 0 3.5 
" style="stroke: #000000; stroke-width: 0.8"/>
      </defs>
      <g>
       <use xlink:href="#m51e89b3a74" x="68.040508" y="277.446653" style="stroke: #000000; stroke-width: 0.8"/>
      </g>
     </g>
     <g id="text_1">
      <!-- 2024-03-30 -->
      <g transform="translate(49.444704 330.913512) rotate(-45) scale(0.1 -0.1)">
       <defs>
        <path id="DejaVuSans-32" d="M 1228 531 
L 3431 531 
L 3431 0 
L 469 0 
L 469 531 
Q 828 903 1448 1529 
Q 2069 2156 2228 2338 
Q 2531 2678 2651 2914 
Q 2772 3150 2772 3378 
Q 2772 3750 2511 3984 
Q 2250 4219 1831 4219 
Q 1534 4219 1204 4116 
Q 875 4013 500 3803 
L 500 4441 
Q 881 4594 1212 4672 
Q 1544 4750 1819 4750 
Q 2544 4750 2975 4387 
Q 3406 4025 3406 3419 
Q 3406 3131 3298 2873 
Q 3191 2616 2906 2266 
Q 2828 2175 2409 1742 
Q 1991 1309 1228 531 
z
" transform="scale(0.015625)"/>
        <path id="DejaVuSans-30" d="M 2034 4250 
Q 1547 4250 1301 3770 
Q 1056 3291 1056 2328 
Q 1056 1369 1301 889 
Q 1547 409 2034 409 
Q 2525 409 2770 889 
Q 3016 1369 3016 2328 
Q 3016 3291 2770 3770 
Q 2525 4250 2034 4250 
z
M 2034 4750 
Q 2819 4750 3233 4129 
Q 3647 3509 3647 2328 
Q 3647 1150 3233 529 
Q 2819 -91 2034 -91 
Q 1250 -91 836 529 
Q 422 1150 422 2328 
Q 422 3509 836 4129 
Q 1250 4750 2034 4750 
z
" transform="scale(0.015625)"/>
        <path id="DejaVuSans-34" d="M 2419 4116 
L 825 1625 
L 2419 1625 
L 2419 4116 
z
M 2253 4666 
L 3047 4666 
L 3047 1625 
L 3713 1625 
L 3713 1100 
L 3047 1100 
L 3047 0 
L 2419 0 
L 2419 1100 
L 313 1100 
L 313 1709 
L 2253 4666 
z
" transform="scale(0.015625)"/>
        <path id="DejaVuSans-2d" d="M 313 2009 
L 1997 2009 
L 1997 1497 
L 313 1497 
L 313 2009 
z
" transform="scale(0.015625)"/>
        <path id="DejaVuSans-33" d="M 2597 2516 
Q 3050 2419 3304 2112 
Q 3559 1806 3559 1356 
Q 3559 666 3084 287 
Q 2609 -91 1734 -91 
Q 1441 -91 1130 -33 
Q 819 25 488 141 
L 488 750 
Q 750 597 1062 519 
Q 1375 441 1716 441 
Q 2309 441 2620 675 
Q 2931 909 2931 1356 
Q 2931 1769 2642 2001 
Q 2353 2234 1838 2234 
L 1294 2234 
L 1294 2753 
L 1863 2753 
Q 2328 2753 2575 2939 
Q 2822 3125 2822 3475 
Q 2822 3834 2567 4026 
Q 2313 4219 1838 4219 
Q 1578 4219 1281 4162 
Q 984 4106 628 3988 
L 628 4550 
Q 988 4650 1302 4700 
Q 1616 4750 1894 4750 
Q 2613 4750 3031 4423 
Q 3450 4097 3450 3541 
Q 3450 3153 3228 2886 
Q 3006 2619 2597 2516 
z
" transform="scale(0.015625)"/>
       </defs>
       <use xlink:href="#DejaVuSans-32"/>
       <use xlink:href="#DejaVuSans-30" x="63.623047"/>
       <use xlink:href="#DejaVuSans-32" x="127.246094"/>
       <use xlink:href="#DejaVuSans-34" x="190.869141"/>
       <use xlink:href="#DejaVuSans-2d" x="254.492188"/>
       <use xlink:href="#DejaVuSans-30" x="290.576172"/>
       <use xlink:href="#DejaVuSans-33" x="354.199219"/>
       <use xlink:href="#DejaVuSans-2d" x="417.822266"/>
       <use xlink:href="#DejaVuSans-33" x="453.90625"/>
       <use xlink:href="#DejaVuSans-30" x="517.529297"/>
      </g>
     </g>
    </g>
    <g id="xtick_2">
     <g id="line2d_3">
      <path d="M 185.269305 277.446653 
L 185.269305 27.6 
" clip-path="url(#p2349a8acf9)" style="fill: none; stroke: #b0b0b0; stroke-width: 0.8; stroke-linecap: square"/>
     </g>
     <g id="line2d_4">
      <g>
       <use xlink:href="#m51e89b3a74" x="185.269305" y="277.446653" style="stroke: #000000; stroke-width: 0.8"/>
      </g>
     </g>
     <g id="text_2">
      <!-- 2024-03-31 -->
      <g transform="translate(166.673502 330.913512) rotate(-45) scale(0.1 -0.1)">
       <defs>
        <path id="DejaVuSans-31" d="M 794 531 
L 1825 531 
L 1825 4091 
L 703 3866 
L 703 4441 
L 1819 4666 
L 2450 4666 
L 2450 531 
L 3481 531 
L 3481 0 
L 794 0 
L 794 531 
z
" transform="scale(0.015625)"/>
       </defs>
       <use xlink:href="#DejaVuSans-32"/>
       <use xlink:href="#DejaVuSans-30" x="63.623047"/>
       <use xlink:href="#DejaVuSans-32" x="127.246094"/>
       <use xlink:href="#DejaVuSans-34" x="190.869141"/>
       <use xlink:href="#DejaVuSans-2d" x="254.492188"/>
       <use xlink:href="#DejaVuSans-30" x="290.576172"/>
       <use xlink:href="#DejaVuSans-33" x="354.199219"/>
       <use xlink:href="#DejaVuSans-2d" x="417.822266"/>
       <use xlink:href="#DejaVuSans-33" x="453.90625"/>
       <use xlink:href="#DejaVuSans-31" x="517.529297"/>
      </g>
     </g>
    </g>
    <g id="xtick_3">
     <g id="line2d_5">
      <path d="M 302.498102 277.446653 
L 302.498102 27.6 
" clip-path="url(#p2349a8acf9)" style="fill: none; stroke: #b0b0b0; stroke-width: 0.8; stroke-linecap: square"/>
     </g>
     <g id="line2d_6">
      <g>
       <use xlink:href="#m51e89b3a74" x="302.498102" y="277.446653" style="stroke: #000000; stroke-width: 0.8"/>
      </g>
     </g>
     <g id="text_3">
      <!-- 2024-04-01 -->
      <g transform="translate(283.902299 330.913512) rotate(-45) scale(0.1 -0.1)">
       <use xlink:href="#DejaVuSans-32"/>
       <use xlink:href="#DejaVuSans-30" x="63.623047"/>
       <use xlink:href="#DejaVuSans-32" x="127.246094"/>
       <use xlink:href="#DejaVuSans-34" x="190.869141"/>
       <use xlink:href="#DejaVuSans-2d" x="254.492188"/>
       <use xlink:href="#DejaVuSans-30" x="290.576172"/>
       <use xlink:href="#DejaVuSans-34" x="354.199219"/>
       <use xlink:href="#DejaVuSans-2d" x="417.822266"/>
       <use xlink:href="#DejaVuSans-30" x="453.90625"/>
       <use xlink:href="#DejaVuSans-31" x="517.529297"/>
      </g>
     </g>
    </g>
    <g id="xtick_4">
     <g id="line2d_7">
      <path d="M 419.7269 277.446653 
L 419.7269 27.6 
" clip-path="url(#p2349a8acf9)" style="fill: none; stroke: #b0b0b0; stroke-width: 0.8; stroke-linecap: square"/>
     </g>
     <g id="line2d_8">
      <g>
       <use xlink:href="#m51e89b3a74" x="419.7269" y="277.446653" style="stroke: #000000; stroke-width: 0.8"/>
      </g>
     </g>
     <g id="text_4">
      <!-- 2024-04-02 -->
      <g transform="translate(401.131096 330.913512) rotate(-45) scale(0.1 -0.1)">
       <use xlink:href="#DejaVuSans-32"/>
       <use xlink:href="#DejaVuSans-30" x="63.623047"/>
       <use xlink:href="#DejaVuSans-32" x="127.246094"/>
       <use xlink:href="#DejaVuSans-34" x="190.869141"/>
       <use xlink:href="#DejaVuSans-2d" x="254.492188"/>
       <use xlink:href="#DejaVuSans-30" x="290.576172"/>
       <use xlink:href="#DejaVuSans-34" x="354.199219"/>
       <use xlink:href="#DejaVuSans-2d" x="417.822266"/>
       <use xlink:href="#DejaVuSans-30" x="453.90625"/>
       <use xlink:href="#DejaVuSans-32" x="517.529297"/>
      </g>
     </g>
    </g>
    <g id="xtick_5">
     <g id="line2d_9">
      <path d="M 536.955697 277.446653 
L 536.955697 27.6 
" clip-path="url(#p2349a8acf9)" style="fill: none; stroke: #b0b0b0; stroke-width: 0.8; stroke-linecap: square"/>
     </g>
     <g id="line2d_10">
      <g>
       <use xlink:href="#m51e89b3a74" x="536.955697" y="277.446653" style="stroke: #000000; stroke-width: 0.8"/>
      </g>
     </g>
     <g id="text_5">
      <!-- 2024-04-03 -->
      <g transform="translate(518.359894 330.913512) rotate(-45) scale(0.1 -0.1)">
       <use xlink:href="#DejaVuSans-32"/>
       <use xlink:href="#DejaVuSans-30" x="63.623047"/>
       <use xlink:href="#DejaVuSans-32" x="127.246094"/>
       <use xlink:href="#DejaVuSans-34" x="190.869141"/>
       <use xlink:href="#DejaVuSans-2d" x="254.492188"/>
       <use xlink:href="#DejaVuSans-30" x="290.576172"/>
       <use xlink:href="#DejaVuSans-34" x="354.199219"/>
       <use xlink:href="#DejaVuSans-2d" x="417.822266"/>
       <use xlink:href="#DejaVuSans-30" x="453.90625"/>
       <use xlink:href="#DejaVuSans-33" x="517.529297"/>
      </g>
     </g>
    </g>
    <g id="xtick_6">
     <g id="line2d_11">
      <path d="M 654.184494 277.446653 
L 654.184494 27.6 
" clip-path="url(#p2349a8acf9)" style="fill: none; stroke: #b0b0b0; stroke-width: 0.8; stroke-linecap: square"/>
     </g>
     <g id="line2d_12">
      <g>
       <use xlink:href="#m51e89b3a74" x="654.184494" y="277.446653" style="stroke: #000000; stroke-width: 0.8"/>
      </g>
     </g>
     <g id="text_6">
      <!-- 2024-04-04 -->
      <g transform="translate(635.588691 330.913512) rotate(-45) scale(0.1 -0.1)">
       <use xlink:href="#DejaVuSans-32"/>
       <use xlink:href="#DejaVuSans-30" x="63.623047"/>
       <use xlink:href="#DejaVuSans-32" x="127.246094"/>
       <use xlink:href="#DejaVuSans-34" x="190.869141"/>
       <use xlink:href="#DejaVuSans-2d" x="254.492188"/>
       <use xlink:href="#DejaVuSans-30" x="290.576172"/>
       <use xlink:href="#DejaVuSans-34" x="354.199219"/>
       <use xlink:href="#DejaVuSans-2d" x="417.822266"/>
       <use xlink:href="#DejaVuSans-30" x="453.90625"/>
       <use xlink:href="#DejaVuSans-34" x="517.529297"/>
      </g>
     </g>
    </g>
    <g id="text_7">
     <!-- Time -->
     <g transform="translate(366.794688 345.502198) scale(0.12 -0.12)">
      <defs>
       <path id="DejaVuSans-54" d="M -19 4666 
L 3928 4666 
L 3928 4134 
L 2272 4134 
L 2272 0 
L 1638 0 
L 1638 4134 
L -19 4134 
L -19 4666 
z
" transform="scale(0.015625)"/>
       <path id="DejaVuSans-69" d="M 603 3500 
L 1178 3500 
L 1178 0 
L 603 0 
L 603 3500 
z
M 603 4863 
L 1178 4863 
L 1178 4134 
L 603 4134 
L 603 4863 
z
" transform="scale(0.015625)"/>
       <path id="DejaVuSans-6d" d="M 3328 2828 
Q 3544 3216 3844 3400 
Q 4144 3584 4550 3584 
Q 5097 3584 5394 3201 
Q 5691 2819 5691 2113 
L 5691 0 
L 5113 0 
L 5113 2094 
Q 5113 2597 4934 2840 
Q 4756 3084 4391 3084 
Q 3944 3084 3684 2787 
Q 3425 2491 3425 1978 
L 3425 0 
L 2847 0 
L 2847 2094 
Q 2847 2600 2669 2842 
Q 2491 3084 2119 3084 
Q 1678 3084 1418 2786 
Q 1159 2488 1159 1978 
L 1159 0 
L 581 0 
L 581 3500 
L 1159 3500 
L 1159 2956 
Q 1356 3278 1631 3431 
Q 1906 3584 2284 3584 
Q 2666 3584 2933 3390 
Q 3200 3197 3328 2828 
z
" transform="scale(0.015625)"/>
       <path id="DejaVuSans-65" d="M 3597 1894 
L 3597 1613 
L 953 1613 
Q 991 1019 1311 708 
Q 1631 397 2203 397 
Q 2534 397 2845 478 
Q 3156 559 3463 722 
L 3463 178 
Q 3153 47 2828 -22 
Q 2503 -91 2169 -91 
Q 1331 -91 842 396 
Q 353 884 353 1716 
Q 353 2575 817 3079 
Q 1281 3584 2069 3584 
Q 2775 3584 3186 3129 
Q 3597 2675 3597 1894 
z
M 3022 2063 
Q 3016 2534 2758 2815 
Q 2500 3097 2075 3097 
Q 1594 3097 1305 2825 
Q 1016 2553 972 2059 
L 3022 2063 
z
" transform="scale(0.015625)"/>
      </defs>
      <use xlink:href="#DejaVuSans-54"/>
      <use xlink:href="#DejaVuSans-69" x="57.958984"/>
      <use xlink:href="#DejaVuSans-6d" x="85.742188"/>
      <use xlink:href="#DejaVuSans-65" x="183.154297"/>
     </g>
    </g>
   </g>
   <g id="matplotlib.axis_2">
    <g id="ytick_1">
     <g id="line2d_13">
      <path d="M 53.75 250.264296 
L 709.2 250.264296 
" clip-path="url(#p2349a8acf9)" style="fill: none; stroke: #b0b0b0; stroke-width: 0.8; stroke-linecap: square"/>
     </g>
     <g id="line2d_14">
      <defs>
       <path id="meaf5dbe5ad" d="M 0 0 
L -3.5 0 
" style="stroke: #000000; stroke-width: 0.8"/>
      </defs>
      <g>
       <use xlink:href="#meaf5dbe5ad" x="53.75" y="250.264296" style="stroke: #000000; stroke-width: 0.8"/>
      </g>
     </g>
     <g id="text_8">
      <!-- 200 -->
      <g transform="translate(27.6625 254.063515) scale(0.1 -0.1)">
       <use xlink:href="#DejaVuSans-32"/>
       <use xlink:href="#DejaVuSans-30" x="63.623047"/>
       <use xlink:href="#DejaVuSans-30" x="127.246094"/>
      </g>
     </g>
    </g>
    <g id="ytick_2">
     <g id="line2d_15">
      <path d="M 53.75 220.82115 
L 709.2 220.82115 
" clip-path="url(#p2349a8acf9)" style="fill: none; stroke: #b0b0b0; stroke-width: 0.8; stroke-linecap: square"/>
     </g>
     <g id="line2d_16">
      <g>
       <use xlink:href="#meaf5dbe5ad" x="53.75" y="220.82115" style="stroke: #000000; stroke-width: 0.8"/>
      </g>
     </g>
     <g id="text_9">
      <!-- 300 -->
      <g transform="translate(27.6625 224.620369) scale(0.1 -0.1)">
       <use xlink:href="#DejaVuSans-33"/>
       <use xlink:href="#DejaVuSans-30" x="63.623047"/>
       <use xlink:href="#DejaVuSans-30" x="127.246094"/>
      </g>
     </g>
    </g>
    <g id="ytick_3">
     <g id="line2d_17">
      <path d="M 53.75 191.378005 
L 709.2 191.378005 
" clip-path="url(#p2349a8acf9)" style="fill: none; stroke: #b0b0b0; stroke-width: 0.8; stroke-linecap: square"/>
     </g>
     <g id="line2d_18">
      <g>
       <use xlink:href="#meaf5dbe5ad" x="53.75" y="191.378005" style="stroke: #000000; stroke-width: 0.8"/>
      </g>
     </g>
     <g id="text_10">
      <!-- 400 -->
      <g transform="translate(27.6625 195.177224) scale(0.1 -0.1)">
       <use xlink:href="#DejaVuSans-34"/>
       <use xlink:href="#DejaVuSans-30" x="63.623047"/>
       <use xlink:href="#DejaVuSans-30" x="127.246094"/>
      </g>
     </g>
    </g>
    <g id="ytick_4">
     <g id="line2d_19">
      <path d="M 53.75 161.934859 
L 709.2 161.934859 
" clip-path="url(#p2349a8acf9)" style="fill: none; stroke: #b0b0b0; stroke-width: 0.8; stroke-linecap: square"/>
     </g>
     <g id="line2d_20">
      <g>
       <use xlink:href="#meaf5dbe5ad" x="53.75" y="161.934859" style="stroke: #000000; stroke-width: 0.8"/>
      </g>
     </g>
     <g id="text_11">
      <!-- 500 -->
      <g transform="translate(27.6625 165.734078) scale(0.1 -0.1)">
       <defs>
        <path id="DejaVuSans-35" d="M 691 4666 
L 3169 4666 
L 3169 4134 
L 1269 4134 
L 1269 2991 
Q 1406 3038 1543 3061 
Q 1681 3084 1819 3084 
Q 2600 3084 3056 2656 
Q 3513 2228 3513 1497 
Q 3513 744 3044 326 
Q 2575 -91 1722 -91 
Q 1428 -91 1123 -41 
Q 819 9 494 109 
L 494 744 
Q 775 591 1075 516 
Q 1375 441 1709 441 
Q 2250 441 2565 725 
Q 2881 1009 2881 1497 
Q 2881 1984 2565 2268 
Q 2250 2553 1709 2553 
Q 1456 2553 1204 2497 
Q 953 2441 691 2322 
L 691 4666 
z
" transform="scale(0.015625)"/>
       </defs>
       <use xlink:href="#DejaVuSans-35"/>
       <use xlink:href="#DejaVuSans-30" x="63.623047"/>
       <use xlink:href="#DejaVuSans-30" x="127.246094"/>
      </g>
     </g>
    </g>
    <g id="ytick_5">
     <g id="line2d_21">
      <path d="M 53.75 132.491714 
L 709.2 132.491714 
" clip-path="url(#p2349a8acf9)" style="fill: none; stroke: #b0b0b0; stroke-width: 0.8; stroke-linecap: square"/>
     </g>
     <g id="line2d_22">
      <g>
       <use xlink:href="#meaf5dbe5ad" x="53.75" y="132.491714" style="stroke: #000000; stroke-width: 0.8"/>
      </g>
     </g>
     <g id="text_12">
      <!-- 600 -->
      <g transform="translate(27.6625 136.290933) scale(0.1 -0.1)">
       <defs>
        <path id="DejaVuSans-36" d="M 2113 2584 
Q 1688 2584 1439 2293 
Q 1191 2003 1191 1497 
Q 1191 994 1439 701 
Q 1688 409 2113 409 
Q 2538 409 2786 701 
Q 3034 994 3034 1497 
Q 3034 2003 2786 2293 
Q 2538 2584 2113 2584 
z
M 3366 4563 
L 3366 3988 
Q 3128 4100 2886 4159 
Q 2644 4219 2406 4219 
Q 1781 4219 1451 3797 
Q 1122 3375 1075 2522 
Q 1259 2794 1537 2939 
Q 1816 3084 2150 3084 
Q 2853 3084 3261 2657 
Q 3669 2231 3669 1497 
Q 3669 778 3244 343 
Q 2819 -91 2113 -91 
Q 1303 -91 875 529 
Q 447 1150 447 2328 
Q 447 3434 972 4092 
Q 1497 4750 2381 4750 
Q 2619 4750 2861 4703 
Q 3103 4656 3366 4563 
z
" transform="scale(0.015625)"/>
       </defs>
       <use xlink:href="#DejaVuSans-36"/>
       <use xlink:href="#DejaVuSans-30" x="63.623047"/>
       <use xlink:href="#DejaVuSans-30" x="127.246094"/>
      </g>
     </g>
    </g>
    <g id="ytick_6">
     <g id="line2d_23">
      <path d="M 53.75 103.048568 
L 709.2 103.048568 
" clip-path="url(#p2349a8acf9)" style="fill: none; stroke: #b0b0b0; stroke-width: 0.8; stroke-linecap: square"/>
     </g>
     <g id="line2d_24">
      <g>
       <use xlink:href="#meaf5dbe5ad" x="53.75" y="103.048568" style="stroke: #000000; stroke-width: 0.8"/>
      </g>
     </g>
     <g id="text_13">
      <!-- 700 -->
      <g transform="translate(27.6625 106.847787) scale(0.1 -0.1)">
       <defs>
        <path id="DejaVuSans-37" d="M 525 4666 
L 3525 4666 
L 3525 4397 
L 1831 0 
L 1172 0 
L 2766 4134 
L 525 4134 
L 525 4666 
z
" transform="scale(0.015625)"/>
       </defs>
       <use xlink:href="#DejaVuSans-37"/>
       <use xlink:href="#DejaVuSans-30" x="63.623047"/>
       <use xlink:href="#DejaVuSans-30" x="127.246094"/>
      </g>
     </g>
    </g>
    <g id="ytick_7">
     <g id="line2d_25">
      <path d="M 53.75 73.605423 
L 709.2 73.605423 
" clip-path="url(#p2349a8acf9)" style="fill: none; stroke: #b0b0b0; stroke-width: 0.8; stroke-linecap: square"/>
     </g>
     <g id="line2d_26">
      <g>
       <use xlink:href="#meaf5dbe5ad" x="53.75" y="73.605423" style="stroke: #000000; stroke-width: 0.8"/>
      </g>
     </g>
     <g id="text_14">
      <!-- 800 -->
      <g transform="translate(27.6625 77.404642) scale(0.1 -0.1)">
       <defs>
        <path id="DejaVuSans-38" d="M 2034 2216 
Q 1584 2216 1326 1975 
Q 1069 1734 1069 1313 
Q 1069 891 1326 650 
Q 1584 409 2034 409 
Q 2484 409 2743 651 
Q 3003 894 3003 1313 
Q 3003 1734 2745 1975 
Q 2488 2216 2034 2216 
z
M 1403 2484 
Q 997 2584 770 2862 
Q 544 3141 544 3541 
Q 544 4100 942 4425 
Q 1341 4750 2034 4750 
Q 2731 4750 3128 4425 
Q 3525 4100 3525 3541 
Q 3525 3141 3298 2862 
Q 3072 2584 2669 2484 
Q 3125 2378 3379 2068 
Q 3634 1759 3634 1313 
Q 3634 634 3220 271 
Q 2806 -91 2034 -91 
Q 1263 -91 848 271 
Q 434 634 434 1313 
Q 434 1759 690 2068 
Q 947 2378 1403 2484 
z
M 1172 3481 
Q 1172 3119 1398 2916 
Q 1625 2713 2034 2713 
Q 2441 2713 2670 2916 
Q 2900 3119 2900 3481 
Q 2900 3844 2670 4047 
Q 2441 4250 2034 4250 
Q 1625 4250 1398 4047 
Q 1172 3844 1172 3481 
z
" transform="scale(0.015625)"/>
       </defs>
       <use xlink:href="#DejaVuSans-38"/>
       <use xlink:href="#DejaVuSans-30" x="63.623047"/>
       <use xlink:href="#DejaVuSans-30" x="127.246094"/>
      </g>
     </g>
    </g>
    <g id="ytick_8">
     <g id="line2d_27">
      <path d="M 53.75 44.162277 
L 709.2 44.162277 
" clip-path="url(#p2349a8acf9)" style="fill: none; stroke: #b0b0b0; stroke-width: 0.8; stroke-linecap: square"/>
     </g>
     <g id="line2d_28">
      <g>
       <use xlink:href="#meaf5dbe5ad" x="53.75" y="44.162277" style="stroke: #000000; stroke-width: 0.8"/>
      </g>
     </g>
     <g id="text_15">
      <!-- 900 -->
      <g transform="translate(27.6625 47.961496) scale(0.1 -0.1)">
       <defs>
        <path id="DejaVuSans-39" d="M 703 97 
L 703 672 
Q 941 559 1184 500 
Q 1428 441 1663 441 
Q 2288 441 2617 861 
Q 2947 1281 2994 2138 
Q 2813 1869 2534 1725 
Q 2256 1581 1919 1581 
Q 1219 1581 811 2004 
Q 403 2428 403 3163 
Q 403 3881 828 4315 
Q 1253 4750 1959 4750 
Q 2769 4750 3195 4129 
Q 3622 3509 3622 2328 
Q 3622 1225 3098 567 
Q 2575 -91 1691 -91 
Q 1453 -91 1209 -44 
Q 966 3 703 97 
z
M 1959 2075 
Q 2384 2075 2632 2365 
Q 2881 2656 2881 3163 
Q 2881 3666 2632 3958 
Q 2384 4250 1959 4250 
Q 1534 4250 1286 3958 
Q 1038 3666 1038 3163 
Q 1038 2656 1286 2365 
Q 1534 2075 1959 2075 
z
" transform="scale(0.015625)"/>
       </defs>
       <use xlink:href="#DejaVuSans-39"/>
       <use xlink:href="#DejaVuSans-30" x="63.623047"/>
       <use xlink:href="#DejaVuSans-30" x="127.246094"/>
      </g>
     </g>
    </g>
    <g id="text_16">
     <!-- Response Time (ms) -->
     <g transform="translate(21.166875 213.486139) rotate(-90) scale(0.12 -0.12)">
      <defs>
       <path id="DejaVuSans-52" d="M 2841 2188 
Q 3044 2119 3236 1894 
Q 3428 1669 3622 1275 
L 4263 0 
L 3584 0 
L 2988 1197 
Q 2756 1666 2539 1819 
Q 2322 1972 1947 1972 
L 1259 1972 
L 1259 0 
L 628 0 
L 628 4666 
L 2053 4666 
Q 2853 4666 3247 4331 
Q 3641 3997 3641 3322 
Q 3641 2881 3436 2590 
Q 3231 2300 2841 2188 
z
M 1259 4147 
L 1259 2491 
L 2053 2491 
Q 2509 2491 2742 2702 
Q 2975 2913 2975 3322 
Q 2975 3731 2742 3939 
Q 2509 4147 2053 4147 
L 1259 4147 
z
" transform="scale(0.015625)"/>
       <path id="DejaVuSans-73" d="M 2834 3397 
L 2834 2853 
Q 2591 2978 2328 3040 
Q 2066 3103 1784 3103 
Q 1356 3103 1142 2972 
Q 928 2841 928 2578 
Q 928 2378 1081 2264 
Q 1234 2150 1697 2047 
L 1894 2003 
Q 2506 1872 2764 1633 
Q 3022 1394 3022 966 
Q 3022 478 2636 193 
Q 2250 -91 1575 -91 
Q 1294 -91 989 -36 
Q 684 19 347 128 
L 347 722 
Q 666 556 975 473 
Q 1284 391 1588 391 
Q 1994 391 2212 530 
Q 2431 669 2431 922 
Q 2431 1156 2273 1281 
Q 2116 1406 1581 1522 
L 1381 1569 
Q 847 1681 609 1914 
Q 372 2147 372 2553 
Q 372 3047 722 3315 
Q 1072 3584 1716 3584 
Q 2034 3584 2315 3537 
Q 2597 3491 2834 3397 
z
" transform="scale(0.015625)"/>
       <path id="DejaVuSans-70" d="M 1159 525 
L 1159 -1331 
L 581 -1331 
L 581 3500 
L 1159 3500 
L 1159 2969 
Q 1341 3281 1617 3432 
Q 1894 3584 2278 3584 
Q 2916 3584 3314 3078 
Q 3713 2572 3713 1747 
Q 3713 922 3314 415 
Q 2916 -91 2278 -91 
Q 1894 -91 1617 61 
Q 1341 213 1159 525 
z
M 3116 1747 
Q 3116 2381 2855 2742 
Q 2594 3103 2138 3103 
Q 1681 3103 1420 2742 
Q 1159 2381 1159 1747 
Q 1159 1113 1420 752 
Q 1681 391 2138 391 
Q 2594 391 2855 752 
Q 3116 1113 3116 1747 
z
" transform="scale(0.015625)"/>
       <path id="DejaVuSans-6f" d="M 1959 3097 
Q 1497 3097 1228 2736 
Q 959 2375 959 1747 
Q 959 1119 1226 758 
Q 1494 397 1959 397 
Q 2419 397 2687 759 
Q 2956 1122 2956 1747 
Q 2956 2369 2687 2733 
Q 2419 3097 1959 3097 
z
M 1959 3584 
Q 2709 3584 3137 3096 
Q 3566 2609 3566 1747 
Q 3566 888 3137 398 
Q 2709 -91 1959 -91 
Q 1206 -91 779 398 
Q 353 888 353 1747 
Q 353 2609 779 3096 
Q 1206 3584 1959 3584 
z
" transform="scale(0.015625)"/>
       <path id="DejaVuSans-6e" d="M 3513 2113 
L 3513 0 
L 2938 0 
L 2938 2094 
Q 2938 2591 2744 2837 
Q 2550 3084 2163 3084 
Q 1697 3084 1428 2787 
Q 1159 2491 1159 1978 
L 1159 0 
L 581 0 
L 581 3500 
L 1159 3500 
L 1159 2956 
Q 1366 3272 1645 3428 
Q 1925 3584 2291 3584 
Q 2894 3584 3203 3211 
Q 3513 2838 3513 2113 
z
" transform="scale(0.015625)"/>
       <path id="DejaVuSans-20" transform="scale(0.015625)"/>
       <path id="DejaVuSans-28" d="M 1984 4856 
Q 1566 4138 1362 3434 
Q 1159 2731 1159 2009 
Q 1159 1288 1364 580 
Q 1569 -128 1984 -844 
L 1484 -844 
Q 1016 -109 783 600 
Q 550 1309 550 2009 
Q 550 2706 781 3412 
Q 1013 4119 1484 4856 
L 1984 4856 
z
" transform="scale(0.015625)"/>
       <path id="DejaVuSans-29" d="M 513 4856 
L 1013 4856 
Q 1481 4119 1714 3412 
Q 1947 2706 1947 2009 
Q 1947 1309 1714 600 
Q 1481 -109 1013 -844 
L 513 -844 
Q 928 -128 1133 580 
Q 1338 1288 1338 2009 
Q 1338 2731 1133 3434 
Q 928 4138 513 4856 
z
" transform="scale(0.015625)"/>
      </defs>
      <use xlink:href="#DejaVuSans-52"/>
      <use xlink:href="#DejaVuSans-65" x="64.982422"/>
      <use xlink:href="#DejaVuSans-73" x="126.505859"/>
      <use xlink:href="#DejaVuSans-70" x="178.605469"/>
      <use xlink:href="#DejaVuSans-6f" x="242.082031"/>
      <use xlink:href="#DejaVuSans-6e" x="303.263672"/>
      <use xlink:href="#DejaVuSans-73" x="366.642578"/>
      <use xlink:href="#DejaVuSans-65" x="418.742188"/>
      <use xlink:href="#DejaVuSans-20" x="480.265625"/>
      <use xlink:href="#DejaVuSans-54" x="512.052734"/>
      <use xlink:href="#DejaVuSans-69" x="570.011719"/>
      <use xlink:href="#DejaVuSans-6d" x="597.794922"/>
      <use xlink:href="#DejaVuSans-65" x="695.207031"/>
      <use xlink:href="#DejaVuSans-20" x="756.730469"/>
      <use xlink:href="#DejaVuSans-28" x="788.517578"/>
      <use xlink:href="#DejaVuSans-6d" x="827.53125"/>
      <use xlink:href="#DejaVuSans-73" x="924.943359"/>
      <use xlink:href="#DejaVuSans-29" x="977.042969"/>
     </g>
    </g>
   </g>
   <g id="line2d_29">
    <path d="M 83.543182 239.223116 
L 88.486856 241.725784 
L 93.345942 248.203276 
L 98.1835 243.050725 
L 103.122566 243.56598 
L 108.007919 250.11708 
L 112.795205 245.111745 
L 117.713607 250.11708 
L 127.532721 252.398924 
L 132.435236 252.987787 
L 137.20416 251.073982 
L 142.08944 258.802808 
L 147.036008 265.133084 
L 151.87008 264.397006 
L 156.864021 265.795555 
L 161.634555 254.680768 
L 166.513075 256.079317 
L 171.427872 256.079317 
L 176.408238 245.774216 
L 181.214239 256.815396 
L 187.337959 246.142256 
L 192.944984 240.768881 
L 196.489083 253.429434 
L 200.795035 242.90351 
L 205.685765 242.020215 
L 210.486823 247.835236 
L 215.388199 218.686522 
L 220.267132 221.410013 
L 225.169574 216.69911 
L 230.036128 210.957697 
L 234.910869 237.01488 
L 239.859672 234.512213 
L 244.773257 240.768881 
L 249.57954 246.583903 
L 254.430979 248.129668 
L 259.324169 248.129668 
L 264.251836 256.226533 
L 269.151594 248.424099 
L 274.024915 246.436687 
L 278.86631 243.860412 
L 283.809386 231.199859 
L 288.620722 220.968366 
L 293.538087 220.379503 
L 298.43592 232.745624 
L 304.600213 246.363079 
L 310.253375 257.257043 
L 313.988617 264.102574 
L 318.223063 258.066729 
L 322.882624 258.213945 
L 327.719543 251.957277 
L 332.752006 245.774216 
L 337.50487 251.14759 
L 342.546591 250.926767 
L 347.295868 263.881751 
L 352.151507 262.262378 
L 357.120273 262.630417 
L 362.141374 254.901591 
L 366.800487 255.63767 
L 371.737281 264.028966 
L 376.577274 252.619748 
L 381.504537 255.343239 
L 386.461374 254.60716 
L 391.262095 255.048807 
L 396.048147 254.459944 
L 401.032008 259.538887 
L 405.873256 260.201358 
L 410.742396 249.969864 
L 415.707922 260.79022 
L 421.591661 251.221198 
L 427.292728 249.675433 
L 430.878578 253.282218 
L 435.19517 253.135003 
L 440.084664 255.416846 
L 444.941889 250.11708 
L 449.903621 255.63767 
L 454.710552 245.553393 
L 459.664751 247.099158 
L 464.524231 221.115582 
L 469.772872 213.23954 
L 474.359884 225.237622 
L 479.354186 231.199859 
L 484.1472 254.018297 
L 488.914556 258.876416 
L 499.159332 250.190688 
L 503.534955 245.479785 
L 505.639659 248.203276 
L 519.134091 245.847824 
L 523.140479 249.160178 
L 528.025948 246.657511 
L 532.939373 245.332569 
L 538.883322 241.210529 
L 544.300107 244.081235 
L 548.043286 251.810061 
L 552.511775 253.429434 
L 557.384877 253.061395 
L 562.203619 246.657511 
L 567.113136 245.332569 
L 572.013748 245.99504 
L 576.961058 257.257043 
L 581.884528 266.089987 
L 586.658079 258.434769 
L 591.693221 254.459944 
L 596.70847 253.503042 
L 601.497015 244.522883 
L 606.114689 239.591156 
L 611.195582 222.146092 
L 615.987976 209.411931 
L 620.812948 204.553812 
L 625.705952 214.196443 
L 630.599918 234.291389 
L 635.557997 246.436687 
L 640.408702 244.743706 
L 645.262955 239.811979 
L 650.438086 239.885587 
L 656.838983 234.95386 
L 661.59617 240.768881 
L 665.325193 243.93402 
L 669.753633 243.713196 
L 674.554881 249.675433 
L 679.406818 258.876416 
" clip-path="url(#p2349a8acf9)" style="fill: none; stroke: #1f77b4; stroke-opacity: 0.5; stroke-width: 1.5; stroke-linecap: square"/>
    <defs>
     <path id="md8bab876ce" d="M 0 1 
C 0.265203 1 0.51958 0.894634 0.707107 0.707107 
C 0.894634 0.51958 1 0.265203 1 0 
C 1 -0.265203 0.894634 -0.51958 0.707107 -0.707107 
C 0.51958 -0.894634 0.265203 -1 0 -1 
C -0.265203 -1 -0.51958 -0.894634 -0.707107 -0.707107 
C -0.894634 -0.51958 -1 -0.265203 -1 0 
C -1 0.265203 -0.894634 0.51958 -0.707107 0.707107 
C -0.51958 0.894634 -0.265203 1 0 1 
z
" style="stroke: #1f77b4; stroke-opacity: 0.5"/>
    </defs>
    <g clip-path="url(#p2349a8acf9)">
     <use xlink:href="#md8bab876ce" x="83.543182" y="239.223116" style="fill: #1f77b4; fill-opacity: 0.5; stroke: #1f77b4; stroke-opacity: 0.5"/>
     <use xlink:href="#md8bab876ce" x="88.486856" y="241.725784" style="fill: #1f77b4; fill-opacity: 0.5; stroke: #1f77b4; stroke-opacity: 0.5"/>
     <use xlink:href="#md8bab876ce" x="93.345942" y="248.203276" style="fill: #1f77b4; fill-opacity: 0.5; stroke: #1f77b4; stroke-opacity: 0.5"/>
     <use xlink:href="#md8bab876ce" x="98.1835" y="243.050725" style="fill: #1f77b4; fill-opacity: 0.5; stroke: #1f77b4; stroke-opacity: 0.5"/>
     <use xlink:href="#md8bab876ce" x="103.122566" y="243.56598" style="fill: #1f77b4; fill-opacity: 0.5; stroke: #1f77b4; stroke-opacity: 0.5"/>
     <use xlink:href="#md8bab876ce" x="108.007919" y="250.11708" style="fill: #1f77b4; fill-opacity: 0.5; stroke: #1f77b4; stroke-opacity: 0.5"/>
     <use xlink:href="#md8bab876ce" x="112.795205" y="245.111745" style="fill: #1f77b4; fill-opacity: 0.5; stroke: #1f77b4; stroke-opacity: 0.5"/>
     <use xlink:href="#md8bab876ce" x="117.713607" y="250.11708" style="fill: #1f77b4; fill-opacity: 0.5; stroke: #1f77b4; stroke-opacity: 0.5"/>
     <use xlink:href="#md8bab876ce" x="127.532721" y="252.398924" style="fill: #1f77b4; fill-opacity: 0.5; stroke: #1f77b4; stroke-opacity: 0.5"/>
     <use xlink:href="#md8bab876ce" x="132.435236" y="252.987787" style="fill: #1f77b4; fill-opacity: 0.5; stroke: #1f77b4; stroke-opacity: 0.5"/>
     <use xlink:href="#md8bab876ce" x="137.20416" y="251.073982" style="fill: #1f77b4; fill-opacity: 0.5; stroke: #1f77b4; stroke-opacity: 0.5"/>
     <use xlink:href="#md8bab876ce" x="142.08944" y="258.802808" style="fill: #1f77b4; fill-opacity: 0.5; stroke: #1f77b4; stroke-opacity: 0.5"/>
     <use xlink:href="#md8bab876ce" x="147.036008" y="265.133084" style="fill: #1f77b4; fill-opacity: 0.5; stroke: #1f77b4; stroke-opacity: 0.5"/>
     <use xlink:href="#md8bab876ce" x="151.87008" y="264.397006" style="fill: #1f77b4; fill-opacity: 0.5; stroke: #1f77b4; stroke-opacity: 0.5"/>
     <use xlink:href="#md8bab876ce" x="156.864021" y="265.795555" style="fill: #1f77b4; fill-opacity: 0.5; stroke: #1f77b4; stroke-opacity: 0.5"/>
     <use xlink:href="#md8bab876ce" x="161.634555" y="254.680768" style="fill: #1f77b4; fill-opacity: 0.5; stroke: #1f77b4; stroke-opacity: 0.5"/>
     <use xlink:href="#md8bab876ce" x="166.513075" y="256.079317" style="fill: #1f77b4; fill-opacity: 0.5; stroke: #1f77b4; stroke-opacity: 0.5"/>
     <use xlink:href="#md8bab876ce" x="171.427872" y="256.079317" style="fill: #1f77b4; fill-opacity: 0.5; stroke: #1f77b4; stroke-opacity: 0.5"/>
     <use xlink:href="#md8bab876ce" x="176.408238" y="245.774216" style="fill: #1f77b4; fill-opacity: 0.5; stroke: #1f77b4; stroke-opacity: 0.5"/>
     <use xlink:href="#md8bab876ce" x="181.214239" y="256.815396" style="fill: #1f77b4; fill-opacity: 0.5; stroke: #1f77b4; stroke-opacity: 0.5"/>
     <use xlink:href="#md8bab876ce" x="187.337959" y="246.142256" style="fill: #1f77b4; fill-opacity: 0.5; stroke: #1f77b4; stroke-opacity: 0.5"/>
     <use xlink:href="#md8bab876ce" x="192.944984" y="240.768881" style="fill: #1f77b4; fill-opacity: 0.5; stroke: #1f77b4; stroke-opacity: 0.5"/>
     <use xlink:href="#md8bab876ce" x="196.489083" y="253.429434" style="fill: #1f77b4; fill-opacity: 0.5; stroke: #1f77b4; stroke-opacity: 0.5"/>
     <use xlink:href="#md8bab876ce" x="200.795035" y="242.90351" style="fill: #1f77b4; fill-opacity: 0.5; stroke: #1f77b4; stroke-opacity: 0.5"/>
     <use xlink:href="#md8bab876ce" x="205.685765" y="242.020215" style="fill: #1f77b4; fill-opacity: 0.5; stroke: #1f77b4; stroke-opacity: 0.5"/>
     <use xlink:href="#md8bab876ce" x="210.486823" y="247.835236" style="fill: #1f77b4; fill-opacity: 0.5; stroke: #1f77b4; stroke-opacity: 0.5"/>
     <use xlink:href="#md8bab876ce" x="215.388199" y="218.686522" style="fill: #1f77b4; fill-opacity: 0.5; stroke: #1f77b4; stroke-opacity: 0.5"/>
     <use xlink:href="#md8bab876ce" x="220.267132" y="221.410013" style="fill: #1f77b4; fill-opacity: 0.5; stroke: #1f77b4; stroke-opacity: 0.5"/>
     <use xlink:href="#md8bab876ce" x="225.169574" y="216.69911" style="fill: #1f77b4; fill-opacity: 0.5; stroke: #1f77b4; stroke-opacity: 0.5"/>
     <use xlink:href="#md8bab876ce" x="230.036128" y="210.957697" style="fill: #1f77b4; fill-opacity: 0.5; stroke: #1f77b4; stroke-opacity: 0.5"/>
     <use xlink:href="#md8bab876ce" x="234.910869" y="237.01488" style="fill: #1f77b4; fill-opacity: 0.5; stroke: #1f77b4; stroke-opacity: 0.5"/>
     <use xlink:href="#md8bab876ce" x="239.859672" y="234.512213" style="fill: #1f77b4; fill-opacity: 0.5; stroke: #1f77b4; stroke-opacity: 0.5"/>
     <use xlink:href="#md8bab876ce" x="244.773257" y="240.768881" style="fill: #1f77b4; fill-opacity: 0.5; stroke: #1f77b4; stroke-opacity: 0.5"/>
     <use xlink:href="#md8bab876ce" x="249.57954" y="246.583903" style="fill: #1f77b4; fill-opacity: 0.5; stroke: #1f77b4; stroke-opacity: 0.5"/>
     <use xlink:href="#md8bab876ce" x="254.430979" y="248.129668" style="fill: #1f77b4; fill-opacity: 0.5; stroke: #1f77b4; stroke-opacity: 0.5"/>
     <use xlink:href="#md8bab876ce" x="259.324169" y="248.129668" style="fill: #1f77b4; fill-opacity: 0.5; stroke: #1f77b4; stroke-opacity: 0.5"/>
     <use xlink:href="#md8bab876ce" x="264.251836" y="256.226533" style="fill: #1f77b4; fill-opacity: 0.5; stroke: #1f77b4; stroke-opacity: 0.5"/>
     <use xlink:href="#md8bab876ce" x="269.151594" y="248.424099" style="fill: #1f77b4; fill-opacity: 0.5; stroke: #1f77b4; stroke-opacity: 0.5"/>
     <use xlink:href="#md8bab876ce" x="274.024915" y="246.436687" style="fill: #1f77b4; fill-opacity: 0.5; stroke: #1f77b4; stroke-opacity: 0.5"/>
     <use xlink:href="#md8bab876ce" x="278.86631" y="243.860412" style="fill: #1f77b4; fill-opacity: 0.5; stroke: #1f77b4; stroke-opacity: 0.5"/>
     <use xlink:href="#md8bab876ce" x="283.809386" y="231.199859" style="fill: #1f77b4; fill-opacity: 0.5; stroke: #1f77b4; stroke-opacity: 0.5"/>
     <use xlink:href="#md8bab876ce" x="288.620722" y="220.968366" style="fill: #1f77b4; fill-opacity: 0.5; stroke: #1f77b4; stroke-opacity: 0.5"/>
     <use xlink:href="#md8bab876ce" x="293.538087" y="220.379503" style="fill: #1f77b4; fill-opacity: 0.5; stroke: #1f77b4; stroke-opacity: 0.5"/>
     <use xlink:href="#md8bab876ce" x="298.43592" y="232.745624" style="fill: #1f77b4; fill-opacity: 0.5; stroke: #1f77b4; stroke-opacity: 0.5"/>
     <use xlink:href="#md8bab876ce" x="304.600213" y="246.363079" style="fill: #1f77b4; fill-opacity: 0.5; stroke: #1f77b4; stroke-opacity: 0.5"/>
     <use xlink:href="#md8bab876ce" x="310.253375" y="257.257043" style="fill: #1f77b4; fill-opacity: 0.5; stroke: #1f77b4; stroke-opacity: 0.5"/>
     <use xlink:href="#md8bab876ce" x="313.988617" y="264.102574" style="fill: #1f77b4; fill-opacity: 0.5; stroke: #1f77b4; stroke-opacity: 0.5"/>
     <use xlink:href="#md8bab876ce" x="318.223063" y="258.066729" style="fill: #1f77b4; fill-opacity: 0.5; stroke: #1f77b4; stroke-opacity: 0.5"/>
     <use xlink:href="#md8bab876ce" x="322.882624" y="258.213945" style="fill: #1f77b4; fill-opacity: 0.5; stroke: #1f77b4; stroke-opacity: 0.5"/>
     <use xlink:href="#md8bab876ce" x="327.719543" y="251.957277" style="fill: #1f77b4; fill-opacity: 0.5; stroke: #1f77b4; stroke-opacity: 0.5"/>
     <use xlink:href="#md8bab876ce" x="332.752006" y="245.774216" style="fill: #1f77b4; fill-opacity: 0.5; stroke: #1f77b4; stroke-opacity: 0.5"/>
     <use xlink:href="#md8bab876ce" x="337.50487" y="251.14759" style="fill: #1f77b4; fill-opacity: 0.5; stroke: #1f77b4; stroke-opacity: 0.5"/>
     <use xlink:href="#md8bab876ce" x="342.546591" y="250.926767" style="fill: #1f77b4; fill-opacity: 0.5; stroke: #1f77b4; stroke-opacity: 0.5"/>
     <use xlink:href="#md8bab876ce" x="347.295868" y="263.881751" style="fill: #1f77b4; fill-opacity: 0.5; stroke: #1f77b4; stroke-opacity: 0.5"/>
     <use xlink:href="#md8bab876ce" x="352.151507" y="262.262378" style="fill: #1f77b4; fill-opacity: 0.5; stroke: #1f77b4; stroke-opacity: 0.5"/>
     <use xlink:href="#md8bab876ce" x="357.120273" y="262.630417" style="fill: #1f77b4; fill-opacity: 0.5; stroke: #1f77b4; stroke-opacity: 0.5"/>
     <use xlink:href="#md8bab876ce" x="362.141374" y="254.901591" style="fill: #1f77b4; fill-opacity: 0.5; stroke: #1f77b4; stroke-opacity: 0.5"/>
     <use xlink:href="#md8bab876ce" x="366.800487" y="255.63767" style="fill: #1f77b4; fill-opacity: 0.5; stroke: #1f77b4; stroke-opacity: 0.5"/>
     <use xlink:href="#md8bab876ce" x="371.737281" y="264.028966" style="fill: #1f77b4; fill-opacity: 0.5; stroke: #1f77b4; stroke-opacity: 0.5"/>
     <use xlink:href="#md8bab876ce" x="376.577274" y="252.619748" style="fill: #1f77b4; fill-opacity: 0.5; stroke: #1f77b4; stroke-opacity: 0.5"/>
     <use xlink:href="#md8bab876ce" x="381.504537" y="255.343239" style="fill: #1f77b4; fill-opacity: 0.5; stroke: #1f77b4; stroke-opacity: 0.5"/>
     <use xlink:href="#md8bab876ce" x="386.461374" y="254.60716" style="fill: #1f77b4; fill-opacity: 0.5; stroke: #1f77b4; stroke-opacity: 0.5"/>
     <use xlink:href="#md8bab876ce" x="391.262095" y="255.048807" style="fill: #1f77b4; fill-opacity: 0.5; stroke: #1f77b4; stroke-opacity: 0.5"/>
     <use xlink:href="#md8bab876ce" x="396.048147" y="254.459944" style="fill: #1f77b4; fill-opacity: 0.5; stroke: #1f77b4; stroke-opacity: 0.5"/>
     <use xlink:href="#md8bab876ce" x="401.032008" y="259.538887" style="fill: #1f77b4; fill-opacity: 0.5; stroke: #1f77b4; stroke-opacity: 0.5"/>
     <use xlink:href="#md8bab876ce" x="405.873256" y="260.201358" style="fill: #1f77b4; fill-opacity: 0.5; stroke: #1f77b4; stroke-opacity: 0.5"/>
     <use xlink:href="#md8bab876ce" x="410.742396" y="249.969864" style="fill: #1f77b4; fill-opacity: 0.5; stroke: #1f77b4; stroke-opacity: 0.5"/>
     <use xlink:href="#md8bab876ce" x="415.707922" y="260.79022" style="fill: #1f77b4; fill-opacity: 0.5; stroke: #1f77b4; stroke-opacity: 0.5"/>
     <use xlink:href="#md8bab876ce" x="421.591661" y="251.221198" style="fill: #1f77b4; fill-opacity: 0.5; stroke: #1f77b4; stroke-opacity: 0.5"/>
     <use xlink:href="#md8bab876ce" x="427.292728" y="249.675433" style="fill: #1f77b4; fill-opacity: 0.5; stroke: #1f77b4; stroke-opacity: 0.5"/>
     <use xlink:href="#md8bab876ce" x="430.878578" y="253.282218" style="fill: #1f77b4; fill-opacity: 0.5; stroke: #1f77b4; stroke-opacity: 0.5"/>
     <use xlink:href="#md8bab876ce" x="435.19517" y="253.135003" style="fill: #1f77b4; fill-opacity: 0.5; stroke: #1f77b4; stroke-opacity: 0.5"/>
     <use xlink:href="#md8bab876ce" x="440.084664" y="255.416846" style="fill: #1f77b4; fill-opacity: 0.5; stroke: #1f77b4; stroke-opacity: 0.5"/>
     <use xlink:href="#md8bab876ce" x="444.941889" y="250.11708" style="fill: #1f77b4; fill-opacity: 0.5; stroke: #1f77b4; stroke-opacity: 0.5"/>
     <use xlink:href="#md8bab876ce" x="449.903621" y="255.63767" style="fill: #1f77b4; fill-opacity: 0.5; stroke: #1f77b4; stroke-opacity: 0.5"/>
     <use xlink:href="#md8bab876ce" x="454.710552" y="245.553393" style="fill: #1f77b4; fill-opacity: 0.5; stroke: #1f77b4; stroke-opacity: 0.5"/>
     <use xlink:href="#md8bab876ce" x="459.664751" y="247.099158" style="fill: #1f77b4; fill-opacity: 0.5; stroke: #1f77b4; stroke-opacity: 0.5"/>
     <use xlink:href="#md8bab876ce" x="464.524231" y="221.115582" style="fill: #1f77b4; fill-opacity: 0.5; stroke: #1f77b4; stroke-opacity: 0.5"/>
     <use xlink:href="#md8bab876ce" x="469.772872" y="213.23954" style="fill: #1f77b4; fill-opacity: 0.5; stroke: #1f77b4; stroke-opacity: 0.5"/>
     <use xlink:href="#md8bab876ce" x="474.359884" y="225.237622" style="fill: #1f77b4; fill-opacity: 0.5; stroke: #1f77b4; stroke-opacity: 0.5"/>
     <use xlink:href="#md8bab876ce" x="479.354186" y="231.199859" style="fill: #1f77b4; fill-opacity: 0.5; stroke: #1f77b4; stroke-opacity: 0.5"/>
     <use xlink:href="#md8bab876ce" x="484.1472" y="254.018297" style="fill: #1f77b4; fill-opacity: 0.5; stroke: #1f77b4; stroke-opacity: 0.5"/>
     <use xlink:href="#md8bab876ce" x="488.914556" y="258.876416" style="fill: #1f77b4; fill-opacity: 0.5; stroke: #1f77b4; stroke-opacity: 0.5"/>
     <use xlink:href="#md8bab876ce" x="499.159332" y="250.190688" style="fill: #1f77b4; fill-opacity: 0.5; stroke: #1f77b4; stroke-opacity: 0.5"/>
     <use xlink:href="#md8bab876ce" x="503.534955" y="245.479785" style="fill: #1f77b4; fill-opacity: 0.5; stroke: #1f77b4; stroke-opacity: 0.5"/>
     <use xlink:href="#md8bab876ce" x="505.639659" y="248.203276" style="fill: #1f77b4; fill-opacity: 0.5; stroke: #1f77b4; stroke-opacity: 0.5"/>
     <use xlink:href="#md8bab876ce" x="519.134091" y="245.847824" style="fill: #1f77b4; fill-opacity: 0.5; stroke: #1f77b4; stroke-opacity: 0.5"/>
     <use xlink:href="#md8bab876ce" x="523.140479" y="249.160178" style="fill: #1f77b4; fill-opacity: 0.5; stroke: #1f77b4; stroke-opacity: 0.5"/>
     <use xlink:href="#md8bab876ce" x="528.025948" y="246.657511" style="fill: #1f77b4; fill-opacity: 0.5; stroke: #1f77b4; stroke-opacity: 0.5"/>
     <use xlink:href="#md8bab876ce" x="532.939373" y="245.332569" style="fill: #1f77b4; fill-opacity: 0.5; stroke: #1f77b4; stroke-opacity: 0.5"/>
     <use xlink:href="#md8bab876ce" x="538.883322" y="241.210529" style="fill: #1f77b4; fill-opacity: 0.5; stroke: #1f77b4; stroke-opacity: 0.5"/>
     <use xlink:href="#md8bab876ce" x="544.300107" y="244.081235" style="fill: #1f77b4; fill-opacity: 0.5; stroke: #1f77b4; stroke-opacity: 0.5"/>
     <use xlink:href="#md8bab876ce" x="548.043286" y="251.810061" style="fill: #1f77b4; fill-opacity: 0.5; stroke: #1f77b4; stroke-opacity: 0.5"/>
     <use xlink:href="#md8bab876ce" x="552.511775" y="253.429434" style="fill: #1f77b4; fill-opacity: 0.5; stroke: #1f77b4; stroke-opacity: 0.5"/>
     <use xlink:href="#md8bab876ce" x="557.384877" y="253.061395" style="fill: #1f77b4; fill-opacity: 0.5; stroke: #1f77b4; stroke-opacity: 0.5"/>
     <use xlink:href="#md8bab876ce" x="562.203619" y="246.657511" style="fill: #1f77b4; fill-opacity: 0.5; stroke: #1f77b4; stroke-opacity: 0.5"/>
     <use xlink:href="#md8bab876ce" x="567.113136" y="245.332569" style="fill: #1f77b4; fill-opacity: 0.5; stroke: #1f77b4; stroke-opacity: 0.5"/>
     <use xlink:href="#md8bab876ce" x="572.013748" y="245.99504" style="fill: #1f77b4; fill-opacity: 0.5; stroke: #1f77b4; stroke-opacity: 0.5"/>
     <use xlink:href="#md8bab876ce" x="576.961058" y="257.257043" style="fill: #1f77b4; fill-opacity: 0.5; stroke: #1f77b4; stroke-opacity: 0.5"/>
     <use xlink:href="#md8bab876ce" x="581.884528" y="266.089987" style="fill: #1f77b4; fill-opacity: 0.5; stroke: #1f77b4; stroke-opacity: 0.5"/>
     <use xlink:href="#md8bab876ce" x="586.658079" y="258.434769" style="fill: #1f77b4; fill-opacity: 0.5; stroke: #1f77b4; stroke-opacity: 0.5"/>
     <use xlink:href="#md8bab876ce" x="591.693221" y="254.459944" style="fill: #1f77b4; fill-opacity: 0.5; stroke: #1f77b4; stroke-opacity: 0.5"/>
     <use xlink:href="#md8bab876ce" x="596.70847" y="253.503042" style="fill: #1f77b4; fill-opacity: 0.5; stroke: #1f77b4; stroke-opacity: 0.5"/>
     <use xlink:href="#md8bab876ce" x="601.497015" y="244.522883" style="fill: #1f77b4; fill-opacity: 0.5; stroke: #1f77b4; stroke-opacity: 0.5"/>
     <use xlink:href="#md8bab876ce" x="606.114689" y="239.591156" style="fill: #1f77b4; fill-opacity: 0.5; stroke: #1f77b4; stroke-opacity: 0.5"/>
     <use xlink:href="#md8bab876ce" x="611.195582" y="222.146092" style="fill: #1f77b4; fill-opacity: 0.5; stroke: #1f77b4; stroke-opacity: 0.5"/>
     <use xlink:href="#md8bab876ce" x="615.987976" y="209.411931" style="fill: #1f77b4; fill-opacity: 0.5; stroke: #1f77b4; stroke-opacity: 0.5"/>
     <use xlink:href="#md8bab876ce" x="620.812948" y="204.553812" style="fill: #1f77b4; fill-opacity: 0.5; stroke: #1f77b4; stroke-opacity: 0.5"/>
     <use xlink:href="#md8bab876ce" x="625.705952" y="214.196443" style="fill: #1f77b4; fill-opacity: 0.5; stroke: #1f77b4; stroke-opacity: 0.5"/>
     <use xlink:href="#md8bab876ce" x="630.599918" y="234.291389" style="fill: #1f77b4; fill-opacity: 0.5; stroke: #1f77b4; stroke-opacity: 0.5"/>
     <use xlink:href="#md8bab876ce" x="635.557997" y="246.436687" style="fill: #1f77b4; fill-opacity: 0.5; stroke: #1f77b4; stroke-opacity: 0.5"/>
     <use xlink:href="#md8bab876ce" x="640.408702" y="244.743706" style="fill: #1f77b4; fill-opacity: 0.5; stroke: #1f77b4; stroke-opacity: 0.5"/>
     <use xlink:href="#md8bab876ce" x="645.262955" y="239.811979" style="fill: #1f77b4; fill-opacity: 0.5; stroke: #1f77b4; stroke-opacity: 0.5"/>
     <use xlink:href="#md8bab876ce" x="650.438086" y="239.885587" style="fill: #1f77b4; fill-opacity: 0.5; stroke: #1f77b4; stroke-opacity: 0.5"/>
     <use xlink:href="#md8bab876ce" x="656.838983" y="234.95386" style="fill: #1f77b4; fill-opacity: 0.5; stroke: #1f77b4; stroke-opacity: 0.5"/>
     <use xlink:href="#md8bab876ce" x="661.59617" y="240.768881" style="fill: #1f77b4; fill-opacity: 0.5; stroke: #1f77b4; stroke-opacity: 0.5"/>
     <use xlink:href="#md8bab876ce" x="665.325193" y="243.93402" style="fill: #1f77b4; fill-opacity: 0.5; stroke: #1f77b4; stroke-opacity: 0.5"/>
     <use xlink:href="#md8bab876ce" x="669.753633" y="243.713196" style="fill: #1f77b4; fill-opacity: 0.5; stroke: #1f77b4; stroke-opacity: 0.5"/>
     <use xlink:href="#md8bab876ce" x="674.554881" y="249.675433" style="fill: #1f77b4; fill-opacity: 0.5; stroke: #1f77b4; stroke-opacity: 0.5"/>
     <use xlink:href="#md8bab876ce" x="679.406818" y="258.876416" style="fill: #1f77b4; fill-opacity: 0.5; stroke: #1f77b4; stroke-opacity: 0.5"/>
    </g>
   </g>
   <g id="line2d_30">
    <path d="M 187.337959 250.42378 
L 192.944984 251.012643 
L 196.489083 251.564702 
L 200.795035 251.061714 
L 205.685765 250.889963 
L 210.486823 252.030885 
L 215.388199 246.645243 
L 220.267132 247.454929 
L 225.169574 246.412151 
L 230.036128 245.504321 
L 234.910869 245.295765 
L 239.859672 244.854118 
L 244.773257 244.473811 
L 249.57954 244.437007 
L 254.430979 244.805046 
L 259.324169 243.075261 
L 264.251836 242.989385 
L 269.151594 241.774856 
L 274.024915 241.578568 
L 278.86631 241.271869 
L 283.809386 238.842809 
L 288.620722 235.92303 
L 293.538087 237.346116 
L 298.43592 237.26024 
L 304.600213 238.879613 
L 310.253375 238.671057 
L 313.988617 239.124973 
L 318.223063 239.787443 
L 322.882624 241.578568 
L 327.719543 239.358064 
L 332.752006 243.639588 
L 337.50487 244.743706 
L 342.546591 247.283177 
L 347.295868 248.17874 
L 352.151507 247.847504 
L 357.120273 249.430073 
L 362.141374 249.638629 
L 366.800487 249.687701 
L 371.737281 250.497387 
L 376.577274 250.17842 
L 381.504537 249.491413 
L 386.461374 250.718211 
L 391.262095 251.932741 
L 396.048147 251.945009 
L 401.032008 254.214585 
L 405.873256 257.257043 
L 410.742396 256.864468 
L 415.707922 256.619108 
L 421.591661 255.024271 
L 427.292728 255.993441 
L 430.878578 255.061075 
L 435.19517 255.797154 
L 440.084664 254.558088 
L 444.941889 255.686742 
L 449.903621 256.704984 
L 454.710552 254.864787 
L 459.664751 253.920153 
L 464.524231 248.559047 
L 469.772872 248.534511 
L 474.359884 248.632655 
L 479.354186 249.969864 
L 484.1472 248.289152 
L 488.914556 247.675753 
L 499.159332 248.227812 
L 503.534955 248.325955 
L 505.639659 247.221838 
L 519.134091 246.142256 
L 523.140479 247.344517 
L 528.025948 246.179059 
L 532.939373 244.743706 
L 538.883322 244.682366 
L 544.300107 244.559686 
L 548.043286 246.277203 
L 552.511775 245.369373 
L 557.384877 244.645562 
L 562.203619 243.480104 
L 567.113136 244.59649 
L 572.013748 244.682366 
L 576.961058 244.915458 
L 581.884528 246.90287 
L 586.658079 246.485759 
L 591.693221 250.23976 
L 596.70847 251.626041 
L 601.497015 250.11708 
L 606.114689 247.884308 
L 611.195582 244.927726 
L 615.987976 243.381961 
L 620.812948 242.510934 
L 625.705952 242.670418 
L 630.599918 242.609078 
L 635.557997 243.480104 
L 640.408702 241.774856 
L 645.262955 241.529496 
L 650.438086 241.701248 
L 656.838983 242.437326 
L 661.59617 241.222797 
L 665.325193 240.216823 
L 669.753633 240.081875 
L 674.554881 241.872999 
L 679.406818 243.259281 
" clip-path="url(#p2349a8acf9)" style="fill: none; stroke: #ff7f0e; stroke-width: 1.5; stroke-linecap: square"/>
   </g>
   <g id="line2d_31">
    <path d="M 53.75 38.956666 
L 709.2 38.956666 
" clip-path="url(#p2349a8acf9)" style="fill: none; stroke-dasharray: 5.55,2.4; stroke-dashoffset: 0; stroke: #ff0000; stroke-width: 1.5"/>
   </g>
   <g id="patch_3">
    <path d="M 53.75 277.446653 
L 53.75 27.6 
" style="fill: none; stroke: #000000; stroke-width: 0.8; stroke-linejoin: miter; stroke-linecap: square"/>
   </g>
   <g id="patch_4">
    <path d="M 709.2 277.446653 
L 709.2 27.6 
" style="fill: none; stroke: #000000; stroke-width: 0.8; stroke-linejoin: miter; stroke-linecap: square"/>
   </g>
   <g id="patch_5">
    <path d="M 53.75 277.446653 
L 709.2 277.446653 
" style="fill: none; stroke: #000000; stroke-width: 0.8; stroke-linejoin: miter; stroke-linecap: square"/>
   </g>
   <g id="patch_6">
    <path d="M 53.75 27.6 
L 709.2 27.6 
" style="fill: none; stroke: #000000; stroke-width: 0.8; stroke-linejoin: miter; stroke-linecap: square"/>
   </g>
   <g id="text_17">
    <!-- Response Time Over Time for https://api.cloud.hypatos.ai/v2 (4-Hour and 24-Hour Rolling Averages) -->
    <g transform="translate(31.610625 21.6) scale(0.14 -0.14)">
     <defs>
      <path id="DejaVuSans-4f" d="M 2522 4238 
Q 1834 4238 1429 3725 
Q 1025 3213 1025 2328 
Q 1025 1447 1429 934 
Q 1834 422 2522 422 
Q 3209 422 3611 934 
Q 4013 1447 4013 2328 
Q 4013 3213 3611 3725 
Q 3209 4238 2522 4238 
z
M 2522 4750 
Q 3503 4750 4090 4092 
Q 4678 3434 4678 2328 
Q 4678 1225 4090 567 
Q 3503 -91 2522 -91 
Q 1538 -91 948 565 
Q 359 1222 359 2328 
Q 359 3434 948 4092 
Q 1538 4750 2522 4750 
z
" transform="scale(0.015625)"/>
      <path id="DejaVuSans-76" d="M 191 3500 
L 800 3500 
L 1894 563 
L 2988 3500 
L 3597 3500 
L 2284 0 
L 1503 0 
L 191 3500 
z
" transform="scale(0.015625)"/>
      <path id="DejaVuSans-72" d="M 2631 2963 
Q 2534 3019 2420 3045 
Q 2306 3072 2169 3072 
Q 1681 3072 1420 2755 
Q 1159 2438 1159 1844 
L 1159 0 
L 581 0 
L 581 3500 
L 1159 3500 
L 1159 2956 
Q 1341 3275 1631 3429 
Q 1922 3584 2338 3584 
Q 2397 3584 2469 3576 
Q 2541 3569 2628 3553 
L 2631 2963 
z
" transform="scale(0.015625)"/>
      <path id="DejaVuSans-66" d="M 2375 4863 
L 2375 4384 
L 1825 4384 
Q 1516 4384 1395 4259 
Q 1275 4134 1275 3809 
L 1275 3500 
L 2222 3500 
L 2222 3053 
L 1275 3053 
L 1275 0 
L 697 0 
L 697 3053 
L 147 3053 
L 147 3500 
L 697 3500 
L 697 3744 
Q 697 4328 969 4595 
Q 1241 4863 1831 4863 
L 2375 4863 
z
" transform="scale(0.015625)"/>
      <path id="DejaVuSans-68" d="M 3513 2113 
L 3513 0 
L 2938 0 
L 2938 2094 
Q 2938 2591 2744 2837 
Q 2550 3084 2163 3084 
Q 1697 3084 1428 2787 
Q 1159 2491 1159 1978 
L 1159 0 
L 581 0 
L 581 4863 
L 1159 4863 
L 1159 2956 
Q 1366 3272 1645 3428 
Q 1925 3584 2291 3584 
Q 2894 3584 3203 3211 
Q 3513 2838 3513 2113 
z
" transform="scale(0.015625)"/>
      <path id="DejaVuSans-74" d="M 1172 4494 
L 1172 3500 
L 2356 3500 
L 2356 3053 
L 1172 3053 
L 1172 1153 
Q 1172 725 1289 603 
Q 1406 481 1766 481 
L 2356 481 
L 2356 0 
L 1766 0 
Q 1100 0 847 248 
Q 594 497 594 1153 
L 594 3053 
L 172 3053 
L 172 3500 
L 594 3500 
L 594 4494 
L 1172 4494 
z
" transform="scale(0.015625)"/>
      <path id="DejaVuSans-3a" d="M 750 794 
L 1409 794 
L 1409 0 
L 750 0 
L 750 794 
z
M 750 3309 
L 1409 3309 
L 1409 2516 
L 750 2516 
L 750 3309 
z
" transform="scale(0.015625)"/>
      <path id="DejaVuSans-2f" d="M 1625 4666 
L 2156 4666 
L 531 -594 
L 0 -594 
L 1625 4666 
z
" transform="scale(0.015625)"/>
      <path id="DejaVuSans-61" d="M 2194 1759 
Q 1497 1759 1228 1600 
Q 959 1441 959 1056 
Q 959 750 1161 570 
Q 1363 391 1709 391 
Q 2188 391 2477 730 
Q 2766 1069 2766 1631 
L 2766 1759 
L 2194 1759 
z
M 3341 1997 
L 3341 0 
L 2766 0 
L 2766 531 
Q 2569 213 2275 61 
Q 1981 -91 1556 -91 
Q 1019 -91 701 211 
Q 384 513 384 1019 
Q 384 1609 779 1909 
Q 1175 2209 1959 2209 
L 2766 2209 
L 2766 2266 
Q 2766 2663 2505 2880 
Q 2244 3097 1772 3097 
Q 1472 3097 1187 3025 
Q 903 2953 641 2809 
L 641 3341 
Q 956 3463 1253 3523 
Q 1550 3584 1831 3584 
Q 2591 3584 2966 3190 
Q 3341 2797 3341 1997 
z
" transform="scale(0.015625)"/>
      <path id="DejaVuSans-2e" d="M 684 794 
L 1344 794 
L 1344 0 
L 684 0 
L 684 794 
z
" transform="scale(0.015625)"/>
      <path id="DejaVuSans-63" d="M 3122 3366 
L 3122 2828 
Q 2878 2963 2633 3030 
Q 2388 3097 2138 3097 
Q 1578 3097 1268 2742 
Q 959 2388 959 1747 
Q 959 1106 1268 751 
Q 1578 397 2138 397 
Q 2388 397 2633 464 
Q 2878 531 3122 666 
L 3122 134 
Q 2881 22 2623 -34 
Q 2366 -91 2075 -91 
Q 1284 -91 818 406 
Q 353 903 353 1747 
Q 353 2603 823 3093 
Q 1294 3584 2113 3584 
Q 2378 3584 2631 3529 
Q 2884 3475 3122 3366 
z
" transform="scale(0.015625)"/>
      <path id="DejaVuSans-6c" d="M 603 4863 
L 1178 4863 
L 1178 0 
L 603 0 
L 603 4863 
z
" transform="scale(0.015625)"/>
      <path id="DejaVuSans-75" d="M 544 1381 
L 544 3500 
L 1119 3500 
L 1119 1403 
Q 1119 906 1312 657 
Q 1506 409 1894 409 
Q 2359 409 2629 706 
Q 2900 1003 2900 1516 
L 2900 3500 
L 3475 3500 
L 3475 0 
L 2900 0 
L 2900 538 
Q 2691 219 2414 64 
Q 2138 -91 1772 -91 
Q 1169 -91 856 284 
Q 544 659 544 1381 
z
M 1991 3584 
L 1991 3584 
z
" transform="scale(0.015625)"/>
      <path id="DejaVuSans-64" d="M 2906 2969 
L 2906 4863 
L 3481 4863 
L 3481 0 
L 2906 0 
L 2906 525 
Q 2725 213 2448 61 
Q 2172 -91 1784 -91 
Q 1150 -91 751 415 
Q 353 922 353 1747 
Q 353 2572 751 3078 
Q 1150 3584 1784 3584 
Q 2172 3584 2448 3432 
Q 2725 3281 2906 2969 
z
M 947 1747 
Q 947 1113 1208 752 
Q 1469 391 1925 391 
Q 2381 391 2643 752 
Q 2906 1113 2906 1747 
Q 2906 2381 2643 2742 
Q 2381 3103 1925 3103 
Q 1469 3103 1208 2742 
Q 947 2381 947 1747 
z
" transform="scale(0.015625)"/>
      <path id="DejaVuSans-79" d="M 2059 -325 
Q 1816 -950 1584 -1140 
Q 1353 -1331 966 -1331 
L 506 -1331 
L 506 -850 
L 844 -850 
Q 1081 -850 1212 -737 
Q 1344 -625 1503 -206 
L 1606 56 
L 191 3500 
L 800 3500 
L 1894 763 
L 2988 3500 
L 3597 3500 
L 2059 -325 
z
" transform="scale(0.015625)"/>
      <path id="DejaVuSans-48" d="M 628 4666 
L 1259 4666 
L 1259 2753 
L 3553 2753 
L 3553 4666 
L 4184 4666 
L 4184 0 
L 3553 0 
L 3553 2222 
L 1259 2222 
L 1259 0 
L 628 0 
L 628 4666 
z
" transform="scale(0.015625)"/>
      <path id="DejaVuSans-67" d="M 2906 1791 
Q 2906 2416 2648 2759 
Q 2391 3103 1925 3103 
Q 1463 3103 1205 2759 
Q 947 2416 947 1791 
Q 947 1169 1205 825 
Q 1463 481 1925 481 
Q 2391 481 2648 825 
Q 2906 1169 2906 1791 
z
M 3481 434 
Q 3481 -459 3084 -895 
Q 2688 -1331 1869 -1331 
Q 1566 -1331 1297 -1286 
Q 1028 -1241 775 -1147 
L 775 -588 
Q 1028 -725 1275 -790 
Q 1522 -856 1778 -856 
Q 2344 -856 2625 -561 
Q 2906 -266 2906 331 
L 2906 616 
Q 2728 306 2450 153 
Q 2172 0 1784 0 
Q 1141 0 747 490 
Q 353 981 353 1791 
Q 353 2603 747 3093 
Q 1141 3584 1784 3584 
Q 2172 3584 2450 3431 
Q 2728 3278 2906 2969 
L 2906 3500 
L 3481 3500 
L 3481 434 
z
" transform="scale(0.015625)"/>
      <path id="DejaVuSans-41" d="M 2188 4044 
L 1331 1722 
L 3047 1722 
L 2188 4044 
z
M 1831 4666 
L 2547 4666 
L 4325 0 
L 3669 0 
L 3244 1197 
L 1141 1197 
L 716 0 
L 50 0 
L 1831 4666 
z
" transform="scale(0.015625)"/>
     </defs>
     <use xlink:href="#DejaVuSans-52"/>
     <use xlink:href="#DejaVuSans-65" x="64.982422"/>
     <use xlink:href="#DejaVuSans-73" x="126.505859"/>
     <use xlink:href="#DejaVuSans-70" x="178.605469"/>
     <use xlink:href="#DejaVuSans-6f" x="242.082031"/>
     <use xlink:href="#DejaVuSans-6e" x="303.263672"/>
     <use xlink:href="#DejaVuSans-73" x="366.642578"/>
     <use xlink:href="#DejaVuSans-65" x="418.742188"/>
     <use xlink:href="#DejaVuSans-20" x="480.265625"/>
     <use xlink:href="#DejaVuSans-54" x="512.052734"/>
     <use xlink:href="#DejaVuSans-69" x="570.011719"/>
     <use xlink:href="#DejaVuSans-6d" x="597.794922"/>
     <use xlink:href="#DejaVuSans-65" x="695.207031"/>
     <use xlink:href="#DejaVuSans-20" x="756.730469"/>
     <use xlink:href="#DejaVuSans-4f" x="788.517578"/>
     <use xlink:href="#DejaVuSans-76" x="867.228516"/>
     <use xlink:href="#DejaVuSans-65" x="926.408203"/>
     <use xlink:href="#DejaVuSans-72" x="987.931641"/>
     <use xlink:href="#DejaVuSans-20" x="1029.044922"/>
     <use xlink:href="#DejaVuSans-54" x="1060.832031"/>
     <use xlink:href="#DejaVuSans-69" x="1118.791016"/>
     <use xlink:href="#DejaVuSans-6d" x="1146.574219"/>
     <use xlink:href="#DejaVuSans-65" x="1243.986328"/>
     <use xlink:href="#DejaVuSans-20" x="1305.509766"/>
     <use xlink:href="#DejaVuSans-66" x="1337.296875"/>
     <use xlink:href="#DejaVuSans-6f" x="1372.501953"/>
     <use xlink:href="#DejaVuSans-72" x="1433.683594"/>
     <use xlink:href="#DejaVuSans-20" x="1474.796875"/>
     <use xlink:href="#DejaVuSans-68" x="1506.583984"/>
     <use xlink:href="#DejaVuSans-74" x="1569.962891"/>
     <use xlink:href="#DejaVuSans-74" x="1609.171875"/>
     <use xlink:href="#DejaVuSans-70" x="1648.380859"/>
     <use xlink:href="#DejaVuSans-73" x="1711.857422"/>
     <use xlink:href="#DejaVuSans-3a" x="1763.957031"/>
     <use xlink:href="#DejaVuSans-2f" x="1797.648438"/>
     <use xlink:href="#DejaVuSans-2f" x="1831.339844"/>
     <use xlink:href="#DejaVuSans-61" x="1865.03125"/>
     <use xlink:href="#DejaVuSans-70" x="1926.310547"/>
     <use xlink:href="#DejaVuSans-69" x="1989.787109"/>
     <use xlink:href="#DejaVuSans-2e" x="2017.570312"/>
     <use xlink:href="#DejaVuSans-63" x="2049.357422"/>
     <use xlink:href="#DejaVuSans-6c" x="2104.337891"/>
     <use xlink:href="#DejaVuSans-6f" x="2132.121094"/>
     <use xlink:href="#DejaVuSans-75" x="2193.302734"/>
     <use xlink:href="#DejaVuSans-64" x="2256.681641"/>
     <use xlink:href="#DejaVuSans-2e" x="2320.158203"/>
     <use xlink:href="#DejaVuSans-68" x="2351.945312"/>
     <use xlink:href="#DejaVuSans-79" x="2415.324219"/>
     <use xlink:href="#DejaVuSans-70" x="2474.503906"/>
     <use xlink:href="#DejaVuSans-61" x="2537.980469"/>
     <use xlink:href="#DejaVuSans-74" x="2599.259766"/>
     <use xlink:href="#DejaVuSans-6f" x="2638.46875"/>
     <use xlink:href="#DejaVuSans-73" x="2699.650391"/>
     <use xlink:href="#DejaVuSans-2e" x="2751.75"/>
     <use xlink:href="#DejaVuSans-61" x="2783.537109"/>
     <use xlink:href="#DejaVuSans-69" x="2844.816406"/>
     <use xlink:href="#DejaVuSans-2f" x="2872.599609"/>
     <use xlink:href="#DejaVuSans-76" x="2906.291016"/>
     <use xlink:href="#DejaVuSans-32" x="2965.470703"/>
     <use xlink:href="#DejaVuSans-20" x="3029.09375"/>
     <use xlink:href="#DejaVuSans-28" x="3060.880859"/>
     <use xlink:href="#DejaVuSans-34" x="3099.894531"/>
     <use xlink:href="#DejaVuSans-2d" x="3163.517578"/>
     <use xlink:href="#DejaVuSans-48" x="3199.601562"/>
     <use xlink:href="#DejaVuSans-6f" x="3274.796875"/>
     <use xlink:href="#DejaVuSans-75" x="3335.978516"/>
     <use xlink:href="#DejaVuSans-72" x="3399.357422"/>
     <use xlink:href="#DejaVuSans-20" x="3440.470703"/>
     <use xlink:href="#DejaVuSans-61" x="3472.257812"/>
     <use xlink:href="#DejaVuSans-6e" x="3533.537109"/>
     <use xlink:href="#DejaVuSans-64" x="3596.916016"/>
     <use xlink:href="#DejaVuSans-20" x="3660.392578"/>
     <use xlink:href="#DejaVuSans-32" x="3692.179688"/>
     <use xlink:href="#DejaVuSans-34" x="3755.802734"/>
     <use xlink:href="#DejaVuSans-2d" x="3819.425781"/>
     <use xlink:href="#DejaVuSans-48" x="3855.509766"/>
     <use xlink:href="#DejaVuSans-6f" x="3930.705078"/>
     <use xlink:href="#DejaVuSans-75" x="3991.886719"/>
     <use xlink:href="#DejaVuSans-72" x="4055.265625"/>
     <use xlink:href="#DejaVuSans-20" x="4096.378906"/>
     <use xlink:href="#DejaVuSans-52" x="4128.166016"/>
     <use xlink:href="#DejaVuSans-6f" x="4193.148438"/>
     <use xlink:href="#DejaVuSans-6c" x="4254.330078"/>
     <use xlink:href="#DejaVuSans-6c" x="4282.113281"/>
     <use xlink:href="#DejaVuSans-69" x="4309.896484"/>
     <use xlink:href="#DejaVuSans-6e" x="4337.679688"/>
     <use xlink:href="#DejaVuSans-67" x="4401.058594"/>
     <use xlink:href="#DejaVuSans-20" x="4464.535156"/>
     <use xlink:href="#DejaVuSans-41" x="4496.322266"/>
     <use xlink:href="#DejaVuSans-76" x="4558.855469"/>
     <use xlink:href="#DejaVuSans-65" x="4618.035156"/>
     <use xlink:href="#DejaVuSans-72" x="4679.558594"/>
     <use xlink:href="#DejaVuSans-61" x="4720.671875"/>
     <use xlink:href="#DejaVuSans-67" x="4781.951172"/>
     <use xlink:href="#DejaVuSans-65" x="4845.427734"/>
     <use xlink:href="#DejaVuSans-73" x="4906.951172"/>
     <use xlink:href="#DejaVuSans-29" x="4959.050781"/>
    </g>
   </g>
   <g id="legend_1">
    <g id="patch_7">
     <path d="M 484.05625 176.040514 
L 702.2 176.040514 
Q 704.2 176.040514 704.2 174.040514 
L 704.2 131.006139 
Q 704.2 129.006139 702.2 129.006139 
L 484.05625 129.006139 
Q 482.05625 129.006139 482.05625 131.006139 
L 482.05625 174.040514 
Q 482.05625 176.040514 484.05625 176.040514 
z
" style="fill: #ffffff; opacity: 0.8; stroke: #cccccc; stroke-linejoin: miter"/>
    </g>
    <g id="line2d_32">
     <path d="M 486.05625 137.104576 
L 496.05625 137.104576 
L 506.05625 137.104576 
" style="fill: none; stroke: #1f77b4; stroke-opacity: 0.5; stroke-width: 1.5; stroke-linecap: square"/>
     <g>
      <use xlink:href="#md8bab876ce" x="496.05625" y="137.104576" style="fill: #1f77b4; fill-opacity: 0.5; stroke: #1f77b4; stroke-opacity: 0.5"/>
     </g>
    </g>
    <g id="text_18">
     <!-- 4-Hour Rolling Average -->
     <g transform="translate(514.05625 140.604576) scale(0.1 -0.1)">
      <use xlink:href="#DejaVuSans-34"/>
      <use xlink:href="#DejaVuSans-2d" x="63.623047"/>
      <use xlink:href="#DejaVuSans-48" x="99.707031"/>
      <use xlink:href="#DejaVuSans-6f" x="174.902344"/>
      <use xlink:href="#DejaVuSans-75" x="236.083984"/>
      <use xlink:href="#DejaVuSans-72" x="299.462891"/>
      <use xlink:href="#DejaVuSans-20" x="340.576172"/>
      <use xlink:href="#DejaVuSans-52" x="372.363281"/>
      <use xlink:href="#DejaVuSans-6f" x="437.345703"/>
      <use xlink:href="#DejaVuSans-6c" x="498.527344"/>
      <use xlink:href="#DejaVuSans-6c" x="526.310547"/>
      <use xlink:href="#DejaVuSans-69" x="554.09375"/>
      <use xlink:href="#DejaVuSans-6e" x="581.876953"/>
      <use xlink:href="#DejaVuSans-67" x="645.255859"/>
      <use xlink:href="#DejaVuSans-20" x="708.732422"/>
      <use xlink:href="#DejaVuSans-41" x="740.519531"/>
      <use xlink:href="#DejaVuSans-76" x="803.052734"/>
      <use xlink:href="#DejaVuSans-65" x="862.232422"/>
      <use xlink:href="#DejaVuSans-72" x="923.755859"/>
      <use xlink:href="#DejaVuSans-61" x="964.869141"/>
      <use xlink:href="#DejaVuSans-67" x="1026.148438"/>
      <use xlink:href="#DejaVuSans-65" x="1089.625"/>
     </g>
    </g>
    <g id="line2d_33">
     <path d="M 486.05625 151.782701 
L 496.05625 151.782701 
L 506.05625 151.782701 
" style="fill: none; stroke: #ff7f0e; stroke-width: 1.5; stroke-linecap: square"/>
    </g>
    <g id="text_19">
     <!-- 24-Hour Rolling Average -->
     <g transform="translate(514.05625 155.282701) scale(0.1 -0.1)">
      <use xlink:href="#DejaVuSans-32"/>
      <use xlink:href="#DejaVuSans-34" x="63.623047"/>
      <use xlink:href="#DejaVuSans-2d" x="127.246094"/>
      <use xlink:href="#DejaVuSans-48" x="163.330078"/>
      <use xlink:href="#DejaVuSans-6f" x="238.525391"/>
      <use xlink:href="#DejaVuSans-75" x="299.707031"/>
      <use xlink:href="#DejaVuSans-72" x="363.085938"/>
      <use xlink:href="#DejaVuSans-20" x="404.199219"/>
      <use xlink:href="#DejaVuSans-52" x="435.986328"/>
      <use xlink:href="#DejaVuSans-6f" x="500.96875"/>
      <use xlink:href="#DejaVuSans-6c" x="562.150391"/>
      <use xlink:href="#DejaVuSans-6c" x="589.933594"/>
      <use xlink:href="#DejaVuSans-69" x="617.716797"/>
      <use xlink:href="#DejaVuSans-6e" x="645.5"/>
      <use xlink:href="#DejaVuSans-67" x="708.878906"/>
      <use xlink:href="#DejaVuSans-20" x="772.355469"/>
      <use xlink:href="#DejaVuSans-41" x="804.142578"/>
      <use xlink:href="#DejaVuSans-76" x="866.675781"/>
      <use xlink:href="#DejaVuSans-65" x="925.855469"/>
      <use xlink:href="#DejaVuSans-72" x="987.378906"/>
      <use xlink:href="#DejaVuSans-61" x="1028.492188"/>
      <use xlink:href="#DejaVuSans-67" x="1089.771484"/>
      <use xlink:href="#DejaVuSans-65" x="1153.248047"/>
     </g>
    </g>
    <g id="line2d_34">
     <path d="M 486.05625 166.460826 
L 496.05625 166.460826 
L 506.05625 166.460826 
" style="fill: none; stroke-dasharray: 5.55,2.4; stroke-dashoffset: 0; stroke: #ff0000; stroke-width: 1.5"/>
    </g>
    <g id="text_20">
     <!-- Average Response Time from All APIs -->
     <g transform="translate(514.05625 169.960826) scale(0.1 -0.1)">
      <defs>
       <path id="DejaVuSans-50" d="M 1259 4147 
L 1259 2394 
L 2053 2394 
Q 2494 2394 2734 2622 
Q 2975 2850 2975 3272 
Q 2975 3691 2734 3919 
Q 2494 4147 2053 4147 
L 1259 4147 
z
M 628 4666 
L 2053 4666 
Q 2838 4666 3239 4311 
Q 3641 3956 3641 3272 
Q 3641 2581 3239 2228 
Q 2838 1875 2053 1875 
L 1259 1875 
L 1259 0 
L 628 0 
L 628 4666 
z
" transform="scale(0.015625)"/>
       <path id="DejaVuSans-49" d="M 628 4666 
L 1259 4666 
L 1259 0 
L 628 0 
L 628 4666 
z
" transform="scale(0.015625)"/>
      </defs>
      <use xlink:href="#DejaVuSans-41"/>
      <use xlink:href="#DejaVuSans-76" x="62.533203"/>
      <use xlink:href="#DejaVuSans-65" x="121.712891"/>
      <use xlink:href="#DejaVuSans-72" x="183.236328"/>
      <use xlink:href="#DejaVuSans-61" x="224.349609"/>
      <use xlink:href="#DejaVuSans-67" x="285.628906"/>
      <use xlink:href="#DejaVuSans-65" x="349.105469"/>
      <use xlink:href="#DejaVuSans-20" x="410.628906"/>
      <use xlink:href="#DejaVuSans-52" x="442.416016"/>
      <use xlink:href="#DejaVuSans-65" x="507.398438"/>
      <use xlink:href="#DejaVuSans-73" x="568.921875"/>
      <use xlink:href="#DejaVuSans-70" x="621.021484"/>
      <use xlink:href="#DejaVuSans-6f" x="684.498047"/>
      <use xlink:href="#DejaVuSans-6e" x="745.679688"/>
      <use xlink:href="#DejaVuSans-73" x="809.058594"/>
      <use xlink:href="#DejaVuSans-65" x="861.158203"/>
      <use xlink:href="#DejaVuSans-20" x="922.681641"/>
      <use xlink:href="#DejaVuSans-54" x="954.46875"/>
      <use xlink:href="#DejaVuSans-69" x="1012.427734"/>
      <use xlink:href="#DejaVuSans-6d" x="1040.210938"/>
      <use xlink:href="#DejaVuSans-65" x="1137.623047"/>
      <use xlink:href="#DejaVuSans-20" x="1199.146484"/>
      <use xlink:href="#DejaVuSans-66" x="1230.933594"/>
      <use xlink:href="#DejaVuSans-72" x="1266.138672"/>
      <use xlink:href="#DejaVuSans-6f" x="1305.001953"/>
      <use xlink:href="#DejaVuSans-6d" x="1366.183594"/>
      <use xlink:href="#DejaVuSans-20" x="1463.595703"/>
      <use xlink:href="#DejaVuSans-41" x="1495.382812"/>
      <use xlink:href="#DejaVuSans-6c" x="1563.791016"/>
      <use xlink:href="#DejaVuSans-6c" x="1591.574219"/>
      <use xlink:href="#DejaVuSans-20" x="1619.357422"/>
      <use xlink:href="#DejaVuSans-41" x="1651.144531"/>
      <use xlink:href="#DejaVuSans-50" x="1719.552734"/>
      <use xlink:href="#DejaVuSans-49" x="1779.855469"/>
      <use xlink:href="#DejaVuSans-73" x="1809.347656"/>
     </g>
    </g>
   </g>
  </g>
 </g>
 <defs>
  <clipPath id="p2349a8acf9">
   <rect x="53.75" y="27.6" width="655.45" height="249.846653"/>
  </clipPath>
 </defs>
</svg>
