<?xml version="1.0" encoding="utf-8" standalone="no"?>
<!DOCTYPE svg PUBLIC "-//W3C//DTD SVG 1.1//EN"
  "http://www.w3.org/Graphics/SVG/1.1/DTD/svg11.dtd">
<svg xmlns:xlink="http://www.w3.org/1999/xlink" width="720pt" height="360pt" viewBox="0 0 720 360" xmlns="http://www.w3.org/2000/svg" version="1.1">
 <metadata>
  <rdf:RDF xmlns:dc="http://purl.org/dc/elements/1.1/" xmlns:cc="http://creativecommons.org/ns#" xmlns:rdf="http://www.w3.org/1999/02/22-rdf-syntax-ns#">
   <cc:Work>
    <dc:type rdf:resource="http://purl.org/dc/dcmitype/StillImage"/>
    <dc:date>2024-04-03T15:17:23.026433</dc:date>
    <dc:format>image/svg+xml</dc:format>
    <dc:creator>
     <cc:Agent>
      <dc:title>Matplotlib v3.8.3, https://matplotlib.org/</dc:title>
     </cc:Agent>
    </dc:creator>
   </cc:Work>
  </rdf:RDF>
 </metadata>
 <defs>
  <style type="text/css">*{stroke-linejoin: round; stroke-linecap: butt}</style>
 </defs>
 <g id="figure_1">
  <g id="patch_1">
   <path d="M 0 360 
L 720 360 
L 720 0 
L 0 0 
z
" style="fill: #ffffff"/>
  </g>
  <g id="axes_1">
   <g id="patch_2">
    <path d="M 53.75 277.446653 
L 709.2 277.446653 
L 709.2 27.6 
L 53.75 27.6 
z
" style="fill: #ffffff"/>
   </g>
   <g id="matplotlib.axis_1">
    <g id="xtick_1">
     <g id="line2d_1">
      <path d="M 64.636324 277.446653 
L 64.636324 27.6 
" clip-path="url(#p0805f5739a)" style="fill: none; stroke: #b0b0b0; stroke-width: 0.8; stroke-linecap: square"/>
     </g>
     <g id="line2d_2">
      <defs>
       <path id="m3f9e7d56e3" d="M 0 0 
L 0 3.5 
" style="stroke: #000000; stroke-width: 0.8"/>
      </defs>
      <g>
       <use xlink:href="#m3f9e7d56e3" x="64.636324" y="277.446653" style="stroke: #000000; stroke-width: 0.8"/>
      </g>
     </g>
     <g id="text_1">
      <!-- 2024-03-29 -->
      <g transform="translate(46.04052 330.913512) rotate(-45) scale(0.1 -0.1)">
       <defs>
        <path id="DejaVuSans-32" d="M 1228 531 
L 3431 531 
L 3431 0 
L 469 0 
L 469 531 
Q 828 903 1448 1529 
Q 2069 2156 2228 2338 
Q 2531 2678 2651 2914 
Q 2772 3150 2772 3378 
Q 2772 3750 2511 3984 
Q 2250 4219 1831 4219 
Q 1534 4219 1204 4116 
Q 875 4013 500 3803 
L 500 4441 
Q 881 4594 1212 4672 
Q 1544 4750 1819 4750 
Q 2544 4750 2975 4387 
Q 3406 4025 3406 3419 
Q 3406 3131 3298 2873 
Q 3191 2616 2906 2266 
Q 2828 2175 2409 1742 
Q 1991 1309 1228 531 
z
" transform="scale(0.015625)"/>
        <path id="DejaVuSans-30" d="M 2034 4250 
Q 1547 4250 1301 3770 
Q 1056 3291 1056 2328 
Q 1056 1369 1301 889 
Q 1547 409 2034 409 
Q 2525 409 2770 889 
Q 3016 1369 3016 2328 
Q 3016 3291 2770 3770 
Q 2525 4250 2034 4250 
z
M 2034 4750 
Q 2819 4750 3233 4129 
Q 3647 3509 3647 2328 
Q 3647 1150 3233 529 
Q 2819 -91 2034 -91 
Q 1250 -91 836 529 
Q 422 1150 422 2328 
Q 422 3509 836 4129 
Q 1250 4750 2034 4750 
z
" transform="scale(0.015625)"/>
        <path id="DejaVuSans-34" d="M 2419 4116 
L 825 1625 
L 2419 1625 
L 2419 4116 
z
M 2253 4666 
L 3047 4666 
L 3047 1625 
L 3713 1625 
L 3713 1100 
L 3047 1100 
L 3047 0 
L 2419 0 
L 2419 1100 
L 313 1100 
L 313 1709 
L 2253 4666 
z
" transform="scale(0.015625)"/>
        <path id="DejaVuSans-2d" d="M 313 2009 
L 1997 2009 
L 1997 1497 
L 313 1497 
L 313 2009 
z
" transform="scale(0.015625)"/>
        <path id="DejaVuSans-33" d="M 2597 2516 
Q 3050 2419 3304 2112 
Q 3559 1806 3559 1356 
Q 3559 666 3084 287 
Q 2609 -91 1734 -91 
Q 1441 -91 1130 -33 
Q 819 25 488 141 
L 488 750 
Q 750 597 1062 519 
Q 1375 441 1716 441 
Q 2309 441 2620 675 
Q 2931 909 2931 1356 
Q 2931 1769 2642 2001 
Q 2353 2234 1838 2234 
L 1294 2234 
L 1294 2753 
L 1863 2753 
Q 2328 2753 2575 2939 
Q 2822 3125 2822 3475 
Q 2822 3834 2567 4026 
Q 2313 4219 1838 4219 
Q 1578 4219 1281 4162 
Q 984 4106 628 3988 
L 628 4550 
Q 988 4650 1302 4700 
Q 1616 4750 1894 4750 
Q 2613 4750 3031 4423 
Q 3450 4097 3450 3541 
Q 3450 3153 3228 2886 
Q 3006 2619 2597 2516 
z
" transform="scale(0.015625)"/>
        <path id="DejaVuSans-39" d="M 703 97 
L 703 672 
Q 941 559 1184 500 
Q 1428 441 1663 441 
Q 2288 441 2617 861 
Q 2947 1281 2994 2138 
Q 2813 1869 2534 1725 
Q 2256 1581 1919 1581 
Q 1219 1581 811 2004 
Q 403 2428 403 3163 
Q 403 3881 828 4315 
Q 1253 4750 1959 4750 
Q 2769 4750 3195 4129 
Q 3622 3509 3622 2328 
Q 3622 1225 3098 567 
Q 2575 -91 1691 -91 
Q 1453 -91 1209 -44 
Q 966 3 703 97 
z
M 1959 2075 
Q 2384 2075 2632 2365 
Q 2881 2656 2881 3163 
Q 2881 3666 2632 3958 
Q 2384 4250 1959 4250 
Q 1534 4250 1286 3958 
Q 1038 3666 1038 3163 
Q 1038 2656 1286 2365 
Q 1534 2075 1959 2075 
z
" transform="scale(0.015625)"/>
       </defs>
       <use xlink:href="#DejaVuSans-32"/>
       <use xlink:href="#DejaVuSans-30" x="63.623047"/>
       <use xlink:href="#DejaVuSans-32" x="127.246094"/>
       <use xlink:href="#DejaVuSans-34" x="190.869141"/>
       <use xlink:href="#DejaVuSans-2d" x="254.492188"/>
       <use xlink:href="#DejaVuSans-30" x="290.576172"/>
       <use xlink:href="#DejaVuSans-33" x="354.199219"/>
       <use xlink:href="#DejaVuSans-2d" x="417.822266"/>
       <use xlink:href="#DejaVuSans-32" x="453.90625"/>
       <use xlink:href="#DejaVuSans-39" x="517.529297"/>
      </g>
     </g>
    </g>
    <g id="xtick_2">
     <g id="line2d_3">
      <path d="M 173.761679 277.446653 
L 173.761679 27.6 
" clip-path="url(#p0805f5739a)" style="fill: none; stroke: #b0b0b0; stroke-width: 0.8; stroke-linecap: square"/>
     </g>
     <g id="line2d_4">
      <g>
       <use xlink:href="#m3f9e7d56e3" x="173.761679" y="277.446653" style="stroke: #000000; stroke-width: 0.8"/>
      </g>
     </g>
     <g id="text_2">
      <!-- 2024-03-30 -->
      <g transform="translate(155.165875 330.913512) rotate(-45) scale(0.1 -0.1)">
       <use xlink:href="#DejaVuSans-32"/>
       <use xlink:href="#DejaVuSans-30" x="63.623047"/>
       <use xlink:href="#DejaVuSans-32" x="127.246094"/>
       <use xlink:href="#DejaVuSans-34" x="190.869141"/>
       <use xlink:href="#DejaVuSans-2d" x="254.492188"/>
       <use xlink:href="#DejaVuSans-30" x="290.576172"/>
       <use xlink:href="#DejaVuSans-33" x="354.199219"/>
       <use xlink:href="#DejaVuSans-2d" x="417.822266"/>
       <use xlink:href="#DejaVuSans-33" x="453.90625"/>
       <use xlink:href="#DejaVuSans-30" x="517.529297"/>
      </g>
     </g>
    </g>
    <g id="xtick_3">
     <g id="line2d_5">
      <path d="M 282.887034 277.446653 
L 282.887034 27.6 
" clip-path="url(#p0805f5739a)" style="fill: none; stroke: #b0b0b0; stroke-width: 0.8; stroke-linecap: square"/>
     </g>
     <g id="line2d_6">
      <g>
       <use xlink:href="#m3f9e7d56e3" x="282.887034" y="277.446653" style="stroke: #000000; stroke-width: 0.8"/>
      </g>
     </g>
     <g id="text_3">
      <!-- 2024-03-31 -->
      <g transform="translate(264.29123 330.913512) rotate(-45) scale(0.1 -0.1)">
       <defs>
        <path id="DejaVuSans-31" d="M 794 531 
L 1825 531 
L 1825 4091 
L 703 3866 
L 703 4441 
L 1819 4666 
L 2450 4666 
L 2450 531 
L 3481 531 
L 3481 0 
L 794 0 
L 794 531 
z
" transform="scale(0.015625)"/>
       </defs>
       <use xlink:href="#DejaVuSans-32"/>
       <use xlink:href="#DejaVuSans-30" x="63.623047"/>
       <use xlink:href="#DejaVuSans-32" x="127.246094"/>
       <use xlink:href="#DejaVuSans-34" x="190.869141"/>
       <use xlink:href="#DejaVuSans-2d" x="254.492188"/>
       <use xlink:href="#DejaVuSans-30" x="290.576172"/>
       <use xlink:href="#DejaVuSans-33" x="354.199219"/>
       <use xlink:href="#DejaVuSans-2d" x="417.822266"/>
       <use xlink:href="#DejaVuSans-33" x="453.90625"/>
       <use xlink:href="#DejaVuSans-31" x="517.529297"/>
      </g>
     </g>
    </g>
    <g id="xtick_4">
     <g id="line2d_7">
      <path d="M 392.012389 277.446653 
L 392.012389 27.6 
" clip-path="url(#p0805f5739a)" style="fill: none; stroke: #b0b0b0; stroke-width: 0.8; stroke-linecap: square"/>
     </g>
     <g id="line2d_8">
      <g>
       <use xlink:href="#m3f9e7d56e3" x="392.012389" y="277.446653" style="stroke: #000000; stroke-width: 0.8"/>
      </g>
     </g>
     <g id="text_4">
      <!-- 2024-04-01 -->
      <g transform="translate(373.416585 330.913512) rotate(-45) scale(0.1 -0.1)">
       <use xlink:href="#DejaVuSans-32"/>
       <use xlink:href="#DejaVuSans-30" x="63.623047"/>
       <use xlink:href="#DejaVuSans-32" x="127.246094"/>
       <use xlink:href="#DejaVuSans-34" x="190.869141"/>
       <use xlink:href="#DejaVuSans-2d" x="254.492188"/>
       <use xlink:href="#DejaVuSans-30" x="290.576172"/>
       <use xlink:href="#DejaVuSans-34" x="354.199219"/>
       <use xlink:href="#DejaVuSans-2d" x="417.822266"/>
       <use xlink:href="#DejaVuSans-30" x="453.90625"/>
       <use xlink:href="#DejaVuSans-31" x="517.529297"/>
      </g>
     </g>
    </g>
    <g id="xtick_5">
     <g id="line2d_9">
      <path d="M 501.137744 277.446653 
L 501.137744 27.6 
" clip-path="url(#p0805f5739a)" style="fill: none; stroke: #b0b0b0; stroke-width: 0.8; stroke-linecap: square"/>
     </g>
     <g id="line2d_10">
      <g>
       <use xlink:href="#m3f9e7d56e3" x="501.137744" y="277.446653" style="stroke: #000000; stroke-width: 0.8"/>
      </g>
     </g>
     <g id="text_5">
      <!-- 2024-04-02 -->
      <g transform="translate(482.54194 330.913512) rotate(-45) scale(0.1 -0.1)">
       <use xlink:href="#DejaVuSans-32"/>
       <use xlink:href="#DejaVuSans-30" x="63.623047"/>
       <use xlink:href="#DejaVuSans-32" x="127.246094"/>
       <use xlink:href="#DejaVuSans-34" x="190.869141"/>
       <use xlink:href="#DejaVuSans-2d" x="254.492188"/>
       <use xlink:href="#DejaVuSans-30" x="290.576172"/>
       <use xlink:href="#DejaVuSans-34" x="354.199219"/>
       <use xlink:href="#DejaVuSans-2d" x="417.822266"/>
       <use xlink:href="#DejaVuSans-30" x="453.90625"/>
       <use xlink:href="#DejaVuSans-32" x="517.529297"/>
      </g>
     </g>
    </g>
    <g id="xtick_6">
     <g id="line2d_11">
      <path d="M 610.263099 277.446653 
L 610.263099 27.6 
" clip-path="url(#p0805f5739a)" style="fill: none; stroke: #b0b0b0; stroke-width: 0.8; stroke-linecap: square"/>
     </g>
     <g id="line2d_12">
      <g>
       <use xlink:href="#m3f9e7d56e3" x="610.263099" y="277.446653" style="stroke: #000000; stroke-width: 0.8"/>
      </g>
     </g>
     <g id="text_6">
      <!-- 2024-04-03 -->
      <g transform="translate(591.667295 330.913512) rotate(-45) scale(0.1 -0.1)">
       <use xlink:href="#DejaVuSans-32"/>
       <use xlink:href="#DejaVuSans-30" x="63.623047"/>
       <use xlink:href="#DejaVuSans-32" x="127.246094"/>
       <use xlink:href="#DejaVuSans-34" x="190.869141"/>
       <use xlink:href="#DejaVuSans-2d" x="254.492188"/>
       <use xlink:href="#DejaVuSans-30" x="290.576172"/>
       <use xlink:href="#DejaVuSans-34" x="354.199219"/>
       <use xlink:href="#DejaVuSans-2d" x="417.822266"/>
       <use xlink:href="#DejaVuSans-30" x="453.90625"/>
       <use xlink:href="#DejaVuSans-33" x="517.529297"/>
      </g>
     </g>
    </g>
    <g id="text_7">
     <!-- Time -->
     <g transform="translate(366.794688 345.502198) scale(0.12 -0.12)">
      <defs>
       <path id="DejaVuSans-54" d="M -19 4666 
L 3928 4666 
L 3928 4134 
L 2272 4134 
L 2272 0 
L 1638 0 
L 1638 4134 
L -19 4134 
L -19 4666 
z
" transform="scale(0.015625)"/>
       <path id="DejaVuSans-69" d="M 603 3500 
L 1178 3500 
L 1178 0 
L 603 0 
L 603 3500 
z
M 603 4863 
L 1178 4863 
L 1178 4134 
L 603 4134 
L 603 4863 
z
" transform="scale(0.015625)"/>
       <path id="DejaVuSans-6d" d="M 3328 2828 
Q 3544 3216 3844 3400 
Q 4144 3584 4550 3584 
Q 5097 3584 5394 3201 
Q 5691 2819 5691 2113 
L 5691 0 
L 5113 0 
L 5113 2094 
Q 5113 2597 4934 2840 
Q 4756 3084 4391 3084 
Q 3944 3084 3684 2787 
Q 3425 2491 3425 1978 
L 3425 0 
L 2847 0 
L 2847 2094 
Q 2847 2600 2669 2842 
Q 2491 3084 2119 3084 
Q 1678 3084 1418 2786 
Q 1159 2488 1159 1978 
L 1159 0 
L 581 0 
L 581 3500 
L 1159 3500 
L 1159 2956 
Q 1356 3278 1631 3431 
Q 1906 3584 2284 3584 
Q 2666 3584 2933 3390 
Q 3200 3197 3328 2828 
z
" transform="scale(0.015625)"/>
       <path id="DejaVuSans-65" d="M 3597 1894 
L 3597 1613 
L 953 1613 
Q 991 1019 1311 708 
Q 1631 397 2203 397 
Q 2534 397 2845 478 
Q 3156 559 3463 722 
L 3463 178 
Q 3153 47 2828 -22 
Q 2503 -91 2169 -91 
Q 1331 -91 842 396 
Q 353 884 353 1716 
Q 353 2575 817 3079 
Q 1281 3584 2069 3584 
Q 2775 3584 3186 3129 
Q 3597 2675 3597 1894 
z
M 3022 2063 
Q 3016 2534 2758 2815 
Q 2500 3097 2075 3097 
Q 1594 3097 1305 2825 
Q 1016 2553 972 2059 
L 3022 2063 
z
" transform="scale(0.015625)"/>
      </defs>
      <use xlink:href="#DejaVuSans-54"/>
      <use xlink:href="#DejaVuSans-69" x="57.958984"/>
      <use xlink:href="#DejaVuSans-6d" x="85.742188"/>
      <use xlink:href="#DejaVuSans-65" x="183.154297"/>
     </g>
    </g>
   </g>
   <g id="matplotlib.axis_2">
    <g id="ytick_1">
     <g id="line2d_13">
      <path d="M 53.75 264.643824 
L 709.2 264.643824 
" clip-path="url(#p0805f5739a)" style="fill: none; stroke: #b0b0b0; stroke-width: 0.8; stroke-linecap: square"/>
     </g>
     <g id="line2d_14">
      <defs>
       <path id="m850a8579a7" d="M 0 0 
L -3.5 0 
" style="stroke: #000000; stroke-width: 0.8"/>
      </defs>
      <g>
       <use xlink:href="#m850a8579a7" x="53.75" y="264.643824" style="stroke: #000000; stroke-width: 0.8"/>
      </g>
     </g>
     <g id="text_8">
      <!-- 725 -->
      <g transform="translate(27.6625 268.443043) scale(0.1 -0.1)">
       <defs>
        <path id="DejaVuSans-37" d="M 525 4666 
L 3525 4666 
L 3525 4397 
L 1831 0 
L 1172 0 
L 2766 4134 
L 525 4134 
L 525 4666 
z
" transform="scale(0.015625)"/>
        <path id="DejaVuSans-35" d="M 691 4666 
L 3169 4666 
L 3169 4134 
L 1269 4134 
L 1269 2991 
Q 1406 3038 1543 3061 
Q 1681 3084 1819 3084 
Q 2600 3084 3056 2656 
Q 3513 2228 3513 1497 
Q 3513 744 3044 326 
Q 2575 -91 1722 -91 
Q 1428 -91 1123 -41 
Q 819 9 494 109 
L 494 744 
Q 775 591 1075 516 
Q 1375 441 1709 441 
Q 2250 441 2565 725 
Q 2881 1009 2881 1497 
Q 2881 1984 2565 2268 
Q 2250 2553 1709 2553 
Q 1456 2553 1204 2497 
Q 953 2441 691 2322 
L 691 4666 
z
" transform="scale(0.015625)"/>
       </defs>
       <use xlink:href="#DejaVuSans-37"/>
       <use xlink:href="#DejaVuSans-32" x="63.623047"/>
       <use xlink:href="#DejaVuSans-35" x="127.246094"/>
      </g>
     </g>
    </g>
    <g id="ytick_2">
     <g id="line2d_15">
      <path d="M 53.75 235.720579 
L 709.2 235.720579 
" clip-path="url(#p0805f5739a)" style="fill: none; stroke: #b0b0b0; stroke-width: 0.8; stroke-linecap: square"/>
     </g>
     <g id="line2d_16">
      <g>
       <use xlink:href="#m850a8579a7" x="53.75" y="235.720579" style="stroke: #000000; stroke-width: 0.8"/>
      </g>
     </g>
     <g id="text_9">
      <!-- 750 -->
      <g transform="translate(27.6625 239.519798) scale(0.1 -0.1)">
       <use xlink:href="#DejaVuSans-37"/>
       <use xlink:href="#DejaVuSans-35" x="63.623047"/>
       <use xlink:href="#DejaVuSans-30" x="127.246094"/>
      </g>
     </g>
    </g>
    <g id="ytick_3">
     <g id="line2d_17">
      <path d="M 53.75 206.797333 
L 709.2 206.797333 
" clip-path="url(#p0805f5739a)" style="fill: none; stroke: #b0b0b0; stroke-width: 0.8; stroke-linecap: square"/>
     </g>
     <g id="line2d_18">
      <g>
       <use xlink:href="#m850a8579a7" x="53.75" y="206.797333" style="stroke: #000000; stroke-width: 0.8"/>
      </g>
     </g>
     <g id="text_10">
      <!-- 775 -->
      <g transform="translate(27.6625 210.596552) scale(0.1 -0.1)">
       <use xlink:href="#DejaVuSans-37"/>
       <use xlink:href="#DejaVuSans-37" x="63.623047"/>
       <use xlink:href="#DejaVuSans-35" x="127.246094"/>
      </g>
     </g>
    </g>
    <g id="ytick_4">
     <g id="line2d_19">
      <path d="M 53.75 177.874088 
L 709.2 177.874088 
" clip-path="url(#p0805f5739a)" style="fill: none; stroke: #b0b0b0; stroke-width: 0.8; stroke-linecap: square"/>
     </g>
     <g id="line2d_20">
      <g>
       <use xlink:href="#m850a8579a7" x="53.75" y="177.874088" style="stroke: #000000; stroke-width: 0.8"/>
      </g>
     </g>
     <g id="text_11">
      <!-- 800 -->
      <g transform="translate(27.6625 181.673307) scale(0.1 -0.1)">
       <defs>
        <path id="DejaVuSans-38" d="M 2034 2216 
Q 1584 2216 1326 1975 
Q 1069 1734 1069 1313 
Q 1069 891 1326 650 
Q 1584 409 2034 409 
Q 2484 409 2743 651 
Q 3003 894 3003 1313 
Q 3003 1734 2745 1975 
Q 2488 2216 2034 2216 
z
M 1403 2484 
Q 997 2584 770 2862 
Q 544 3141 544 3541 
Q 544 4100 942 4425 
Q 1341 4750 2034 4750 
Q 2731 4750 3128 4425 
Q 3525 4100 3525 3541 
Q 3525 3141 3298 2862 
Q 3072 2584 2669 2484 
Q 3125 2378 3379 2068 
Q 3634 1759 3634 1313 
Q 3634 634 3220 271 
Q 2806 -91 2034 -91 
Q 1263 -91 848 271 
Q 434 634 434 1313 
Q 434 1759 690 2068 
Q 947 2378 1403 2484 
z
M 1172 3481 
Q 1172 3119 1398 2916 
Q 1625 2713 2034 2713 
Q 2441 2713 2670 2916 
Q 2900 3119 2900 3481 
Q 2900 3844 2670 4047 
Q 2441 4250 2034 4250 
Q 1625 4250 1398 4047 
Q 1172 3844 1172 3481 
z
" transform="scale(0.015625)"/>
       </defs>
       <use xlink:href="#DejaVuSans-38"/>
       <use xlink:href="#DejaVuSans-30" x="63.623047"/>
       <use xlink:href="#DejaVuSans-30" x="127.246094"/>
      </g>
     </g>
    </g>
    <g id="ytick_5">
     <g id="line2d_21">
      <path d="M 53.75 148.950843 
L 709.2 148.950843 
" clip-path="url(#p0805f5739a)" style="fill: none; stroke: #b0b0b0; stroke-width: 0.8; stroke-linecap: square"/>
     </g>
     <g id="line2d_22">
      <g>
       <use xlink:href="#m850a8579a7" x="53.75" y="148.950843" style="stroke: #000000; stroke-width: 0.8"/>
      </g>
     </g>
     <g id="text_12">
      <!-- 825 -->
      <g transform="translate(27.6625 152.750061) scale(0.1 -0.1)">
       <use xlink:href="#DejaVuSans-38"/>
       <use xlink:href="#DejaVuSans-32" x="63.623047"/>
       <use xlink:href="#DejaVuSans-35" x="127.246094"/>
      </g>
     </g>
    </g>
    <g id="ytick_6">
     <g id="line2d_23">
      <path d="M 53.75 120.027597 
L 709.2 120.027597 
" clip-path="url(#p0805f5739a)" style="fill: none; stroke: #b0b0b0; stroke-width: 0.8; stroke-linecap: square"/>
     </g>
     <g id="line2d_24">
      <g>
       <use xlink:href="#m850a8579a7" x="53.75" y="120.027597" style="stroke: #000000; stroke-width: 0.8"/>
      </g>
     </g>
     <g id="text_13">
      <!-- 850 -->
      <g transform="translate(27.6625 123.826816) scale(0.1 -0.1)">
       <use xlink:href="#DejaVuSans-38"/>
       <use xlink:href="#DejaVuSans-35" x="63.623047"/>
       <use xlink:href="#DejaVuSans-30" x="127.246094"/>
      </g>
     </g>
    </g>
    <g id="ytick_7">
     <g id="line2d_25">
      <path d="M 53.75 91.104352 
L 709.2 91.104352 
" clip-path="url(#p0805f5739a)" style="fill: none; stroke: #b0b0b0; stroke-width: 0.8; stroke-linecap: square"/>
     </g>
     <g id="line2d_26">
      <g>
       <use xlink:href="#m850a8579a7" x="53.75" y="91.104352" style="stroke: #000000; stroke-width: 0.8"/>
      </g>
     </g>
     <g id="text_14">
      <!-- 875 -->
      <g transform="translate(27.6625 94.903571) scale(0.1 -0.1)">
       <use xlink:href="#DejaVuSans-38"/>
       <use xlink:href="#DejaVuSans-37" x="63.623047"/>
       <use xlink:href="#DejaVuSans-35" x="127.246094"/>
      </g>
     </g>
    </g>
    <g id="ytick_8">
     <g id="line2d_27">
      <path d="M 53.75 62.181106 
L 709.2 62.181106 
" clip-path="url(#p0805f5739a)" style="fill: none; stroke: #b0b0b0; stroke-width: 0.8; stroke-linecap: square"/>
     </g>
     <g id="line2d_28">
      <g>
       <use xlink:href="#m850a8579a7" x="53.75" y="62.181106" style="stroke: #000000; stroke-width: 0.8"/>
      </g>
     </g>
     <g id="text_15">
      <!-- 900 -->
      <g transform="translate(27.6625 65.980325) scale(0.1 -0.1)">
       <use xlink:href="#DejaVuSans-39"/>
       <use xlink:href="#DejaVuSans-30" x="63.623047"/>
       <use xlink:href="#DejaVuSans-30" x="127.246094"/>
      </g>
     </g>
    </g>
    <g id="ytick_9">
     <g id="line2d_29">
      <path d="M 53.75 33.257861 
L 709.2 33.257861 
" clip-path="url(#p0805f5739a)" style="fill: none; stroke: #b0b0b0; stroke-width: 0.8; stroke-linecap: square"/>
     </g>
     <g id="line2d_30">
      <g>
       <use xlink:href="#m850a8579a7" x="53.75" y="33.257861" style="stroke: #000000; stroke-width: 0.8"/>
      </g>
     </g>
     <g id="text_16">
      <!-- 925 -->
      <g transform="translate(27.6625 37.05708) scale(0.1 -0.1)">
       <use xlink:href="#DejaVuSans-39"/>
       <use xlink:href="#DejaVuSans-32" x="63.623047"/>
       <use xlink:href="#DejaVuSans-35" x="127.246094"/>
      </g>
     </g>
    </g>
    <g id="text_17">
     <!-- Response Time (ms) -->
     <g transform="translate(21.166875 213.486139) rotate(-90) scale(0.12 -0.12)">
      <defs>
       <path id="DejaVuSans-52" d="M 2841 2188 
Q 3044 2119 3236 1894 
Q 3428 1669 3622 1275 
L 4263 0 
L 3584 0 
L 2988 1197 
Q 2756 1666 2539 1819 
Q 2322 1972 1947 1972 
L 1259 1972 
L 1259 0 
L 628 0 
L 628 4666 
L 2053 4666 
Q 2853 4666 3247 4331 
Q 3641 3997 3641 3322 
Q 3641 2881 3436 2590 
Q 3231 2300 2841 2188 
z
M 1259 4147 
L 1259 2491 
L 2053 2491 
Q 2509 2491 2742 2702 
Q 2975 2913 2975 3322 
Q 2975 3731 2742 3939 
Q 2509 4147 2053 4147 
L 1259 4147 
z
" transform="scale(0.015625)"/>
       <path id="DejaVuSans-73" d="M 2834 3397 
L 2834 2853 
Q 2591 2978 2328 3040 
Q 2066 3103 1784 3103 
Q 1356 3103 1142 2972 
Q 928 2841 928 2578 
Q 928 2378 1081 2264 
Q 1234 2150 1697 2047 
L 1894 2003 
Q 2506 1872 2764 1633 
Q 3022 1394 3022 966 
Q 3022 478 2636 193 
Q 2250 -91 1575 -91 
Q 1294 -91 989 -36 
Q 684 19 347 128 
L 347 722 
Q 666 556 975 473 
Q 1284 391 1588 391 
Q 1994 391 2212 530 
Q 2431 669 2431 922 
Q 2431 1156 2273 1281 
Q 2116 1406 1581 1522 
L 1381 1569 
Q 847 1681 609 1914 
Q 372 2147 372 2553 
Q 372 3047 722 3315 
Q 1072 3584 1716 3584 
Q 2034 3584 2315 3537 
Q 2597 3491 2834 3397 
z
" transform="scale(0.015625)"/>
       <path id="DejaVuSans-70" d="M 1159 525 
L 1159 -1331 
L 581 -1331 
L 581 3500 
L 1159 3500 
L 1159 2969 
Q 1341 3281 1617 3432 
Q 1894 3584 2278 3584 
Q 2916 3584 3314 3078 
Q 3713 2572 3713 1747 
Q 3713 922 3314 415 
Q 2916 -91 2278 -91 
Q 1894 -91 1617 61 
Q 1341 213 1159 525 
z
M 3116 1747 
Q 3116 2381 2855 2742 
Q 2594 3103 2138 3103 
Q 1681 3103 1420 2742 
Q 1159 2381 1159 1747 
Q 1159 1113 1420 752 
Q 1681 391 2138 391 
Q 2594 391 2855 752 
Q 3116 1113 3116 1747 
z
" transform="scale(0.015625)"/>
       <path id="DejaVuSans-6f" d="M 1959 3097 
Q 1497 3097 1228 2736 
Q 959 2375 959 1747 
Q 959 1119 1226 758 
Q 1494 397 1959 397 
Q 2419 397 2687 759 
Q 2956 1122 2956 1747 
Q 2956 2369 2687 2733 
Q 2419 3097 1959 3097 
z
M 1959 3584 
Q 2709 3584 3137 3096 
Q 3566 2609 3566 1747 
Q 3566 888 3137 398 
Q 2709 -91 1959 -91 
Q 1206 -91 779 398 
Q 353 888 353 1747 
Q 353 2609 779 3096 
Q 1206 3584 1959 3584 
z
" transform="scale(0.015625)"/>
       <path id="DejaVuSans-6e" d="M 3513 2113 
L 3513 0 
L 2938 0 
L 2938 2094 
Q 2938 2591 2744 2837 
Q 2550 3084 2163 3084 
Q 1697 3084 1428 2787 
Q 1159 2491 1159 1978 
L 1159 0 
L 581 0 
L 581 3500 
L 1159 3500 
L 1159 2956 
Q 1366 3272 1645 3428 
Q 1925 3584 2291 3584 
Q 2894 3584 3203 3211 
Q 3513 2838 3513 2113 
z
" transform="scale(0.015625)"/>
       <path id="DejaVuSans-20" transform="scale(0.015625)"/>
       <path id="DejaVuSans-28" d="M 1984 4856 
Q 1566 4138 1362 3434 
Q 1159 2731 1159 2009 
Q 1159 1288 1364 580 
Q 1569 -128 1984 -844 
L 1484 -844 
Q 1016 -109 783 600 
Q 550 1309 550 2009 
Q 550 2706 781 3412 
Q 1013 4119 1484 4856 
L 1984 4856 
z
" transform="scale(0.015625)"/>
       <path id="DejaVuSans-29" d="M 513 4856 
L 1013 4856 
Q 1481 4119 1714 3412 
Q 1947 2706 1947 2009 
Q 1947 1309 1714 600 
Q 1481 -109 1013 -844 
L 513 -844 
Q 928 -128 1133 580 
Q 1338 1288 1338 2009 
Q 1338 2731 1133 3434 
Q 928 4138 513 4856 
z
" transform="scale(0.015625)"/>
      </defs>
      <use xlink:href="#DejaVuSans-52"/>
      <use xlink:href="#DejaVuSans-65" x="64.982422"/>
      <use xlink:href="#DejaVuSans-73" x="126.505859"/>
      <use xlink:href="#DejaVuSans-70" x="178.605469"/>
      <use xlink:href="#DejaVuSans-6f" x="242.082031"/>
      <use xlink:href="#DejaVuSans-6e" x="303.263672"/>
      <use xlink:href="#DejaVuSans-73" x="366.642578"/>
      <use xlink:href="#DejaVuSans-65" x="418.742188"/>
      <use xlink:href="#DejaVuSans-20" x="480.265625"/>
      <use xlink:href="#DejaVuSans-54" x="512.052734"/>
      <use xlink:href="#DejaVuSans-69" x="570.011719"/>
      <use xlink:href="#DejaVuSans-6d" x="597.794922"/>
      <use xlink:href="#DejaVuSans-65" x="695.207031"/>
      <use xlink:href="#DejaVuSans-20" x="756.730469"/>
      <use xlink:href="#DejaVuSans-28" x="788.517578"/>
      <use xlink:href="#DejaVuSans-6d" x="827.53125"/>
      <use xlink:href="#DejaVuSans-73" x="924.943359"/>
      <use xlink:href="#DejaVuSans-29" x="977.042969"/>
     </g>
    </g>
   </g>
   <g id="line2d_31">
    <path d="M 83.543182 181.055645 
L 88.052053 174.692531 
L 92.614994 221.548189 
L 97.114799 227.332838 
L 101.681037 264.065359 
L 106.244791 240.348298 
L 110.776241 235.431346 
L 115.480941 161.966303 
L 120.004724 121.184527 
L 124.386977 183.369505 
L 128.933349 185.394132 
L 133.553237 232.249789 
L 138.220054 266.089987 
L 156.229109 228.779 
L 175.465806 176.427926 
L 180.527101 149.81854 
L 183.855327 126.679944 
L 188.221626 100.070558 
L 192.827326 90.236654 
L 197.348543 119.1599 
L 201.893403 117.713738 
L 206.457411 160.230908 
L 210.994222 218.077399 
L 215.453469 193.781873 
L 220.029638 183.658737 
L 224.565329 165.14786 
L 229.169975 111.061391 
L 233.733796 124.076852 
L 238.175251 129.572268 
L 242.723957 152.710865 
L 247.357777 148.950843 
L 251.827904 166.594022 
L 256.498056 164.858628 
L 260.916664 146.636983 
L 265.461292 196.095733 
L 270.033161 187.418759 
L 274.669291 198.698825 
L 279.152537 220.102026 
L 284.845398 174.692531 
L 290.068217 145.190821 
L 293.361 178.163321 
L 297.36951 148.66161 
L 301.923514 193.781873 
L 306.419059 237.745206 
L 310.957764 156.760119 
L 315.49582 161.098606 
L 320.06121 163.123233 
L 324.590472 131.307663 
L 329.126209 168.61865 
L 333.73491 177.006391 
L 338.308745 144.323123 
L 342.784585 157.338584 
L 347.299344 156.760119 
L 351.852548 132.464593 
L 356.440458 152.421632 
L 361.003343 130.729198 
L 365.53869 130.150733 
L 370.053527 143.455426 
L 374.647925 104.698277 
L 379.122475 139.406172 
L 383.70401 118.292202 
L 388.262997 108.747531 
L 393.999188 142.876961 
L 399.26295 84.452005 
L 402.74225 149.529308 
L 406.683545 160.230908 
L 411.026074 175.560228 
L 415.521688 200.43422 
L 420.208437 154.157027 
L 424.648394 141.141566 
L 429.32426 139.984637 
L 433.742228 164.280163 
L 438.262582 137.670777 
L 442.891008 175.849461 
L 447.563048 150.397005 
L 451.90433 141.141566 
L 456.494874 208.532728 
L 461.003743 189.443386 
L 465.588323 181.344878 
L 470.199758 202.458847 
L 474.674044 196.095733 
L 479.125817 201.880382 
L 483.766457 241.79446 
L 488.270474 242.083693 
L 492.819016 209.97889 
L 497.428327 242.662158 
L 502.903138 200.723452 
L 508.219441 203.037312 
L 511.549222 198.988057 
L 515.565994 183.369505 
L 520.118008 193.203408 
L 524.643023 150.107772 
L 529.262083 174.981764 
L 533.734106 141.720031 
L 538.345948 135.356917 
L 542.878721 176.427926 
L 547.755367 142.876961 
L 552.023305 186.261829 
L 556.672227 216.052772 
L 561.136974 173.246369 
L 565.571085 207.954263 
L 575.11156 160.809373 
L 579.19999 135.935382 
L 581.141992 149.81854 
L 588.147161 78.088891 
L 593.708026 87.922795 
L 601.984766 81.270448 
L 606.560839 74.618102 
L 612.091995 124.944549 
L 617.130796 159.073979 
L 620.612631 194.071106 
L 624.775639 189.154154 
L 629.313794 189.443386 
L 633.799571 146.058518 
L 638.363796 156.181654 
L 642.928948 142.009264 
L 647.531568 182.501807 
L 652.11485 213.160447 
L 656.56054 168.329417 
L 661.248618 162.834 
L 665.921795 136.513847 
L 670.375052 115.978343 
L 674.670342 105.855207 
L 679.406818 160.520141 
" clip-path="url(#p0805f5739a)" style="fill: none; stroke: #1f77b4; stroke-opacity: 0.5; stroke-width: 1.5; stroke-linecap: square"/>
    <defs>
     <path id="m3740f88334" d="M 0 1 
C 0.265203 1 0.51958 0.894634 0.707107 0.707107 
C 0.894634 0.51958 1 0.265203 1 0 
C 1 -0.265203 0.894634 -0.51958 0.707107 -0.707107 
C 0.51958 -0.894634 0.265203 -1 0 -1 
C -0.265203 -1 -0.51958 -0.894634 -0.707107 -0.707107 
C -0.894634 -0.51958 -1 -0.265203 -1 0 
C -1 0.265203 -0.894634 0.51958 -0.707107 0.707107 
C -0.51958 0.894634 -0.265203 1 0 1 
z
" style="stroke: #1f77b4; stroke-opacity: 0.5"/>
    </defs>
    <g clip-path="url(#p0805f5739a)">
     <use xlink:href="#m3740f88334" x="83.543182" y="181.055645" style="fill: #1f77b4; fill-opacity: 0.5; stroke: #1f77b4; stroke-opacity: 0.5"/>
     <use xlink:href="#m3740f88334" x="88.052053" y="174.692531" style="fill: #1f77b4; fill-opacity: 0.5; stroke: #1f77b4; stroke-opacity: 0.5"/>
     <use xlink:href="#m3740f88334" x="92.614994" y="221.548189" style="fill: #1f77b4; fill-opacity: 0.5; stroke: #1f77b4; stroke-opacity: 0.5"/>
     <use xlink:href="#m3740f88334" x="97.114799" y="227.332838" style="fill: #1f77b4; fill-opacity: 0.5; stroke: #1f77b4; stroke-opacity: 0.5"/>
     <use xlink:href="#m3740f88334" x="101.681037" y="264.065359" style="fill: #1f77b4; fill-opacity: 0.5; stroke: #1f77b4; stroke-opacity: 0.5"/>
     <use xlink:href="#m3740f88334" x="106.244791" y="240.348298" style="fill: #1f77b4; fill-opacity: 0.5; stroke: #1f77b4; stroke-opacity: 0.5"/>
     <use xlink:href="#m3740f88334" x="110.776241" y="235.431346" style="fill: #1f77b4; fill-opacity: 0.5; stroke: #1f77b4; stroke-opacity: 0.5"/>
     <use xlink:href="#m3740f88334" x="115.480941" y="161.966303" style="fill: #1f77b4; fill-opacity: 0.5; stroke: #1f77b4; stroke-opacity: 0.5"/>
     <use xlink:href="#m3740f88334" x="120.004724" y="121.184527" style="fill: #1f77b4; fill-opacity: 0.5; stroke: #1f77b4; stroke-opacity: 0.5"/>
     <use xlink:href="#m3740f88334" x="124.386977" y="183.369505" style="fill: #1f77b4; fill-opacity: 0.5; stroke: #1f77b4; stroke-opacity: 0.5"/>
     <use xlink:href="#m3740f88334" x="128.933349" y="185.394132" style="fill: #1f77b4; fill-opacity: 0.5; stroke: #1f77b4; stroke-opacity: 0.5"/>
     <use xlink:href="#m3740f88334" x="133.553237" y="232.249789" style="fill: #1f77b4; fill-opacity: 0.5; stroke: #1f77b4; stroke-opacity: 0.5"/>
     <use xlink:href="#m3740f88334" x="138.220054" y="266.089987" style="fill: #1f77b4; fill-opacity: 0.5; stroke: #1f77b4; stroke-opacity: 0.5"/>
     <use xlink:href="#m3740f88334" x="156.229109" y="228.779" style="fill: #1f77b4; fill-opacity: 0.5; stroke: #1f77b4; stroke-opacity: 0.5"/>
     <use xlink:href="#m3740f88334" x="175.465806" y="176.427926" style="fill: #1f77b4; fill-opacity: 0.5; stroke: #1f77b4; stroke-opacity: 0.5"/>
     <use xlink:href="#m3740f88334" x="180.527101" y="149.81854" style="fill: #1f77b4; fill-opacity: 0.5; stroke: #1f77b4; stroke-opacity: 0.5"/>
     <use xlink:href="#m3740f88334" x="183.855327" y="126.679944" style="fill: #1f77b4; fill-opacity: 0.5; stroke: #1f77b4; stroke-opacity: 0.5"/>
     <use xlink:href="#m3740f88334" x="188.221626" y="100.070558" style="fill: #1f77b4; fill-opacity: 0.5; stroke: #1f77b4; stroke-opacity: 0.5"/>
     <use xlink:href="#m3740f88334" x="192.827326" y="90.236654" style="fill: #1f77b4; fill-opacity: 0.5; stroke: #1f77b4; stroke-opacity: 0.5"/>
     <use xlink:href="#m3740f88334" x="197.348543" y="119.1599" style="fill: #1f77b4; fill-opacity: 0.5; stroke: #1f77b4; stroke-opacity: 0.5"/>
     <use xlink:href="#m3740f88334" x="201.893403" y="117.713738" style="fill: #1f77b4; fill-opacity: 0.5; stroke: #1f77b4; stroke-opacity: 0.5"/>
     <use xlink:href="#m3740f88334" x="206.457411" y="160.230908" style="fill: #1f77b4; fill-opacity: 0.5; stroke: #1f77b4; stroke-opacity: 0.5"/>
     <use xlink:href="#m3740f88334" x="210.994222" y="218.077399" style="fill: #1f77b4; fill-opacity: 0.5; stroke: #1f77b4; stroke-opacity: 0.5"/>
     <use xlink:href="#m3740f88334" x="215.453469" y="193.781873" style="fill: #1f77b4; fill-opacity: 0.5; stroke: #1f77b4; stroke-opacity: 0.5"/>
     <use xlink:href="#m3740f88334" x="220.029638" y="183.658737" style="fill: #1f77b4; fill-opacity: 0.5; stroke: #1f77b4; stroke-opacity: 0.5"/>
     <use xlink:href="#m3740f88334" x="224.565329" y="165.14786" style="fill: #1f77b4; fill-opacity: 0.5; stroke: #1f77b4; stroke-opacity: 0.5"/>
     <use xlink:href="#m3740f88334" x="229.169975" y="111.061391" style="fill: #1f77b4; fill-opacity: 0.5; stroke: #1f77b4; stroke-opacity: 0.5"/>
     <use xlink:href="#m3740f88334" x="233.733796" y="124.076852" style="fill: #1f77b4; fill-opacity: 0.5; stroke: #1f77b4; stroke-opacity: 0.5"/>
     <use xlink:href="#m3740f88334" x="238.175251" y="129.572268" style="fill: #1f77b4; fill-opacity: 0.5; stroke: #1f77b4; stroke-opacity: 0.5"/>
     <use xlink:href="#m3740f88334" x="242.723957" y="152.710865" style="fill: #1f77b4; fill-opacity: 0.5; stroke: #1f77b4; stroke-opacity: 0.5"/>
     <use xlink:href="#m3740f88334" x="247.357777" y="148.950843" style="fill: #1f77b4; fill-opacity: 0.5; stroke: #1f77b4; stroke-opacity: 0.5"/>
     <use xlink:href="#m3740f88334" x="251.827904" y="166.594022" style="fill: #1f77b4; fill-opacity: 0.5; stroke: #1f77b4; stroke-opacity: 0.5"/>
     <use xlink:href="#m3740f88334" x="256.498056" y="164.858628" style="fill: #1f77b4; fill-opacity: 0.5; stroke: #1f77b4; stroke-opacity: 0.5"/>
     <use xlink:href="#m3740f88334" x="260.916664" y="146.636983" style="fill: #1f77b4; fill-opacity: 0.5; stroke: #1f77b4; stroke-opacity: 0.5"/>
     <use xlink:href="#m3740f88334" x="265.461292" y="196.095733" style="fill: #1f77b4; fill-opacity: 0.5; stroke: #1f77b4; stroke-opacity: 0.5"/>
     <use xlink:href="#m3740f88334" x="270.033161" y="187.418759" style="fill: #1f77b4; fill-opacity: 0.5; stroke: #1f77b4; stroke-opacity: 0.5"/>
     <use xlink:href="#m3740f88334" x="274.669291" y="198.698825" style="fill: #1f77b4; fill-opacity: 0.5; stroke: #1f77b4; stroke-opacity: 0.5"/>
     <use xlink:href="#m3740f88334" x="279.152537" y="220.102026" style="fill: #1f77b4; fill-opacity: 0.5; stroke: #1f77b4; stroke-opacity: 0.5"/>
     <use xlink:href="#m3740f88334" x="284.845398" y="174.692531" style="fill: #1f77b4; fill-opacity: 0.5; stroke: #1f77b4; stroke-opacity: 0.5"/>
     <use xlink:href="#m3740f88334" x="290.068217" y="145.190821" style="fill: #1f77b4; fill-opacity: 0.5; stroke: #1f77b4; stroke-opacity: 0.5"/>
     <use xlink:href="#m3740f88334" x="293.361" y="178.163321" style="fill: #1f77b4; fill-opacity: 0.5; stroke: #1f77b4; stroke-opacity: 0.5"/>
     <use xlink:href="#m3740f88334" x="297.36951" y="148.66161" style="fill: #1f77b4; fill-opacity: 0.5; stroke: #1f77b4; stroke-opacity: 0.5"/>
     <use xlink:href="#m3740f88334" x="301.923514" y="193.781873" style="fill: #1f77b4; fill-opacity: 0.5; stroke: #1f77b4; stroke-opacity: 0.5"/>
     <use xlink:href="#m3740f88334" x="306.419059" y="237.745206" style="fill: #1f77b4; fill-opacity: 0.5; stroke: #1f77b4; stroke-opacity: 0.5"/>
     <use xlink:href="#m3740f88334" x="310.957764" y="156.760119" style="fill: #1f77b4; fill-opacity: 0.5; stroke: #1f77b4; stroke-opacity: 0.5"/>
     <use xlink:href="#m3740f88334" x="315.49582" y="161.098606" style="fill: #1f77b4; fill-opacity: 0.5; stroke: #1f77b4; stroke-opacity: 0.5"/>
     <use xlink:href="#m3740f88334" x="320.06121" y="163.123233" style="fill: #1f77b4; fill-opacity: 0.5; stroke: #1f77b4; stroke-opacity: 0.5"/>
     <use xlink:href="#m3740f88334" x="324.590472" y="131.307663" style="fill: #1f77b4; fill-opacity: 0.5; stroke: #1f77b4; stroke-opacity: 0.5"/>
     <use xlink:href="#m3740f88334" x="329.126209" y="168.61865" style="fill: #1f77b4; fill-opacity: 0.5; stroke: #1f77b4; stroke-opacity: 0.5"/>
     <use xlink:href="#m3740f88334" x="333.73491" y="177.006391" style="fill: #1f77b4; fill-opacity: 0.5; stroke: #1f77b4; stroke-opacity: 0.5"/>
     <use xlink:href="#m3740f88334" x="338.308745" y="144.323123" style="fill: #1f77b4; fill-opacity: 0.5; stroke: #1f77b4; stroke-opacity: 0.5"/>
     <use xlink:href="#m3740f88334" x="342.784585" y="157.338584" style="fill: #1f77b4; fill-opacity: 0.5; stroke: #1f77b4; stroke-opacity: 0.5"/>
     <use xlink:href="#m3740f88334" x="347.299344" y="156.760119" style="fill: #1f77b4; fill-opacity: 0.5; stroke: #1f77b4; stroke-opacity: 0.5"/>
     <use xlink:href="#m3740f88334" x="351.852548" y="132.464593" style="fill: #1f77b4; fill-opacity: 0.5; stroke: #1f77b4; stroke-opacity: 0.5"/>
     <use xlink:href="#m3740f88334" x="356.440458" y="152.421632" style="fill: #1f77b4; fill-opacity: 0.5; stroke: #1f77b4; stroke-opacity: 0.5"/>
     <use xlink:href="#m3740f88334" x="361.003343" y="130.729198" style="fill: #1f77b4; fill-opacity: 0.5; stroke: #1f77b4; stroke-opacity: 0.5"/>
     <use xlink:href="#m3740f88334" x="365.53869" y="130.150733" style="fill: #1f77b4; fill-opacity: 0.5; stroke: #1f77b4; stroke-opacity: 0.5"/>
     <use xlink:href="#m3740f88334" x="370.053527" y="143.455426" style="fill: #1f77b4; fill-opacity: 0.5; stroke: #1f77b4; stroke-opacity: 0.5"/>
     <use xlink:href="#m3740f88334" x="374.647925" y="104.698277" style="fill: #1f77b4; fill-opacity: 0.5; stroke: #1f77b4; stroke-opacity: 0.5"/>
     <use xlink:href="#m3740f88334" x="379.122475" y="139.406172" style="fill: #1f77b4; fill-opacity: 0.5; stroke: #1f77b4; stroke-opacity: 0.5"/>
     <use xlink:href="#m3740f88334" x="383.70401" y="118.292202" style="fill: #1f77b4; fill-opacity: 0.5; stroke: #1f77b4; stroke-opacity: 0.5"/>
     <use xlink:href="#m3740f88334" x="388.262997" y="108.747531" style="fill: #1f77b4; fill-opacity: 0.5; stroke: #1f77b4; stroke-opacity: 0.5"/>
     <use xlink:href="#m3740f88334" x="393.999188" y="142.876961" style="fill: #1f77b4; fill-opacity: 0.5; stroke: #1f77b4; stroke-opacity: 0.5"/>
     <use xlink:href="#m3740f88334" x="399.26295" y="84.452005" style="fill: #1f77b4; fill-opacity: 0.5; stroke: #1f77b4; stroke-opacity: 0.5"/>
     <use xlink:href="#m3740f88334" x="402.74225" y="149.529308" style="fill: #1f77b4; fill-opacity: 0.5; stroke: #1f77b4; stroke-opacity: 0.5"/>
     <use xlink:href="#m3740f88334" x="406.683545" y="160.230908" style="fill: #1f77b4; fill-opacity: 0.5; stroke: #1f77b4; stroke-opacity: 0.5"/>
     <use xlink:href="#m3740f88334" x="411.026074" y="175.560228" style="fill: #1f77b4; fill-opacity: 0.5; stroke: #1f77b4; stroke-opacity: 0.5"/>
     <use xlink:href="#m3740f88334" x="415.521688" y="200.43422" style="fill: #1f77b4; fill-opacity: 0.5; stroke: #1f77b4; stroke-opacity: 0.5"/>
     <use xlink:href="#m3740f88334" x="420.208437" y="154.157027" style="fill: #1f77b4; fill-opacity: 0.5; stroke: #1f77b4; stroke-opacity: 0.5"/>
     <use xlink:href="#m3740f88334" x="424.648394" y="141.141566" style="fill: #1f77b4; fill-opacity: 0.5; stroke: #1f77b4; stroke-opacity: 0.5"/>
     <use xlink:href="#m3740f88334" x="429.32426" y="139.984637" style="fill: #1f77b4; fill-opacity: 0.5; stroke: #1f77b4; stroke-opacity: 0.5"/>
     <use xlink:href="#m3740f88334" x="433.742228" y="164.280163" style="fill: #1f77b4; fill-opacity: 0.5; stroke: #1f77b4; stroke-opacity: 0.5"/>
     <use xlink:href="#m3740f88334" x="438.262582" y="137.670777" style="fill: #1f77b4; fill-opacity: 0.5; stroke: #1f77b4; stroke-opacity: 0.5"/>
     <use xlink:href="#m3740f88334" x="442.891008" y="175.849461" style="fill: #1f77b4; fill-opacity: 0.5; stroke: #1f77b4; stroke-opacity: 0.5"/>
     <use xlink:href="#m3740f88334" x="447.563048" y="150.397005" style="fill: #1f77b4; fill-opacity: 0.5; stroke: #1f77b4; stroke-opacity: 0.5"/>
     <use xlink:href="#m3740f88334" x="451.90433" y="141.141566" style="fill: #1f77b4; fill-opacity: 0.5; stroke: #1f77b4; stroke-opacity: 0.5"/>
     <use xlink:href="#m3740f88334" x="456.494874" y="208.532728" style="fill: #1f77b4; fill-opacity: 0.5; stroke: #1f77b4; stroke-opacity: 0.5"/>
     <use xlink:href="#m3740f88334" x="461.003743" y="189.443386" style="fill: #1f77b4; fill-opacity: 0.5; stroke: #1f77b4; stroke-opacity: 0.5"/>
     <use xlink:href="#m3740f88334" x="465.588323" y="181.344878" style="fill: #1f77b4; fill-opacity: 0.5; stroke: #1f77b4; stroke-opacity: 0.5"/>
     <use xlink:href="#m3740f88334" x="470.199758" y="202.458847" style="fill: #1f77b4; fill-opacity: 0.5; stroke: #1f77b4; stroke-opacity: 0.5"/>
     <use xlink:href="#m3740f88334" x="474.674044" y="196.095733" style="fill: #1f77b4; fill-opacity: 0.5; stroke: #1f77b4; stroke-opacity: 0.5"/>
     <use xlink:href="#m3740f88334" x="479.125817" y="201.880382" style="fill: #1f77b4; fill-opacity: 0.5; stroke: #1f77b4; stroke-opacity: 0.5"/>
     <use xlink:href="#m3740f88334" x="483.766457" y="241.79446" style="fill: #1f77b4; fill-opacity: 0.5; stroke: #1f77b4; stroke-opacity: 0.5"/>
     <use xlink:href="#m3740f88334" x="488.270474" y="242.083693" style="fill: #1f77b4; fill-opacity: 0.5; stroke: #1f77b4; stroke-opacity: 0.5"/>
     <use xlink:href="#m3740f88334" x="492.819016" y="209.97889" style="fill: #1f77b4; fill-opacity: 0.5; stroke: #1f77b4; stroke-opacity: 0.5"/>
     <use xlink:href="#m3740f88334" x="497.428327" y="242.662158" style="fill: #1f77b4; fill-opacity: 0.5; stroke: #1f77b4; stroke-opacity: 0.5"/>
     <use xlink:href="#m3740f88334" x="502.903138" y="200.723452" style="fill: #1f77b4; fill-opacity: 0.5; stroke: #1f77b4; stroke-opacity: 0.5"/>
     <use xlink:href="#m3740f88334" x="508.219441" y="203.037312" style="fill: #1f77b4; fill-opacity: 0.5; stroke: #1f77b4; stroke-opacity: 0.5"/>
     <use xlink:href="#m3740f88334" x="511.549222" y="198.988057" style="fill: #1f77b4; fill-opacity: 0.5; stroke: #1f77b4; stroke-opacity: 0.5"/>
     <use xlink:href="#m3740f88334" x="515.565994" y="183.369505" style="fill: #1f77b4; fill-opacity: 0.5; stroke: #1f77b4; stroke-opacity: 0.5"/>
     <use xlink:href="#m3740f88334" x="520.118008" y="193.203408" style="fill: #1f77b4; fill-opacity: 0.5; stroke: #1f77b4; stroke-opacity: 0.5"/>
     <use xlink:href="#m3740f88334" x="524.643023" y="150.107772" style="fill: #1f77b4; fill-opacity: 0.5; stroke: #1f77b4; stroke-opacity: 0.5"/>
     <use xlink:href="#m3740f88334" x="529.262083" y="174.981764" style="fill: #1f77b4; fill-opacity: 0.5; stroke: #1f77b4; stroke-opacity: 0.5"/>
     <use xlink:href="#m3740f88334" x="533.734106" y="141.720031" style="fill: #1f77b4; fill-opacity: 0.5; stroke: #1f77b4; stroke-opacity: 0.5"/>
     <use xlink:href="#m3740f88334" x="538.345948" y="135.356917" style="fill: #1f77b4; fill-opacity: 0.5; stroke: #1f77b4; stroke-opacity: 0.5"/>
     <use xlink:href="#m3740f88334" x="542.878721" y="176.427926" style="fill: #1f77b4; fill-opacity: 0.5; stroke: #1f77b4; stroke-opacity: 0.5"/>
     <use xlink:href="#m3740f88334" x="547.755367" y="142.876961" style="fill: #1f77b4; fill-opacity: 0.5; stroke: #1f77b4; stroke-opacity: 0.5"/>
     <use xlink:href="#m3740f88334" x="552.023305" y="186.261829" style="fill: #1f77b4; fill-opacity: 0.5; stroke: #1f77b4; stroke-opacity: 0.5"/>
     <use xlink:href="#m3740f88334" x="556.672227" y="216.052772" style="fill: #1f77b4; fill-opacity: 0.5; stroke: #1f77b4; stroke-opacity: 0.5"/>
     <use xlink:href="#m3740f88334" x="561.136974" y="173.246369" style="fill: #1f77b4; fill-opacity: 0.5; stroke: #1f77b4; stroke-opacity: 0.5"/>
     <use xlink:href="#m3740f88334" x="565.571085" y="207.954263" style="fill: #1f77b4; fill-opacity: 0.5; stroke: #1f77b4; stroke-opacity: 0.5"/>
     <use xlink:href="#m3740f88334" x="575.11156" y="160.809373" style="fill: #1f77b4; fill-opacity: 0.5; stroke: #1f77b4; stroke-opacity: 0.5"/>
     <use xlink:href="#m3740f88334" x="579.19999" y="135.935382" style="fill: #1f77b4; fill-opacity: 0.5; stroke: #1f77b4; stroke-opacity: 0.5"/>
     <use xlink:href="#m3740f88334" x="581.141992" y="149.81854" style="fill: #1f77b4; fill-opacity: 0.5; stroke: #1f77b4; stroke-opacity: 0.5"/>
     <use xlink:href="#m3740f88334" x="588.147161" y="78.088891" style="fill: #1f77b4; fill-opacity: 0.5; stroke: #1f77b4; stroke-opacity: 0.5"/>
     <use xlink:href="#m3740f88334" x="593.708026" y="87.922795" style="fill: #1f77b4; fill-opacity: 0.5; stroke: #1f77b4; stroke-opacity: 0.5"/>
     <use xlink:href="#m3740f88334" x="601.984766" y="81.270448" style="fill: #1f77b4; fill-opacity: 0.5; stroke: #1f77b4; stroke-opacity: 0.5"/>
     <use xlink:href="#m3740f88334" x="606.560839" y="74.618102" style="fill: #1f77b4; fill-opacity: 0.5; stroke: #1f77b4; stroke-opacity: 0.5"/>
     <use xlink:href="#m3740f88334" x="612.091995" y="124.944549" style="fill: #1f77b4; fill-opacity: 0.5; stroke: #1f77b4; stroke-opacity: 0.5"/>
     <use xlink:href="#m3740f88334" x="617.130796" y="159.073979" style="fill: #1f77b4; fill-opacity: 0.5; stroke: #1f77b4; stroke-opacity: 0.5"/>
     <use xlink:href="#m3740f88334" x="620.612631" y="194.071106" style="fill: #1f77b4; fill-opacity: 0.5; stroke: #1f77b4; stroke-opacity: 0.5"/>
     <use xlink:href="#m3740f88334" x="624.775639" y="189.154154" style="fill: #1f77b4; fill-opacity: 0.5; stroke: #1f77b4; stroke-opacity: 0.5"/>
     <use xlink:href="#m3740f88334" x="629.313794" y="189.443386" style="fill: #1f77b4; fill-opacity: 0.5; stroke: #1f77b4; stroke-opacity: 0.5"/>
     <use xlink:href="#m3740f88334" x="633.799571" y="146.058518" style="fill: #1f77b4; fill-opacity: 0.5; stroke: #1f77b4; stroke-opacity: 0.5"/>
     <use xlink:href="#m3740f88334" x="638.363796" y="156.181654" style="fill: #1f77b4; fill-opacity: 0.5; stroke: #1f77b4; stroke-opacity: 0.5"/>
     <use xlink:href="#m3740f88334" x="642.928948" y="142.009264" style="fill: #1f77b4; fill-opacity: 0.5; stroke: #1f77b4; stroke-opacity: 0.5"/>
     <use xlink:href="#m3740f88334" x="647.531568" y="182.501807" style="fill: #1f77b4; fill-opacity: 0.5; stroke: #1f77b4; stroke-opacity: 0.5"/>
     <use xlink:href="#m3740f88334" x="652.11485" y="213.160447" style="fill: #1f77b4; fill-opacity: 0.5; stroke: #1f77b4; stroke-opacity: 0.5"/>
     <use xlink:href="#m3740f88334" x="656.56054" y="168.329417" style="fill: #1f77b4; fill-opacity: 0.5; stroke: #1f77b4; stroke-opacity: 0.5"/>
     <use xlink:href="#m3740f88334" x="661.248618" y="162.834" style="fill: #1f77b4; fill-opacity: 0.5; stroke: #1f77b4; stroke-opacity: 0.5"/>
     <use xlink:href="#m3740f88334" x="665.921795" y="136.513847" style="fill: #1f77b4; fill-opacity: 0.5; stroke: #1f77b4; stroke-opacity: 0.5"/>
     <use xlink:href="#m3740f88334" x="670.375052" y="115.978343" style="fill: #1f77b4; fill-opacity: 0.5; stroke: #1f77b4; stroke-opacity: 0.5"/>
     <use xlink:href="#m3740f88334" x="674.670342" y="105.855207" style="fill: #1f77b4; fill-opacity: 0.5; stroke: #1f77b4; stroke-opacity: 0.5"/>
     <use xlink:href="#m3740f88334" x="679.406818" y="160.520141" style="fill: #1f77b4; fill-opacity: 0.5; stroke: #1f77b4; stroke-opacity: 0.5"/>
    </g>
   </g>
   <g id="line2d_32">
    <path d="M 201.893403 179.464867 
L 206.457411 181.248467 
L 210.994222 187.852608 
L 215.453469 180.718207 
L 220.029638 179.898715 
L 224.565329 179.657688 
L 229.169975 169.438141 
L 233.733796 163.508876 
L 238.175251 157.4832 
L 242.723957 165.051449 
L 247.357777 155.024724 
L 251.827904 164.280163 
L 256.498056 164.762217 
L 260.916664 158.929362 
L 265.461292 156.808324 
L 270.033161 156.808324 
L 274.669291 153.530356 
L 279.152537 157.4832 
L 284.845398 156.519092 
L 290.068217 156.037038 
L 293.361 162.110919 
L 297.36951 165.581709 
L 301.923514 173.776628 
L 306.419059 175.801255 
L 310.957764 168.61865 
L 315.49582 165.726325 
L 320.06121 164.617601 
L 324.590472 165.388887 
L 329.126209 166.111968 
L 333.73491 167.702747 
L 338.308745 170.161223 
L 342.784585 170.932509 
L 347.299344 170.643277 
L 351.852548 164.328368 
L 356.440458 170.739688 
L 361.003343 164.955038 
L 365.53869 164.858628 
L 370.053527 163.798109 
L 374.647925 155.506778 
L 379.122475 156.952941 
L 383.70401 151.457524 
L 388.262997 145.239026 
L 393.999188 150.204183 
L 399.26295 146.829805 
L 402.74225 146.685188 
L 406.683545 147.167243 
L 411.026074 147.167243 
L 415.521688 140.611307 
L 420.208437 146.25134 
L 424.648394 143.841069 
L 429.32426 143.31081 
L 433.742228 146.106724 
L 438.262582 141.093361 
L 442.891008 143.648248 
L 447.563048 144.323123 
L 451.90433 143.407221 
L 456.494874 149.722129 
L 461.003743 153.144713 
L 465.588323 149.143664 
L 470.199758 155.362162 
L 474.674044 160.712962 
L 479.125817 162.882206 
L 483.766457 171.993028 
L 488.270474 172.475082 
L 492.819016 175.994077 
L 497.428327 185.20131 
L 502.903138 181.63411 
L 508.219441 192.2393 
L 511.549222 184.237202 
L 515.565994 189.057743 
L 520.118008 184.57464 
L 524.643023 183.851559 
L 529.262083 187.707992 
L 533.734106 189.154154 
L 538.345948 183.803353 
L 542.878721 185.876186 
L 547.755367 188.575689 
L 552.023305 190.889549 
L 556.672227 194.745981 
L 561.136974 191.226986 
L 565.571085 188.479278 
L 575.11156 186.117213 
L 579.19999 187.177732 
L 581.141992 182.453602 
L 588.147161 168.811471 
L 593.708026 167.124282 
L 601.984766 160.42373 
L 606.560839 154.54267 
L 612.091995 154.639081 
L 617.130796 153.192919 
L 620.612631 159.315006 
L 624.775639 152.22881 
L 629.313794 153.048302 
L 633.799571 146.974421 
L 638.363796 153.144713 
L 642.928948 150.879059 
L 647.531568 154.301643 
L 652.11485 158.881157 
L 656.56054 158.64013 
L 661.248618 148.613405 
L 665.921795 153.241124 
L 670.375052 147.167243 
L 674.670342 140.273869 
L 679.406818 146.492367 
" clip-path="url(#p0805f5739a)" style="fill: none; stroke: #ff7f0e; stroke-width: 1.5; stroke-linecap: square"/>
   </g>
   <g id="line2d_33">
    <path d="M 53.75 38.956666 
L 709.2 38.956666 
" clip-path="url(#p0805f5739a)" style="fill: none; stroke-dasharray: 5.55,2.4; stroke-dashoffset: 0; stroke: #ff0000; stroke-width: 1.5"/>
   </g>
   <g id="patch_3">
    <path d="M 53.75 277.446653 
L 53.75 27.6 
" style="fill: none; stroke: #000000; stroke-width: 0.8; stroke-linejoin: miter; stroke-linecap: square"/>
   </g>
   <g id="patch_4">
    <path d="M 709.2 277.446653 
L 709.2 27.6 
" style="fill: none; stroke: #000000; stroke-width: 0.8; stroke-linejoin: miter; stroke-linecap: square"/>
   </g>
   <g id="patch_5">
    <path d="M 53.75 277.446653 
L 709.2 277.446653 
" style="fill: none; stroke: #000000; stroke-width: 0.8; stroke-linejoin: miter; stroke-linecap: square"/>
   </g>
   <g id="patch_6">
    <path d="M 53.75 27.6 
L 709.2 27.6 
" style="fill: none; stroke: #000000; stroke-width: 0.8; stroke-linejoin: miter; stroke-linecap: square"/>
   </g>
   <g id="text_18">
    <!-- Response Time Over Time for https://api.podium.com (4-Hour and 24-Hour Rolling Averages) -->
    <g transform="translate(56.647656 21.6) scale(0.14 -0.14)">
     <defs>
      <path id="DejaVuSans-4f" d="M 2522 4238 
Q 1834 4238 1429 3725 
Q 1025 3213 1025 2328 
Q 1025 1447 1429 934 
Q 1834 422 2522 422 
Q 3209 422 3611 934 
Q 4013 1447 4013 2328 
Q 4013 3213 3611 3725 
Q 3209 4238 2522 4238 
z
M 2522 4750 
Q 3503 4750 4090 4092 
Q 4678 3434 4678 2328 
Q 4678 1225 4090 567 
Q 3503 -91 2522 -91 
Q 1538 -91 948 565 
Q 359 1222 359 2328 
Q 359 3434 948 4092 
Q 1538 4750 2522 4750 
z
" transform="scale(0.015625)"/>
      <path id="DejaVuSans-76" d="M 191 3500 
L 800 3500 
L 1894 563 
L 2988 3500 
L 3597 3500 
L 2284 0 
L 1503 0 
L 191 3500 
z
" transform="scale(0.015625)"/>
      <path id="DejaVuSans-72" d="M 2631 2963 
Q 2534 3019 2420 3045 
Q 2306 3072 2169 3072 
Q 1681 3072 1420 2755 
Q 1159 2438 1159 1844 
L 1159 0 
L 581 0 
L 581 3500 
L 1159 3500 
L 1159 2956 
Q 1341 3275 1631 3429 
Q 1922 3584 2338 3584 
Q 2397 3584 2469 3576 
Q 2541 3569 2628 3553 
L 2631 2963 
z
" transform="scale(0.015625)"/>
      <path id="DejaVuSans-66" d="M 2375 4863 
L 2375 4384 
L 1825 4384 
Q 1516 4384 1395 4259 
Q 1275 4134 1275 3809 
L 1275 3500 
L 2222 3500 
L 2222 3053 
L 1275 3053 
L 1275 0 
L 697 0 
L 697 3053 
L 147 3053 
L 147 3500 
L 697 3500 
L 697 3744 
Q 697 4328 969 4595 
Q 1241 4863 1831 4863 
L 2375 4863 
z
" transform="scale(0.015625)"/>
      <path id="DejaVuSans-68" d="M 3513 2113 
L 3513 0 
L 2938 0 
L 2938 2094 
Q 2938 2591 2744 2837 
Q 2550 3084 2163 3084 
Q 1697 3084 1428 2787 
Q 1159 2491 1159 1978 
L 1159 0 
L 581 0 
L 581 4863 
L 1159 4863 
L 1159 2956 
Q 1366 3272 1645 3428 
Q 1925 3584 2291 3584 
Q 2894 3584 3203 3211 
Q 3513 2838 3513 2113 
z
" transform="scale(0.015625)"/>
      <path id="DejaVuSans-74" d="M 1172 4494 
L 1172 3500 
L 2356 3500 
L 2356 3053 
L 1172 3053 
L 1172 1153 
Q 1172 725 1289 603 
Q 1406 481 1766 481 
L 2356 481 
L 2356 0 
L 1766 0 
Q 1100 0 847 248 
Q 594 497 594 1153 
L 594 3053 
L 172 3053 
L 172 3500 
L 594 3500 
L 594 4494 
L 1172 4494 
z
" transform="scale(0.015625)"/>
      <path id="DejaVuSans-3a" d="M 750 794 
L 1409 794 
L 1409 0 
L 750 0 
L 750 794 
z
M 750 3309 
L 1409 3309 
L 1409 2516 
L 750 2516 
L 750 3309 
z
" transform="scale(0.015625)"/>
      <path id="DejaVuSans-2f" d="M 1625 4666 
L 2156 4666 
L 531 -594 
L 0 -594 
L 1625 4666 
z
" transform="scale(0.015625)"/>
      <path id="DejaVuSans-61" d="M 2194 1759 
Q 1497 1759 1228 1600 
Q 959 1441 959 1056 
Q 959 750 1161 570 
Q 1363 391 1709 391 
Q 2188 391 2477 730 
Q 2766 1069 2766 1631 
L 2766 1759 
L 2194 1759 
z
M 3341 1997 
L 3341 0 
L 2766 0 
L 2766 531 
Q 2569 213 2275 61 
Q 1981 -91 1556 -91 
Q 1019 -91 701 211 
Q 384 513 384 1019 
Q 384 1609 779 1909 
Q 1175 2209 1959 2209 
L 2766 2209 
L 2766 2266 
Q 2766 2663 2505 2880 
Q 2244 3097 1772 3097 
Q 1472 3097 1187 3025 
Q 903 2953 641 2809 
L 641 3341 
Q 956 3463 1253 3523 
Q 1550 3584 1831 3584 
Q 2591 3584 2966 3190 
Q 3341 2797 3341 1997 
z
" transform="scale(0.015625)"/>
      <path id="DejaVuSans-2e" d="M 684 794 
L 1344 794 
L 1344 0 
L 684 0 
L 684 794 
z
" transform="scale(0.015625)"/>
      <path id="DejaVuSans-64" d="M 2906 2969 
L 2906 4863 
L 3481 4863 
L 3481 0 
L 2906 0 
L 2906 525 
Q 2725 213 2448 61 
Q 2172 -91 1784 -91 
Q 1150 -91 751 415 
Q 353 922 353 1747 
Q 353 2572 751 3078 
Q 1150 3584 1784 3584 
Q 2172 3584 2448 3432 
Q 2725 3281 2906 2969 
z
M 947 1747 
Q 947 1113 1208 752 
Q 1469 391 1925 391 
Q 2381 391 2643 752 
Q 2906 1113 2906 1747 
Q 2906 2381 2643 2742 
Q 2381 3103 1925 3103 
Q 1469 3103 1208 2742 
Q 947 2381 947 1747 
z
" transform="scale(0.015625)"/>
      <path id="DejaVuSans-75" d="M 544 1381 
L 544 3500 
L 1119 3500 
L 1119 1403 
Q 1119 906 1312 657 
Q 1506 409 1894 409 
Q 2359 409 2629 706 
Q 2900 1003 2900 1516 
L 2900 3500 
L 3475 3500 
L 3475 0 
L 2900 0 
L 2900 538 
Q 2691 219 2414 64 
Q 2138 -91 1772 -91 
Q 1169 -91 856 284 
Q 544 659 544 1381 
z
M 1991 3584 
L 1991 3584 
z
" transform="scale(0.015625)"/>
      <path id="DejaVuSans-63" d="M 3122 3366 
L 3122 2828 
Q 2878 2963 2633 3030 
Q 2388 3097 2138 3097 
Q 1578 3097 1268 2742 
Q 959 2388 959 1747 
Q 959 1106 1268 751 
Q 1578 397 2138 397 
Q 2388 397 2633 464 
Q 2878 531 3122 666 
L 3122 134 
Q 2881 22 2623 -34 
Q 2366 -91 2075 -91 
Q 1284 -91 818 406 
Q 353 903 353 1747 
Q 353 2603 823 3093 
Q 1294 3584 2113 3584 
Q 2378 3584 2631 3529 
Q 2884 3475 3122 3366 
z
" transform="scale(0.015625)"/>
      <path id="DejaVuSans-48" d="M 628 4666 
L 1259 4666 
L 1259 2753 
L 3553 2753 
L 3553 4666 
L 4184 4666 
L 4184 0 
L 3553 0 
L 3553 2222 
L 1259 2222 
L 1259 0 
L 628 0 
L 628 4666 
z
" transform="scale(0.015625)"/>
      <path id="DejaVuSans-6c" d="M 603 4863 
L 1178 4863 
L 1178 0 
L 603 0 
L 603 4863 
z
" transform="scale(0.015625)"/>
      <path id="DejaVuSans-67" d="M 2906 1791 
Q 2906 2416 2648 2759 
Q 2391 3103 1925 3103 
Q 1463 3103 1205 2759 
Q 947 2416 947 1791 
Q 947 1169 1205 825 
Q 1463 481 1925 481 
Q 2391 481 2648 825 
Q 2906 1169 2906 1791 
z
M 3481 434 
Q 3481 -459 3084 -895 
Q 2688 -1331 1869 -1331 
Q 1566 -1331 1297 -1286 
Q 1028 -1241 775 -1147 
L 775 -588 
Q 1028 -725 1275 -790 
Q 1522 -856 1778 -856 
Q 2344 -856 2625 -561 
Q 2906 -266 2906 331 
L 2906 616 
Q 2728 306 2450 153 
Q 2172 0 1784 0 
Q 1141 0 747 490 
Q 353 981 353 1791 
Q 353 2603 747 3093 
Q 1141 3584 1784 3584 
Q 2172 3584 2450 3431 
Q 2728 3278 2906 2969 
L 2906 3500 
L 3481 3500 
L 3481 434 
z
" transform="scale(0.015625)"/>
      <path id="DejaVuSans-41" d="M 2188 4044 
L 1331 1722 
L 3047 1722 
L 2188 4044 
z
M 1831 4666 
L 2547 4666 
L 4325 0 
L 3669 0 
L 3244 1197 
L 1141 1197 
L 716 0 
L 50 0 
L 1831 4666 
z
" transform="scale(0.015625)"/>
     </defs>
     <use xlink:href="#DejaVuSans-52"/>
     <use xlink:href="#DejaVuSans-65" x="64.982422"/>
     <use xlink:href="#DejaVuSans-73" x="126.505859"/>
     <use xlink:href="#DejaVuSans-70" x="178.605469"/>
     <use xlink:href="#DejaVuSans-6f" x="242.082031"/>
     <use xlink:href="#DejaVuSans-6e" x="303.263672"/>
     <use xlink:href="#DejaVuSans-73" x="366.642578"/>
     <use xlink:href="#DejaVuSans-65" x="418.742188"/>
     <use xlink:href="#DejaVuSans-20" x="480.265625"/>
     <use xlink:href="#DejaVuSans-54" x="512.052734"/>
     <use xlink:href="#DejaVuSans-69" x="570.011719"/>
     <use xlink:href="#DejaVuSans-6d" x="597.794922"/>
     <use xlink:href="#DejaVuSans-65" x="695.207031"/>
     <use xlink:href="#DejaVuSans-20" x="756.730469"/>
     <use xlink:href="#DejaVuSans-4f" x="788.517578"/>
     <use xlink:href="#DejaVuSans-76" x="867.228516"/>
     <use xlink:href="#DejaVuSans-65" x="926.408203"/>
     <use xlink:href="#DejaVuSans-72" x="987.931641"/>
     <use xlink:href="#DejaVuSans-20" x="1029.044922"/>
     <use xlink:href="#DejaVuSans-54" x="1060.832031"/>
     <use xlink:href="#DejaVuSans-69" x="1118.791016"/>
     <use xlink:href="#DejaVuSans-6d" x="1146.574219"/>
     <use xlink:href="#DejaVuSans-65" x="1243.986328"/>
     <use xlink:href="#DejaVuSans-20" x="1305.509766"/>
     <use xlink:href="#DejaVuSans-66" x="1337.296875"/>
     <use xlink:href="#DejaVuSans-6f" x="1372.501953"/>
     <use xlink:href="#DejaVuSans-72" x="1433.683594"/>
     <use xlink:href="#DejaVuSans-20" x="1474.796875"/>
     <use xlink:href="#DejaVuSans-68" x="1506.583984"/>
     <use xlink:href="#DejaVuSans-74" x="1569.962891"/>
     <use xlink:href="#DejaVuSans-74" x="1609.171875"/>
     <use xlink:href="#DejaVuSans-70" x="1648.380859"/>
     <use xlink:href="#DejaVuSans-73" x="1711.857422"/>
     <use xlink:href="#DejaVuSans-3a" x="1763.957031"/>
     <use xlink:href="#DejaVuSans-2f" x="1797.648438"/>
     <use xlink:href="#DejaVuSans-2f" x="1831.339844"/>
     <use xlink:href="#DejaVuSans-61" x="1865.03125"/>
     <use xlink:href="#DejaVuSans-70" x="1926.310547"/>
     <use xlink:href="#DejaVuSans-69" x="1989.787109"/>
     <use xlink:href="#DejaVuSans-2e" x="2017.570312"/>
     <use xlink:href="#DejaVuSans-70" x="2049.357422"/>
     <use xlink:href="#DejaVuSans-6f" x="2112.833984"/>
     <use xlink:href="#DejaVuSans-64" x="2174.015625"/>
     <use xlink:href="#DejaVuSans-69" x="2237.492188"/>
     <use xlink:href="#DejaVuSans-75" x="2265.275391"/>
     <use xlink:href="#DejaVuSans-6d" x="2328.654297"/>
     <use xlink:href="#DejaVuSans-2e" x="2426.066406"/>
     <use xlink:href="#DejaVuSans-63" x="2457.853516"/>
     <use xlink:href="#DejaVuSans-6f" x="2512.833984"/>
     <use xlink:href="#DejaVuSans-6d" x="2574.015625"/>
     <use xlink:href="#DejaVuSans-20" x="2671.427734"/>
     <use xlink:href="#DejaVuSans-28" x="2703.214844"/>
     <use xlink:href="#DejaVuSans-34" x="2742.228516"/>
     <use xlink:href="#DejaVuSans-2d" x="2805.851562"/>
     <use xlink:href="#DejaVuSans-48" x="2841.935547"/>
     <use xlink:href="#DejaVuSans-6f" x="2917.130859"/>
     <use xlink:href="#DejaVuSans-75" x="2978.3125"/>
     <use xlink:href="#DejaVuSans-72" x="3041.691406"/>
     <use xlink:href="#DejaVuSans-20" x="3082.804688"/>
     <use xlink:href="#DejaVuSans-61" x="3114.591797"/>
     <use xlink:href="#DejaVuSans-6e" x="3175.871094"/>
     <use xlink:href="#DejaVuSans-64" x="3239.25"/>
     <use xlink:href="#DejaVuSans-20" x="3302.726562"/>
     <use xlink:href="#DejaVuSans-32" x="3334.513672"/>
     <use xlink:href="#DejaVuSans-34" x="3398.136719"/>
     <use xlink:href="#DejaVuSans-2d" x="3461.759766"/>
     <use xlink:href="#DejaVuSans-48" x="3497.84375"/>
     <use xlink:href="#DejaVuSans-6f" x="3573.039062"/>
     <use xlink:href="#DejaVuSans-75" x="3634.220703"/>
     <use xlink:href="#DejaVuSans-72" x="3697.599609"/>
     <use xlink:href="#DejaVuSans-20" x="3738.712891"/>
     <use xlink:href="#DejaVuSans-52" x="3770.5"/>
     <use xlink:href="#DejaVuSans-6f" x="3835.482422"/>
     <use xlink:href="#DejaVuSans-6c" x="3896.664062"/>
     <use xlink:href="#DejaVuSans-6c" x="3924.447266"/>
     <use xlink:href="#DejaVuSans-69" x="3952.230469"/>
     <use xlink:href="#DejaVuSans-6e" x="3980.013672"/>
     <use xlink:href="#DejaVuSans-67" x="4043.392578"/>
     <use xlink:href="#DejaVuSans-20" x="4106.869141"/>
     <use xlink:href="#DejaVuSans-41" x="4138.65625"/>
     <use xlink:href="#DejaVuSans-76" x="4201.189453"/>
     <use xlink:href="#DejaVuSans-65" x="4260.369141"/>
     <use xlink:href="#DejaVuSans-72" x="4321.892578"/>
     <use xlink:href="#DejaVuSans-61" x="4363.005859"/>
     <use xlink:href="#DejaVuSans-67" x="4424.285156"/>
     <use xlink:href="#DejaVuSans-65" x="4487.761719"/>
     <use xlink:href="#DejaVuSans-73" x="4549.285156"/>
     <use xlink:href="#DejaVuSans-29" x="4601.384766"/>
    </g>
   </g>
   <g id="legend_1">
    <g id="patch_7">
     <path d="M 60.75 79.634375 
L 278.89375 79.634375 
Q 280.89375 79.634375 280.89375 77.634375 
L 280.89375 34.6 
Q 280.89375 32.6 278.89375 32.6 
L 60.75 32.6 
Q 58.75 32.6 58.75 34.6 
L 58.75 77.634375 
Q 58.75 79.634375 60.75 79.634375 
z
" style="fill: #ffffff; opacity: 0.8; stroke: #cccccc; stroke-linejoin: miter"/>
    </g>
    <g id="line2d_34">
     <path d="M 62.75 40.698438 
L 72.75 40.698438 
L 82.75 40.698438 
" style="fill: none; stroke: #1f77b4; stroke-opacity: 0.5; stroke-width: 1.5; stroke-linecap: square"/>
     <g>
      <use xlink:href="#m3740f88334" x="72.75" y="40.698438" style="fill: #1f77b4; fill-opacity: 0.5; stroke: #1f77b4; stroke-opacity: 0.5"/>
     </g>
    </g>
    <g id="text_19">
     <!-- 4-Hour Rolling Average -->
     <g transform="translate(90.75 44.198438) scale(0.1 -0.1)">
      <use xlink:href="#DejaVuSans-34"/>
      <use xlink:href="#DejaVuSans-2d" x="63.623047"/>
      <use xlink:href="#DejaVuSans-48" x="99.707031"/>
      <use xlink:href="#DejaVuSans-6f" x="174.902344"/>
      <use xlink:href="#DejaVuSans-75" x="236.083984"/>
      <use xlink:href="#DejaVuSans-72" x="299.462891"/>
      <use xlink:href="#DejaVuSans-20" x="340.576172"/>
      <use xlink:href="#DejaVuSans-52" x="372.363281"/>
      <use xlink:href="#DejaVuSans-6f" x="437.345703"/>
      <use xlink:href="#DejaVuSans-6c" x="498.527344"/>
      <use xlink:href="#DejaVuSans-6c" x="526.310547"/>
      <use xlink:href="#DejaVuSans-69" x="554.09375"/>
      <use xlink:href="#DejaVuSans-6e" x="581.876953"/>
      <use xlink:href="#DejaVuSans-67" x="645.255859"/>
      <use xlink:href="#DejaVuSans-20" x="708.732422"/>
      <use xlink:href="#DejaVuSans-41" x="740.519531"/>
      <use xlink:href="#DejaVuSans-76" x="803.052734"/>
      <use xlink:href="#DejaVuSans-65" x="862.232422"/>
      <use xlink:href="#DejaVuSans-72" x="923.755859"/>
      <use xlink:href="#DejaVuSans-61" x="964.869141"/>
      <use xlink:href="#DejaVuSans-67" x="1026.148438"/>
      <use xlink:href="#DejaVuSans-65" x="1089.625"/>
     </g>
    </g>
    <g id="line2d_35">
     <path d="M 62.75 55.376563 
L 72.75 55.376563 
L 82.75 55.376563 
" style="fill: none; stroke: #ff7f0e; stroke-width: 1.5; stroke-linecap: square"/>
    </g>
    <g id="text_20">
     <!-- 24-Hour Rolling Average -->
     <g transform="translate(90.75 58.876563) scale(0.1 -0.1)">
      <use xlink:href="#DejaVuSans-32"/>
      <use xlink:href="#DejaVuSans-34" x="63.623047"/>
      <use xlink:href="#DejaVuSans-2d" x="127.246094"/>
      <use xlink:href="#DejaVuSans-48" x="163.330078"/>
      <use xlink:href="#DejaVuSans-6f" x="238.525391"/>
      <use xlink:href="#DejaVuSans-75" x="299.707031"/>
      <use xlink:href="#DejaVuSans-72" x="363.085938"/>
      <use xlink:href="#DejaVuSans-20" x="404.199219"/>
      <use xlink:href="#DejaVuSans-52" x="435.986328"/>
      <use xlink:href="#DejaVuSans-6f" x="500.96875"/>
      <use xlink:href="#DejaVuSans-6c" x="562.150391"/>
      <use xlink:href="#DejaVuSans-6c" x="589.933594"/>
      <use xlink:href="#DejaVuSans-69" x="617.716797"/>
      <use xlink:href="#DejaVuSans-6e" x="645.5"/>
      <use xlink:href="#DejaVuSans-67" x="708.878906"/>
      <use xlink:href="#DejaVuSans-20" x="772.355469"/>
      <use xlink:href="#DejaVuSans-41" x="804.142578"/>
      <use xlink:href="#DejaVuSans-76" x="866.675781"/>
      <use xlink:href="#DejaVuSans-65" x="925.855469"/>
      <use xlink:href="#DejaVuSans-72" x="987.378906"/>
      <use xlink:href="#DejaVuSans-61" x="1028.492188"/>
      <use xlink:href="#DejaVuSans-67" x="1089.771484"/>
      <use xlink:href="#DejaVuSans-65" x="1153.248047"/>
     </g>
    </g>
    <g id="line2d_36">
     <path d="M 62.75 70.054688 
L 72.75 70.054688 
L 82.75 70.054688 
" style="fill: none; stroke-dasharray: 5.55,2.4; stroke-dashoffset: 0; stroke: #ff0000; stroke-width: 1.5"/>
    </g>
    <g id="text_21">
     <!-- Average Response Time from All APIs -->
     <g transform="translate(90.75 73.554688) scale(0.1 -0.1)">
      <defs>
       <path id="DejaVuSans-50" d="M 1259 4147 
L 1259 2394 
L 2053 2394 
Q 2494 2394 2734 2622 
Q 2975 2850 2975 3272 
Q 2975 3691 2734 3919 
Q 2494 4147 2053 4147 
L 1259 4147 
z
M 628 4666 
L 2053 4666 
Q 2838 4666 3239 4311 
Q 3641 3956 3641 3272 
Q 3641 2581 3239 2228 
Q 2838 1875 2053 1875 
L 1259 1875 
L 1259 0 
L 628 0 
L 628 4666 
z
" transform="scale(0.015625)"/>
       <path id="DejaVuSans-49" d="M 628 4666 
L 1259 4666 
L 1259 0 
L 628 0 
L 628 4666 
z
" transform="scale(0.015625)"/>
      </defs>
      <use xlink:href="#DejaVuSans-41"/>
      <use xlink:href="#DejaVuSans-76" x="62.533203"/>
      <use xlink:href="#DejaVuSans-65" x="121.712891"/>
      <use xlink:href="#DejaVuSans-72" x="183.236328"/>
      <use xlink:href="#DejaVuSans-61" x="224.349609"/>
      <use xlink:href="#DejaVuSans-67" x="285.628906"/>
      <use xlink:href="#DejaVuSans-65" x="349.105469"/>
      <use xlink:href="#DejaVuSans-20" x="410.628906"/>
      <use xlink:href="#DejaVuSans-52" x="442.416016"/>
      <use xlink:href="#DejaVuSans-65" x="507.398438"/>
      <use xlink:href="#DejaVuSans-73" x="568.921875"/>
      <use xlink:href="#DejaVuSans-70" x="621.021484"/>
      <use xlink:href="#DejaVuSans-6f" x="684.498047"/>
      <use xlink:href="#DejaVuSans-6e" x="745.679688"/>
      <use xlink:href="#DejaVuSans-73" x="809.058594"/>
      <use xlink:href="#DejaVuSans-65" x="861.158203"/>
      <use xlink:href="#DejaVuSans-20" x="922.681641"/>
      <use xlink:href="#DejaVuSans-54" x="954.46875"/>
      <use xlink:href="#DejaVuSans-69" x="1012.427734"/>
      <use xlink:href="#DejaVuSans-6d" x="1040.210938"/>
      <use xlink:href="#DejaVuSans-65" x="1137.623047"/>
      <use xlink:href="#DejaVuSans-20" x="1199.146484"/>
      <use xlink:href="#DejaVuSans-66" x="1230.933594"/>
      <use xlink:href="#DejaVuSans-72" x="1266.138672"/>
      <use xlink:href="#DejaVuSans-6f" x="1305.001953"/>
      <use xlink:href="#DejaVuSans-6d" x="1366.183594"/>
      <use xlink:href="#DejaVuSans-20" x="1463.595703"/>
      <use xlink:href="#DejaVuSans-41" x="1495.382812"/>
      <use xlink:href="#DejaVuSans-6c" x="1563.791016"/>
      <use xlink:href="#DejaVuSans-6c" x="1591.574219"/>
      <use xlink:href="#DejaVuSans-20" x="1619.357422"/>
      <use xlink:href="#DejaVuSans-41" x="1651.144531"/>
      <use xlink:href="#DejaVuSans-50" x="1719.552734"/>
      <use xlink:href="#DejaVuSans-49" x="1779.855469"/>
      <use xlink:href="#DejaVuSans-73" x="1809.347656"/>
     </g>
    </g>
   </g>
  </g>
 </g>
 <defs>
  <clipPath id="p0805f5739a">
   <rect x="53.75" y="27.6" width="655.45" height="249.846653"/>
  </clipPath>
 </defs>
</svg>
