<?xml version="1.0" encoding="utf-8" standalone="no"?>
<!DOCTYPE svg PUBLIC "-//W3C//DTD SVG 1.1//EN"
  "http://www.w3.org/Graphics/SVG/1.1/DTD/svg11.dtd">
<svg xmlns:xlink="http://www.w3.org/1999/xlink" width="720pt" height="360pt" viewBox="0 0 720 360" xmlns="http://www.w3.org/2000/svg" version="1.1">
 <metadata>
  <rdf:RDF xmlns:dc="http://purl.org/dc/elements/1.1/" xmlns:cc="http://creativecommons.org/ns#" xmlns:rdf="http://www.w3.org/1999/02/22-rdf-syntax-ns#">
   <cc:Work>
    <dc:type rdf:resource="http://purl.org/dc/dcmitype/StillImage"/>
    <dc:date>2024-04-02T11:16:51.616432</dc:date>
    <dc:format>image/svg+xml</dc:format>
    <dc:creator>
     <cc:Agent>
      <dc:title>Matplotlib v3.8.3, https://matplotlib.org/</dc:title>
     </cc:Agent>
    </dc:creator>
   </cc:Work>
  </rdf:RDF>
 </metadata>
 <defs>
  <style type="text/css">*{stroke-linejoin: round; stroke-linecap: butt}</style>
 </defs>
 <g id="figure_1">
  <g id="patch_1">
   <path d="M 0 360 
L 720 360 
L 720 0 
L 0 0 
z
" style="fill: #ffffff"/>
  </g>
  <g id="axes_1">
   <g id="patch_2">
    <path d="M 53.75 277.446653 
L 709.2 277.446653 
L 709.2 27.6 
L 53.75 27.6 
z
" style="fill: #ffffff"/>
   </g>
   <g id="matplotlib.axis_1">
    <g id="xtick_1">
     <g id="line2d_1">
      <path d="M 82.11754 277.446653 
L 82.11754 27.6 
" clip-path="url(#p0be2673786)" style="fill: none; stroke: #b0b0b0; stroke-width: 0.8; stroke-linecap: square"/>
     </g>
     <g id="line2d_2">
      <defs>
       <path id="m2e7676fcaa" d="M 0 0 
L 0 3.5 
" style="stroke: #000000; stroke-width: 0.8"/>
      </defs>
      <g>
       <use xlink:href="#m2e7676fcaa" x="82.11754" y="277.446653" style="stroke: #000000; stroke-width: 0.8"/>
      </g>
     </g>
     <g id="text_1">
      <!-- 2024-03-27 -->
      <g transform="translate(63.521736 330.913512) rotate(-45) scale(0.1 -0.1)">
       <defs>
        <path id="DejaVuSans-32" d="M 1228 531 
L 3431 531 
L 3431 0 
L 469 0 
L 469 531 
Q 828 903 1448 1529 
Q 2069 2156 2228 2338 
Q 2531 2678 2651 2914 
Q 2772 3150 2772 3378 
Q 2772 3750 2511 3984 
Q 2250 4219 1831 4219 
Q 1534 4219 1204 4116 
Q 875 4013 500 3803 
L 500 4441 
Q 881 4594 1212 4672 
Q 1544 4750 1819 4750 
Q 2544 4750 2975 4387 
Q 3406 4025 3406 3419 
Q 3406 3131 3298 2873 
Q 3191 2616 2906 2266 
Q 2828 2175 2409 1742 
Q 1991 1309 1228 531 
z
" transform="scale(0.015625)"/>
        <path id="DejaVuSans-30" d="M 2034 4250 
Q 1547 4250 1301 3770 
Q 1056 3291 1056 2328 
Q 1056 1369 1301 889 
Q 1547 409 2034 409 
Q 2525 409 2770 889 
Q 3016 1369 3016 2328 
Q 3016 3291 2770 3770 
Q 2525 4250 2034 4250 
z
M 2034 4750 
Q 2819 4750 3233 4129 
Q 3647 3509 3647 2328 
Q 3647 1150 3233 529 
Q 2819 -91 2034 -91 
Q 1250 -91 836 529 
Q 422 1150 422 2328 
Q 422 3509 836 4129 
Q 1250 4750 2034 4750 
z
" transform="scale(0.015625)"/>
        <path id="DejaVuSans-34" d="M 2419 4116 
L 825 1625 
L 2419 1625 
L 2419 4116 
z
M 2253 4666 
L 3047 4666 
L 3047 1625 
L 3713 1625 
L 3713 1100 
L 3047 1100 
L 3047 0 
L 2419 0 
L 2419 1100 
L 313 1100 
L 313 1709 
L 2253 4666 
z
" transform="scale(0.015625)"/>
        <path id="DejaVuSans-2d" d="M 313 2009 
L 1997 2009 
L 1997 1497 
L 313 1497 
L 313 2009 
z
" transform="scale(0.015625)"/>
        <path id="DejaVuSans-33" d="M 2597 2516 
Q 3050 2419 3304 2112 
Q 3559 1806 3559 1356 
Q 3559 666 3084 287 
Q 2609 -91 1734 -91 
Q 1441 -91 1130 -33 
Q 819 25 488 141 
L 488 750 
Q 750 597 1062 519 
Q 1375 441 1716 441 
Q 2309 441 2620 675 
Q 2931 909 2931 1356 
Q 2931 1769 2642 2001 
Q 2353 2234 1838 2234 
L 1294 2234 
L 1294 2753 
L 1863 2753 
Q 2328 2753 2575 2939 
Q 2822 3125 2822 3475 
Q 2822 3834 2567 4026 
Q 2313 4219 1838 4219 
Q 1578 4219 1281 4162 
Q 984 4106 628 3988 
L 628 4550 
Q 988 4650 1302 4700 
Q 1616 4750 1894 4750 
Q 2613 4750 3031 4423 
Q 3450 4097 3450 3541 
Q 3450 3153 3228 2886 
Q 3006 2619 2597 2516 
z
" transform="scale(0.015625)"/>
        <path id="DejaVuSans-37" d="M 525 4666 
L 3525 4666 
L 3525 4397 
L 1831 0 
L 1172 0 
L 2766 4134 
L 525 4134 
L 525 4666 
z
" transform="scale(0.015625)"/>
       </defs>
       <use xlink:href="#DejaVuSans-32"/>
       <use xlink:href="#DejaVuSans-30" x="63.623047"/>
       <use xlink:href="#DejaVuSans-32" x="127.246094"/>
       <use xlink:href="#DejaVuSans-34" x="190.869141"/>
       <use xlink:href="#DejaVuSans-2d" x="254.492188"/>
       <use xlink:href="#DejaVuSans-30" x="290.576172"/>
       <use xlink:href="#DejaVuSans-33" x="354.199219"/>
       <use xlink:href="#DejaVuSans-2d" x="417.822266"/>
       <use xlink:href="#DejaVuSans-32" x="453.90625"/>
       <use xlink:href="#DejaVuSans-37" x="517.529297"/>
      </g>
     </g>
    </g>
    <g id="xtick_2">
     <g id="line2d_3">
      <path d="M 174.455472 277.446653 
L 174.455472 27.6 
" clip-path="url(#p0be2673786)" style="fill: none; stroke: #b0b0b0; stroke-width: 0.8; stroke-linecap: square"/>
     </g>
     <g id="line2d_4">
      <g>
       <use xlink:href="#m2e7676fcaa" x="174.455472" y="277.446653" style="stroke: #000000; stroke-width: 0.8"/>
      </g>
     </g>
     <g id="text_2">
      <!-- 2024-03-28 -->
      <g transform="translate(155.859669 330.913512) rotate(-45) scale(0.1 -0.1)">
       <defs>
        <path id="DejaVuSans-38" d="M 2034 2216 
Q 1584 2216 1326 1975 
Q 1069 1734 1069 1313 
Q 1069 891 1326 650 
Q 1584 409 2034 409 
Q 2484 409 2743 651 
Q 3003 894 3003 1313 
Q 3003 1734 2745 1975 
Q 2488 2216 2034 2216 
z
M 1403 2484 
Q 997 2584 770 2862 
Q 544 3141 544 3541 
Q 544 4100 942 4425 
Q 1341 4750 2034 4750 
Q 2731 4750 3128 4425 
Q 3525 4100 3525 3541 
Q 3525 3141 3298 2862 
Q 3072 2584 2669 2484 
Q 3125 2378 3379 2068 
Q 3634 1759 3634 1313 
Q 3634 634 3220 271 
Q 2806 -91 2034 -91 
Q 1263 -91 848 271 
Q 434 634 434 1313 
Q 434 1759 690 2068 
Q 947 2378 1403 2484 
z
M 1172 3481 
Q 1172 3119 1398 2916 
Q 1625 2713 2034 2713 
Q 2441 2713 2670 2916 
Q 2900 3119 2900 3481 
Q 2900 3844 2670 4047 
Q 2441 4250 2034 4250 
Q 1625 4250 1398 4047 
Q 1172 3844 1172 3481 
z
" transform="scale(0.015625)"/>
       </defs>
       <use xlink:href="#DejaVuSans-32"/>
       <use xlink:href="#DejaVuSans-30" x="63.623047"/>
       <use xlink:href="#DejaVuSans-32" x="127.246094"/>
       <use xlink:href="#DejaVuSans-34" x="190.869141"/>
       <use xlink:href="#DejaVuSans-2d" x="254.492188"/>
       <use xlink:href="#DejaVuSans-30" x="290.576172"/>
       <use xlink:href="#DejaVuSans-33" x="354.199219"/>
       <use xlink:href="#DejaVuSans-2d" x="417.822266"/>
       <use xlink:href="#DejaVuSans-32" x="453.90625"/>
       <use xlink:href="#DejaVuSans-38" x="517.529297"/>
      </g>
     </g>
    </g>
    <g id="xtick_3">
     <g id="line2d_5">
      <path d="M 266.793405 277.446653 
L 266.793405 27.6 
" clip-path="url(#p0be2673786)" style="fill: none; stroke: #b0b0b0; stroke-width: 0.8; stroke-linecap: square"/>
     </g>
     <g id="line2d_6">
      <g>
       <use xlink:href="#m2e7676fcaa" x="266.793405" y="277.446653" style="stroke: #000000; stroke-width: 0.8"/>
      </g>
     </g>
     <g id="text_3">
      <!-- 2024-03-29 -->
      <g transform="translate(248.197602 330.913512) rotate(-45) scale(0.1 -0.1)">
       <defs>
        <path id="DejaVuSans-39" d="M 703 97 
L 703 672 
Q 941 559 1184 500 
Q 1428 441 1663 441 
Q 2288 441 2617 861 
Q 2947 1281 2994 2138 
Q 2813 1869 2534 1725 
Q 2256 1581 1919 1581 
Q 1219 1581 811 2004 
Q 403 2428 403 3163 
Q 403 3881 828 4315 
Q 1253 4750 1959 4750 
Q 2769 4750 3195 4129 
Q 3622 3509 3622 2328 
Q 3622 1225 3098 567 
Q 2575 -91 1691 -91 
Q 1453 -91 1209 -44 
Q 966 3 703 97 
z
M 1959 2075 
Q 2384 2075 2632 2365 
Q 2881 2656 2881 3163 
Q 2881 3666 2632 3958 
Q 2384 4250 1959 4250 
Q 1534 4250 1286 3958 
Q 1038 3666 1038 3163 
Q 1038 2656 1286 2365 
Q 1534 2075 1959 2075 
z
" transform="scale(0.015625)"/>
       </defs>
       <use xlink:href="#DejaVuSans-32"/>
       <use xlink:href="#DejaVuSans-30" x="63.623047"/>
       <use xlink:href="#DejaVuSans-32" x="127.246094"/>
       <use xlink:href="#DejaVuSans-34" x="190.869141"/>
       <use xlink:href="#DejaVuSans-2d" x="254.492188"/>
       <use xlink:href="#DejaVuSans-30" x="290.576172"/>
       <use xlink:href="#DejaVuSans-33" x="354.199219"/>
       <use xlink:href="#DejaVuSans-2d" x="417.822266"/>
       <use xlink:href="#DejaVuSans-32" x="453.90625"/>
       <use xlink:href="#DejaVuSans-39" x="517.529297"/>
      </g>
     </g>
    </g>
    <g id="xtick_4">
     <g id="line2d_7">
      <path d="M 359.131338 277.446653 
L 359.131338 27.6 
" clip-path="url(#p0be2673786)" style="fill: none; stroke: #b0b0b0; stroke-width: 0.8; stroke-linecap: square"/>
     </g>
     <g id="line2d_8">
      <g>
       <use xlink:href="#m2e7676fcaa" x="359.131338" y="277.446653" style="stroke: #000000; stroke-width: 0.8"/>
      </g>
     </g>
     <g id="text_4">
      <!-- 2024-03-30 -->
      <g transform="translate(340.535534 330.913512) rotate(-45) scale(0.1 -0.1)">
       <use xlink:href="#DejaVuSans-32"/>
       <use xlink:href="#DejaVuSans-30" x="63.623047"/>
       <use xlink:href="#DejaVuSans-32" x="127.246094"/>
       <use xlink:href="#DejaVuSans-34" x="190.869141"/>
       <use xlink:href="#DejaVuSans-2d" x="254.492188"/>
       <use xlink:href="#DejaVuSans-30" x="290.576172"/>
       <use xlink:href="#DejaVuSans-33" x="354.199219"/>
       <use xlink:href="#DejaVuSans-2d" x="417.822266"/>
       <use xlink:href="#DejaVuSans-33" x="453.90625"/>
       <use xlink:href="#DejaVuSans-30" x="517.529297"/>
      </g>
     </g>
    </g>
    <g id="xtick_5">
     <g id="line2d_9">
      <path d="M 451.469271 277.446653 
L 451.469271 27.6 
" clip-path="url(#p0be2673786)" style="fill: none; stroke: #b0b0b0; stroke-width: 0.8; stroke-linecap: square"/>
     </g>
     <g id="line2d_10">
      <g>
       <use xlink:href="#m2e7676fcaa" x="451.469271" y="277.446653" style="stroke: #000000; stroke-width: 0.8"/>
      </g>
     </g>
     <g id="text_5">
      <!-- 2024-03-31 -->
      <g transform="translate(432.873467 330.913512) rotate(-45) scale(0.1 -0.1)">
       <defs>
        <path id="DejaVuSans-31" d="M 794 531 
L 1825 531 
L 1825 4091 
L 703 3866 
L 703 4441 
L 1819 4666 
L 2450 4666 
L 2450 531 
L 3481 531 
L 3481 0 
L 794 0 
L 794 531 
z
" transform="scale(0.015625)"/>
       </defs>
       <use xlink:href="#DejaVuSans-32"/>
       <use xlink:href="#DejaVuSans-30" x="63.623047"/>
       <use xlink:href="#DejaVuSans-32" x="127.246094"/>
       <use xlink:href="#DejaVuSans-34" x="190.869141"/>
       <use xlink:href="#DejaVuSans-2d" x="254.492188"/>
       <use xlink:href="#DejaVuSans-30" x="290.576172"/>
       <use xlink:href="#DejaVuSans-33" x="354.199219"/>
       <use xlink:href="#DejaVuSans-2d" x="417.822266"/>
       <use xlink:href="#DejaVuSans-33" x="453.90625"/>
       <use xlink:href="#DejaVuSans-31" x="517.529297"/>
      </g>
     </g>
    </g>
    <g id="xtick_6">
     <g id="line2d_11">
      <path d="M 543.807203 277.446653 
L 543.807203 27.6 
" clip-path="url(#p0be2673786)" style="fill: none; stroke: #b0b0b0; stroke-width: 0.8; stroke-linecap: square"/>
     </g>
     <g id="line2d_12">
      <g>
       <use xlink:href="#m2e7676fcaa" x="543.807203" y="277.446653" style="stroke: #000000; stroke-width: 0.8"/>
      </g>
     </g>
     <g id="text_6">
      <!-- 2024-04-01 -->
      <g transform="translate(525.2114 330.913512) rotate(-45) scale(0.1 -0.1)">
       <use xlink:href="#DejaVuSans-32"/>
       <use xlink:href="#DejaVuSans-30" x="63.623047"/>
       <use xlink:href="#DejaVuSans-32" x="127.246094"/>
       <use xlink:href="#DejaVuSans-34" x="190.869141"/>
       <use xlink:href="#DejaVuSans-2d" x="254.492188"/>
       <use xlink:href="#DejaVuSans-30" x="290.576172"/>
       <use xlink:href="#DejaVuSans-34" x="354.199219"/>
       <use xlink:href="#DejaVuSans-2d" x="417.822266"/>
       <use xlink:href="#DejaVuSans-30" x="453.90625"/>
       <use xlink:href="#DejaVuSans-31" x="517.529297"/>
      </g>
     </g>
    </g>
    <g id="xtick_7">
     <g id="line2d_13">
      <path d="M 636.145136 277.446653 
L 636.145136 27.6 
" clip-path="url(#p0be2673786)" style="fill: none; stroke: #b0b0b0; stroke-width: 0.8; stroke-linecap: square"/>
     </g>
     <g id="line2d_14">
      <g>
       <use xlink:href="#m2e7676fcaa" x="636.145136" y="277.446653" style="stroke: #000000; stroke-width: 0.8"/>
      </g>
     </g>
     <g id="text_7">
      <!-- 2024-04-02 -->
      <g transform="translate(617.549333 330.913512) rotate(-45) scale(0.1 -0.1)">
       <use xlink:href="#DejaVuSans-32"/>
       <use xlink:href="#DejaVuSans-30" x="63.623047"/>
       <use xlink:href="#DejaVuSans-32" x="127.246094"/>
       <use xlink:href="#DejaVuSans-34" x="190.869141"/>
       <use xlink:href="#DejaVuSans-2d" x="254.492188"/>
       <use xlink:href="#DejaVuSans-30" x="290.576172"/>
       <use xlink:href="#DejaVuSans-34" x="354.199219"/>
       <use xlink:href="#DejaVuSans-2d" x="417.822266"/>
       <use xlink:href="#DejaVuSans-30" x="453.90625"/>
       <use xlink:href="#DejaVuSans-32" x="517.529297"/>
      </g>
     </g>
    </g>
    <g id="text_8">
     <!-- Time -->
     <g transform="translate(366.794688 345.502198) scale(0.12 -0.12)">
      <defs>
       <path id="DejaVuSans-54" d="M -19 4666 
L 3928 4666 
L 3928 4134 
L 2272 4134 
L 2272 0 
L 1638 0 
L 1638 4134 
L -19 4134 
L -19 4666 
z
" transform="scale(0.015625)"/>
       <path id="DejaVuSans-69" d="M 603 3500 
L 1178 3500 
L 1178 0 
L 603 0 
L 603 3500 
z
M 603 4863 
L 1178 4863 
L 1178 4134 
L 603 4134 
L 603 4863 
z
" transform="scale(0.015625)"/>
       <path id="DejaVuSans-6d" d="M 3328 2828 
Q 3544 3216 3844 3400 
Q 4144 3584 4550 3584 
Q 5097 3584 5394 3201 
Q 5691 2819 5691 2113 
L 5691 0 
L 5113 0 
L 5113 2094 
Q 5113 2597 4934 2840 
Q 4756 3084 4391 3084 
Q 3944 3084 3684 2787 
Q 3425 2491 3425 1978 
L 3425 0 
L 2847 0 
L 2847 2094 
Q 2847 2600 2669 2842 
Q 2491 3084 2119 3084 
Q 1678 3084 1418 2786 
Q 1159 2488 1159 1978 
L 1159 0 
L 581 0 
L 581 3500 
L 1159 3500 
L 1159 2956 
Q 1356 3278 1631 3431 
Q 1906 3584 2284 3584 
Q 2666 3584 2933 3390 
Q 3200 3197 3328 2828 
z
" transform="scale(0.015625)"/>
       <path id="DejaVuSans-65" d="M 3597 1894 
L 3597 1613 
L 953 1613 
Q 991 1019 1311 708 
Q 1631 397 2203 397 
Q 2534 397 2845 478 
Q 3156 559 3463 722 
L 3463 178 
Q 3153 47 2828 -22 
Q 2503 -91 2169 -91 
Q 1331 -91 842 396 
Q 353 884 353 1716 
Q 353 2575 817 3079 
Q 1281 3584 2069 3584 
Q 2775 3584 3186 3129 
Q 3597 2675 3597 1894 
z
M 3022 2063 
Q 3016 2534 2758 2815 
Q 2500 3097 2075 3097 
Q 1594 3097 1305 2825 
Q 1016 2553 972 2059 
L 3022 2063 
z
" transform="scale(0.015625)"/>
      </defs>
      <use xlink:href="#DejaVuSans-54"/>
      <use xlink:href="#DejaVuSans-69" x="57.958984"/>
      <use xlink:href="#DejaVuSans-6d" x="85.742188"/>
      <use xlink:href="#DejaVuSans-65" x="183.154297"/>
     </g>
    </g>
   </g>
   <g id="matplotlib.axis_2">
    <g id="ytick_1">
     <g id="line2d_15">
      <path d="M 53.75 235.976147 
L 709.2 235.976147 
" clip-path="url(#p0be2673786)" style="fill: none; stroke: #b0b0b0; stroke-width: 0.8; stroke-linecap: square"/>
     </g>
     <g id="line2d_16">
      <defs>
       <path id="mecc1248953" d="M 0 0 
L -3.5 0 
" style="stroke: #000000; stroke-width: 0.8"/>
      </defs>
      <g>
       <use xlink:href="#mecc1248953" x="53.75" y="235.976147" style="stroke: #000000; stroke-width: 0.8"/>
      </g>
     </g>
     <g id="text_9">
      <!-- 200 -->
      <g transform="translate(27.6625 239.775365) scale(0.1 -0.1)">
       <use xlink:href="#DejaVuSans-32"/>
       <use xlink:href="#DejaVuSans-30" x="63.623047"/>
       <use xlink:href="#DejaVuSans-30" x="127.246094"/>
      </g>
     </g>
    </g>
    <g id="ytick_2">
     <g id="line2d_17">
      <path d="M 53.75 181.838906 
L 709.2 181.838906 
" clip-path="url(#p0be2673786)" style="fill: none; stroke: #b0b0b0; stroke-width: 0.8; stroke-linecap: square"/>
     </g>
     <g id="line2d_18">
      <g>
       <use xlink:href="#mecc1248953" x="53.75" y="181.838906" style="stroke: #000000; stroke-width: 0.8"/>
      </g>
     </g>
     <g id="text_10">
      <!-- 400 -->
      <g transform="translate(27.6625 185.638125) scale(0.1 -0.1)">
       <use xlink:href="#DejaVuSans-34"/>
       <use xlink:href="#DejaVuSans-30" x="63.623047"/>
       <use xlink:href="#DejaVuSans-30" x="127.246094"/>
      </g>
     </g>
    </g>
    <g id="ytick_3">
     <g id="line2d_19">
      <path d="M 53.75 127.701666 
L 709.2 127.701666 
" clip-path="url(#p0be2673786)" style="fill: none; stroke: #b0b0b0; stroke-width: 0.8; stroke-linecap: square"/>
     </g>
     <g id="line2d_20">
      <g>
       <use xlink:href="#mecc1248953" x="53.75" y="127.701666" style="stroke: #000000; stroke-width: 0.8"/>
      </g>
     </g>
     <g id="text_11">
      <!-- 600 -->
      <g transform="translate(27.6625 131.500884) scale(0.1 -0.1)">
       <defs>
        <path id="DejaVuSans-36" d="M 2113 2584 
Q 1688 2584 1439 2293 
Q 1191 2003 1191 1497 
Q 1191 994 1439 701 
Q 1688 409 2113 409 
Q 2538 409 2786 701 
Q 3034 994 3034 1497 
Q 3034 2003 2786 2293 
Q 2538 2584 2113 2584 
z
M 3366 4563 
L 3366 3988 
Q 3128 4100 2886 4159 
Q 2644 4219 2406 4219 
Q 1781 4219 1451 3797 
Q 1122 3375 1075 2522 
Q 1259 2794 1537 2939 
Q 1816 3084 2150 3084 
Q 2853 3084 3261 2657 
Q 3669 2231 3669 1497 
Q 3669 778 3244 343 
Q 2819 -91 2113 -91 
Q 1303 -91 875 529 
Q 447 1150 447 2328 
Q 447 3434 972 4092 
Q 1497 4750 2381 4750 
Q 2619 4750 2861 4703 
Q 3103 4656 3366 4563 
z
" transform="scale(0.015625)"/>
       </defs>
       <use xlink:href="#DejaVuSans-36"/>
       <use xlink:href="#DejaVuSans-30" x="63.623047"/>
       <use xlink:href="#DejaVuSans-30" x="127.246094"/>
      </g>
     </g>
    </g>
    <g id="ytick_4">
     <g id="line2d_21">
      <path d="M 53.75 73.564425 
L 709.2 73.564425 
" clip-path="url(#p0be2673786)" style="fill: none; stroke: #b0b0b0; stroke-width: 0.8; stroke-linecap: square"/>
     </g>
     <g id="line2d_22">
      <g>
       <use xlink:href="#mecc1248953" x="53.75" y="73.564425" style="stroke: #000000; stroke-width: 0.8"/>
      </g>
     </g>
     <g id="text_12">
      <!-- 800 -->
      <g transform="translate(27.6625 77.363644) scale(0.1 -0.1)">
       <use xlink:href="#DejaVuSans-38"/>
       <use xlink:href="#DejaVuSans-30" x="63.623047"/>
       <use xlink:href="#DejaVuSans-30" x="127.246094"/>
      </g>
     </g>
    </g>
    <g id="text_13">
     <!-- Response Time (ms) -->
     <g transform="translate(21.166875 213.486139) rotate(-90) scale(0.12 -0.12)">
      <defs>
       <path id="DejaVuSans-52" d="M 2841 2188 
Q 3044 2119 3236 1894 
Q 3428 1669 3622 1275 
L 4263 0 
L 3584 0 
L 2988 1197 
Q 2756 1666 2539 1819 
Q 2322 1972 1947 1972 
L 1259 1972 
L 1259 0 
L 628 0 
L 628 4666 
L 2053 4666 
Q 2853 4666 3247 4331 
Q 3641 3997 3641 3322 
Q 3641 2881 3436 2590 
Q 3231 2300 2841 2188 
z
M 1259 4147 
L 1259 2491 
L 2053 2491 
Q 2509 2491 2742 2702 
Q 2975 2913 2975 3322 
Q 2975 3731 2742 3939 
Q 2509 4147 2053 4147 
L 1259 4147 
z
" transform="scale(0.015625)"/>
       <path id="DejaVuSans-73" d="M 2834 3397 
L 2834 2853 
Q 2591 2978 2328 3040 
Q 2066 3103 1784 3103 
Q 1356 3103 1142 2972 
Q 928 2841 928 2578 
Q 928 2378 1081 2264 
Q 1234 2150 1697 2047 
L 1894 2003 
Q 2506 1872 2764 1633 
Q 3022 1394 3022 966 
Q 3022 478 2636 193 
Q 2250 -91 1575 -91 
Q 1294 -91 989 -36 
Q 684 19 347 128 
L 347 722 
Q 666 556 975 473 
Q 1284 391 1588 391 
Q 1994 391 2212 530 
Q 2431 669 2431 922 
Q 2431 1156 2273 1281 
Q 2116 1406 1581 1522 
L 1381 1569 
Q 847 1681 609 1914 
Q 372 2147 372 2553 
Q 372 3047 722 3315 
Q 1072 3584 1716 3584 
Q 2034 3584 2315 3537 
Q 2597 3491 2834 3397 
z
" transform="scale(0.015625)"/>
       <path id="DejaVuSans-70" d="M 1159 525 
L 1159 -1331 
L 581 -1331 
L 581 3500 
L 1159 3500 
L 1159 2969 
Q 1341 3281 1617 3432 
Q 1894 3584 2278 3584 
Q 2916 3584 3314 3078 
Q 3713 2572 3713 1747 
Q 3713 922 3314 415 
Q 2916 -91 2278 -91 
Q 1894 -91 1617 61 
Q 1341 213 1159 525 
z
M 3116 1747 
Q 3116 2381 2855 2742 
Q 2594 3103 2138 3103 
Q 1681 3103 1420 2742 
Q 1159 2381 1159 1747 
Q 1159 1113 1420 752 
Q 1681 391 2138 391 
Q 2594 391 2855 752 
Q 3116 1113 3116 1747 
z
" transform="scale(0.015625)"/>
       <path id="DejaVuSans-6f" d="M 1959 3097 
Q 1497 3097 1228 2736 
Q 959 2375 959 1747 
Q 959 1119 1226 758 
Q 1494 397 1959 397 
Q 2419 397 2687 759 
Q 2956 1122 2956 1747 
Q 2956 2369 2687 2733 
Q 2419 3097 1959 3097 
z
M 1959 3584 
Q 2709 3584 3137 3096 
Q 3566 2609 3566 1747 
Q 3566 888 3137 398 
Q 2709 -91 1959 -91 
Q 1206 -91 779 398 
Q 353 888 353 1747 
Q 353 2609 779 3096 
Q 1206 3584 1959 3584 
z
" transform="scale(0.015625)"/>
       <path id="DejaVuSans-6e" d="M 3513 2113 
L 3513 0 
L 2938 0 
L 2938 2094 
Q 2938 2591 2744 2837 
Q 2550 3084 2163 3084 
Q 1697 3084 1428 2787 
Q 1159 2491 1159 1978 
L 1159 0 
L 581 0 
L 581 3500 
L 1159 3500 
L 1159 2956 
Q 1366 3272 1645 3428 
Q 1925 3584 2291 3584 
Q 2894 3584 3203 3211 
Q 3513 2838 3513 2113 
z
" transform="scale(0.015625)"/>
       <path id="DejaVuSans-20" transform="scale(0.015625)"/>
       <path id="DejaVuSans-28" d="M 1984 4856 
Q 1566 4138 1362 3434 
Q 1159 2731 1159 2009 
Q 1159 1288 1364 580 
Q 1569 -128 1984 -844 
L 1484 -844 
Q 1016 -109 783 600 
Q 550 1309 550 2009 
Q 550 2706 781 3412 
Q 1013 4119 1484 4856 
L 1984 4856 
z
" transform="scale(0.015625)"/>
       <path id="DejaVuSans-29" d="M 513 4856 
L 1013 4856 
Q 1481 4119 1714 3412 
Q 1947 2706 1947 2009 
Q 1947 1309 1714 600 
Q 1481 -109 1013 -844 
L 513 -844 
Q 928 -128 1133 580 
Q 1338 1288 1338 2009 
Q 1338 2731 1133 3434 
Q 928 4138 513 4856 
z
" transform="scale(0.015625)"/>
      </defs>
      <use xlink:href="#DejaVuSans-52"/>
      <use xlink:href="#DejaVuSans-65" x="64.982422"/>
      <use xlink:href="#DejaVuSans-73" x="126.505859"/>
      <use xlink:href="#DejaVuSans-70" x="178.605469"/>
      <use xlink:href="#DejaVuSans-6f" x="242.082031"/>
      <use xlink:href="#DejaVuSans-6e" x="303.263672"/>
      <use xlink:href="#DejaVuSans-73" x="366.642578"/>
      <use xlink:href="#DejaVuSans-65" x="418.742188"/>
      <use xlink:href="#DejaVuSans-20" x="480.265625"/>
      <use xlink:href="#DejaVuSans-54" x="512.052734"/>
      <use xlink:href="#DejaVuSans-69" x="570.011719"/>
      <use xlink:href="#DejaVuSans-6d" x="597.794922"/>
      <use xlink:href="#DejaVuSans-65" x="695.207031"/>
      <use xlink:href="#DejaVuSans-20" x="756.730469"/>
      <use xlink:href="#DejaVuSans-28" x="788.517578"/>
      <use xlink:href="#DejaVuSans-6d" x="827.53125"/>
      <use xlink:href="#DejaVuSans-73" x="924.943359"/>
      <use xlink:href="#DejaVuSans-29" x="977.042969"/>
     </g>
    </g>
   </g>
   <g id="line2d_23">
    <path d="M 83.543182 243.55536 
L 87.793072 250.931559 
L 90.631392 243.081659 
L 94.17086 242.946316 
L 98.114548 250.999231 
L 102.064602 243.217003 
L 105.728966 243.352346 
L 109.558132 242.743302 
L 113.473173 234.961073 
L 117.343765 243.081659 
L 121.11505 249.713471 
L 125.308345 252.28499 
L 129.033626 259.119817 
L 132.711441 250.999231 
L 136.868895 246.262222 
L 140.478122 251.743618 
L 144.539799 246.668252 
L 152.178474 247.344967 
L 155.974778 252.69102 
L 167.397211 252.894034 
L 180.495759 250.457858 
L 183.324794 257.834057 
L 186.734476 258.037072 
L 190.538404 258.037072 
L 194.449493 265.954644 
L 198.388495 259.593518 
L 202.160316 259.864204 
L 205.945797 252.28499 
L 209.940492 252.623348 
L 213.616383 250.660873 
L 217.429714 250.52553 
L 221.578047 250.52553 
L 225.282611 250.322515 
L 229.240356 253.097049 
L 232.970903 245.044134 
L 236.892875 252.623348 
L 240.692867 253.029377 
L 244.710804 258.646116 
L 248.439474 259.052145 
L 252.210572 258.984474 
L 255.982338 258.646116 
L 272.677879 250.660873 
L 275.529233 250.593202 
L 279.049377 250.728545 
L 283.055864 243.352346 
L 286.86417 243.758375 
L 290.63663 251.675946 
L 294.41331 251.269917 
L 298.309274 257.4957 
L 302.176286 256.683641 
L 306.005518 256.412955 
L 309.989492 249.104427 
L 313.89796 243.758375 
L 317.523054 251.743618 
L 321.370343 252.014304 
L 325.279498 259.187488 
L 329.227164 266.089987 
L 344.541329 258.510773 
L 360.783025 250.728545 
L 365.159471 243.623032 
L 367.980453 237.329578 
L 371.573543 237.194235 
L 375.587481 236.720534 
L 379.294853 244.367419 
L 383.284313 242.607959 
L 387.100347 242.946316 
L 390.841942 250.999231 
L 394.613917 245.450164 
L 398.588939 245.450164 
L 402.428482 244.84112 
L 406.317334 239.156709 
L 410.086748 244.773448 
L 413.943753 245.72085 
L 417.690653 253.976779 
L 421.744978 259.458175 
L 425.395004 259.390503 
L 429.45356 258.307758 
L 433.086203 249.442785 
L 436.929967 249.578128 
L 440.799997 248.76607 
L 444.722847 256.277612 
L 448.51168 264.533541 
L 453.432961 256.548298 
L 457.75659 249.172099 
L 460.5318 247.818668 
L 464.038711 240.848498 
L 467.780834 248.901413 
L 471.702432 256.683641 
L 475.519812 250.187172 
L 479.267354 251.472932 
L 483.129634 250.863888 
L 486.966004 245.653178 
L 490.801158 245.923865 
L 494.805211 244.638105 
L 498.667123 239.495067 
L 502.357403 245.179477 
L 506.280863 244.773448 
L 510.132001 244.638105 
L 513.881541 250.322515 
L 517.813317 242.201929 
L 521.653372 242.404944 
L 525.525185 242.201929 
L 529.319904 233.810657 
L 533.101524 241.186856 
L 537.021716 241.186856 
L 540.84168 248.698398 
L 545.691356 256.61597 
L 550.247183 245.788521 
L 553.090808 252.352662 
L 556.526323 245.179477 
L 560.1028 245.382492 
L 563.997496 251.269917 
L 567.872094 244.773448 
L 571.627818 252.894034 
L 575.583646 253.367735 
L 579.322789 257.225014 
L 583.149449 257.631043 
L 587.063649 256.954327 
L 591.018022 250.187172 
L 594.697509 251.743618 
L 598.575158 258.37543 
L 602.495194 251.811289 
L 606.368506 250.863888 
L 610.172871 250.863888 
L 613.957034 251.337589 
L 617.833819 249.375114 
L 621.649817 256.683641 
L 625.457138 256.345283 
L 629.310009 250.322515 
L 633.212103 258.713788 
L 637.845408 251.540603 
L 642.340836 250.390187 
L 645.261465 249.036756 
L 652.414512 251.472932 
L 656.246013 245.653178 
L 660.147467 254.179794 
L 664.028726 247.48031 
L 667.935412 245.382492 
L 671.694274 252.961706 
L 675.83467 245.923865 
L 679.406818 249.239771 
L 679.406818 249.239771 
" clip-path="url(#p0be2673786)" style="fill: none; stroke: #1f77b4; stroke-opacity: 0.5; stroke-width: 1.5; stroke-linecap: square"/>
    <defs>
     <path id="m2e7c7a2af1" d="M 0 1 
C 0.265203 1 0.51958 0.894634 0.707107 0.707107 
C 0.894634 0.51958 1 0.265203 1 0 
C 1 -0.265203 0.894634 -0.51958 0.707107 -0.707107 
C 0.51958 -0.894634 0.265203 -1 0 -1 
C -0.265203 -1 -0.51958 -0.894634 -0.707107 -0.707107 
C -0.894634 -0.51958 -1 -0.265203 -1 0 
C -1 0.265203 -0.894634 0.51958 -0.707107 0.707107 
C -0.51958 0.894634 -0.265203 1 0 1 
z
" style="stroke: #1f77b4; stroke-opacity: 0.5"/>
    </defs>
    <g clip-path="url(#p0be2673786)">
     <use xlink:href="#m2e7c7a2af1" x="83.543182" y="243.55536" style="fill: #1f77b4; fill-opacity: 0.5; stroke: #1f77b4; stroke-opacity: 0.5"/>
     <use xlink:href="#m2e7c7a2af1" x="87.793072" y="250.931559" style="fill: #1f77b4; fill-opacity: 0.5; stroke: #1f77b4; stroke-opacity: 0.5"/>
     <use xlink:href="#m2e7c7a2af1" x="90.631392" y="243.081659" style="fill: #1f77b4; fill-opacity: 0.5; stroke: #1f77b4; stroke-opacity: 0.5"/>
     <use xlink:href="#m2e7c7a2af1" x="94.17086" y="242.946316" style="fill: #1f77b4; fill-opacity: 0.5; stroke: #1f77b4; stroke-opacity: 0.5"/>
     <use xlink:href="#m2e7c7a2af1" x="98.114548" y="250.999231" style="fill: #1f77b4; fill-opacity: 0.5; stroke: #1f77b4; stroke-opacity: 0.5"/>
     <use xlink:href="#m2e7c7a2af1" x="102.064602" y="243.217003" style="fill: #1f77b4; fill-opacity: 0.5; stroke: #1f77b4; stroke-opacity: 0.5"/>
     <use xlink:href="#m2e7c7a2af1" x="105.728966" y="243.352346" style="fill: #1f77b4; fill-opacity: 0.5; stroke: #1f77b4; stroke-opacity: 0.5"/>
     <use xlink:href="#m2e7c7a2af1" x="109.558132" y="242.743302" style="fill: #1f77b4; fill-opacity: 0.5; stroke: #1f77b4; stroke-opacity: 0.5"/>
     <use xlink:href="#m2e7c7a2af1" x="113.473173" y="234.961073" style="fill: #1f77b4; fill-opacity: 0.5; stroke: #1f77b4; stroke-opacity: 0.5"/>
     <use xlink:href="#m2e7c7a2af1" x="117.343765" y="243.081659" style="fill: #1f77b4; fill-opacity: 0.5; stroke: #1f77b4; stroke-opacity: 0.5"/>
     <use xlink:href="#m2e7c7a2af1" x="121.11505" y="249.713471" style="fill: #1f77b4; fill-opacity: 0.5; stroke: #1f77b4; stroke-opacity: 0.5"/>
     <use xlink:href="#m2e7c7a2af1" x="125.308345" y="252.28499" style="fill: #1f77b4; fill-opacity: 0.5; stroke: #1f77b4; stroke-opacity: 0.5"/>
     <use xlink:href="#m2e7c7a2af1" x="129.033626" y="259.119817" style="fill: #1f77b4; fill-opacity: 0.5; stroke: #1f77b4; stroke-opacity: 0.5"/>
     <use xlink:href="#m2e7c7a2af1" x="132.711441" y="250.999231" style="fill: #1f77b4; fill-opacity: 0.5; stroke: #1f77b4; stroke-opacity: 0.5"/>
     <use xlink:href="#m2e7c7a2af1" x="136.868895" y="246.262222" style="fill: #1f77b4; fill-opacity: 0.5; stroke: #1f77b4; stroke-opacity: 0.5"/>
     <use xlink:href="#m2e7c7a2af1" x="140.478122" y="251.743618" style="fill: #1f77b4; fill-opacity: 0.5; stroke: #1f77b4; stroke-opacity: 0.5"/>
     <use xlink:href="#m2e7c7a2af1" x="144.539799" y="246.668252" style="fill: #1f77b4; fill-opacity: 0.5; stroke: #1f77b4; stroke-opacity: 0.5"/>
     <use xlink:href="#m2e7c7a2af1" x="152.178474" y="247.344967" style="fill: #1f77b4; fill-opacity: 0.5; stroke: #1f77b4; stroke-opacity: 0.5"/>
     <use xlink:href="#m2e7c7a2af1" x="155.974778" y="252.69102" style="fill: #1f77b4; fill-opacity: 0.5; stroke: #1f77b4; stroke-opacity: 0.5"/>
     <use xlink:href="#m2e7c7a2af1" x="167.397211" y="252.894034" style="fill: #1f77b4; fill-opacity: 0.5; stroke: #1f77b4; stroke-opacity: 0.5"/>
     <use xlink:href="#m2e7c7a2af1" x="180.495759" y="250.457858" style="fill: #1f77b4; fill-opacity: 0.5; stroke: #1f77b4; stroke-opacity: 0.5"/>
     <use xlink:href="#m2e7c7a2af1" x="183.324794" y="257.834057" style="fill: #1f77b4; fill-opacity: 0.5; stroke: #1f77b4; stroke-opacity: 0.5"/>
     <use xlink:href="#m2e7c7a2af1" x="186.734476" y="258.037072" style="fill: #1f77b4; fill-opacity: 0.5; stroke: #1f77b4; stroke-opacity: 0.5"/>
     <use xlink:href="#m2e7c7a2af1" x="190.538404" y="258.037072" style="fill: #1f77b4; fill-opacity: 0.5; stroke: #1f77b4; stroke-opacity: 0.5"/>
     <use xlink:href="#m2e7c7a2af1" x="194.449493" y="265.954644" style="fill: #1f77b4; fill-opacity: 0.5; stroke: #1f77b4; stroke-opacity: 0.5"/>
     <use xlink:href="#m2e7c7a2af1" x="198.388495" y="259.593518" style="fill: #1f77b4; fill-opacity: 0.5; stroke: #1f77b4; stroke-opacity: 0.5"/>
     <use xlink:href="#m2e7c7a2af1" x="202.160316" y="259.864204" style="fill: #1f77b4; fill-opacity: 0.5; stroke: #1f77b4; stroke-opacity: 0.5"/>
     <use xlink:href="#m2e7c7a2af1" x="205.945797" y="252.28499" style="fill: #1f77b4; fill-opacity: 0.5; stroke: #1f77b4; stroke-opacity: 0.5"/>
     <use xlink:href="#m2e7c7a2af1" x="209.940492" y="252.623348" style="fill: #1f77b4; fill-opacity: 0.5; stroke: #1f77b4; stroke-opacity: 0.5"/>
     <use xlink:href="#m2e7c7a2af1" x="213.616383" y="250.660873" style="fill: #1f77b4; fill-opacity: 0.5; stroke: #1f77b4; stroke-opacity: 0.5"/>
     <use xlink:href="#m2e7c7a2af1" x="217.429714" y="250.52553" style="fill: #1f77b4; fill-opacity: 0.5; stroke: #1f77b4; stroke-opacity: 0.5"/>
     <use xlink:href="#m2e7c7a2af1" x="221.578047" y="250.52553" style="fill: #1f77b4; fill-opacity: 0.5; stroke: #1f77b4; stroke-opacity: 0.5"/>
     <use xlink:href="#m2e7c7a2af1" x="225.282611" y="250.322515" style="fill: #1f77b4; fill-opacity: 0.5; stroke: #1f77b4; stroke-opacity: 0.5"/>
     <use xlink:href="#m2e7c7a2af1" x="229.240356" y="253.097049" style="fill: #1f77b4; fill-opacity: 0.5; stroke: #1f77b4; stroke-opacity: 0.5"/>
     <use xlink:href="#m2e7c7a2af1" x="232.970903" y="245.044134" style="fill: #1f77b4; fill-opacity: 0.5; stroke: #1f77b4; stroke-opacity: 0.5"/>
     <use xlink:href="#m2e7c7a2af1" x="236.892875" y="252.623348" style="fill: #1f77b4; fill-opacity: 0.5; stroke: #1f77b4; stroke-opacity: 0.5"/>
     <use xlink:href="#m2e7c7a2af1" x="240.692867" y="253.029377" style="fill: #1f77b4; fill-opacity: 0.5; stroke: #1f77b4; stroke-opacity: 0.5"/>
     <use xlink:href="#m2e7c7a2af1" x="244.710804" y="258.646116" style="fill: #1f77b4; fill-opacity: 0.5; stroke: #1f77b4; stroke-opacity: 0.5"/>
     <use xlink:href="#m2e7c7a2af1" x="248.439474" y="259.052145" style="fill: #1f77b4; fill-opacity: 0.5; stroke: #1f77b4; stroke-opacity: 0.5"/>
     <use xlink:href="#m2e7c7a2af1" x="252.210572" y="258.984474" style="fill: #1f77b4; fill-opacity: 0.5; stroke: #1f77b4; stroke-opacity: 0.5"/>
     <use xlink:href="#m2e7c7a2af1" x="255.982338" y="258.646116" style="fill: #1f77b4; fill-opacity: 0.5; stroke: #1f77b4; stroke-opacity: 0.5"/>
     <use xlink:href="#m2e7c7a2af1" x="272.677879" y="250.660873" style="fill: #1f77b4; fill-opacity: 0.5; stroke: #1f77b4; stroke-opacity: 0.5"/>
     <use xlink:href="#m2e7c7a2af1" x="275.529233" y="250.593202" style="fill: #1f77b4; fill-opacity: 0.5; stroke: #1f77b4; stroke-opacity: 0.5"/>
     <use xlink:href="#m2e7c7a2af1" x="279.049377" y="250.728545" style="fill: #1f77b4; fill-opacity: 0.5; stroke: #1f77b4; stroke-opacity: 0.5"/>
     <use xlink:href="#m2e7c7a2af1" x="283.055864" y="243.352346" style="fill: #1f77b4; fill-opacity: 0.5; stroke: #1f77b4; stroke-opacity: 0.5"/>
     <use xlink:href="#m2e7c7a2af1" x="286.86417" y="243.758375" style="fill: #1f77b4; fill-opacity: 0.5; stroke: #1f77b4; stroke-opacity: 0.5"/>
     <use xlink:href="#m2e7c7a2af1" x="290.63663" y="251.675946" style="fill: #1f77b4; fill-opacity: 0.5; stroke: #1f77b4; stroke-opacity: 0.5"/>
     <use xlink:href="#m2e7c7a2af1" x="294.41331" y="251.269917" style="fill: #1f77b4; fill-opacity: 0.5; stroke: #1f77b4; stroke-opacity: 0.5"/>
     <use xlink:href="#m2e7c7a2af1" x="298.309274" y="257.4957" style="fill: #1f77b4; fill-opacity: 0.5; stroke: #1f77b4; stroke-opacity: 0.5"/>
     <use xlink:href="#m2e7c7a2af1" x="302.176286" y="256.683641" style="fill: #1f77b4; fill-opacity: 0.5; stroke: #1f77b4; stroke-opacity: 0.5"/>
     <use xlink:href="#m2e7c7a2af1" x="306.005518" y="256.412955" style="fill: #1f77b4; fill-opacity: 0.5; stroke: #1f77b4; stroke-opacity: 0.5"/>
     <use xlink:href="#m2e7c7a2af1" x="309.989492" y="249.104427" style="fill: #1f77b4; fill-opacity: 0.5; stroke: #1f77b4; stroke-opacity: 0.5"/>
     <use xlink:href="#m2e7c7a2af1" x="313.89796" y="243.758375" style="fill: #1f77b4; fill-opacity: 0.5; stroke: #1f77b4; stroke-opacity: 0.5"/>
     <use xlink:href="#m2e7c7a2af1" x="317.523054" y="251.743618" style="fill: #1f77b4; fill-opacity: 0.5; stroke: #1f77b4; stroke-opacity: 0.5"/>
     <use xlink:href="#m2e7c7a2af1" x="321.370343" y="252.014304" style="fill: #1f77b4; fill-opacity: 0.5; stroke: #1f77b4; stroke-opacity: 0.5"/>
     <use xlink:href="#m2e7c7a2af1" x="325.279498" y="259.187488" style="fill: #1f77b4; fill-opacity: 0.5; stroke: #1f77b4; stroke-opacity: 0.5"/>
     <use xlink:href="#m2e7c7a2af1" x="329.227164" y="266.089987" style="fill: #1f77b4; fill-opacity: 0.5; stroke: #1f77b4; stroke-opacity: 0.5"/>
     <use xlink:href="#m2e7c7a2af1" x="344.541329" y="258.510773" style="fill: #1f77b4; fill-opacity: 0.5; stroke: #1f77b4; stroke-opacity: 0.5"/>
     <use xlink:href="#m2e7c7a2af1" x="360.783025" y="250.728545" style="fill: #1f77b4; fill-opacity: 0.5; stroke: #1f77b4; stroke-opacity: 0.5"/>
     <use xlink:href="#m2e7c7a2af1" x="365.159471" y="243.623032" style="fill: #1f77b4; fill-opacity: 0.5; stroke: #1f77b4; stroke-opacity: 0.5"/>
     <use xlink:href="#m2e7c7a2af1" x="367.980453" y="237.329578" style="fill: #1f77b4; fill-opacity: 0.5; stroke: #1f77b4; stroke-opacity: 0.5"/>
     <use xlink:href="#m2e7c7a2af1" x="371.573543" y="237.194235" style="fill: #1f77b4; fill-opacity: 0.5; stroke: #1f77b4; stroke-opacity: 0.5"/>
     <use xlink:href="#m2e7c7a2af1" x="375.587481" y="236.720534" style="fill: #1f77b4; fill-opacity: 0.5; stroke: #1f77b4; stroke-opacity: 0.5"/>
     <use xlink:href="#m2e7c7a2af1" x="379.294853" y="244.367419" style="fill: #1f77b4; fill-opacity: 0.5; stroke: #1f77b4; stroke-opacity: 0.5"/>
     <use xlink:href="#m2e7c7a2af1" x="383.284313" y="242.607959" style="fill: #1f77b4; fill-opacity: 0.5; stroke: #1f77b4; stroke-opacity: 0.5"/>
     <use xlink:href="#m2e7c7a2af1" x="387.100347" y="242.946316" style="fill: #1f77b4; fill-opacity: 0.5; stroke: #1f77b4; stroke-opacity: 0.5"/>
     <use xlink:href="#m2e7c7a2af1" x="390.841942" y="250.999231" style="fill: #1f77b4; fill-opacity: 0.5; stroke: #1f77b4; stroke-opacity: 0.5"/>
     <use xlink:href="#m2e7c7a2af1" x="394.613917" y="245.450164" style="fill: #1f77b4; fill-opacity: 0.5; stroke: #1f77b4; stroke-opacity: 0.5"/>
     <use xlink:href="#m2e7c7a2af1" x="398.588939" y="245.450164" style="fill: #1f77b4; fill-opacity: 0.5; stroke: #1f77b4; stroke-opacity: 0.5"/>
     <use xlink:href="#m2e7c7a2af1" x="402.428482" y="244.84112" style="fill: #1f77b4; fill-opacity: 0.5; stroke: #1f77b4; stroke-opacity: 0.5"/>
     <use xlink:href="#m2e7c7a2af1" x="406.317334" y="239.156709" style="fill: #1f77b4; fill-opacity: 0.5; stroke: #1f77b4; stroke-opacity: 0.5"/>
     <use xlink:href="#m2e7c7a2af1" x="410.086748" y="244.773448" style="fill: #1f77b4; fill-opacity: 0.5; stroke: #1f77b4; stroke-opacity: 0.5"/>
     <use xlink:href="#m2e7c7a2af1" x="413.943753" y="245.72085" style="fill: #1f77b4; fill-opacity: 0.5; stroke: #1f77b4; stroke-opacity: 0.5"/>
     <use xlink:href="#m2e7c7a2af1" x="417.690653" y="253.976779" style="fill: #1f77b4; fill-opacity: 0.5; stroke: #1f77b4; stroke-opacity: 0.5"/>
     <use xlink:href="#m2e7c7a2af1" x="421.744978" y="259.458175" style="fill: #1f77b4; fill-opacity: 0.5; stroke: #1f77b4; stroke-opacity: 0.5"/>
     <use xlink:href="#m2e7c7a2af1" x="425.395004" y="259.390503" style="fill: #1f77b4; fill-opacity: 0.5; stroke: #1f77b4; stroke-opacity: 0.5"/>
     <use xlink:href="#m2e7c7a2af1" x="429.45356" y="258.307758" style="fill: #1f77b4; fill-opacity: 0.5; stroke: #1f77b4; stroke-opacity: 0.5"/>
     <use xlink:href="#m2e7c7a2af1" x="433.086203" y="249.442785" style="fill: #1f77b4; fill-opacity: 0.5; stroke: #1f77b4; stroke-opacity: 0.5"/>
     <use xlink:href="#m2e7c7a2af1" x="436.929967" y="249.578128" style="fill: #1f77b4; fill-opacity: 0.5; stroke: #1f77b4; stroke-opacity: 0.5"/>
     <use xlink:href="#m2e7c7a2af1" x="440.799997" y="248.76607" style="fill: #1f77b4; fill-opacity: 0.5; stroke: #1f77b4; stroke-opacity: 0.5"/>
     <use xlink:href="#m2e7c7a2af1" x="444.722847" y="256.277612" style="fill: #1f77b4; fill-opacity: 0.5; stroke: #1f77b4; stroke-opacity: 0.5"/>
     <use xlink:href="#m2e7c7a2af1" x="448.51168" y="264.533541" style="fill: #1f77b4; fill-opacity: 0.5; stroke: #1f77b4; stroke-opacity: 0.5"/>
     <use xlink:href="#m2e7c7a2af1" x="453.432961" y="256.548298" style="fill: #1f77b4; fill-opacity: 0.5; stroke: #1f77b4; stroke-opacity: 0.5"/>
     <use xlink:href="#m2e7c7a2af1" x="457.75659" y="249.172099" style="fill: #1f77b4; fill-opacity: 0.5; stroke: #1f77b4; stroke-opacity: 0.5"/>
     <use xlink:href="#m2e7c7a2af1" x="460.5318" y="247.818668" style="fill: #1f77b4; fill-opacity: 0.5; stroke: #1f77b4; stroke-opacity: 0.5"/>
     <use xlink:href="#m2e7c7a2af1" x="464.038711" y="240.848498" style="fill: #1f77b4; fill-opacity: 0.5; stroke: #1f77b4; stroke-opacity: 0.5"/>
     <use xlink:href="#m2e7c7a2af1" x="467.780834" y="248.901413" style="fill: #1f77b4; fill-opacity: 0.5; stroke: #1f77b4; stroke-opacity: 0.5"/>
     <use xlink:href="#m2e7c7a2af1" x="471.702432" y="256.683641" style="fill: #1f77b4; fill-opacity: 0.5; stroke: #1f77b4; stroke-opacity: 0.5"/>
     <use xlink:href="#m2e7c7a2af1" x="475.519812" y="250.187172" style="fill: #1f77b4; fill-opacity: 0.5; stroke: #1f77b4; stroke-opacity: 0.5"/>
     <use xlink:href="#m2e7c7a2af1" x="479.267354" y="251.472932" style="fill: #1f77b4; fill-opacity: 0.5; stroke: #1f77b4; stroke-opacity: 0.5"/>
     <use xlink:href="#m2e7c7a2af1" x="483.129634" y="250.863888" style="fill: #1f77b4; fill-opacity: 0.5; stroke: #1f77b4; stroke-opacity: 0.5"/>
     <use xlink:href="#m2e7c7a2af1" x="486.966004" y="245.653178" style="fill: #1f77b4; fill-opacity: 0.5; stroke: #1f77b4; stroke-opacity: 0.5"/>
     <use xlink:href="#m2e7c7a2af1" x="490.801158" y="245.923865" style="fill: #1f77b4; fill-opacity: 0.5; stroke: #1f77b4; stroke-opacity: 0.5"/>
     <use xlink:href="#m2e7c7a2af1" x="494.805211" y="244.638105" style="fill: #1f77b4; fill-opacity: 0.5; stroke: #1f77b4; stroke-opacity: 0.5"/>
     <use xlink:href="#m2e7c7a2af1" x="498.667123" y="239.495067" style="fill: #1f77b4; fill-opacity: 0.5; stroke: #1f77b4; stroke-opacity: 0.5"/>
     <use xlink:href="#m2e7c7a2af1" x="502.357403" y="245.179477" style="fill: #1f77b4; fill-opacity: 0.5; stroke: #1f77b4; stroke-opacity: 0.5"/>
     <use xlink:href="#m2e7c7a2af1" x="506.280863" y="244.773448" style="fill: #1f77b4; fill-opacity: 0.5; stroke: #1f77b4; stroke-opacity: 0.5"/>
     <use xlink:href="#m2e7c7a2af1" x="510.132001" y="244.638105" style="fill: #1f77b4; fill-opacity: 0.5; stroke: #1f77b4; stroke-opacity: 0.5"/>
     <use xlink:href="#m2e7c7a2af1" x="513.881541" y="250.322515" style="fill: #1f77b4; fill-opacity: 0.5; stroke: #1f77b4; stroke-opacity: 0.5"/>
     <use xlink:href="#m2e7c7a2af1" x="517.813317" y="242.201929" style="fill: #1f77b4; fill-opacity: 0.5; stroke: #1f77b4; stroke-opacity: 0.5"/>
     <use xlink:href="#m2e7c7a2af1" x="521.653372" y="242.404944" style="fill: #1f77b4; fill-opacity: 0.5; stroke: #1f77b4; stroke-opacity: 0.5"/>
     <use xlink:href="#m2e7c7a2af1" x="525.525185" y="242.201929" style="fill: #1f77b4; fill-opacity: 0.5; stroke: #1f77b4; stroke-opacity: 0.5"/>
     <use xlink:href="#m2e7c7a2af1" x="529.319904" y="233.810657" style="fill: #1f77b4; fill-opacity: 0.5; stroke: #1f77b4; stroke-opacity: 0.5"/>
     <use xlink:href="#m2e7c7a2af1" x="533.101524" y="241.186856" style="fill: #1f77b4; fill-opacity: 0.5; stroke: #1f77b4; stroke-opacity: 0.5"/>
     <use xlink:href="#m2e7c7a2af1" x="537.021716" y="241.186856" style="fill: #1f77b4; fill-opacity: 0.5; stroke: #1f77b4; stroke-opacity: 0.5"/>
     <use xlink:href="#m2e7c7a2af1" x="540.84168" y="248.698398" style="fill: #1f77b4; fill-opacity: 0.5; stroke: #1f77b4; stroke-opacity: 0.5"/>
     <use xlink:href="#m2e7c7a2af1" x="545.691356" y="256.61597" style="fill: #1f77b4; fill-opacity: 0.5; stroke: #1f77b4; stroke-opacity: 0.5"/>
     <use xlink:href="#m2e7c7a2af1" x="550.247183" y="245.788521" style="fill: #1f77b4; fill-opacity: 0.5; stroke: #1f77b4; stroke-opacity: 0.5"/>
     <use xlink:href="#m2e7c7a2af1" x="553.090808" y="252.352662" style="fill: #1f77b4; fill-opacity: 0.5; stroke: #1f77b4; stroke-opacity: 0.5"/>
     <use xlink:href="#m2e7c7a2af1" x="556.526323" y="245.179477" style="fill: #1f77b4; fill-opacity: 0.5; stroke: #1f77b4; stroke-opacity: 0.5"/>
     <use xlink:href="#m2e7c7a2af1" x="560.1028" y="245.382492" style="fill: #1f77b4; fill-opacity: 0.5; stroke: #1f77b4; stroke-opacity: 0.5"/>
     <use xlink:href="#m2e7c7a2af1" x="563.997496" y="251.269917" style="fill: #1f77b4; fill-opacity: 0.5; stroke: #1f77b4; stroke-opacity: 0.5"/>
     <use xlink:href="#m2e7c7a2af1" x="567.872094" y="244.773448" style="fill: #1f77b4; fill-opacity: 0.5; stroke: #1f77b4; stroke-opacity: 0.5"/>
     <use xlink:href="#m2e7c7a2af1" x="571.627818" y="252.894034" style="fill: #1f77b4; fill-opacity: 0.5; stroke: #1f77b4; stroke-opacity: 0.5"/>
     <use xlink:href="#m2e7c7a2af1" x="575.583646" y="253.367735" style="fill: #1f77b4; fill-opacity: 0.5; stroke: #1f77b4; stroke-opacity: 0.5"/>
     <use xlink:href="#m2e7c7a2af1" x="579.322789" y="257.225014" style="fill: #1f77b4; fill-opacity: 0.5; stroke: #1f77b4; stroke-opacity: 0.5"/>
     <use xlink:href="#m2e7c7a2af1" x="583.149449" y="257.631043" style="fill: #1f77b4; fill-opacity: 0.5; stroke: #1f77b4; stroke-opacity: 0.5"/>
     <use xlink:href="#m2e7c7a2af1" x="587.063649" y="256.954327" style="fill: #1f77b4; fill-opacity: 0.5; stroke: #1f77b4; stroke-opacity: 0.5"/>
     <use xlink:href="#m2e7c7a2af1" x="591.018022" y="250.187172" style="fill: #1f77b4; fill-opacity: 0.5; stroke: #1f77b4; stroke-opacity: 0.5"/>
     <use xlink:href="#m2e7c7a2af1" x="594.697509" y="251.743618" style="fill: #1f77b4; fill-opacity: 0.5; stroke: #1f77b4; stroke-opacity: 0.5"/>
     <use xlink:href="#m2e7c7a2af1" x="598.575158" y="258.37543" style="fill: #1f77b4; fill-opacity: 0.5; stroke: #1f77b4; stroke-opacity: 0.5"/>
     <use xlink:href="#m2e7c7a2af1" x="602.495194" y="251.811289" style="fill: #1f77b4; fill-opacity: 0.5; stroke: #1f77b4; stroke-opacity: 0.5"/>
     <use xlink:href="#m2e7c7a2af1" x="606.368506" y="250.863888" style="fill: #1f77b4; fill-opacity: 0.5; stroke: #1f77b4; stroke-opacity: 0.5"/>
     <use xlink:href="#m2e7c7a2af1" x="610.172871" y="250.863888" style="fill: #1f77b4; fill-opacity: 0.5; stroke: #1f77b4; stroke-opacity: 0.5"/>
     <use xlink:href="#m2e7c7a2af1" x="613.957034" y="251.337589" style="fill: #1f77b4; fill-opacity: 0.5; stroke: #1f77b4; stroke-opacity: 0.5"/>
     <use xlink:href="#m2e7c7a2af1" x="617.833819" y="249.375114" style="fill: #1f77b4; fill-opacity: 0.5; stroke: #1f77b4; stroke-opacity: 0.5"/>
     <use xlink:href="#m2e7c7a2af1" x="621.649817" y="256.683641" style="fill: #1f77b4; fill-opacity: 0.5; stroke: #1f77b4; stroke-opacity: 0.5"/>
     <use xlink:href="#m2e7c7a2af1" x="625.457138" y="256.345283" style="fill: #1f77b4; fill-opacity: 0.5; stroke: #1f77b4; stroke-opacity: 0.5"/>
     <use xlink:href="#m2e7c7a2af1" x="629.310009" y="250.322515" style="fill: #1f77b4; fill-opacity: 0.5; stroke: #1f77b4; stroke-opacity: 0.5"/>
     <use xlink:href="#m2e7c7a2af1" x="633.212103" y="258.713788" style="fill: #1f77b4; fill-opacity: 0.5; stroke: #1f77b4; stroke-opacity: 0.5"/>
     <use xlink:href="#m2e7c7a2af1" x="637.845408" y="251.540603" style="fill: #1f77b4; fill-opacity: 0.5; stroke: #1f77b4; stroke-opacity: 0.5"/>
     <use xlink:href="#m2e7c7a2af1" x="642.340836" y="250.390187" style="fill: #1f77b4; fill-opacity: 0.5; stroke: #1f77b4; stroke-opacity: 0.5"/>
     <use xlink:href="#m2e7c7a2af1" x="645.261465" y="249.036756" style="fill: #1f77b4; fill-opacity: 0.5; stroke: #1f77b4; stroke-opacity: 0.5"/>
     <use xlink:href="#m2e7c7a2af1" x="648.557712" y="250.119501" style="fill: #1f77b4; fill-opacity: 0.5; stroke: #1f77b4; stroke-opacity: 0.5"/>
     <use xlink:href="#m2e7c7a2af1" x="652.414512" y="251.472932" style="fill: #1f77b4; fill-opacity: 0.5; stroke: #1f77b4; stroke-opacity: 0.5"/>
     <use xlink:href="#m2e7c7a2af1" x="656.246013" y="245.653178" style="fill: #1f77b4; fill-opacity: 0.5; stroke: #1f77b4; stroke-opacity: 0.5"/>
     <use xlink:href="#m2e7c7a2af1" x="660.147467" y="254.179794" style="fill: #1f77b4; fill-opacity: 0.5; stroke: #1f77b4; stroke-opacity: 0.5"/>
     <use xlink:href="#m2e7c7a2af1" x="664.028726" y="247.48031" style="fill: #1f77b4; fill-opacity: 0.5; stroke: #1f77b4; stroke-opacity: 0.5"/>
     <use xlink:href="#m2e7c7a2af1" x="667.935412" y="245.382492" style="fill: #1f77b4; fill-opacity: 0.5; stroke: #1f77b4; stroke-opacity: 0.5"/>
     <use xlink:href="#m2e7c7a2af1" x="671.694274" y="252.961706" style="fill: #1f77b4; fill-opacity: 0.5; stroke: #1f77b4; stroke-opacity: 0.5"/>
     <use xlink:href="#m2e7c7a2af1" x="675.83467" y="245.923865" style="fill: #1f77b4; fill-opacity: 0.5; stroke: #1f77b4; stroke-opacity: 0.5"/>
     <use xlink:href="#m2e7c7a2af1" x="679.406818" y="249.239771" style="fill: #1f77b4; fill-opacity: 0.5; stroke: #1f77b4; stroke-opacity: 0.5"/>
    </g>
   </g>
   <g id="line2d_24">
    <path d="M 180.495759 247.626932 
L 183.324794 248.901413 
L 186.734476 248.856298 
L 194.449493 251.360146 
L 198.388495 250.345073 
L 202.160316 251.653389 
L 213.616383 251.585718 
L 217.429714 252.84892 
L 221.578047 252.961706 
L 225.282611 254.191072 
L 229.240356 253.254949 
L 232.970903 252.070697 
L 236.892875 253.018099 
L 240.692867 253.175999 
L 244.710804 254.52943 
L 248.439474 254.202351 
L 252.210572 254.224908 
L 255.982338 255.17231 
L 272.677879 255.082081 
L 275.529233 253.852715 
L 279.049377 253.863993 
L 283.055864 253.988058 
L 286.86417 252.736134 
L 290.63663 252.792527 
L 298.309274 252.578234 
L 302.176286 252.251155 
L 309.989492 252.20604 
L 313.89796 251.100738 
L 317.523054 252.431612 
L 321.370343 252.465448 
L 325.279498 253.6497 
L 329.227164 253.72865 
L 344.541329 253.333899 
L 360.783025 253.412849 
L 365.159471 252.149647 
L 371.573543 249.758586 
L 379.294853 249.713471 
L 383.284313 248.438991 
L 387.100347 248.472826 
L 390.841942 249.758586 
L 394.613917 248.833741 
L 402.428482 248.653284 
L 406.317334 247.672046 
L 410.086748 247.750996 
L 413.943753 246.826152 
L 417.690653 248.20214 
L 421.744978 248.179583 
L 425.395004 249.465342 
L 429.45356 249.251049 
L 433.086203 247.818668 
L 444.722847 247.615653 
L 448.51168 248.822463 
L 457.75659 248.653284 
L 460.5318 249.363835 
L 464.038711 249.431507 
L 467.780834 250.773659 
L 475.519812 250.627037 
L 479.267354 250.852609 
L 486.966004 250.739823 
L 490.801158 250.705987 
L 494.805211 250.818773 
L 502.357403 250.807495 
L 506.280863 250.548087 
L 510.132001 249.262328 
L 513.881541 249.284885 
L 517.813317 247.942732 
L 521.653372 247.897618 
L 525.525185 248.055518 
L 529.319904 246.656973 
L 533.101524 246.67953 
L 537.021716 245.382492 
L 540.84168 245.416328 
L 545.691356 246.668252 
L 550.247183 246.115601 
L 556.526323 246.138158 
L 560.1028 246.081765 
L 563.997496 245.213313 
L 567.872094 245.23587 
L 571.627818 246.375008 
L 575.583646 246.499073 
L 579.322789 247.141952 
L 583.149449 247.187067 
L 587.063649 248.427712 
L 594.697509 248.235976 
L 598.575158 249.454064 
L 602.495194 249.623243 
L 606.368506 248.371319 
L 613.957034 250.942838 
L 617.833819 250.818773 
L 621.649817 252.183483 
L 625.457138 252.20604 
L 629.310009 252.465448 
L 633.212103 252.488005 
L 637.845408 251.337589 
L 642.340836 252.972984 
L 645.261465 251.912797 
L 648.557712 253.311342 
L 652.414512 252.352662 
L 656.246013 252.036861 
L 660.147467 253.480521 
L 664.028726 252.409055 
L 667.935412 251.021788 
L 671.694274 251.32631 
L 675.83467 251.529325 
L 679.406818 251.123295 
L 679.406818 251.123295 
" clip-path="url(#p0be2673786)" style="fill: none; stroke: #ff7f0e; stroke-width: 1.5; stroke-linecap: square"/>
   </g>
   <g id="line2d_25">
    <path d="M 53.75 38.956666 
L 709.2 38.956666 
" clip-path="url(#p0be2673786)" style="fill: none; stroke-dasharray: 5.55,2.4; stroke-dashoffset: 0; stroke: #ff0000; stroke-width: 1.5"/>
   </g>
   <g id="patch_3">
    <path d="M 53.75 277.446653 
L 53.75 27.6 
" style="fill: none; stroke: #000000; stroke-width: 0.8; stroke-linejoin: miter; stroke-linecap: square"/>
   </g>
   <g id="patch_4">
    <path d="M 709.2 277.446653 
L 709.2 27.6 
" style="fill: none; stroke: #000000; stroke-width: 0.8; stroke-linejoin: miter; stroke-linecap: square"/>
   </g>
   <g id="patch_5">
    <path d="M 53.75 277.446653 
L 709.2 277.446653 
" style="fill: none; stroke: #000000; stroke-width: 0.8; stroke-linejoin: miter; stroke-linecap: square"/>
   </g>
   <g id="patch_6">
    <path d="M 53.75 27.6 
L 709.2 27.6 
" style="fill: none; stroke: #000000; stroke-width: 0.8; stroke-linejoin: miter; stroke-linecap: square"/>
   </g>
   <g id="text_14">
    <!-- Response Time Over Time for https://example.ilucca.net (4-Hour and 24-Hour Rolling Averages) -->
    <g transform="translate(46.714219 21.6) scale(0.14 -0.14)">
     <defs>
      <path id="DejaVuSans-4f" d="M 2522 4238 
Q 1834 4238 1429 3725 
Q 1025 3213 1025 2328 
Q 1025 1447 1429 934 
Q 1834 422 2522 422 
Q 3209 422 3611 934 
Q 4013 1447 4013 2328 
Q 4013 3213 3611 3725 
Q 3209 4238 2522 4238 
z
M 2522 4750 
Q 3503 4750 4090 4092 
Q 4678 3434 4678 2328 
Q 4678 1225 4090 567 
Q 3503 -91 2522 -91 
Q 1538 -91 948 565 
Q 359 1222 359 2328 
Q 359 3434 948 4092 
Q 1538 4750 2522 4750 
z
" transform="scale(0.015625)"/>
      <path id="DejaVuSans-76" d="M 191 3500 
L 800 3500 
L 1894 563 
L 2988 3500 
L 3597 3500 
L 2284 0 
L 1503 0 
L 191 3500 
z
" transform="scale(0.015625)"/>
      <path id="DejaVuSans-72" d="M 2631 2963 
Q 2534 3019 2420 3045 
Q 2306 3072 2169 3072 
Q 1681 3072 1420 2755 
Q 1159 2438 1159 1844 
L 1159 0 
L 581 0 
L 581 3500 
L 1159 3500 
L 1159 2956 
Q 1341 3275 1631 3429 
Q 1922 3584 2338 3584 
Q 2397 3584 2469 3576 
Q 2541 3569 2628 3553 
L 2631 2963 
z
" transform="scale(0.015625)"/>
      <path id="DejaVuSans-66" d="M 2375 4863 
L 2375 4384 
L 1825 4384 
Q 1516 4384 1395 4259 
Q 1275 4134 1275 3809 
L 1275 3500 
L 2222 3500 
L 2222 3053 
L 1275 3053 
L 1275 0 
L 697 0 
L 697 3053 
L 147 3053 
L 147 3500 
L 697 3500 
L 697 3744 
Q 697 4328 969 4595 
Q 1241 4863 1831 4863 
L 2375 4863 
z
" transform="scale(0.015625)"/>
      <path id="DejaVuSans-68" d="M 3513 2113 
L 3513 0 
L 2938 0 
L 2938 2094 
Q 2938 2591 2744 2837 
Q 2550 3084 2163 3084 
Q 1697 3084 1428 2787 
Q 1159 2491 1159 1978 
L 1159 0 
L 581 0 
L 581 4863 
L 1159 4863 
L 1159 2956 
Q 1366 3272 1645 3428 
Q 1925 3584 2291 3584 
Q 2894 3584 3203 3211 
Q 3513 2838 3513 2113 
z
" transform="scale(0.015625)"/>
      <path id="DejaVuSans-74" d="M 1172 4494 
L 1172 3500 
L 2356 3500 
L 2356 3053 
L 1172 3053 
L 1172 1153 
Q 1172 725 1289 603 
Q 1406 481 1766 481 
L 2356 481 
L 2356 0 
L 1766 0 
Q 1100 0 847 248 
Q 594 497 594 1153 
L 594 3053 
L 172 3053 
L 172 3500 
L 594 3500 
L 594 4494 
L 1172 4494 
z
" transform="scale(0.015625)"/>
      <path id="DejaVuSans-3a" d="M 750 794 
L 1409 794 
L 1409 0 
L 750 0 
L 750 794 
z
M 750 3309 
L 1409 3309 
L 1409 2516 
L 750 2516 
L 750 3309 
z
" transform="scale(0.015625)"/>
      <path id="DejaVuSans-2f" d="M 1625 4666 
L 2156 4666 
L 531 -594 
L 0 -594 
L 1625 4666 
z
" transform="scale(0.015625)"/>
      <path id="DejaVuSans-78" d="M 3513 3500 
L 2247 1797 
L 3578 0 
L 2900 0 
L 1881 1375 
L 863 0 
L 184 0 
L 1544 1831 
L 300 3500 
L 978 3500 
L 1906 2253 
L 2834 3500 
L 3513 3500 
z
" transform="scale(0.015625)"/>
      <path id="DejaVuSans-61" d="M 2194 1759 
Q 1497 1759 1228 1600 
Q 959 1441 959 1056 
Q 959 750 1161 570 
Q 1363 391 1709 391 
Q 2188 391 2477 730 
Q 2766 1069 2766 1631 
L 2766 1759 
L 2194 1759 
z
M 3341 1997 
L 3341 0 
L 2766 0 
L 2766 531 
Q 2569 213 2275 61 
Q 1981 -91 1556 -91 
Q 1019 -91 701 211 
Q 384 513 384 1019 
Q 384 1609 779 1909 
Q 1175 2209 1959 2209 
L 2766 2209 
L 2766 2266 
Q 2766 2663 2505 2880 
Q 2244 3097 1772 3097 
Q 1472 3097 1187 3025 
Q 903 2953 641 2809 
L 641 3341 
Q 956 3463 1253 3523 
Q 1550 3584 1831 3584 
Q 2591 3584 2966 3190 
Q 3341 2797 3341 1997 
z
" transform="scale(0.015625)"/>
      <path id="DejaVuSans-6c" d="M 603 4863 
L 1178 4863 
L 1178 0 
L 603 0 
L 603 4863 
z
" transform="scale(0.015625)"/>
      <path id="DejaVuSans-2e" d="M 684 794 
L 1344 794 
L 1344 0 
L 684 0 
L 684 794 
z
" transform="scale(0.015625)"/>
      <path id="DejaVuSans-75" d="M 544 1381 
L 544 3500 
L 1119 3500 
L 1119 1403 
Q 1119 906 1312 657 
Q 1506 409 1894 409 
Q 2359 409 2629 706 
Q 2900 1003 2900 1516 
L 2900 3500 
L 3475 3500 
L 3475 0 
L 2900 0 
L 2900 538 
Q 2691 219 2414 64 
Q 2138 -91 1772 -91 
Q 1169 -91 856 284 
Q 544 659 544 1381 
z
M 1991 3584 
L 1991 3584 
z
" transform="scale(0.015625)"/>
      <path id="DejaVuSans-63" d="M 3122 3366 
L 3122 2828 
Q 2878 2963 2633 3030 
Q 2388 3097 2138 3097 
Q 1578 3097 1268 2742 
Q 959 2388 959 1747 
Q 959 1106 1268 751 
Q 1578 397 2138 397 
Q 2388 397 2633 464 
Q 2878 531 3122 666 
L 3122 134 
Q 2881 22 2623 -34 
Q 2366 -91 2075 -91 
Q 1284 -91 818 406 
Q 353 903 353 1747 
Q 353 2603 823 3093 
Q 1294 3584 2113 3584 
Q 2378 3584 2631 3529 
Q 2884 3475 3122 3366 
z
" transform="scale(0.015625)"/>
      <path id="DejaVuSans-48" d="M 628 4666 
L 1259 4666 
L 1259 2753 
L 3553 2753 
L 3553 4666 
L 4184 4666 
L 4184 0 
L 3553 0 
L 3553 2222 
L 1259 2222 
L 1259 0 
L 628 0 
L 628 4666 
z
" transform="scale(0.015625)"/>
      <path id="DejaVuSans-64" d="M 2906 2969 
L 2906 4863 
L 3481 4863 
L 3481 0 
L 2906 0 
L 2906 525 
Q 2725 213 2448 61 
Q 2172 -91 1784 -91 
Q 1150 -91 751 415 
Q 353 922 353 1747 
Q 353 2572 751 3078 
Q 1150 3584 1784 3584 
Q 2172 3584 2448 3432 
Q 2725 3281 2906 2969 
z
M 947 1747 
Q 947 1113 1208 752 
Q 1469 391 1925 391 
Q 2381 391 2643 752 
Q 2906 1113 2906 1747 
Q 2906 2381 2643 2742 
Q 2381 3103 1925 3103 
Q 1469 3103 1208 2742 
Q 947 2381 947 1747 
z
" transform="scale(0.015625)"/>
      <path id="DejaVuSans-67" d="M 2906 1791 
Q 2906 2416 2648 2759 
Q 2391 3103 1925 3103 
Q 1463 3103 1205 2759 
Q 947 2416 947 1791 
Q 947 1169 1205 825 
Q 1463 481 1925 481 
Q 2391 481 2648 825 
Q 2906 1169 2906 1791 
z
M 3481 434 
Q 3481 -459 3084 -895 
Q 2688 -1331 1869 -1331 
Q 1566 -1331 1297 -1286 
Q 1028 -1241 775 -1147 
L 775 -588 
Q 1028 -725 1275 -790 
Q 1522 -856 1778 -856 
Q 2344 -856 2625 -561 
Q 2906 -266 2906 331 
L 2906 616 
Q 2728 306 2450 153 
Q 2172 0 1784 0 
Q 1141 0 747 490 
Q 353 981 353 1791 
Q 353 2603 747 3093 
Q 1141 3584 1784 3584 
Q 2172 3584 2450 3431 
Q 2728 3278 2906 2969 
L 2906 3500 
L 3481 3500 
L 3481 434 
z
" transform="scale(0.015625)"/>
      <path id="DejaVuSans-41" d="M 2188 4044 
L 1331 1722 
L 3047 1722 
L 2188 4044 
z
M 1831 4666 
L 2547 4666 
L 4325 0 
L 3669 0 
L 3244 1197 
L 1141 1197 
L 716 0 
L 50 0 
L 1831 4666 
z
" transform="scale(0.015625)"/>
     </defs>
     <use xlink:href="#DejaVuSans-52"/>
     <use xlink:href="#DejaVuSans-65" x="64.982422"/>
     <use xlink:href="#DejaVuSans-73" x="126.505859"/>
     <use xlink:href="#DejaVuSans-70" x="178.605469"/>
     <use xlink:href="#DejaVuSans-6f" x="242.082031"/>
     <use xlink:href="#DejaVuSans-6e" x="303.263672"/>
     <use xlink:href="#DejaVuSans-73" x="366.642578"/>
     <use xlink:href="#DejaVuSans-65" x="418.742188"/>
     <use xlink:href="#DejaVuSans-20" x="480.265625"/>
     <use xlink:href="#DejaVuSans-54" x="512.052734"/>
     <use xlink:href="#DejaVuSans-69" x="570.011719"/>
     <use xlink:href="#DejaVuSans-6d" x="597.794922"/>
     <use xlink:href="#DejaVuSans-65" x="695.207031"/>
     <use xlink:href="#DejaVuSans-20" x="756.730469"/>
     <use xlink:href="#DejaVuSans-4f" x="788.517578"/>
     <use xlink:href="#DejaVuSans-76" x="867.228516"/>
     <use xlink:href="#DejaVuSans-65" x="926.408203"/>
     <use xlink:href="#DejaVuSans-72" x="987.931641"/>
     <use xlink:href="#DejaVuSans-20" x="1029.044922"/>
     <use xlink:href="#DejaVuSans-54" x="1060.832031"/>
     <use xlink:href="#DejaVuSans-69" x="1118.791016"/>
     <use xlink:href="#DejaVuSans-6d" x="1146.574219"/>
     <use xlink:href="#DejaVuSans-65" x="1243.986328"/>
     <use xlink:href="#DejaVuSans-20" x="1305.509766"/>
     <use xlink:href="#DejaVuSans-66" x="1337.296875"/>
     <use xlink:href="#DejaVuSans-6f" x="1372.501953"/>
     <use xlink:href="#DejaVuSans-72" x="1433.683594"/>
     <use xlink:href="#DejaVuSans-20" x="1474.796875"/>
     <use xlink:href="#DejaVuSans-68" x="1506.583984"/>
     <use xlink:href="#DejaVuSans-74" x="1569.962891"/>
     <use xlink:href="#DejaVuSans-74" x="1609.171875"/>
     <use xlink:href="#DejaVuSans-70" x="1648.380859"/>
     <use xlink:href="#DejaVuSans-73" x="1711.857422"/>
     <use xlink:href="#DejaVuSans-3a" x="1763.957031"/>
     <use xlink:href="#DejaVuSans-2f" x="1797.648438"/>
     <use xlink:href="#DejaVuSans-2f" x="1831.339844"/>
     <use xlink:href="#DejaVuSans-65" x="1865.03125"/>
     <use xlink:href="#DejaVuSans-78" x="1924.804688"/>
     <use xlink:href="#DejaVuSans-61" x="1983.984375"/>
     <use xlink:href="#DejaVuSans-6d" x="2045.263672"/>
     <use xlink:href="#DejaVuSans-70" x="2142.675781"/>
     <use xlink:href="#DejaVuSans-6c" x="2206.152344"/>
     <use xlink:href="#DejaVuSans-65" x="2233.935547"/>
     <use xlink:href="#DejaVuSans-2e" x="2295.458984"/>
     <use xlink:href="#DejaVuSans-69" x="2327.246094"/>
     <use xlink:href="#DejaVuSans-6c" x="2355.029297"/>
     <use xlink:href="#DejaVuSans-75" x="2382.8125"/>
     <use xlink:href="#DejaVuSans-63" x="2446.191406"/>
     <use xlink:href="#DejaVuSans-63" x="2501.171875"/>
     <use xlink:href="#DejaVuSans-61" x="2556.152344"/>
     <use xlink:href="#DejaVuSans-2e" x="2617.431641"/>
     <use xlink:href="#DejaVuSans-6e" x="2649.21875"/>
     <use xlink:href="#DejaVuSans-65" x="2712.597656"/>
     <use xlink:href="#DejaVuSans-74" x="2774.121094"/>
     <use xlink:href="#DejaVuSans-20" x="2813.330078"/>
     <use xlink:href="#DejaVuSans-28" x="2845.117188"/>
     <use xlink:href="#DejaVuSans-34" x="2884.130859"/>
     <use xlink:href="#DejaVuSans-2d" x="2947.753906"/>
     <use xlink:href="#DejaVuSans-48" x="2983.837891"/>
     <use xlink:href="#DejaVuSans-6f" x="3059.033203"/>
     <use xlink:href="#DejaVuSans-75" x="3120.214844"/>
     <use xlink:href="#DejaVuSans-72" x="3183.59375"/>
     <use xlink:href="#DejaVuSans-20" x="3224.707031"/>
     <use xlink:href="#DejaVuSans-61" x="3256.494141"/>
     <use xlink:href="#DejaVuSans-6e" x="3317.773438"/>
     <use xlink:href="#DejaVuSans-64" x="3381.152344"/>
     <use xlink:href="#DejaVuSans-20" x="3444.628906"/>
     <use xlink:href="#DejaVuSans-32" x="3476.416016"/>
     <use xlink:href="#DejaVuSans-34" x="3540.039062"/>
     <use xlink:href="#DejaVuSans-2d" x="3603.662109"/>
     <use xlink:href="#DejaVuSans-48" x="3639.746094"/>
     <use xlink:href="#DejaVuSans-6f" x="3714.941406"/>
     <use xlink:href="#DejaVuSans-75" x="3776.123047"/>
     <use xlink:href="#DejaVuSans-72" x="3839.501953"/>
     <use xlink:href="#DejaVuSans-20" x="3880.615234"/>
     <use xlink:href="#DejaVuSans-52" x="3912.402344"/>
     <use xlink:href="#DejaVuSans-6f" x="3977.384766"/>
     <use xlink:href="#DejaVuSans-6c" x="4038.566406"/>
     <use xlink:href="#DejaVuSans-6c" x="4066.349609"/>
     <use xlink:href="#DejaVuSans-69" x="4094.132812"/>
     <use xlink:href="#DejaVuSans-6e" x="4121.916016"/>
     <use xlink:href="#DejaVuSans-67" x="4185.294922"/>
     <use xlink:href="#DejaVuSans-20" x="4248.771484"/>
     <use xlink:href="#DejaVuSans-41" x="4280.558594"/>
     <use xlink:href="#DejaVuSans-76" x="4343.091797"/>
     <use xlink:href="#DejaVuSans-65" x="4402.271484"/>
     <use xlink:href="#DejaVuSans-72" x="4463.794922"/>
     <use xlink:href="#DejaVuSans-61" x="4504.908203"/>
     <use xlink:href="#DejaVuSans-67" x="4566.1875"/>
     <use xlink:href="#DejaVuSans-65" x="4629.664062"/>
     <use xlink:href="#DejaVuSans-73" x="4691.1875"/>
     <use xlink:href="#DejaVuSans-29" x="4743.287109"/>
    </g>
   </g>
   <g id="legend_1">
    <g id="patch_7">
     <path d="M 484.05625 176.040514 
L 702.2 176.040514 
Q 704.2 176.040514 704.2 174.040514 
L 704.2 131.006139 
Q 704.2 129.006139 702.2 129.006139 
L 484.05625 129.006139 
Q 482.05625 129.006139 482.05625 131.006139 
L 482.05625 174.040514 
Q 482.05625 176.040514 484.05625 176.040514 
z
" style="fill: #ffffff; opacity: 0.8; stroke: #cccccc; stroke-linejoin: miter"/>
    </g>
    <g id="line2d_26">
     <path d="M 486.05625 137.104576 
L 496.05625 137.104576 
L 506.05625 137.104576 
" style="fill: none; stroke: #1f77b4; stroke-opacity: 0.5; stroke-width: 1.5; stroke-linecap: square"/>
     <g>
      <use xlink:href="#m2e7c7a2af1" x="496.05625" y="137.104576" style="fill: #1f77b4; fill-opacity: 0.5; stroke: #1f77b4; stroke-opacity: 0.5"/>
     </g>
    </g>
    <g id="text_15">
     <!-- 4-Hour Rolling Average -->
     <g transform="translate(514.05625 140.604576) scale(0.1 -0.1)">
      <use xlink:href="#DejaVuSans-34"/>
      <use xlink:href="#DejaVuSans-2d" x="63.623047"/>
      <use xlink:href="#DejaVuSans-48" x="99.707031"/>
      <use xlink:href="#DejaVuSans-6f" x="174.902344"/>
      <use xlink:href="#DejaVuSans-75" x="236.083984"/>
      <use xlink:href="#DejaVuSans-72" x="299.462891"/>
      <use xlink:href="#DejaVuSans-20" x="340.576172"/>
      <use xlink:href="#DejaVuSans-52" x="372.363281"/>
      <use xlink:href="#DejaVuSans-6f" x="437.345703"/>
      <use xlink:href="#DejaVuSans-6c" x="498.527344"/>
      <use xlink:href="#DejaVuSans-6c" x="526.310547"/>
      <use xlink:href="#DejaVuSans-69" x="554.09375"/>
      <use xlink:href="#DejaVuSans-6e" x="581.876953"/>
      <use xlink:href="#DejaVuSans-67" x="645.255859"/>
      <use xlink:href="#DejaVuSans-20" x="708.732422"/>
      <use xlink:href="#DejaVuSans-41" x="740.519531"/>
      <use xlink:href="#DejaVuSans-76" x="803.052734"/>
      <use xlink:href="#DejaVuSans-65" x="862.232422"/>
      <use xlink:href="#DejaVuSans-72" x="923.755859"/>
      <use xlink:href="#DejaVuSans-61" x="964.869141"/>
      <use xlink:href="#DejaVuSans-67" x="1026.148438"/>
      <use xlink:href="#DejaVuSans-65" x="1089.625"/>
     </g>
    </g>
    <g id="line2d_27">
     <path d="M 486.05625 151.782701 
L 496.05625 151.782701 
L 506.05625 151.782701 
" style="fill: none; stroke: #ff7f0e; stroke-width: 1.5; stroke-linecap: square"/>
    </g>
    <g id="text_16">
     <!-- 24-Hour Rolling Average -->
     <g transform="translate(514.05625 155.282701) scale(0.1 -0.1)">
      <use xlink:href="#DejaVuSans-32"/>
      <use xlink:href="#DejaVuSans-34" x="63.623047"/>
      <use xlink:href="#DejaVuSans-2d" x="127.246094"/>
      <use xlink:href="#DejaVuSans-48" x="163.330078"/>
      <use xlink:href="#DejaVuSans-6f" x="238.525391"/>
      <use xlink:href="#DejaVuSans-75" x="299.707031"/>
      <use xlink:href="#DejaVuSans-72" x="363.085938"/>
      <use xlink:href="#DejaVuSans-20" x="404.199219"/>
      <use xlink:href="#DejaVuSans-52" x="435.986328"/>
      <use xlink:href="#DejaVuSans-6f" x="500.96875"/>
      <use xlink:href="#DejaVuSans-6c" x="562.150391"/>
      <use xlink:href="#DejaVuSans-6c" x="589.933594"/>
      <use xlink:href="#DejaVuSans-69" x="617.716797"/>
      <use xlink:href="#DejaVuSans-6e" x="645.5"/>
      <use xlink:href="#DejaVuSans-67" x="708.878906"/>
      <use xlink:href="#DejaVuSans-20" x="772.355469"/>
      <use xlink:href="#DejaVuSans-41" x="804.142578"/>
      <use xlink:href="#DejaVuSans-76" x="866.675781"/>
      <use xlink:href="#DejaVuSans-65" x="925.855469"/>
      <use xlink:href="#DejaVuSans-72" x="987.378906"/>
      <use xlink:href="#DejaVuSans-61" x="1028.492188"/>
      <use xlink:href="#DejaVuSans-67" x="1089.771484"/>
      <use xlink:href="#DejaVuSans-65" x="1153.248047"/>
     </g>
    </g>
    <g id="line2d_28">
     <path d="M 486.05625 166.460826 
L 496.05625 166.460826 
L 506.05625 166.460826 
" style="fill: none; stroke-dasharray: 5.55,2.4; stroke-dashoffset: 0; stroke: #ff0000; stroke-width: 1.5"/>
    </g>
    <g id="text_17">
     <!-- Average Response Time from All APIs -->
     <g transform="translate(514.05625 169.960826) scale(0.1 -0.1)">
      <defs>
       <path id="DejaVuSans-50" d="M 1259 4147 
L 1259 2394 
L 2053 2394 
Q 2494 2394 2734 2622 
Q 2975 2850 2975 3272 
Q 2975 3691 2734 3919 
Q 2494 4147 2053 4147 
L 1259 4147 
z
M 628 4666 
L 2053 4666 
Q 2838 4666 3239 4311 
Q 3641 3956 3641 3272 
Q 3641 2581 3239 2228 
Q 2838 1875 2053 1875 
L 1259 1875 
L 1259 0 
L 628 0 
L 628 4666 
z
" transform="scale(0.015625)"/>
       <path id="DejaVuSans-49" d="M 628 4666 
L 1259 4666 
L 1259 0 
L 628 0 
L 628 4666 
z
" transform="scale(0.015625)"/>
      </defs>
      <use xlink:href="#DejaVuSans-41"/>
      <use xlink:href="#DejaVuSans-76" x="62.533203"/>
      <use xlink:href="#DejaVuSans-65" x="121.712891"/>
      <use xlink:href="#DejaVuSans-72" x="183.236328"/>
      <use xlink:href="#DejaVuSans-61" x="224.349609"/>
      <use xlink:href="#DejaVuSans-67" x="285.628906"/>
      <use xlink:href="#DejaVuSans-65" x="349.105469"/>
      <use xlink:href="#DejaVuSans-20" x="410.628906"/>
      <use xlink:href="#DejaVuSans-52" x="442.416016"/>
      <use xlink:href="#DejaVuSans-65" x="507.398438"/>
      <use xlink:href="#DejaVuSans-73" x="568.921875"/>
      <use xlink:href="#DejaVuSans-70" x="621.021484"/>
      <use xlink:href="#DejaVuSans-6f" x="684.498047"/>
      <use xlink:href="#DejaVuSans-6e" x="745.679688"/>
      <use xlink:href="#DejaVuSans-73" x="809.058594"/>
      <use xlink:href="#DejaVuSans-65" x="861.158203"/>
      <use xlink:href="#DejaVuSans-20" x="922.681641"/>
      <use xlink:href="#DejaVuSans-54" x="954.46875"/>
      <use xlink:href="#DejaVuSans-69" x="1012.427734"/>
      <use xlink:href="#DejaVuSans-6d" x="1040.210938"/>
      <use xlink:href="#DejaVuSans-65" x="1137.623047"/>
      <use xlink:href="#DejaVuSans-20" x="1199.146484"/>
      <use xlink:href="#DejaVuSans-66" x="1230.933594"/>
      <use xlink:href="#DejaVuSans-72" x="1266.138672"/>
      <use xlink:href="#DejaVuSans-6f" x="1305.001953"/>
      <use xlink:href="#DejaVuSans-6d" x="1366.183594"/>
      <use xlink:href="#DejaVuSans-20" x="1463.595703"/>
      <use xlink:href="#DejaVuSans-41" x="1495.382812"/>
      <use xlink:href="#DejaVuSans-6c" x="1563.791016"/>
      <use xlink:href="#DejaVuSans-6c" x="1591.574219"/>
      <use xlink:href="#DejaVuSans-20" x="1619.357422"/>
      <use xlink:href="#DejaVuSans-41" x="1651.144531"/>
      <use xlink:href="#DejaVuSans-50" x="1719.552734"/>
      <use xlink:href="#DejaVuSans-49" x="1779.855469"/>
      <use xlink:href="#DejaVuSans-73" x="1809.347656"/>
     </g>
    </g>
   </g>
  </g>
 </g>
 <defs>
  <clipPath id="p0be2673786">
   <rect x="53.75" y="27.6" width="655.45" height="249.846653"/>
  </clipPath>
 </defs>
</svg>
