<?xml version="1.0" encoding="utf-8" standalone="no"?>
<!DOCTYPE svg PUBLIC "-//W3C//DTD SVG 1.1//EN"
  "http://www.w3.org/Graphics/SVG/1.1/DTD/svg11.dtd">
<svg xmlns:xlink="http://www.w3.org/1999/xlink" width="720pt" height="360pt" viewBox="0 0 720 360" xmlns="http://www.w3.org/2000/svg" version="1.1">
 <metadata>
  <rdf:RDF xmlns:dc="http://purl.org/dc/elements/1.1/" xmlns:cc="http://creativecommons.org/ns#" xmlns:rdf="http://www.w3.org/1999/02/22-rdf-syntax-ns#">
   <cc:Work>
    <dc:type rdf:resource="http://purl.org/dc/dcmitype/StillImage"/>
    <dc:date>2024-04-08T07:16:46.656249</dc:date>
    <dc:format>image/svg+xml</dc:format>
    <dc:creator>
     <cc:Agent>
      <dc:title>Matplotlib v3.8.3, https://matplotlib.org/</dc:title>
     </cc:Agent>
    </dc:creator>
   </cc:Work>
  </rdf:RDF>
 </metadata>
 <defs>
  <style type="text/css">*{stroke-linejoin: round; stroke-linecap: butt}</style>
 </defs>
 <g id="figure_1">
  <g id="patch_1">
   <path d="M 0 360 
L 720 360 
L 720 0 
L 0 0 
z
" style="fill: #ffffff"/>
  </g>
  <g id="axes_1">
   <g id="patch_2">
    <path d="M 53.75 277.446653 
L 709.2 277.446653 
L 709.2 27.6 
L 53.75 27.6 
z
" style="fill: #ffffff"/>
   </g>
   <g id="matplotlib.axis_1">
    <g id="xtick_1">
     <g id="line2d_1">
      <path d="M 129.931587 277.446653 
L 129.931587 27.6 
" clip-path="url(#p1f76d6c006)" style="fill: none; stroke: #b0b0b0; stroke-width: 0.8; stroke-linecap: square"/>
     </g>
     <g id="line2d_2">
      <defs>
       <path id="m5687113036" d="M 0 0 
L 0 3.5 
" style="stroke: #000000; stroke-width: 0.8"/>
      </defs>
      <g>
       <use xlink:href="#m5687113036" x="129.931587" y="277.446653" style="stroke: #000000; stroke-width: 0.8"/>
      </g>
     </g>
     <g id="text_1">
      <!-- 2024-03-29 -->
      <g transform="translate(111.335784 330.913512) rotate(-45) scale(0.1 -0.1)">
       <defs>
        <path id="DejaVuSans-32" d="M 1228 531 
L 3431 531 
L 3431 0 
L 469 0 
L 469 531 
Q 828 903 1448 1529 
Q 2069 2156 2228 2338 
Q 2531 2678 2651 2914 
Q 2772 3150 2772 3378 
Q 2772 3750 2511 3984 
Q 2250 4219 1831 4219 
Q 1534 4219 1204 4116 
Q 875 4013 500 3803 
L 500 4441 
Q 881 4594 1212 4672 
Q 1544 4750 1819 4750 
Q 2544 4750 2975 4387 
Q 3406 4025 3406 3419 
Q 3406 3131 3298 2873 
Q 3191 2616 2906 2266 
Q 2828 2175 2409 1742 
Q 1991 1309 1228 531 
z
" transform="scale(0.015625)"/>
        <path id="DejaVuSans-30" d="M 2034 4250 
Q 1547 4250 1301 3770 
Q 1056 3291 1056 2328 
Q 1056 1369 1301 889 
Q 1547 409 2034 409 
Q 2525 409 2770 889 
Q 3016 1369 3016 2328 
Q 3016 3291 2770 3770 
Q 2525 4250 2034 4250 
z
M 2034 4750 
Q 2819 4750 3233 4129 
Q 3647 3509 3647 2328 
Q 3647 1150 3233 529 
Q 2819 -91 2034 -91 
Q 1250 -91 836 529 
Q 422 1150 422 2328 
Q 422 3509 836 4129 
Q 1250 4750 2034 4750 
z
" transform="scale(0.015625)"/>
        <path id="DejaVuSans-34" d="M 2419 4116 
L 825 1625 
L 2419 1625 
L 2419 4116 
z
M 2253 4666 
L 3047 4666 
L 3047 1625 
L 3713 1625 
L 3713 1100 
L 3047 1100 
L 3047 0 
L 2419 0 
L 2419 1100 
L 313 1100 
L 313 1709 
L 2253 4666 
z
" transform="scale(0.015625)"/>
        <path id="DejaVuSans-2d" d="M 313 2009 
L 1997 2009 
L 1997 1497 
L 313 1497 
L 313 2009 
z
" transform="scale(0.015625)"/>
        <path id="DejaVuSans-33" d="M 2597 2516 
Q 3050 2419 3304 2112 
Q 3559 1806 3559 1356 
Q 3559 666 3084 287 
Q 2609 -91 1734 -91 
Q 1441 -91 1130 -33 
Q 819 25 488 141 
L 488 750 
Q 750 597 1062 519 
Q 1375 441 1716 441 
Q 2309 441 2620 675 
Q 2931 909 2931 1356 
Q 2931 1769 2642 2001 
Q 2353 2234 1838 2234 
L 1294 2234 
L 1294 2753 
L 1863 2753 
Q 2328 2753 2575 2939 
Q 2822 3125 2822 3475 
Q 2822 3834 2567 4026 
Q 2313 4219 1838 4219 
Q 1578 4219 1281 4162 
Q 984 4106 628 3988 
L 628 4550 
Q 988 4650 1302 4700 
Q 1616 4750 1894 4750 
Q 2613 4750 3031 4423 
Q 3450 4097 3450 3541 
Q 3450 3153 3228 2886 
Q 3006 2619 2597 2516 
z
" transform="scale(0.015625)"/>
        <path id="DejaVuSans-39" d="M 703 97 
L 703 672 
Q 941 559 1184 500 
Q 1428 441 1663 441 
Q 2288 441 2617 861 
Q 2947 1281 2994 2138 
Q 2813 1869 2534 1725 
Q 2256 1581 1919 1581 
Q 1219 1581 811 2004 
Q 403 2428 403 3163 
Q 403 3881 828 4315 
Q 1253 4750 1959 4750 
Q 2769 4750 3195 4129 
Q 3622 3509 3622 2328 
Q 3622 1225 3098 567 
Q 2575 -91 1691 -91 
Q 1453 -91 1209 -44 
Q 966 3 703 97 
z
M 1959 2075 
Q 2384 2075 2632 2365 
Q 2881 2656 2881 3163 
Q 2881 3666 2632 3958 
Q 2384 4250 1959 4250 
Q 1534 4250 1286 3958 
Q 1038 3666 1038 3163 
Q 1038 2656 1286 2365 
Q 1534 2075 1959 2075 
z
" transform="scale(0.015625)"/>
       </defs>
       <use xlink:href="#DejaVuSans-32"/>
       <use xlink:href="#DejaVuSans-30" x="63.623047"/>
       <use xlink:href="#DejaVuSans-32" x="127.246094"/>
       <use xlink:href="#DejaVuSans-34" x="190.869141"/>
       <use xlink:href="#DejaVuSans-2d" x="254.492188"/>
       <use xlink:href="#DejaVuSans-30" x="290.576172"/>
       <use xlink:href="#DejaVuSans-33" x="354.199219"/>
       <use xlink:href="#DejaVuSans-2d" x="417.822266"/>
       <use xlink:href="#DejaVuSans-32" x="453.90625"/>
       <use xlink:href="#DejaVuSans-39" x="517.529297"/>
      </g>
     </g>
    </g>
    <g id="xtick_2">
     <g id="line2d_3">
      <path d="M 236.65359 277.446653 
L 236.65359 27.6 
" clip-path="url(#p1f76d6c006)" style="fill: none; stroke: #b0b0b0; stroke-width: 0.8; stroke-linecap: square"/>
     </g>
     <g id="line2d_4">
      <g>
       <use xlink:href="#m5687113036" x="236.65359" y="277.446653" style="stroke: #000000; stroke-width: 0.8"/>
      </g>
     </g>
     <g id="text_2">
      <!-- 2024-03-31 -->
      <g transform="translate(218.057787 330.913512) rotate(-45) scale(0.1 -0.1)">
       <defs>
        <path id="DejaVuSans-31" d="M 794 531 
L 1825 531 
L 1825 4091 
L 703 3866 
L 703 4441 
L 1819 4666 
L 2450 4666 
L 2450 531 
L 3481 531 
L 3481 0 
L 794 0 
L 794 531 
z
" transform="scale(0.015625)"/>
       </defs>
       <use xlink:href="#DejaVuSans-32"/>
       <use xlink:href="#DejaVuSans-30" x="63.623047"/>
       <use xlink:href="#DejaVuSans-32" x="127.246094"/>
       <use xlink:href="#DejaVuSans-34" x="190.869141"/>
       <use xlink:href="#DejaVuSans-2d" x="254.492188"/>
       <use xlink:href="#DejaVuSans-30" x="290.576172"/>
       <use xlink:href="#DejaVuSans-33" x="354.199219"/>
       <use xlink:href="#DejaVuSans-2d" x="417.822266"/>
       <use xlink:href="#DejaVuSans-33" x="453.90625"/>
       <use xlink:href="#DejaVuSans-31" x="517.529297"/>
      </g>
     </g>
    </g>
    <g id="xtick_3">
     <g id="line2d_5">
      <path d="M 290.014592 277.446653 
L 290.014592 27.6 
" clip-path="url(#p1f76d6c006)" style="fill: none; stroke: #b0b0b0; stroke-width: 0.8; stroke-linecap: square"/>
     </g>
     <g id="line2d_6">
      <g>
       <use xlink:href="#m5687113036" x="290.014592" y="277.446653" style="stroke: #000000; stroke-width: 0.8"/>
      </g>
     </g>
     <g id="text_3">
      <!-- 2024-04-01 -->
      <g transform="translate(271.418789 330.913512) rotate(-45) scale(0.1 -0.1)">
       <use xlink:href="#DejaVuSans-32"/>
       <use xlink:href="#DejaVuSans-30" x="63.623047"/>
       <use xlink:href="#DejaVuSans-32" x="127.246094"/>
       <use xlink:href="#DejaVuSans-34" x="190.869141"/>
       <use xlink:href="#DejaVuSans-2d" x="254.492188"/>
       <use xlink:href="#DejaVuSans-30" x="290.576172"/>
       <use xlink:href="#DejaVuSans-34" x="354.199219"/>
       <use xlink:href="#DejaVuSans-2d" x="417.822266"/>
       <use xlink:href="#DejaVuSans-30" x="453.90625"/>
       <use xlink:href="#DejaVuSans-31" x="517.529297"/>
      </g>
     </g>
    </g>
    <g id="xtick_4">
     <g id="line2d_7">
      <path d="M 396.736595 277.446653 
L 396.736595 27.6 
" clip-path="url(#p1f76d6c006)" style="fill: none; stroke: #b0b0b0; stroke-width: 0.8; stroke-linecap: square"/>
     </g>
     <g id="line2d_8">
      <g>
       <use xlink:href="#m5687113036" x="396.736595" y="277.446653" style="stroke: #000000; stroke-width: 0.8"/>
      </g>
     </g>
     <g id="text_4">
      <!-- 2024-04-03 -->
      <g transform="translate(378.140792 330.913512) rotate(-45) scale(0.1 -0.1)">
       <use xlink:href="#DejaVuSans-32"/>
       <use xlink:href="#DejaVuSans-30" x="63.623047"/>
       <use xlink:href="#DejaVuSans-32" x="127.246094"/>
       <use xlink:href="#DejaVuSans-34" x="190.869141"/>
       <use xlink:href="#DejaVuSans-2d" x="254.492188"/>
       <use xlink:href="#DejaVuSans-30" x="290.576172"/>
       <use xlink:href="#DejaVuSans-34" x="354.199219"/>
       <use xlink:href="#DejaVuSans-2d" x="417.822266"/>
       <use xlink:href="#DejaVuSans-30" x="453.90625"/>
       <use xlink:href="#DejaVuSans-33" x="517.529297"/>
      </g>
     </g>
    </g>
    <g id="xtick_5">
     <g id="line2d_9">
      <path d="M 503.458599 277.446653 
L 503.458599 27.6 
" clip-path="url(#p1f76d6c006)" style="fill: none; stroke: #b0b0b0; stroke-width: 0.8; stroke-linecap: square"/>
     </g>
     <g id="line2d_10">
      <g>
       <use xlink:href="#m5687113036" x="503.458599" y="277.446653" style="stroke: #000000; stroke-width: 0.8"/>
      </g>
     </g>
     <g id="text_5">
      <!-- 2024-04-05 -->
      <g transform="translate(484.862795 330.913512) rotate(-45) scale(0.1 -0.1)">
       <defs>
        <path id="DejaVuSans-35" d="M 691 4666 
L 3169 4666 
L 3169 4134 
L 1269 4134 
L 1269 2991 
Q 1406 3038 1543 3061 
Q 1681 3084 1819 3084 
Q 2600 3084 3056 2656 
Q 3513 2228 3513 1497 
Q 3513 744 3044 326 
Q 2575 -91 1722 -91 
Q 1428 -91 1123 -41 
Q 819 9 494 109 
L 494 744 
Q 775 591 1075 516 
Q 1375 441 1709 441 
Q 2250 441 2565 725 
Q 2881 1009 2881 1497 
Q 2881 1984 2565 2268 
Q 2250 2553 1709 2553 
Q 1456 2553 1204 2497 
Q 953 2441 691 2322 
L 691 4666 
z
" transform="scale(0.015625)"/>
       </defs>
       <use xlink:href="#DejaVuSans-32"/>
       <use xlink:href="#DejaVuSans-30" x="63.623047"/>
       <use xlink:href="#DejaVuSans-32" x="127.246094"/>
       <use xlink:href="#DejaVuSans-34" x="190.869141"/>
       <use xlink:href="#DejaVuSans-2d" x="254.492188"/>
       <use xlink:href="#DejaVuSans-30" x="290.576172"/>
       <use xlink:href="#DejaVuSans-34" x="354.199219"/>
       <use xlink:href="#DejaVuSans-2d" x="417.822266"/>
       <use xlink:href="#DejaVuSans-30" x="453.90625"/>
       <use xlink:href="#DejaVuSans-35" x="517.529297"/>
      </g>
     </g>
    </g>
    <g id="xtick_6">
     <g id="line2d_11">
      <path d="M 610.180602 277.446653 
L 610.180602 27.6 
" clip-path="url(#p1f76d6c006)" style="fill: none; stroke: #b0b0b0; stroke-width: 0.8; stroke-linecap: square"/>
     </g>
     <g id="line2d_12">
      <g>
       <use xlink:href="#m5687113036" x="610.180602" y="277.446653" style="stroke: #000000; stroke-width: 0.8"/>
      </g>
     </g>
     <g id="text_6">
      <!-- 2024-04-07 -->
      <g transform="translate(591.584798 330.913512) rotate(-45) scale(0.1 -0.1)">
       <defs>
        <path id="DejaVuSans-37" d="M 525 4666 
L 3525 4666 
L 3525 4397 
L 1831 0 
L 1172 0 
L 2766 4134 
L 525 4134 
L 525 4666 
z
" transform="scale(0.015625)"/>
       </defs>
       <use xlink:href="#DejaVuSans-32"/>
       <use xlink:href="#DejaVuSans-30" x="63.623047"/>
       <use xlink:href="#DejaVuSans-32" x="127.246094"/>
       <use xlink:href="#DejaVuSans-34" x="190.869141"/>
       <use xlink:href="#DejaVuSans-2d" x="254.492188"/>
       <use xlink:href="#DejaVuSans-30" x="290.576172"/>
       <use xlink:href="#DejaVuSans-34" x="354.199219"/>
       <use xlink:href="#DejaVuSans-2d" x="417.822266"/>
       <use xlink:href="#DejaVuSans-30" x="453.90625"/>
       <use xlink:href="#DejaVuSans-37" x="517.529297"/>
      </g>
     </g>
    </g>
    <g id="text_7">
     <!-- Time -->
     <g transform="translate(366.794688 345.502198) scale(0.12 -0.12)">
      <defs>
       <path id="DejaVuSans-54" d="M -19 4666 
L 3928 4666 
L 3928 4134 
L 2272 4134 
L 2272 0 
L 1638 0 
L 1638 4134 
L -19 4134 
L -19 4666 
z
" transform="scale(0.015625)"/>
       <path id="DejaVuSans-69" d="M 603 3500 
L 1178 3500 
L 1178 0 
L 603 0 
L 603 3500 
z
M 603 4863 
L 1178 4863 
L 1178 4134 
L 603 4134 
L 603 4863 
z
" transform="scale(0.015625)"/>
       <path id="DejaVuSans-6d" d="M 3328 2828 
Q 3544 3216 3844 3400 
Q 4144 3584 4550 3584 
Q 5097 3584 5394 3201 
Q 5691 2819 5691 2113 
L 5691 0 
L 5113 0 
L 5113 2094 
Q 5113 2597 4934 2840 
Q 4756 3084 4391 3084 
Q 3944 3084 3684 2787 
Q 3425 2491 3425 1978 
L 3425 0 
L 2847 0 
L 2847 2094 
Q 2847 2600 2669 2842 
Q 2491 3084 2119 3084 
Q 1678 3084 1418 2786 
Q 1159 2488 1159 1978 
L 1159 0 
L 581 0 
L 581 3500 
L 1159 3500 
L 1159 2956 
Q 1356 3278 1631 3431 
Q 1906 3584 2284 3584 
Q 2666 3584 2933 3390 
Q 3200 3197 3328 2828 
z
" transform="scale(0.015625)"/>
       <path id="DejaVuSans-65" d="M 3597 1894 
L 3597 1613 
L 953 1613 
Q 991 1019 1311 708 
Q 1631 397 2203 397 
Q 2534 397 2845 478 
Q 3156 559 3463 722 
L 3463 178 
Q 3153 47 2828 -22 
Q 2503 -91 2169 -91 
Q 1331 -91 842 396 
Q 353 884 353 1716 
Q 353 2575 817 3079 
Q 1281 3584 2069 3584 
Q 2775 3584 3186 3129 
Q 3597 2675 3597 1894 
z
M 3022 2063 
Q 3016 2534 2758 2815 
Q 2500 3097 2075 3097 
Q 1594 3097 1305 2825 
Q 1016 2553 972 2059 
L 3022 2063 
z
" transform="scale(0.015625)"/>
      </defs>
      <use xlink:href="#DejaVuSans-54"/>
      <use xlink:href="#DejaVuSans-69" x="57.958984"/>
      <use xlink:href="#DejaVuSans-6d" x="85.742188"/>
      <use xlink:href="#DejaVuSans-65" x="183.154297"/>
     </g>
    </g>
   </g>
   <g id="matplotlib.axis_2">
    <g id="ytick_1">
     <g id="line2d_13">
      <path d="M 53.75 272.865526 
L 709.2 272.865526 
" clip-path="url(#p1f76d6c006)" style="fill: none; stroke: #b0b0b0; stroke-width: 0.8; stroke-linecap: square"/>
     </g>
     <g id="line2d_14">
      <defs>
       <path id="m1e2a9027c0" d="M 0 0 
L -3.5 0 
" style="stroke: #000000; stroke-width: 0.8"/>
      </defs>
      <g>
       <use xlink:href="#m1e2a9027c0" x="53.75" y="272.865526" style="stroke: #000000; stroke-width: 0.8"/>
      </g>
     </g>
     <g id="text_8">
      <!-- 400 -->
      <g transform="translate(27.6625 276.664744) scale(0.1 -0.1)">
       <use xlink:href="#DejaVuSans-34"/>
       <use xlink:href="#DejaVuSans-30" x="63.623047"/>
       <use xlink:href="#DejaVuSans-30" x="127.246094"/>
      </g>
     </g>
    </g>
    <g id="ytick_2">
     <g id="line2d_15">
      <path d="M 53.75 225.317884 
L 709.2 225.317884 
" clip-path="url(#p1f76d6c006)" style="fill: none; stroke: #b0b0b0; stroke-width: 0.8; stroke-linecap: square"/>
     </g>
     <g id="line2d_16">
      <g>
       <use xlink:href="#m1e2a9027c0" x="53.75" y="225.317884" style="stroke: #000000; stroke-width: 0.8"/>
      </g>
     </g>
     <g id="text_9">
      <!-- 500 -->
      <g transform="translate(27.6625 229.117102) scale(0.1 -0.1)">
       <use xlink:href="#DejaVuSans-35"/>
       <use xlink:href="#DejaVuSans-30" x="63.623047"/>
       <use xlink:href="#DejaVuSans-30" x="127.246094"/>
      </g>
     </g>
    </g>
    <g id="ytick_3">
     <g id="line2d_17">
      <path d="M 53.75 177.770241 
L 709.2 177.770241 
" clip-path="url(#p1f76d6c006)" style="fill: none; stroke: #b0b0b0; stroke-width: 0.8; stroke-linecap: square"/>
     </g>
     <g id="line2d_18">
      <g>
       <use xlink:href="#m1e2a9027c0" x="53.75" y="177.770241" style="stroke: #000000; stroke-width: 0.8"/>
      </g>
     </g>
     <g id="text_10">
      <!-- 600 -->
      <g transform="translate(27.6625 181.56946) scale(0.1 -0.1)">
       <defs>
        <path id="DejaVuSans-36" d="M 2113 2584 
Q 1688 2584 1439 2293 
Q 1191 2003 1191 1497 
Q 1191 994 1439 701 
Q 1688 409 2113 409 
Q 2538 409 2786 701 
Q 3034 994 3034 1497 
Q 3034 2003 2786 2293 
Q 2538 2584 2113 2584 
z
M 3366 4563 
L 3366 3988 
Q 3128 4100 2886 4159 
Q 2644 4219 2406 4219 
Q 1781 4219 1451 3797 
Q 1122 3375 1075 2522 
Q 1259 2794 1537 2939 
Q 1816 3084 2150 3084 
Q 2853 3084 3261 2657 
Q 3669 2231 3669 1497 
Q 3669 778 3244 343 
Q 2819 -91 2113 -91 
Q 1303 -91 875 529 
Q 447 1150 447 2328 
Q 447 3434 972 4092 
Q 1497 4750 2381 4750 
Q 2619 4750 2861 4703 
Q 3103 4656 3366 4563 
z
" transform="scale(0.015625)"/>
       </defs>
       <use xlink:href="#DejaVuSans-36"/>
       <use xlink:href="#DejaVuSans-30" x="63.623047"/>
       <use xlink:href="#DejaVuSans-30" x="127.246094"/>
      </g>
     </g>
    </g>
    <g id="ytick_4">
     <g id="line2d_19">
      <path d="M 53.75 130.222599 
L 709.2 130.222599 
" clip-path="url(#p1f76d6c006)" style="fill: none; stroke: #b0b0b0; stroke-width: 0.8; stroke-linecap: square"/>
     </g>
     <g id="line2d_20">
      <g>
       <use xlink:href="#m1e2a9027c0" x="53.75" y="130.222599" style="stroke: #000000; stroke-width: 0.8"/>
      </g>
     </g>
     <g id="text_11">
      <!-- 700 -->
      <g transform="translate(27.6625 134.021818) scale(0.1 -0.1)">
       <use xlink:href="#DejaVuSans-37"/>
       <use xlink:href="#DejaVuSans-30" x="63.623047"/>
       <use xlink:href="#DejaVuSans-30" x="127.246094"/>
      </g>
     </g>
    </g>
    <g id="ytick_5">
     <g id="line2d_21">
      <path d="M 53.75 82.674957 
L 709.2 82.674957 
" clip-path="url(#p1f76d6c006)" style="fill: none; stroke: #b0b0b0; stroke-width: 0.8; stroke-linecap: square"/>
     </g>
     <g id="line2d_22">
      <g>
       <use xlink:href="#m1e2a9027c0" x="53.75" y="82.674957" style="stroke: #000000; stroke-width: 0.8"/>
      </g>
     </g>
     <g id="text_12">
      <!-- 800 -->
      <g transform="translate(27.6625 86.474176) scale(0.1 -0.1)">
       <defs>
        <path id="DejaVuSans-38" d="M 2034 2216 
Q 1584 2216 1326 1975 
Q 1069 1734 1069 1313 
Q 1069 891 1326 650 
Q 1584 409 2034 409 
Q 2484 409 2743 651 
Q 3003 894 3003 1313 
Q 3003 1734 2745 1975 
Q 2488 2216 2034 2216 
z
M 1403 2484 
Q 997 2584 770 2862 
Q 544 3141 544 3541 
Q 544 4100 942 4425 
Q 1341 4750 2034 4750 
Q 2731 4750 3128 4425 
Q 3525 4100 3525 3541 
Q 3525 3141 3298 2862 
Q 3072 2584 2669 2484 
Q 3125 2378 3379 2068 
Q 3634 1759 3634 1313 
Q 3634 634 3220 271 
Q 2806 -91 2034 -91 
Q 1263 -91 848 271 
Q 434 634 434 1313 
Q 434 1759 690 2068 
Q 947 2378 1403 2484 
z
M 1172 3481 
Q 1172 3119 1398 2916 
Q 1625 2713 2034 2713 
Q 2441 2713 2670 2916 
Q 2900 3119 2900 3481 
Q 2900 3844 2670 4047 
Q 2441 4250 2034 4250 
Q 1625 4250 1398 4047 
Q 1172 3844 1172 3481 
z
" transform="scale(0.015625)"/>
       </defs>
       <use xlink:href="#DejaVuSans-38"/>
       <use xlink:href="#DejaVuSans-30" x="63.623047"/>
       <use xlink:href="#DejaVuSans-30" x="127.246094"/>
      </g>
     </g>
    </g>
    <g id="ytick_6">
     <g id="line2d_23">
      <path d="M 53.75 35.127315 
L 709.2 35.127315 
" clip-path="url(#p1f76d6c006)" style="fill: none; stroke: #b0b0b0; stroke-width: 0.8; stroke-linecap: square"/>
     </g>
     <g id="line2d_24">
      <g>
       <use xlink:href="#m1e2a9027c0" x="53.75" y="35.127315" style="stroke: #000000; stroke-width: 0.8"/>
      </g>
     </g>
     <g id="text_13">
      <!-- 900 -->
      <g transform="translate(27.6625 38.926534) scale(0.1 -0.1)">
       <use xlink:href="#DejaVuSans-39"/>
       <use xlink:href="#DejaVuSans-30" x="63.623047"/>
       <use xlink:href="#DejaVuSans-30" x="127.246094"/>
      </g>
     </g>
    </g>
    <g id="text_14">
     <!-- Response Time (ms) -->
     <g transform="translate(21.166875 213.486139) rotate(-90) scale(0.12 -0.12)">
      <defs>
       <path id="DejaVuSans-52" d="M 2841 2188 
Q 3044 2119 3236 1894 
Q 3428 1669 3622 1275 
L 4263 0 
L 3584 0 
L 2988 1197 
Q 2756 1666 2539 1819 
Q 2322 1972 1947 1972 
L 1259 1972 
L 1259 0 
L 628 0 
L 628 4666 
L 2053 4666 
Q 2853 4666 3247 4331 
Q 3641 3997 3641 3322 
Q 3641 2881 3436 2590 
Q 3231 2300 2841 2188 
z
M 1259 4147 
L 1259 2491 
L 2053 2491 
Q 2509 2491 2742 2702 
Q 2975 2913 2975 3322 
Q 2975 3731 2742 3939 
Q 2509 4147 2053 4147 
L 1259 4147 
z
" transform="scale(0.015625)"/>
       <path id="DejaVuSans-73" d="M 2834 3397 
L 2834 2853 
Q 2591 2978 2328 3040 
Q 2066 3103 1784 3103 
Q 1356 3103 1142 2972 
Q 928 2841 928 2578 
Q 928 2378 1081 2264 
Q 1234 2150 1697 2047 
L 1894 2003 
Q 2506 1872 2764 1633 
Q 3022 1394 3022 966 
Q 3022 478 2636 193 
Q 2250 -91 1575 -91 
Q 1294 -91 989 -36 
Q 684 19 347 128 
L 347 722 
Q 666 556 975 473 
Q 1284 391 1588 391 
Q 1994 391 2212 530 
Q 2431 669 2431 922 
Q 2431 1156 2273 1281 
Q 2116 1406 1581 1522 
L 1381 1569 
Q 847 1681 609 1914 
Q 372 2147 372 2553 
Q 372 3047 722 3315 
Q 1072 3584 1716 3584 
Q 2034 3584 2315 3537 
Q 2597 3491 2834 3397 
z
" transform="scale(0.015625)"/>
       <path id="DejaVuSans-70" d="M 1159 525 
L 1159 -1331 
L 581 -1331 
L 581 3500 
L 1159 3500 
L 1159 2969 
Q 1341 3281 1617 3432 
Q 1894 3584 2278 3584 
Q 2916 3584 3314 3078 
Q 3713 2572 3713 1747 
Q 3713 922 3314 415 
Q 2916 -91 2278 -91 
Q 1894 -91 1617 61 
Q 1341 213 1159 525 
z
M 3116 1747 
Q 3116 2381 2855 2742 
Q 2594 3103 2138 3103 
Q 1681 3103 1420 2742 
Q 1159 2381 1159 1747 
Q 1159 1113 1420 752 
Q 1681 391 2138 391 
Q 2594 391 2855 752 
Q 3116 1113 3116 1747 
z
" transform="scale(0.015625)"/>
       <path id="DejaVuSans-6f" d="M 1959 3097 
Q 1497 3097 1228 2736 
Q 959 2375 959 1747 
Q 959 1119 1226 758 
Q 1494 397 1959 397 
Q 2419 397 2687 759 
Q 2956 1122 2956 1747 
Q 2956 2369 2687 2733 
Q 2419 3097 1959 3097 
z
M 1959 3584 
Q 2709 3584 3137 3096 
Q 3566 2609 3566 1747 
Q 3566 888 3137 398 
Q 2709 -91 1959 -91 
Q 1206 -91 779 398 
Q 353 888 353 1747 
Q 353 2609 779 3096 
Q 1206 3584 1959 3584 
z
" transform="scale(0.015625)"/>
       <path id="DejaVuSans-6e" d="M 3513 2113 
L 3513 0 
L 2938 0 
L 2938 2094 
Q 2938 2591 2744 2837 
Q 2550 3084 2163 3084 
Q 1697 3084 1428 2787 
Q 1159 2491 1159 1978 
L 1159 0 
L 581 0 
L 581 3500 
L 1159 3500 
L 1159 2956 
Q 1366 3272 1645 3428 
Q 1925 3584 2291 3584 
Q 2894 3584 3203 3211 
Q 3513 2838 3513 2113 
z
" transform="scale(0.015625)"/>
       <path id="DejaVuSans-20" transform="scale(0.015625)"/>
       <path id="DejaVuSans-28" d="M 1984 4856 
Q 1566 4138 1362 3434 
Q 1159 2731 1159 2009 
Q 1159 1288 1364 580 
Q 1569 -128 1984 -844 
L 1484 -844 
Q 1016 -109 783 600 
Q 550 1309 550 2009 
Q 550 2706 781 3412 
Q 1013 4119 1484 4856 
L 1984 4856 
z
" transform="scale(0.015625)"/>
       <path id="DejaVuSans-29" d="M 513 4856 
L 1013 4856 
Q 1481 4119 1714 3412 
Q 1947 2706 1947 2009 
Q 1947 1309 1714 600 
Q 1481 -109 1013 -844 
L 513 -844 
Q 928 -128 1133 580 
Q 1338 1288 1338 2009 
Q 1338 2731 1133 3434 
Q 928 4138 513 4856 
z
" transform="scale(0.015625)"/>
      </defs>
      <use xlink:href="#DejaVuSans-52"/>
      <use xlink:href="#DejaVuSans-65" x="64.982422"/>
      <use xlink:href="#DejaVuSans-73" x="126.505859"/>
      <use xlink:href="#DejaVuSans-70" x="178.605469"/>
      <use xlink:href="#DejaVuSans-6f" x="242.082031"/>
      <use xlink:href="#DejaVuSans-6e" x="303.263672"/>
      <use xlink:href="#DejaVuSans-73" x="366.642578"/>
      <use xlink:href="#DejaVuSans-65" x="418.742188"/>
      <use xlink:href="#DejaVuSans-20" x="480.265625"/>
      <use xlink:href="#DejaVuSans-54" x="512.052734"/>
      <use xlink:href="#DejaVuSans-69" x="570.011719"/>
      <use xlink:href="#DejaVuSans-6d" x="597.794922"/>
      <use xlink:href="#DejaVuSans-65" x="695.207031"/>
      <use xlink:href="#DejaVuSans-20" x="756.730469"/>
      <use xlink:href="#DejaVuSans-28" x="788.517578"/>
      <use xlink:href="#DejaVuSans-6d" x="827.53125"/>
      <use xlink:href="#DejaVuSans-73" x="924.943359"/>
      <use xlink:href="#DejaVuSans-29" x="977.042969"/>
     </g>
    </g>
   </g>
   <g id="line2d_25">
    <path d="M 83.543182 253.846469 
L 85.739642 253.7276 
L 87.980927 266.089987 
L 90.191218 256.699327 
L 92.410014 256.461589 
L 94.636825 246.357715 
L 96.948479 244.812417 
L 99.067626 243.02938 
L 101.274612 242.316166 
L 103.628063 238.987831 
L 105.810676 238.750092 
L 108.09473 241.484082 
L 110.195785 229.71604 
L 112.52328 241.484082 
L 114.722672 242.435035 
L 117.041595 233.282114 
L 119.06526 236.016103 
L 121.327086 236.37271 
L 123.553721 217.234784 
L 133.184491 225.080145 
L 134.843246 222.940501 
L 136.878721 221.276334 
L 139.138371 228.40848 
L 141.337961 230.904731 
L 143.573816 239.819914 
L 145.777835 239.225569 
L 148.013437 250.637003 
L 150.243223 246.238846 
L 152.457769 247.784144 
L 154.759797 238.987831 
L 156.970494 227.576397 
L 159.112276 239.1067 
L 161.336036 235.421757 
L 165.880572 258.95784 
L 174.68261 246.119977 
L 184.016125 239.344438 
L 186.490514 228.883957 
L 188.119605 218.185737 
L 190.255117 219.017821 
L 192.504874 212.004544 
L 194.717048 222.465025 
L 196.90864 222.227287 
L 199.166691 220.44425 
L 201.392535 233.995328 
L 203.570824 223.297109 
L 205.808387 224.248062 
L 208.023488 228.289611 
L 210.278852 223.534847 
L 212.510995 233.995328 
L 214.680577 233.519852 
L 216.905575 239.344438 
L 219.155673 247.308668 
L 221.357567 246.833192 
L 223.628405 246.119977 
L 225.802219 240.295391 
L 228.021541 242.316166 
L 230.259386 241.484082 
L 232.527239 251.944563 
L 234.714872 263.593735 
L 240.053261 241.127475 
L 241.666596 238.750092 
L 243.625733 228.883957 
L 245.853762 239.463307 
L 248.037092 252.776647 
L 250.269119 243.861464 
L 252.48852 243.385988 
L 254.721471 223.415978 
L 256.937145 211.410198 
L 259.155365 213.906449 
L 261.407419 210.696984 
L 265.831961 230.666993 
L 268.041249 229.478302 
L 270.268474 231.974553 
L 272.512429 242.791642 
L 274.740832 232.331161 
L 276.959459 232.568899 
L 279.163794 233.638721 
L 281.412994 222.702763 
L 283.596729 234.946281 
L 285.841784 234.470805 
L 290.877241 253.7276 
L 293.451317 241.840689 
L 295.151117 253.014385 
L 297.07774 241.602951 
L 299.198674 242.197296 
L 301.400242 242.197296 
L 303.691232 232.212292 
L 305.855175 241.72182 
L 308.151075 236.253841 
L 310.31297 247.308668 
L 312.522515 245.169024 
L 314.78413 247.665275 
L 317.069867 240.295391 
L 319.190979 240.295391 
L 321.436613 252.30117 
L 323.640269 242.197296 
L 325.883019 243.148249 
L 330.324475 244.574679 
L 332.50414 244.693548 
L 334.77118 254.678553 
L 336.977039 251.469087 
L 339.188939 239.701045 
L 341.451787 250.99361 
L 344.130221 240.41426 
L 346.724475 243.980333 
L 348.357347 241.959558 
L 350.322947 240.770867 
L 352.547726 241.127475 
L 354.757994 229.597171 
L 357.018572 243.148249 
L 359.205798 230.666993 
L 361.460428 230.429255 
L 363.672162 241.602951 
L 366.057317 230.785862 
L 368.149268 244.099202 
L 370.42425 256.104982 
L 372.605939 245.406762 
L 374.775403 250.280396 
L 379.436872 230.072648 
L 381.429503 210.102638 
L 382.387156 198.810073 
L 385.807324 184.308042 
L 388.529377 185.734471 
L 390.353731 184.426911 
L 392.576793 185.734471 
L 394.811316 187.27977 
L 397.519279 193.698702 
L 399.985732 214.381926 
L 401.688637 227.695266 
L 403.721292 234.708543 
L 405.941973 238.036878 
L 408.13523 226.744313 
L 410.370494 233.044375 
L 412.600701 232.568899 
L 414.853449 242.791642 
L 417.09357 252.30117 
L 419.265549 242.078427 
L 421.556221 244.218071 
L 423.841932 243.742595 
L 426.020775 229.953779 
L 430.436937 240.651998 
L 432.617546 247.784144 
L 434.812178 247.665275 
L 437.041727 263.355997 
L 439.268583 249.804919 
L 441.524951 252.657778 
L 443.733955 253.014385 
L 445.941927 239.344438 
L 448.296854 242.316166 
L 451.210754 233.163244 
L 453.377433 221.395203 
L 455.07263 214.263057 
L 457.090566 215.09514 
L 459.275479 221.989549 
L 461.485608 233.163244 
L 463.731998 254.440814 
L 465.940087 252.42004 
L 468.222455 254.678553 
L 470.406584 251.350218 
L 472.661491 238.868962 
L 474.821157 249.68605 
L 477.149295 237.68027 
L 479.283995 240.889736 
L 481.540627 239.701045 
L 483.741585 241.127475 
L 485.971845 251.469087 
L 488.241031 238.868962 
L 490.443392 239.938783 
L 492.634701 240.057653 
L 494.838067 226.625444 
L 497.07326 227.695266 
L 499.263749 240.651998 
L 501.497275 231.736815 
L 504.218744 243.02938 
L 506.724086 242.791642 
L 508.39381 231.617946 
L 510.408068 238.631223 
L 512.661149 241.959558 
L 514.853025 243.980333 
L 517.102038 242.197296 
L 519.310025 231.617946 
L 521.534773 231.023601 
L 523.7596 226.387705 
L 525.997679 228.40848 
L 528.167887 229.71604 
L 530.506625 231.499077 
L 532.651607 246.001108 
L 537.098118 246.238846 
L 539.345384 246.952061 
L 541.541619 233.044375 
L 543.848047 220.681988 
L 546.017596 219.731036 
L 548.232351 229.597171 
L 550.429095 241.365213 
L 552.637432 254.559683 
L 554.887518 264.901296 
L 557.551419 252.657778 
L 560.058918 252.657778 
L 561.704728 238.987831 
L 563.764639 235.897234 
L 566.020937 247.903014 
L 568.229069 244.218071 
L 570.433514 257.888018 
L 572.654432 247.07093 
L 574.888842 245.050155 
L 577.123343 249.68605 
L 579.341755 229.83491 
L 581.52318 232.687768 
L 583.820522 222.821632 
L 585.982569 220.206512 
L 588.211392 239.344438 
L 590.428202 239.582176 
L 592.666213 239.701045 
L 594.901804 243.148249 
L 597.115463 228.646218 
L 599.315593 229.597171 
L 601.557925 238.274616 
L 603.807849 228.527349 
L 605.998054 242.435035 
L 608.302892 240.41426 
L 611.114348 230.548124 
L 613.583002 236.848187 
L 615.170516 236.848187 
L 617.128971 249.68605 
L 619.413069 263.237128 
L 621.589833 255.510636 
L 623.828299 245.169024 
L 626.03564 231.974553 
L 628.328336 226.982051 
L 630.499597 238.036878 
L 632.684328 246.833192 
L 634.899985 256.461589 
L 637.154956 242.791642 
L 639.356781 243.148249 
L 641.628464 232.687768 
L 643.824655 220.563119 
L 646.037327 236.729318 
L 648.270944 236.848187 
L 650.455455 249.923788 
L 652.686688 254.440814 
L 654.917497 255.154029 
L 657.121856 240.889736 
L 659.36352 237.204794 
L 661.642073 247.903014 
L 664.321168 237.204794 
L 666.844566 251.706825 
L 668.581519 239.701045 
L 670.532819 228.883957 
L 672.723263 237.918009 
L 674.940131 231.380208 
L 677.205469 244.218071 
L 679.406818 240.176522 
L 679.406818 240.176522 
" clip-path="url(#p1f76d6c006)" style="fill: none; stroke: #1f77b4; stroke-opacity: 0.5; stroke-width: 1.5; stroke-linecap: square"/>
    <defs>
     <path id="m11defc86f2" d="M 0 1 
C 0.265203 1 0.51958 0.894634 0.707107 0.707107 
C 0.894634 0.51958 1 0.265203 1 0 
C 1 -0.265203 0.894634 -0.51958 0.707107 -0.707107 
C 0.51958 -0.894634 0.265203 -1 0 -1 
C -0.265203 -1 -0.51958 -0.894634 -0.707107 -0.707107 
C -0.894634 -0.51958 -1 -0.265203 -1 0 
C -1 0.265203 -0.894634 0.51958 -0.707107 0.707107 
C -0.51958 0.894634 -0.265203 1 0 1 
z
" style="stroke: #1f77b4; stroke-opacity: 0.5"/>
    </defs>
    <g clip-path="url(#p1f76d6c006)">
     <use xlink:href="#m11defc86f2" x="83.543182" y="253.846469" style="fill: #1f77b4; fill-opacity: 0.5; stroke: #1f77b4; stroke-opacity: 0.5"/>
     <use xlink:href="#m11defc86f2" x="85.739642" y="253.7276" style="fill: #1f77b4; fill-opacity: 0.5; stroke: #1f77b4; stroke-opacity: 0.5"/>
     <use xlink:href="#m11defc86f2" x="87.980927" y="266.089987" style="fill: #1f77b4; fill-opacity: 0.5; stroke: #1f77b4; stroke-opacity: 0.5"/>
     <use xlink:href="#m11defc86f2" x="90.191218" y="256.699327" style="fill: #1f77b4; fill-opacity: 0.5; stroke: #1f77b4; stroke-opacity: 0.5"/>
     <use xlink:href="#m11defc86f2" x="92.410014" y="256.461589" style="fill: #1f77b4; fill-opacity: 0.5; stroke: #1f77b4; stroke-opacity: 0.5"/>
     <use xlink:href="#m11defc86f2" x="94.636825" y="246.357715" style="fill: #1f77b4; fill-opacity: 0.5; stroke: #1f77b4; stroke-opacity: 0.5"/>
     <use xlink:href="#m11defc86f2" x="96.948479" y="244.812417" style="fill: #1f77b4; fill-opacity: 0.5; stroke: #1f77b4; stroke-opacity: 0.5"/>
     <use xlink:href="#m11defc86f2" x="99.067626" y="243.02938" style="fill: #1f77b4; fill-opacity: 0.5; stroke: #1f77b4; stroke-opacity: 0.5"/>
     <use xlink:href="#m11defc86f2" x="101.274612" y="242.316166" style="fill: #1f77b4; fill-opacity: 0.5; stroke: #1f77b4; stroke-opacity: 0.5"/>
     <use xlink:href="#m11defc86f2" x="103.628063" y="238.987831" style="fill: #1f77b4; fill-opacity: 0.5; stroke: #1f77b4; stroke-opacity: 0.5"/>
     <use xlink:href="#m11defc86f2" x="105.810676" y="238.750092" style="fill: #1f77b4; fill-opacity: 0.5; stroke: #1f77b4; stroke-opacity: 0.5"/>
     <use xlink:href="#m11defc86f2" x="108.09473" y="241.484082" style="fill: #1f77b4; fill-opacity: 0.5; stroke: #1f77b4; stroke-opacity: 0.5"/>
     <use xlink:href="#m11defc86f2" x="110.195785" y="229.71604" style="fill: #1f77b4; fill-opacity: 0.5; stroke: #1f77b4; stroke-opacity: 0.5"/>
     <use xlink:href="#m11defc86f2" x="112.52328" y="241.484082" style="fill: #1f77b4; fill-opacity: 0.5; stroke: #1f77b4; stroke-opacity: 0.5"/>
     <use xlink:href="#m11defc86f2" x="114.722672" y="242.435035" style="fill: #1f77b4; fill-opacity: 0.5; stroke: #1f77b4; stroke-opacity: 0.5"/>
     <use xlink:href="#m11defc86f2" x="117.041595" y="233.282114" style="fill: #1f77b4; fill-opacity: 0.5; stroke: #1f77b4; stroke-opacity: 0.5"/>
     <use xlink:href="#m11defc86f2" x="119.06526" y="236.016103" style="fill: #1f77b4; fill-opacity: 0.5; stroke: #1f77b4; stroke-opacity: 0.5"/>
     <use xlink:href="#m11defc86f2" x="121.327086" y="236.37271" style="fill: #1f77b4; fill-opacity: 0.5; stroke: #1f77b4; stroke-opacity: 0.5"/>
     <use xlink:href="#m11defc86f2" x="123.553721" y="217.234784" style="fill: #1f77b4; fill-opacity: 0.5; stroke: #1f77b4; stroke-opacity: 0.5"/>
     <use xlink:href="#m11defc86f2" x="133.184491" y="225.080145" style="fill: #1f77b4; fill-opacity: 0.5; stroke: #1f77b4; stroke-opacity: 0.5"/>
     <use xlink:href="#m11defc86f2" x="134.843246" y="222.940501" style="fill: #1f77b4; fill-opacity: 0.5; stroke: #1f77b4; stroke-opacity: 0.5"/>
     <use xlink:href="#m11defc86f2" x="136.878721" y="221.276334" style="fill: #1f77b4; fill-opacity: 0.5; stroke: #1f77b4; stroke-opacity: 0.5"/>
     <use xlink:href="#m11defc86f2" x="139.138371" y="228.40848" style="fill: #1f77b4; fill-opacity: 0.5; stroke: #1f77b4; stroke-opacity: 0.5"/>
     <use xlink:href="#m11defc86f2" x="141.337961" y="230.904731" style="fill: #1f77b4; fill-opacity: 0.5; stroke: #1f77b4; stroke-opacity: 0.5"/>
     <use xlink:href="#m11defc86f2" x="143.573816" y="239.819914" style="fill: #1f77b4; fill-opacity: 0.5; stroke: #1f77b4; stroke-opacity: 0.5"/>
     <use xlink:href="#m11defc86f2" x="145.777835" y="239.225569" style="fill: #1f77b4; fill-opacity: 0.5; stroke: #1f77b4; stroke-opacity: 0.5"/>
     <use xlink:href="#m11defc86f2" x="148.013437" y="250.637003" style="fill: #1f77b4; fill-opacity: 0.5; stroke: #1f77b4; stroke-opacity: 0.5"/>
     <use xlink:href="#m11defc86f2" x="150.243223" y="246.238846" style="fill: #1f77b4; fill-opacity: 0.5; stroke: #1f77b4; stroke-opacity: 0.5"/>
     <use xlink:href="#m11defc86f2" x="152.457769" y="247.784144" style="fill: #1f77b4; fill-opacity: 0.5; stroke: #1f77b4; stroke-opacity: 0.5"/>
     <use xlink:href="#m11defc86f2" x="154.759797" y="238.987831" style="fill: #1f77b4; fill-opacity: 0.5; stroke: #1f77b4; stroke-opacity: 0.5"/>
     <use xlink:href="#m11defc86f2" x="156.970494" y="227.576397" style="fill: #1f77b4; fill-opacity: 0.5; stroke: #1f77b4; stroke-opacity: 0.5"/>
     <use xlink:href="#m11defc86f2" x="159.112276" y="239.1067" style="fill: #1f77b4; fill-opacity: 0.5; stroke: #1f77b4; stroke-opacity: 0.5"/>
     <use xlink:href="#m11defc86f2" x="161.336036" y="235.421757" style="fill: #1f77b4; fill-opacity: 0.5; stroke: #1f77b4; stroke-opacity: 0.5"/>
     <use xlink:href="#m11defc86f2" x="163.598721" y="247.308668" style="fill: #1f77b4; fill-opacity: 0.5; stroke: #1f77b4; stroke-opacity: 0.5"/>
     <use xlink:href="#m11defc86f2" x="165.880572" y="258.95784" style="fill: #1f77b4; fill-opacity: 0.5; stroke: #1f77b4; stroke-opacity: 0.5"/>
     <use xlink:href="#m11defc86f2" x="174.68261" y="246.119977" style="fill: #1f77b4; fill-opacity: 0.5; stroke: #1f77b4; stroke-opacity: 0.5"/>
     <use xlink:href="#m11defc86f2" x="184.016125" y="239.344438" style="fill: #1f77b4; fill-opacity: 0.5; stroke: #1f77b4; stroke-opacity: 0.5"/>
     <use xlink:href="#m11defc86f2" x="186.490514" y="228.883957" style="fill: #1f77b4; fill-opacity: 0.5; stroke: #1f77b4; stroke-opacity: 0.5"/>
     <use xlink:href="#m11defc86f2" x="188.119605" y="218.185737" style="fill: #1f77b4; fill-opacity: 0.5; stroke: #1f77b4; stroke-opacity: 0.5"/>
     <use xlink:href="#m11defc86f2" x="190.255117" y="219.017821" style="fill: #1f77b4; fill-opacity: 0.5; stroke: #1f77b4; stroke-opacity: 0.5"/>
     <use xlink:href="#m11defc86f2" x="192.504874" y="212.004544" style="fill: #1f77b4; fill-opacity: 0.5; stroke: #1f77b4; stroke-opacity: 0.5"/>
     <use xlink:href="#m11defc86f2" x="194.717048" y="222.465025" style="fill: #1f77b4; fill-opacity: 0.5; stroke: #1f77b4; stroke-opacity: 0.5"/>
     <use xlink:href="#m11defc86f2" x="196.90864" y="222.227287" style="fill: #1f77b4; fill-opacity: 0.5; stroke: #1f77b4; stroke-opacity: 0.5"/>
     <use xlink:href="#m11defc86f2" x="199.166691" y="220.44425" style="fill: #1f77b4; fill-opacity: 0.5; stroke: #1f77b4; stroke-opacity: 0.5"/>
     <use xlink:href="#m11defc86f2" x="201.392535" y="233.995328" style="fill: #1f77b4; fill-opacity: 0.5; stroke: #1f77b4; stroke-opacity: 0.5"/>
     <use xlink:href="#m11defc86f2" x="203.570824" y="223.297109" style="fill: #1f77b4; fill-opacity: 0.5; stroke: #1f77b4; stroke-opacity: 0.5"/>
     <use xlink:href="#m11defc86f2" x="205.808387" y="224.248062" style="fill: #1f77b4; fill-opacity: 0.5; stroke: #1f77b4; stroke-opacity: 0.5"/>
     <use xlink:href="#m11defc86f2" x="208.023488" y="228.289611" style="fill: #1f77b4; fill-opacity: 0.5; stroke: #1f77b4; stroke-opacity: 0.5"/>
     <use xlink:href="#m11defc86f2" x="210.278852" y="223.534847" style="fill: #1f77b4; fill-opacity: 0.5; stroke: #1f77b4; stroke-opacity: 0.5"/>
     <use xlink:href="#m11defc86f2" x="212.510995" y="233.995328" style="fill: #1f77b4; fill-opacity: 0.5; stroke: #1f77b4; stroke-opacity: 0.5"/>
     <use xlink:href="#m11defc86f2" x="214.680577" y="233.519852" style="fill: #1f77b4; fill-opacity: 0.5; stroke: #1f77b4; stroke-opacity: 0.5"/>
     <use xlink:href="#m11defc86f2" x="216.905575" y="239.344438" style="fill: #1f77b4; fill-opacity: 0.5; stroke: #1f77b4; stroke-opacity: 0.5"/>
     <use xlink:href="#m11defc86f2" x="219.155673" y="247.308668" style="fill: #1f77b4; fill-opacity: 0.5; stroke: #1f77b4; stroke-opacity: 0.5"/>
     <use xlink:href="#m11defc86f2" x="221.357567" y="246.833192" style="fill: #1f77b4; fill-opacity: 0.5; stroke: #1f77b4; stroke-opacity: 0.5"/>
     <use xlink:href="#m11defc86f2" x="223.628405" y="246.119977" style="fill: #1f77b4; fill-opacity: 0.5; stroke: #1f77b4; stroke-opacity: 0.5"/>
     <use xlink:href="#m11defc86f2" x="225.802219" y="240.295391" style="fill: #1f77b4; fill-opacity: 0.5; stroke: #1f77b4; stroke-opacity: 0.5"/>
     <use xlink:href="#m11defc86f2" x="228.021541" y="242.316166" style="fill: #1f77b4; fill-opacity: 0.5; stroke: #1f77b4; stroke-opacity: 0.5"/>
     <use xlink:href="#m11defc86f2" x="230.259386" y="241.484082" style="fill: #1f77b4; fill-opacity: 0.5; stroke: #1f77b4; stroke-opacity: 0.5"/>
     <use xlink:href="#m11defc86f2" x="232.527239" y="251.944563" style="fill: #1f77b4; fill-opacity: 0.5; stroke: #1f77b4; stroke-opacity: 0.5"/>
     <use xlink:href="#m11defc86f2" x="234.714872" y="263.593735" style="fill: #1f77b4; fill-opacity: 0.5; stroke: #1f77b4; stroke-opacity: 0.5"/>
     <use xlink:href="#m11defc86f2" x="237.500855" y="252.063432" style="fill: #1f77b4; fill-opacity: 0.5; stroke: #1f77b4; stroke-opacity: 0.5"/>
     <use xlink:href="#m11defc86f2" x="240.053261" y="241.127475" style="fill: #1f77b4; fill-opacity: 0.5; stroke: #1f77b4; stroke-opacity: 0.5"/>
     <use xlink:href="#m11defc86f2" x="241.666596" y="238.750092" style="fill: #1f77b4; fill-opacity: 0.5; stroke: #1f77b4; stroke-opacity: 0.5"/>
     <use xlink:href="#m11defc86f2" x="243.625733" y="228.883957" style="fill: #1f77b4; fill-opacity: 0.5; stroke: #1f77b4; stroke-opacity: 0.5"/>
     <use xlink:href="#m11defc86f2" x="245.853762" y="239.463307" style="fill: #1f77b4; fill-opacity: 0.5; stroke: #1f77b4; stroke-opacity: 0.5"/>
     <use xlink:href="#m11defc86f2" x="248.037092" y="252.776647" style="fill: #1f77b4; fill-opacity: 0.5; stroke: #1f77b4; stroke-opacity: 0.5"/>
     <use xlink:href="#m11defc86f2" x="250.269119" y="243.861464" style="fill: #1f77b4; fill-opacity: 0.5; stroke: #1f77b4; stroke-opacity: 0.5"/>
     <use xlink:href="#m11defc86f2" x="252.48852" y="243.385988" style="fill: #1f77b4; fill-opacity: 0.5; stroke: #1f77b4; stroke-opacity: 0.5"/>
     <use xlink:href="#m11defc86f2" x="254.721471" y="223.415978" style="fill: #1f77b4; fill-opacity: 0.5; stroke: #1f77b4; stroke-opacity: 0.5"/>
     <use xlink:href="#m11defc86f2" x="256.937145" y="211.410198" style="fill: #1f77b4; fill-opacity: 0.5; stroke: #1f77b4; stroke-opacity: 0.5"/>
     <use xlink:href="#m11defc86f2" x="259.155365" y="213.906449" style="fill: #1f77b4; fill-opacity: 0.5; stroke: #1f77b4; stroke-opacity: 0.5"/>
     <use xlink:href="#m11defc86f2" x="261.407419" y="210.696984" style="fill: #1f77b4; fill-opacity: 0.5; stroke: #1f77b4; stroke-opacity: 0.5"/>
     <use xlink:href="#m11defc86f2" x="263.644125" y="220.681988" style="fill: #1f77b4; fill-opacity: 0.5; stroke: #1f77b4; stroke-opacity: 0.5"/>
     <use xlink:href="#m11defc86f2" x="265.831961" y="230.666993" style="fill: #1f77b4; fill-opacity: 0.5; stroke: #1f77b4; stroke-opacity: 0.5"/>
     <use xlink:href="#m11defc86f2" x="268.041249" y="229.478302" style="fill: #1f77b4; fill-opacity: 0.5; stroke: #1f77b4; stroke-opacity: 0.5"/>
     <use xlink:href="#m11defc86f2" x="270.268474" y="231.974553" style="fill: #1f77b4; fill-opacity: 0.5; stroke: #1f77b4; stroke-opacity: 0.5"/>
     <use xlink:href="#m11defc86f2" x="272.512429" y="242.791642" style="fill: #1f77b4; fill-opacity: 0.5; stroke: #1f77b4; stroke-opacity: 0.5"/>
     <use xlink:href="#m11defc86f2" x="274.740832" y="232.331161" style="fill: #1f77b4; fill-opacity: 0.5; stroke: #1f77b4; stroke-opacity: 0.5"/>
     <use xlink:href="#m11defc86f2" x="276.959459" y="232.568899" style="fill: #1f77b4; fill-opacity: 0.5; stroke: #1f77b4; stroke-opacity: 0.5"/>
     <use xlink:href="#m11defc86f2" x="279.163794" y="233.638721" style="fill: #1f77b4; fill-opacity: 0.5; stroke: #1f77b4; stroke-opacity: 0.5"/>
     <use xlink:href="#m11defc86f2" x="281.412994" y="222.702763" style="fill: #1f77b4; fill-opacity: 0.5; stroke: #1f77b4; stroke-opacity: 0.5"/>
     <use xlink:href="#m11defc86f2" x="283.596729" y="234.946281" style="fill: #1f77b4; fill-opacity: 0.5; stroke: #1f77b4; stroke-opacity: 0.5"/>
     <use xlink:href="#m11defc86f2" x="285.841784" y="234.470805" style="fill: #1f77b4; fill-opacity: 0.5; stroke: #1f77b4; stroke-opacity: 0.5"/>
     <use xlink:href="#m11defc86f2" x="288.073136" y="242.910511" style="fill: #1f77b4; fill-opacity: 0.5; stroke: #1f77b4; stroke-opacity: 0.5"/>
     <use xlink:href="#m11defc86f2" x="290.877241" y="253.7276" style="fill: #1f77b4; fill-opacity: 0.5; stroke: #1f77b4; stroke-opacity: 0.5"/>
     <use xlink:href="#m11defc86f2" x="293.451317" y="241.840689" style="fill: #1f77b4; fill-opacity: 0.5; stroke: #1f77b4; stroke-opacity: 0.5"/>
     <use xlink:href="#m11defc86f2" x="295.151117" y="253.014385" style="fill: #1f77b4; fill-opacity: 0.5; stroke: #1f77b4; stroke-opacity: 0.5"/>
     <use xlink:href="#m11defc86f2" x="297.07774" y="241.602951" style="fill: #1f77b4; fill-opacity: 0.5; stroke: #1f77b4; stroke-opacity: 0.5"/>
     <use xlink:href="#m11defc86f2" x="299.198674" y="242.197296" style="fill: #1f77b4; fill-opacity: 0.5; stroke: #1f77b4; stroke-opacity: 0.5"/>
     <use xlink:href="#m11defc86f2" x="301.400242" y="242.197296" style="fill: #1f77b4; fill-opacity: 0.5; stroke: #1f77b4; stroke-opacity: 0.5"/>
     <use xlink:href="#m11defc86f2" x="303.691232" y="232.212292" style="fill: #1f77b4; fill-opacity: 0.5; stroke: #1f77b4; stroke-opacity: 0.5"/>
     <use xlink:href="#m11defc86f2" x="305.855175" y="241.72182" style="fill: #1f77b4; fill-opacity: 0.5; stroke: #1f77b4; stroke-opacity: 0.5"/>
     <use xlink:href="#m11defc86f2" x="308.151075" y="236.253841" style="fill: #1f77b4; fill-opacity: 0.5; stroke: #1f77b4; stroke-opacity: 0.5"/>
     <use xlink:href="#m11defc86f2" x="310.31297" y="247.308668" style="fill: #1f77b4; fill-opacity: 0.5; stroke: #1f77b4; stroke-opacity: 0.5"/>
     <use xlink:href="#m11defc86f2" x="312.522515" y="245.169024" style="fill: #1f77b4; fill-opacity: 0.5; stroke: #1f77b4; stroke-opacity: 0.5"/>
     <use xlink:href="#m11defc86f2" x="314.78413" y="247.665275" style="fill: #1f77b4; fill-opacity: 0.5; stroke: #1f77b4; stroke-opacity: 0.5"/>
     <use xlink:href="#m11defc86f2" x="317.069867" y="240.295391" style="fill: #1f77b4; fill-opacity: 0.5; stroke: #1f77b4; stroke-opacity: 0.5"/>
     <use xlink:href="#m11defc86f2" x="319.190979" y="240.295391" style="fill: #1f77b4; fill-opacity: 0.5; stroke: #1f77b4; stroke-opacity: 0.5"/>
     <use xlink:href="#m11defc86f2" x="321.436613" y="252.30117" style="fill: #1f77b4; fill-opacity: 0.5; stroke: #1f77b4; stroke-opacity: 0.5"/>
     <use xlink:href="#m11defc86f2" x="323.640269" y="242.197296" style="fill: #1f77b4; fill-opacity: 0.5; stroke: #1f77b4; stroke-opacity: 0.5"/>
     <use xlink:href="#m11defc86f2" x="325.883019" y="243.148249" style="fill: #1f77b4; fill-opacity: 0.5; stroke: #1f77b4; stroke-opacity: 0.5"/>
     <use xlink:href="#m11defc86f2" x="328.140332" y="243.861464" style="fill: #1f77b4; fill-opacity: 0.5; stroke: #1f77b4; stroke-opacity: 0.5"/>
     <use xlink:href="#m11defc86f2" x="330.324475" y="244.574679" style="fill: #1f77b4; fill-opacity: 0.5; stroke: #1f77b4; stroke-opacity: 0.5"/>
     <use xlink:href="#m11defc86f2" x="332.50414" y="244.693548" style="fill: #1f77b4; fill-opacity: 0.5; stroke: #1f77b4; stroke-opacity: 0.5"/>
     <use xlink:href="#m11defc86f2" x="334.77118" y="254.678553" style="fill: #1f77b4; fill-opacity: 0.5; stroke: #1f77b4; stroke-opacity: 0.5"/>
     <use xlink:href="#m11defc86f2" x="336.977039" y="251.469087" style="fill: #1f77b4; fill-opacity: 0.5; stroke: #1f77b4; stroke-opacity: 0.5"/>
     <use xlink:href="#m11defc86f2" x="339.188939" y="239.701045" style="fill: #1f77b4; fill-opacity: 0.5; stroke: #1f77b4; stroke-opacity: 0.5"/>
     <use xlink:href="#m11defc86f2" x="341.451787" y="250.99361" style="fill: #1f77b4; fill-opacity: 0.5; stroke: #1f77b4; stroke-opacity: 0.5"/>
     <use xlink:href="#m11defc86f2" x="344.130221" y="240.41426" style="fill: #1f77b4; fill-opacity: 0.5; stroke: #1f77b4; stroke-opacity: 0.5"/>
     <use xlink:href="#m11defc86f2" x="346.724475" y="243.980333" style="fill: #1f77b4; fill-opacity: 0.5; stroke: #1f77b4; stroke-opacity: 0.5"/>
     <use xlink:href="#m11defc86f2" x="348.357347" y="241.959558" style="fill: #1f77b4; fill-opacity: 0.5; stroke: #1f77b4; stroke-opacity: 0.5"/>
     <use xlink:href="#m11defc86f2" x="350.322947" y="240.770867" style="fill: #1f77b4; fill-opacity: 0.5; stroke: #1f77b4; stroke-opacity: 0.5"/>
     <use xlink:href="#m11defc86f2" x="352.547726" y="241.127475" style="fill: #1f77b4; fill-opacity: 0.5; stroke: #1f77b4; stroke-opacity: 0.5"/>
     <use xlink:href="#m11defc86f2" x="354.757994" y="229.597171" style="fill: #1f77b4; fill-opacity: 0.5; stroke: #1f77b4; stroke-opacity: 0.5"/>
     <use xlink:href="#m11defc86f2" x="357.018572" y="243.148249" style="fill: #1f77b4; fill-opacity: 0.5; stroke: #1f77b4; stroke-opacity: 0.5"/>
     <use xlink:href="#m11defc86f2" x="359.205798" y="230.666993" style="fill: #1f77b4; fill-opacity: 0.5; stroke: #1f77b4; stroke-opacity: 0.5"/>
     <use xlink:href="#m11defc86f2" x="361.460428" y="230.429255" style="fill: #1f77b4; fill-opacity: 0.5; stroke: #1f77b4; stroke-opacity: 0.5"/>
     <use xlink:href="#m11defc86f2" x="363.672162" y="241.602951" style="fill: #1f77b4; fill-opacity: 0.5; stroke: #1f77b4; stroke-opacity: 0.5"/>
     <use xlink:href="#m11defc86f2" x="366.057317" y="230.785862" style="fill: #1f77b4; fill-opacity: 0.5; stroke: #1f77b4; stroke-opacity: 0.5"/>
     <use xlink:href="#m11defc86f2" x="368.149268" y="244.099202" style="fill: #1f77b4; fill-opacity: 0.5; stroke: #1f77b4; stroke-opacity: 0.5"/>
     <use xlink:href="#m11defc86f2" x="370.42425" y="256.104982" style="fill: #1f77b4; fill-opacity: 0.5; stroke: #1f77b4; stroke-opacity: 0.5"/>
     <use xlink:href="#m11defc86f2" x="372.605939" y="245.406762" style="fill: #1f77b4; fill-opacity: 0.5; stroke: #1f77b4; stroke-opacity: 0.5"/>
     <use xlink:href="#m11defc86f2" x="374.775403" y="250.280396" style="fill: #1f77b4; fill-opacity: 0.5; stroke: #1f77b4; stroke-opacity: 0.5"/>
     <use xlink:href="#m11defc86f2" x="379.436872" y="230.072648" style="fill: #1f77b4; fill-opacity: 0.5; stroke: #1f77b4; stroke-opacity: 0.5"/>
     <use xlink:href="#m11defc86f2" x="381.429503" y="210.102638" style="fill: #1f77b4; fill-opacity: 0.5; stroke: #1f77b4; stroke-opacity: 0.5"/>
     <use xlink:href="#m11defc86f2" x="382.387156" y="198.810073" style="fill: #1f77b4; fill-opacity: 0.5; stroke: #1f77b4; stroke-opacity: 0.5"/>
     <use xlink:href="#m11defc86f2" x="385.807324" y="184.308042" style="fill: #1f77b4; fill-opacity: 0.5; stroke: #1f77b4; stroke-opacity: 0.5"/>
     <use xlink:href="#m11defc86f2" x="388.529377" y="185.734471" style="fill: #1f77b4; fill-opacity: 0.5; stroke: #1f77b4; stroke-opacity: 0.5"/>
     <use xlink:href="#m11defc86f2" x="390.353731" y="184.426911" style="fill: #1f77b4; fill-opacity: 0.5; stroke: #1f77b4; stroke-opacity: 0.5"/>
     <use xlink:href="#m11defc86f2" x="392.576793" y="185.734471" style="fill: #1f77b4; fill-opacity: 0.5; stroke: #1f77b4; stroke-opacity: 0.5"/>
     <use xlink:href="#m11defc86f2" x="394.811316" y="187.27977" style="fill: #1f77b4; fill-opacity: 0.5; stroke: #1f77b4; stroke-opacity: 0.5"/>
     <use xlink:href="#m11defc86f2" x="397.519279" y="193.698702" style="fill: #1f77b4; fill-opacity: 0.5; stroke: #1f77b4; stroke-opacity: 0.5"/>
     <use xlink:href="#m11defc86f2" x="399.985732" y="214.381926" style="fill: #1f77b4; fill-opacity: 0.5; stroke: #1f77b4; stroke-opacity: 0.5"/>
     <use xlink:href="#m11defc86f2" x="401.688637" y="227.695266" style="fill: #1f77b4; fill-opacity: 0.5; stroke: #1f77b4; stroke-opacity: 0.5"/>
     <use xlink:href="#m11defc86f2" x="403.721292" y="234.708543" style="fill: #1f77b4; fill-opacity: 0.5; stroke: #1f77b4; stroke-opacity: 0.5"/>
     <use xlink:href="#m11defc86f2" x="405.941973" y="238.036878" style="fill: #1f77b4; fill-opacity: 0.5; stroke: #1f77b4; stroke-opacity: 0.5"/>
     <use xlink:href="#m11defc86f2" x="408.13523" y="226.744313" style="fill: #1f77b4; fill-opacity: 0.5; stroke: #1f77b4; stroke-opacity: 0.5"/>
     <use xlink:href="#m11defc86f2" x="410.370494" y="233.044375" style="fill: #1f77b4; fill-opacity: 0.5; stroke: #1f77b4; stroke-opacity: 0.5"/>
     <use xlink:href="#m11defc86f2" x="412.600701" y="232.568899" style="fill: #1f77b4; fill-opacity: 0.5; stroke: #1f77b4; stroke-opacity: 0.5"/>
     <use xlink:href="#m11defc86f2" x="414.853449" y="242.791642" style="fill: #1f77b4; fill-opacity: 0.5; stroke: #1f77b4; stroke-opacity: 0.5"/>
     <use xlink:href="#m11defc86f2" x="417.09357" y="252.30117" style="fill: #1f77b4; fill-opacity: 0.5; stroke: #1f77b4; stroke-opacity: 0.5"/>
     <use xlink:href="#m11defc86f2" x="419.265549" y="242.078427" style="fill: #1f77b4; fill-opacity: 0.5; stroke: #1f77b4; stroke-opacity: 0.5"/>
     <use xlink:href="#m11defc86f2" x="421.556221" y="244.218071" style="fill: #1f77b4; fill-opacity: 0.5; stroke: #1f77b4; stroke-opacity: 0.5"/>
     <use xlink:href="#m11defc86f2" x="423.841932" y="243.742595" style="fill: #1f77b4; fill-opacity: 0.5; stroke: #1f77b4; stroke-opacity: 0.5"/>
     <use xlink:href="#m11defc86f2" x="426.020775" y="229.953779" style="fill: #1f77b4; fill-opacity: 0.5; stroke: #1f77b4; stroke-opacity: 0.5"/>
     <use xlink:href="#m11defc86f2" x="430.436937" y="240.651998" style="fill: #1f77b4; fill-opacity: 0.5; stroke: #1f77b4; stroke-opacity: 0.5"/>
     <use xlink:href="#m11defc86f2" x="432.617546" y="247.784144" style="fill: #1f77b4; fill-opacity: 0.5; stroke: #1f77b4; stroke-opacity: 0.5"/>
     <use xlink:href="#m11defc86f2" x="434.812178" y="247.665275" style="fill: #1f77b4; fill-opacity: 0.5; stroke: #1f77b4; stroke-opacity: 0.5"/>
     <use xlink:href="#m11defc86f2" x="437.041727" y="263.355997" style="fill: #1f77b4; fill-opacity: 0.5; stroke: #1f77b4; stroke-opacity: 0.5"/>
     <use xlink:href="#m11defc86f2" x="439.268583" y="249.804919" style="fill: #1f77b4; fill-opacity: 0.5; stroke: #1f77b4; stroke-opacity: 0.5"/>
     <use xlink:href="#m11defc86f2" x="441.524951" y="252.657778" style="fill: #1f77b4; fill-opacity: 0.5; stroke: #1f77b4; stroke-opacity: 0.5"/>
     <use xlink:href="#m11defc86f2" x="443.733955" y="253.014385" style="fill: #1f77b4; fill-opacity: 0.5; stroke: #1f77b4; stroke-opacity: 0.5"/>
     <use xlink:href="#m11defc86f2" x="445.941927" y="239.344438" style="fill: #1f77b4; fill-opacity: 0.5; stroke: #1f77b4; stroke-opacity: 0.5"/>
     <use xlink:href="#m11defc86f2" x="448.296854" y="242.316166" style="fill: #1f77b4; fill-opacity: 0.5; stroke: #1f77b4; stroke-opacity: 0.5"/>
     <use xlink:href="#m11defc86f2" x="451.210754" y="233.163244" style="fill: #1f77b4; fill-opacity: 0.5; stroke: #1f77b4; stroke-opacity: 0.5"/>
     <use xlink:href="#m11defc86f2" x="453.377433" y="221.395203" style="fill: #1f77b4; fill-opacity: 0.5; stroke: #1f77b4; stroke-opacity: 0.5"/>
     <use xlink:href="#m11defc86f2" x="455.07263" y="214.263057" style="fill: #1f77b4; fill-opacity: 0.5; stroke: #1f77b4; stroke-opacity: 0.5"/>
     <use xlink:href="#m11defc86f2" x="457.090566" y="215.09514" style="fill: #1f77b4; fill-opacity: 0.5; stroke: #1f77b4; stroke-opacity: 0.5"/>
     <use xlink:href="#m11defc86f2" x="459.275479" y="221.989549" style="fill: #1f77b4; fill-opacity: 0.5; stroke: #1f77b4; stroke-opacity: 0.5"/>
     <use xlink:href="#m11defc86f2" x="461.485608" y="233.163244" style="fill: #1f77b4; fill-opacity: 0.5; stroke: #1f77b4; stroke-opacity: 0.5"/>
     <use xlink:href="#m11defc86f2" x="463.731998" y="254.440814" style="fill: #1f77b4; fill-opacity: 0.5; stroke: #1f77b4; stroke-opacity: 0.5"/>
     <use xlink:href="#m11defc86f2" x="465.940087" y="252.42004" style="fill: #1f77b4; fill-opacity: 0.5; stroke: #1f77b4; stroke-opacity: 0.5"/>
     <use xlink:href="#m11defc86f2" x="468.222455" y="254.678553" style="fill: #1f77b4; fill-opacity: 0.5; stroke: #1f77b4; stroke-opacity: 0.5"/>
     <use xlink:href="#m11defc86f2" x="470.406584" y="251.350218" style="fill: #1f77b4; fill-opacity: 0.5; stroke: #1f77b4; stroke-opacity: 0.5"/>
     <use xlink:href="#m11defc86f2" x="472.661491" y="238.868962" style="fill: #1f77b4; fill-opacity: 0.5; stroke: #1f77b4; stroke-opacity: 0.5"/>
     <use xlink:href="#m11defc86f2" x="474.821157" y="249.68605" style="fill: #1f77b4; fill-opacity: 0.5; stroke: #1f77b4; stroke-opacity: 0.5"/>
     <use xlink:href="#m11defc86f2" x="477.149295" y="237.68027" style="fill: #1f77b4; fill-opacity: 0.5; stroke: #1f77b4; stroke-opacity: 0.5"/>
     <use xlink:href="#m11defc86f2" x="479.283995" y="240.889736" style="fill: #1f77b4; fill-opacity: 0.5; stroke: #1f77b4; stroke-opacity: 0.5"/>
     <use xlink:href="#m11defc86f2" x="481.540627" y="239.701045" style="fill: #1f77b4; fill-opacity: 0.5; stroke: #1f77b4; stroke-opacity: 0.5"/>
     <use xlink:href="#m11defc86f2" x="483.741585" y="241.127475" style="fill: #1f77b4; fill-opacity: 0.5; stroke: #1f77b4; stroke-opacity: 0.5"/>
     <use xlink:href="#m11defc86f2" x="485.971845" y="251.469087" style="fill: #1f77b4; fill-opacity: 0.5; stroke: #1f77b4; stroke-opacity: 0.5"/>
     <use xlink:href="#m11defc86f2" x="488.241031" y="238.868962" style="fill: #1f77b4; fill-opacity: 0.5; stroke: #1f77b4; stroke-opacity: 0.5"/>
     <use xlink:href="#m11defc86f2" x="490.443392" y="239.938783" style="fill: #1f77b4; fill-opacity: 0.5; stroke: #1f77b4; stroke-opacity: 0.5"/>
     <use xlink:href="#m11defc86f2" x="492.634701" y="240.057653" style="fill: #1f77b4; fill-opacity: 0.5; stroke: #1f77b4; stroke-opacity: 0.5"/>
     <use xlink:href="#m11defc86f2" x="494.838067" y="226.625444" style="fill: #1f77b4; fill-opacity: 0.5; stroke: #1f77b4; stroke-opacity: 0.5"/>
     <use xlink:href="#m11defc86f2" x="497.07326" y="227.695266" style="fill: #1f77b4; fill-opacity: 0.5; stroke: #1f77b4; stroke-opacity: 0.5"/>
     <use xlink:href="#m11defc86f2" x="499.263749" y="240.651998" style="fill: #1f77b4; fill-opacity: 0.5; stroke: #1f77b4; stroke-opacity: 0.5"/>
     <use xlink:href="#m11defc86f2" x="501.497275" y="231.736815" style="fill: #1f77b4; fill-opacity: 0.5; stroke: #1f77b4; stroke-opacity: 0.5"/>
     <use xlink:href="#m11defc86f2" x="504.218744" y="243.02938" style="fill: #1f77b4; fill-opacity: 0.5; stroke: #1f77b4; stroke-opacity: 0.5"/>
     <use xlink:href="#m11defc86f2" x="506.724086" y="242.791642" style="fill: #1f77b4; fill-opacity: 0.5; stroke: #1f77b4; stroke-opacity: 0.5"/>
     <use xlink:href="#m11defc86f2" x="508.39381" y="231.617946" style="fill: #1f77b4; fill-opacity: 0.5; stroke: #1f77b4; stroke-opacity: 0.5"/>
     <use xlink:href="#m11defc86f2" x="510.408068" y="238.631223" style="fill: #1f77b4; fill-opacity: 0.5; stroke: #1f77b4; stroke-opacity: 0.5"/>
     <use xlink:href="#m11defc86f2" x="512.661149" y="241.959558" style="fill: #1f77b4; fill-opacity: 0.5; stroke: #1f77b4; stroke-opacity: 0.5"/>
     <use xlink:href="#m11defc86f2" x="514.853025" y="243.980333" style="fill: #1f77b4; fill-opacity: 0.5; stroke: #1f77b4; stroke-opacity: 0.5"/>
     <use xlink:href="#m11defc86f2" x="517.102038" y="242.197296" style="fill: #1f77b4; fill-opacity: 0.5; stroke: #1f77b4; stroke-opacity: 0.5"/>
     <use xlink:href="#m11defc86f2" x="519.310025" y="231.617946" style="fill: #1f77b4; fill-opacity: 0.5; stroke: #1f77b4; stroke-opacity: 0.5"/>
     <use xlink:href="#m11defc86f2" x="521.534773" y="231.023601" style="fill: #1f77b4; fill-opacity: 0.5; stroke: #1f77b4; stroke-opacity: 0.5"/>
     <use xlink:href="#m11defc86f2" x="523.7596" y="226.387705" style="fill: #1f77b4; fill-opacity: 0.5; stroke: #1f77b4; stroke-opacity: 0.5"/>
     <use xlink:href="#m11defc86f2" x="525.997679" y="228.40848" style="fill: #1f77b4; fill-opacity: 0.5; stroke: #1f77b4; stroke-opacity: 0.5"/>
     <use xlink:href="#m11defc86f2" x="528.167887" y="229.71604" style="fill: #1f77b4; fill-opacity: 0.5; stroke: #1f77b4; stroke-opacity: 0.5"/>
     <use xlink:href="#m11defc86f2" x="530.506625" y="231.499077" style="fill: #1f77b4; fill-opacity: 0.5; stroke: #1f77b4; stroke-opacity: 0.5"/>
     <use xlink:href="#m11defc86f2" x="532.651607" y="246.001108" style="fill: #1f77b4; fill-opacity: 0.5; stroke: #1f77b4; stroke-opacity: 0.5"/>
     <use xlink:href="#m11defc86f2" x="537.098118" y="246.238846" style="fill: #1f77b4; fill-opacity: 0.5; stroke: #1f77b4; stroke-opacity: 0.5"/>
     <use xlink:href="#m11defc86f2" x="539.345384" y="246.952061" style="fill: #1f77b4; fill-opacity: 0.5; stroke: #1f77b4; stroke-opacity: 0.5"/>
     <use xlink:href="#m11defc86f2" x="541.541619" y="233.044375" style="fill: #1f77b4; fill-opacity: 0.5; stroke: #1f77b4; stroke-opacity: 0.5"/>
     <use xlink:href="#m11defc86f2" x="543.848047" y="220.681988" style="fill: #1f77b4; fill-opacity: 0.5; stroke: #1f77b4; stroke-opacity: 0.5"/>
     <use xlink:href="#m11defc86f2" x="546.017596" y="219.731036" style="fill: #1f77b4; fill-opacity: 0.5; stroke: #1f77b4; stroke-opacity: 0.5"/>
     <use xlink:href="#m11defc86f2" x="548.232351" y="229.597171" style="fill: #1f77b4; fill-opacity: 0.5; stroke: #1f77b4; stroke-opacity: 0.5"/>
     <use xlink:href="#m11defc86f2" x="550.429095" y="241.365213" style="fill: #1f77b4; fill-opacity: 0.5; stroke: #1f77b4; stroke-opacity: 0.5"/>
     <use xlink:href="#m11defc86f2" x="552.637432" y="254.559683" style="fill: #1f77b4; fill-opacity: 0.5; stroke: #1f77b4; stroke-opacity: 0.5"/>
     <use xlink:href="#m11defc86f2" x="554.887518" y="264.901296" style="fill: #1f77b4; fill-opacity: 0.5; stroke: #1f77b4; stroke-opacity: 0.5"/>
     <use xlink:href="#m11defc86f2" x="557.551419" y="252.657778" style="fill: #1f77b4; fill-opacity: 0.5; stroke: #1f77b4; stroke-opacity: 0.5"/>
     <use xlink:href="#m11defc86f2" x="560.058918" y="252.657778" style="fill: #1f77b4; fill-opacity: 0.5; stroke: #1f77b4; stroke-opacity: 0.5"/>
     <use xlink:href="#m11defc86f2" x="561.704728" y="238.987831" style="fill: #1f77b4; fill-opacity: 0.5; stroke: #1f77b4; stroke-opacity: 0.5"/>
     <use xlink:href="#m11defc86f2" x="563.764639" y="235.897234" style="fill: #1f77b4; fill-opacity: 0.5; stroke: #1f77b4; stroke-opacity: 0.5"/>
     <use xlink:href="#m11defc86f2" x="566.020937" y="247.903014" style="fill: #1f77b4; fill-opacity: 0.5; stroke: #1f77b4; stroke-opacity: 0.5"/>
     <use xlink:href="#m11defc86f2" x="568.229069" y="244.218071" style="fill: #1f77b4; fill-opacity: 0.5; stroke: #1f77b4; stroke-opacity: 0.5"/>
     <use xlink:href="#m11defc86f2" x="570.433514" y="257.888018" style="fill: #1f77b4; fill-opacity: 0.5; stroke: #1f77b4; stroke-opacity: 0.5"/>
     <use xlink:href="#m11defc86f2" x="572.654432" y="247.07093" style="fill: #1f77b4; fill-opacity: 0.5; stroke: #1f77b4; stroke-opacity: 0.5"/>
     <use xlink:href="#m11defc86f2" x="574.888842" y="245.050155" style="fill: #1f77b4; fill-opacity: 0.5; stroke: #1f77b4; stroke-opacity: 0.5"/>
     <use xlink:href="#m11defc86f2" x="577.123343" y="249.68605" style="fill: #1f77b4; fill-opacity: 0.5; stroke: #1f77b4; stroke-opacity: 0.5"/>
     <use xlink:href="#m11defc86f2" x="579.341755" y="229.83491" style="fill: #1f77b4; fill-opacity: 0.5; stroke: #1f77b4; stroke-opacity: 0.5"/>
     <use xlink:href="#m11defc86f2" x="581.52318" y="232.687768" style="fill: #1f77b4; fill-opacity: 0.5; stroke: #1f77b4; stroke-opacity: 0.5"/>
     <use xlink:href="#m11defc86f2" x="583.820522" y="222.821632" style="fill: #1f77b4; fill-opacity: 0.5; stroke: #1f77b4; stroke-opacity: 0.5"/>
     <use xlink:href="#m11defc86f2" x="585.982569" y="220.206512" style="fill: #1f77b4; fill-opacity: 0.5; stroke: #1f77b4; stroke-opacity: 0.5"/>
     <use xlink:href="#m11defc86f2" x="588.211392" y="239.344438" style="fill: #1f77b4; fill-opacity: 0.5; stroke: #1f77b4; stroke-opacity: 0.5"/>
     <use xlink:href="#m11defc86f2" x="590.428202" y="239.582176" style="fill: #1f77b4; fill-opacity: 0.5; stroke: #1f77b4; stroke-opacity: 0.5"/>
     <use xlink:href="#m11defc86f2" x="592.666213" y="239.701045" style="fill: #1f77b4; fill-opacity: 0.5; stroke: #1f77b4; stroke-opacity: 0.5"/>
     <use xlink:href="#m11defc86f2" x="594.901804" y="243.148249" style="fill: #1f77b4; fill-opacity: 0.5; stroke: #1f77b4; stroke-opacity: 0.5"/>
     <use xlink:href="#m11defc86f2" x="597.115463" y="228.646218" style="fill: #1f77b4; fill-opacity: 0.5; stroke: #1f77b4; stroke-opacity: 0.5"/>
     <use xlink:href="#m11defc86f2" x="599.315593" y="229.597171" style="fill: #1f77b4; fill-opacity: 0.5; stroke: #1f77b4; stroke-opacity: 0.5"/>
     <use xlink:href="#m11defc86f2" x="601.557925" y="238.274616" style="fill: #1f77b4; fill-opacity: 0.5; stroke: #1f77b4; stroke-opacity: 0.5"/>
     <use xlink:href="#m11defc86f2" x="603.807849" y="228.527349" style="fill: #1f77b4; fill-opacity: 0.5; stroke: #1f77b4; stroke-opacity: 0.5"/>
     <use xlink:href="#m11defc86f2" x="605.998054" y="242.435035" style="fill: #1f77b4; fill-opacity: 0.5; stroke: #1f77b4; stroke-opacity: 0.5"/>
     <use xlink:href="#m11defc86f2" x="608.302892" y="240.41426" style="fill: #1f77b4; fill-opacity: 0.5; stroke: #1f77b4; stroke-opacity: 0.5"/>
     <use xlink:href="#m11defc86f2" x="611.114348" y="230.548124" style="fill: #1f77b4; fill-opacity: 0.5; stroke: #1f77b4; stroke-opacity: 0.5"/>
     <use xlink:href="#m11defc86f2" x="613.583002" y="236.848187" style="fill: #1f77b4; fill-opacity: 0.5; stroke: #1f77b4; stroke-opacity: 0.5"/>
     <use xlink:href="#m11defc86f2" x="615.170516" y="236.848187" style="fill: #1f77b4; fill-opacity: 0.5; stroke: #1f77b4; stroke-opacity: 0.5"/>
     <use xlink:href="#m11defc86f2" x="617.128971" y="249.68605" style="fill: #1f77b4; fill-opacity: 0.5; stroke: #1f77b4; stroke-opacity: 0.5"/>
     <use xlink:href="#m11defc86f2" x="619.413069" y="263.237128" style="fill: #1f77b4; fill-opacity: 0.5; stroke: #1f77b4; stroke-opacity: 0.5"/>
     <use xlink:href="#m11defc86f2" x="621.589833" y="255.510636" style="fill: #1f77b4; fill-opacity: 0.5; stroke: #1f77b4; stroke-opacity: 0.5"/>
     <use xlink:href="#m11defc86f2" x="623.828299" y="245.169024" style="fill: #1f77b4; fill-opacity: 0.5; stroke: #1f77b4; stroke-opacity: 0.5"/>
     <use xlink:href="#m11defc86f2" x="626.03564" y="231.974553" style="fill: #1f77b4; fill-opacity: 0.5; stroke: #1f77b4; stroke-opacity: 0.5"/>
     <use xlink:href="#m11defc86f2" x="628.328336" y="226.982051" style="fill: #1f77b4; fill-opacity: 0.5; stroke: #1f77b4; stroke-opacity: 0.5"/>
     <use xlink:href="#m11defc86f2" x="630.499597" y="238.036878" style="fill: #1f77b4; fill-opacity: 0.5; stroke: #1f77b4; stroke-opacity: 0.5"/>
     <use xlink:href="#m11defc86f2" x="632.684328" y="246.833192" style="fill: #1f77b4; fill-opacity: 0.5; stroke: #1f77b4; stroke-opacity: 0.5"/>
     <use xlink:href="#m11defc86f2" x="634.899985" y="256.461589" style="fill: #1f77b4; fill-opacity: 0.5; stroke: #1f77b4; stroke-opacity: 0.5"/>
     <use xlink:href="#m11defc86f2" x="637.154956" y="242.791642" style="fill: #1f77b4; fill-opacity: 0.5; stroke: #1f77b4; stroke-opacity: 0.5"/>
     <use xlink:href="#m11defc86f2" x="639.356781" y="243.148249" style="fill: #1f77b4; fill-opacity: 0.5; stroke: #1f77b4; stroke-opacity: 0.5"/>
     <use xlink:href="#m11defc86f2" x="641.628464" y="232.687768" style="fill: #1f77b4; fill-opacity: 0.5; stroke: #1f77b4; stroke-opacity: 0.5"/>
     <use xlink:href="#m11defc86f2" x="643.824655" y="220.563119" style="fill: #1f77b4; fill-opacity: 0.5; stroke: #1f77b4; stroke-opacity: 0.5"/>
     <use xlink:href="#m11defc86f2" x="646.037327" y="236.729318" style="fill: #1f77b4; fill-opacity: 0.5; stroke: #1f77b4; stroke-opacity: 0.5"/>
     <use xlink:href="#m11defc86f2" x="648.270944" y="236.848187" style="fill: #1f77b4; fill-opacity: 0.5; stroke: #1f77b4; stroke-opacity: 0.5"/>
     <use xlink:href="#m11defc86f2" x="650.455455" y="249.923788" style="fill: #1f77b4; fill-opacity: 0.5; stroke: #1f77b4; stroke-opacity: 0.5"/>
     <use xlink:href="#m11defc86f2" x="652.686688" y="254.440814" style="fill: #1f77b4; fill-opacity: 0.5; stroke: #1f77b4; stroke-opacity: 0.5"/>
     <use xlink:href="#m11defc86f2" x="654.917497" y="255.154029" style="fill: #1f77b4; fill-opacity: 0.5; stroke: #1f77b4; stroke-opacity: 0.5"/>
     <use xlink:href="#m11defc86f2" x="657.121856" y="240.889736" style="fill: #1f77b4; fill-opacity: 0.5; stroke: #1f77b4; stroke-opacity: 0.5"/>
     <use xlink:href="#m11defc86f2" x="659.36352" y="237.204794" style="fill: #1f77b4; fill-opacity: 0.5; stroke: #1f77b4; stroke-opacity: 0.5"/>
     <use xlink:href="#m11defc86f2" x="661.642073" y="247.903014" style="fill: #1f77b4; fill-opacity: 0.5; stroke: #1f77b4; stroke-opacity: 0.5"/>
     <use xlink:href="#m11defc86f2" x="664.321168" y="237.204794" style="fill: #1f77b4; fill-opacity: 0.5; stroke: #1f77b4; stroke-opacity: 0.5"/>
     <use xlink:href="#m11defc86f2" x="666.844566" y="251.706825" style="fill: #1f77b4; fill-opacity: 0.5; stroke: #1f77b4; stroke-opacity: 0.5"/>
     <use xlink:href="#m11defc86f2" x="668.581519" y="239.701045" style="fill: #1f77b4; fill-opacity: 0.5; stroke: #1f77b4; stroke-opacity: 0.5"/>
     <use xlink:href="#m11defc86f2" x="670.532819" y="228.883957" style="fill: #1f77b4; fill-opacity: 0.5; stroke: #1f77b4; stroke-opacity: 0.5"/>
     <use xlink:href="#m11defc86f2" x="672.723263" y="237.918009" style="fill: #1f77b4; fill-opacity: 0.5; stroke: #1f77b4; stroke-opacity: 0.5"/>
     <use xlink:href="#m11defc86f2" x="674.940131" y="231.380208" style="fill: #1f77b4; fill-opacity: 0.5; stroke: #1f77b4; stroke-opacity: 0.5"/>
     <use xlink:href="#m11defc86f2" x="677.205469" y="244.218071" style="fill: #1f77b4; fill-opacity: 0.5; stroke: #1f77b4; stroke-opacity: 0.5"/>
     <use xlink:href="#m11defc86f2" x="679.406818" y="240.176522" style="fill: #1f77b4; fill-opacity: 0.5; stroke: #1f77b4; stroke-opacity: 0.5"/>
    </g>
   </g>
   <g id="line2d_26">
    <path d="M 134.843246 240.216145 
L 136.878721 239.701045 
L 139.138371 239.621799 
L 141.337961 238.413297 
L 145.777835 237.28404 
L 148.013437 237.046302 
L 150.243223 236.669883 
L 152.457769 236.432145 
L 154.759797 236.055726 
L 156.970494 234.173632 
L 159.112276 236.016103 
L 161.336036 235.283077 
L 163.598721 237.442532 
L 165.880572 237.54159 
L 174.68261 236.788752 
L 184.016125 236.88781 
L 186.490514 235.342511 
L 188.119605 233.50004 
L 190.255117 234.41137 
L 192.504874 232.885883 
L 194.717048 233.024564 
L 196.90864 234.332124 
L 199.166691 233.638721 
L 201.392535 234.728354 
L 203.570824 233.36136 
L 205.808387 233.638721 
L 208.023488 233.202868 
L 210.278852 232.014176 
L 212.510995 232.489653 
L 214.680577 230.785862 
L 216.905575 232.053799 
L 219.155673 231.93493 
L 221.357567 233.797213 
L 223.628405 233.876459 
L 225.802219 232.251915 
L 228.021541 233.083998 
L 230.259386 232.826449 
L 232.527239 232.70758 
L 234.714872 235.164208 
L 237.500855 235.203831 
L 240.053261 234.867035 
L 241.666596 236.134972 
L 243.625733 236.808564 
L 245.853762 239.780291 
L 248.037092 239.918972 
L 250.269119 239.740668 
L 252.48852 240.632187 
L 254.721471 238.017066 
L 256.937145 237.93782 
L 259.155365 238.017066 
L 261.407419 237.700082 
L 265.831961 237.383098 
L 268.041249 237.343475 
L 270.268474 236.471768 
L 272.512429 236.788752 
L 274.740832 234.966093 
L 276.959459 235.084962 
L 279.163794 235.362323 
L 281.412994 233.519852 
L 283.596729 233.876459 
L 285.841784 232.172669 
L 288.073136 231.915119 
L 290.877241 233.797213 
L 293.451317 233.995328 
L 295.151117 234.550051 
L 297.07774 234.034951 
L 299.198674 234.252878 
L 301.400242 232.232103 
L 303.691232 232.608522 
L 305.855175 233.75759 
L 308.151075 236.392522 
L 310.31297 238.215181 
L 312.522515 237.818951 
L 314.78413 239.918972 
L 317.069867 239.661422 
L 319.190979 239.819914 
L 321.436613 241.622762 
L 323.640269 241.622762 
L 325.883019 239.720857 
L 330.324475 243.623726 
L 332.50414 243.465234 
L 334.77118 245.050155 
L 336.977039 244.495433 
L 339.188939 244.495433 
L 341.451787 244.812417 
L 344.130221 242.831265 
L 346.724475 244.85204 
L 348.357347 242.652961 
L 350.322947 244.673736 
L 352.547726 242.652961 
L 354.757994 242.752019 
L 357.018572 244.475621 
L 359.205798 242.831265 
L 361.460428 241.682197 
L 363.672162 241.801066 
L 368.149268 242.23692 
L 370.42425 244.317129 
L 372.605939 242.652961 
L 374.775403 241.741632 
L 379.436872 240.216145 
L 381.429503 238.809527 
L 382.387156 235.144396 
L 385.807324 231.697192 
L 388.529377 230.389632 
L 390.353731 227.10092 
L 392.576793 224.188627 
L 394.811316 222.960313 
L 397.519279 220.840481 
L 399.985732 222.762198 
L 401.688637 221.474449 
L 403.721292 221.75181 
L 405.941973 220.384816 
L 408.13523 220.365004 
L 410.370494 222.048983 
L 412.600701 219.988585 
L 414.853449 222.40559 
L 417.09357 224.010323 
L 419.265549 222.128229 
L 423.841932 222.346156 
L 426.020775 219.65179 
L 430.436937 221.335769 
L 432.617546 221.811245 
L 434.812178 225.27826 
L 437.041727 228.527349 
L 439.268583 229.83491 
L 443.733955 236.491579 
L 445.941927 237.68027 
L 448.296854 239.265192 
L 451.210754 240.850113 
L 453.377433 241.107663 
L 455.07263 237.660459 
L 457.090566 237.165171 
L 461.485608 240.295391 
L 463.731998 242.276543 
L 465.940087 240.394448 
L 468.222455 242.415223 
L 470.406584 241.72182 
L 472.661491 240.037841 
L 474.821157 241.662386 
L 477.149295 241.32559 
L 479.283995 241.246344 
L 481.540627 241.662386 
L 483.741585 241.741632 
L 485.971845 241.939747 
L 490.443392 237.759517 
L 492.634701 240.117087 
L 494.838067 237.601024 
L 497.07326 235.560438 
L 499.263749 237.977443 
L 501.497275 238.353862 
L 504.218744 239.24538 
L 506.724086 239.126511 
L 508.39381 240.869925 
L 510.408068 242.276543 
L 512.661149 242.573715 
L 514.853025 240.929359 
L 517.102038 238.829338 
L 519.310025 238.809527 
L 521.534773 238.631223 
L 523.7596 236.768941 
L 525.997679 237.085925 
L 528.167887 235.481192 
L 530.506625 237.601024 
L 532.651607 237.620836 
L 537.098118 238.175558 
L 539.345384 236.451956 
L 541.541619 234.530239 
L 543.848047 234.589674 
L 546.017596 234.8076 
L 548.232351 234.708543 
L 550.429095 236.986867 
L 552.637432 239.067077 
L 554.887518 238.84915 
L 557.551419 238.19537 
L 560.058918 238.5916 
L 561.704728 238.433108 
L 563.764639 239.562365 
L 566.020937 239.740668 
L 568.229069 238.968019 
L 570.433514 240.751056 
L 572.654432 240.374637 
L 574.888842 241.97937 
L 577.123343 242.078427 
L 579.341755 241.32559 
L 583.820522 240.830302 
L 585.982569 240.196333 
L 588.211392 240.216145 
L 590.428202 239.978407 
L 592.666213 239.621799 
L 594.901804 241.880312 
L 597.115463 241.543516 
L 599.315593 241.622762 
L 601.557925 241.06804 
L 603.807849 239.740668 
L 605.998054 239.522742 
L 608.302892 237.54159 
L 611.114348 237.383098 
L 613.583002 237.105736 
L 615.170516 239.166134 
L 617.128971 239.839726 
L 619.413069 239.938783 
L 621.589833 238.987831 
L 623.828299 237.046302 
L 626.03564 237.323663 
L 628.328336 236.927433 
L 630.499597 237.046302 
L 632.684328 239.879349 
L 634.899985 241.285967 
L 637.154956 240.255768 
L 639.356781 240.869925 
L 641.628464 238.769904 
L 643.824655 238.116124 
L 646.037327 239.76048 
L 648.270944 239.819914 
L 650.455455 242.316166 
L 652.686688 242.256731 
L 654.917497 242.573715 
L 657.121856 241.880312 
L 659.36352 241.444459 
L 661.642073 243.504857 
L 664.321168 243.68316 
L 666.844566 244.356752 
L 668.581519 241.919935 
L 670.532819 240.037841 
L 672.723263 239.463307 
L 674.940131 240.335014 
L 677.205469 241.761443 
L 679.406818 241.404836 
L 679.406818 241.404836 
" clip-path="url(#p1f76d6c006)" style="fill: none; stroke: #ff7f0e; stroke-width: 1.5; stroke-linecap: square"/>
   </g>
   <g id="line2d_27">
    <path d="M 53.75 38.956666 
L 709.2 38.956666 
" clip-path="url(#p1f76d6c006)" style="fill: none; stroke-dasharray: 5.55,2.4; stroke-dashoffset: 0; stroke: #ff0000; stroke-width: 1.5"/>
   </g>
   <g id="patch_3">
    <path d="M 53.75 277.446653 
L 53.75 27.6 
" style="fill: none; stroke: #000000; stroke-width: 0.8; stroke-linejoin: miter; stroke-linecap: square"/>
   </g>
   <g id="patch_4">
    <path d="M 709.2 277.446653 
L 709.2 27.6 
" style="fill: none; stroke: #000000; stroke-width: 0.8; stroke-linejoin: miter; stroke-linecap: square"/>
   </g>
   <g id="patch_5">
    <path d="M 53.75 277.446653 
L 709.2 277.446653 
" style="fill: none; stroke: #000000; stroke-width: 0.8; stroke-linejoin: miter; stroke-linecap: square"/>
   </g>
   <g id="patch_6">
    <path d="M 53.75 27.6 
L 709.2 27.6 
" style="fill: none; stroke: #000000; stroke-width: 0.8; stroke-linejoin: miter; stroke-linecap: square"/>
   </g>
   <g id="text_15">
    <!-- Response Time Over Time for https://api.bitbucket.org/2.0 (4-Hour and 24-Hour Rolling Averages) -->
    <g transform="translate(40.282969 21.6) scale(0.14 -0.14)">
     <defs>
      <path id="DejaVuSans-4f" d="M 2522 4238 
Q 1834 4238 1429 3725 
Q 1025 3213 1025 2328 
Q 1025 1447 1429 934 
Q 1834 422 2522 422 
Q 3209 422 3611 934 
Q 4013 1447 4013 2328 
Q 4013 3213 3611 3725 
Q 3209 4238 2522 4238 
z
M 2522 4750 
Q 3503 4750 4090 4092 
Q 4678 3434 4678 2328 
Q 4678 1225 4090 567 
Q 3503 -91 2522 -91 
Q 1538 -91 948 565 
Q 359 1222 359 2328 
Q 359 3434 948 4092 
Q 1538 4750 2522 4750 
z
" transform="scale(0.015625)"/>
      <path id="DejaVuSans-76" d="M 191 3500 
L 800 3500 
L 1894 563 
L 2988 3500 
L 3597 3500 
L 2284 0 
L 1503 0 
L 191 3500 
z
" transform="scale(0.015625)"/>
      <path id="DejaVuSans-72" d="M 2631 2963 
Q 2534 3019 2420 3045 
Q 2306 3072 2169 3072 
Q 1681 3072 1420 2755 
Q 1159 2438 1159 1844 
L 1159 0 
L 581 0 
L 581 3500 
L 1159 3500 
L 1159 2956 
Q 1341 3275 1631 3429 
Q 1922 3584 2338 3584 
Q 2397 3584 2469 3576 
Q 2541 3569 2628 3553 
L 2631 2963 
z
" transform="scale(0.015625)"/>
      <path id="DejaVuSans-66" d="M 2375 4863 
L 2375 4384 
L 1825 4384 
Q 1516 4384 1395 4259 
Q 1275 4134 1275 3809 
L 1275 3500 
L 2222 3500 
L 2222 3053 
L 1275 3053 
L 1275 0 
L 697 0 
L 697 3053 
L 147 3053 
L 147 3500 
L 697 3500 
L 697 3744 
Q 697 4328 969 4595 
Q 1241 4863 1831 4863 
L 2375 4863 
z
" transform="scale(0.015625)"/>
      <path id="DejaVuSans-68" d="M 3513 2113 
L 3513 0 
L 2938 0 
L 2938 2094 
Q 2938 2591 2744 2837 
Q 2550 3084 2163 3084 
Q 1697 3084 1428 2787 
Q 1159 2491 1159 1978 
L 1159 0 
L 581 0 
L 581 4863 
L 1159 4863 
L 1159 2956 
Q 1366 3272 1645 3428 
Q 1925 3584 2291 3584 
Q 2894 3584 3203 3211 
Q 3513 2838 3513 2113 
z
" transform="scale(0.015625)"/>
      <path id="DejaVuSans-74" d="M 1172 4494 
L 1172 3500 
L 2356 3500 
L 2356 3053 
L 1172 3053 
L 1172 1153 
Q 1172 725 1289 603 
Q 1406 481 1766 481 
L 2356 481 
L 2356 0 
L 1766 0 
Q 1100 0 847 248 
Q 594 497 594 1153 
L 594 3053 
L 172 3053 
L 172 3500 
L 594 3500 
L 594 4494 
L 1172 4494 
z
" transform="scale(0.015625)"/>
      <path id="DejaVuSans-3a" d="M 750 794 
L 1409 794 
L 1409 0 
L 750 0 
L 750 794 
z
M 750 3309 
L 1409 3309 
L 1409 2516 
L 750 2516 
L 750 3309 
z
" transform="scale(0.015625)"/>
      <path id="DejaVuSans-2f" d="M 1625 4666 
L 2156 4666 
L 531 -594 
L 0 -594 
L 1625 4666 
z
" transform="scale(0.015625)"/>
      <path id="DejaVuSans-61" d="M 2194 1759 
Q 1497 1759 1228 1600 
Q 959 1441 959 1056 
Q 959 750 1161 570 
Q 1363 391 1709 391 
Q 2188 391 2477 730 
Q 2766 1069 2766 1631 
L 2766 1759 
L 2194 1759 
z
M 3341 1997 
L 3341 0 
L 2766 0 
L 2766 531 
Q 2569 213 2275 61 
Q 1981 -91 1556 -91 
Q 1019 -91 701 211 
Q 384 513 384 1019 
Q 384 1609 779 1909 
Q 1175 2209 1959 2209 
L 2766 2209 
L 2766 2266 
Q 2766 2663 2505 2880 
Q 2244 3097 1772 3097 
Q 1472 3097 1187 3025 
Q 903 2953 641 2809 
L 641 3341 
Q 956 3463 1253 3523 
Q 1550 3584 1831 3584 
Q 2591 3584 2966 3190 
Q 3341 2797 3341 1997 
z
" transform="scale(0.015625)"/>
      <path id="DejaVuSans-2e" d="M 684 794 
L 1344 794 
L 1344 0 
L 684 0 
L 684 794 
z
" transform="scale(0.015625)"/>
      <path id="DejaVuSans-62" d="M 3116 1747 
Q 3116 2381 2855 2742 
Q 2594 3103 2138 3103 
Q 1681 3103 1420 2742 
Q 1159 2381 1159 1747 
Q 1159 1113 1420 752 
Q 1681 391 2138 391 
Q 2594 391 2855 752 
Q 3116 1113 3116 1747 
z
M 1159 2969 
Q 1341 3281 1617 3432 
Q 1894 3584 2278 3584 
Q 2916 3584 3314 3078 
Q 3713 2572 3713 1747 
Q 3713 922 3314 415 
Q 2916 -91 2278 -91 
Q 1894 -91 1617 61 
Q 1341 213 1159 525 
L 1159 0 
L 581 0 
L 581 4863 
L 1159 4863 
L 1159 2969 
z
" transform="scale(0.015625)"/>
      <path id="DejaVuSans-75" d="M 544 1381 
L 544 3500 
L 1119 3500 
L 1119 1403 
Q 1119 906 1312 657 
Q 1506 409 1894 409 
Q 2359 409 2629 706 
Q 2900 1003 2900 1516 
L 2900 3500 
L 3475 3500 
L 3475 0 
L 2900 0 
L 2900 538 
Q 2691 219 2414 64 
Q 2138 -91 1772 -91 
Q 1169 -91 856 284 
Q 544 659 544 1381 
z
M 1991 3584 
L 1991 3584 
z
" transform="scale(0.015625)"/>
      <path id="DejaVuSans-63" d="M 3122 3366 
L 3122 2828 
Q 2878 2963 2633 3030 
Q 2388 3097 2138 3097 
Q 1578 3097 1268 2742 
Q 959 2388 959 1747 
Q 959 1106 1268 751 
Q 1578 397 2138 397 
Q 2388 397 2633 464 
Q 2878 531 3122 666 
L 3122 134 
Q 2881 22 2623 -34 
Q 2366 -91 2075 -91 
Q 1284 -91 818 406 
Q 353 903 353 1747 
Q 353 2603 823 3093 
Q 1294 3584 2113 3584 
Q 2378 3584 2631 3529 
Q 2884 3475 3122 3366 
z
" transform="scale(0.015625)"/>
      <path id="DejaVuSans-6b" d="M 581 4863 
L 1159 4863 
L 1159 1991 
L 2875 3500 
L 3609 3500 
L 1753 1863 
L 3688 0 
L 2938 0 
L 1159 1709 
L 1159 0 
L 581 0 
L 581 4863 
z
" transform="scale(0.015625)"/>
      <path id="DejaVuSans-67" d="M 2906 1791 
Q 2906 2416 2648 2759 
Q 2391 3103 1925 3103 
Q 1463 3103 1205 2759 
Q 947 2416 947 1791 
Q 947 1169 1205 825 
Q 1463 481 1925 481 
Q 2391 481 2648 825 
Q 2906 1169 2906 1791 
z
M 3481 434 
Q 3481 -459 3084 -895 
Q 2688 -1331 1869 -1331 
Q 1566 -1331 1297 -1286 
Q 1028 -1241 775 -1147 
L 775 -588 
Q 1028 -725 1275 -790 
Q 1522 -856 1778 -856 
Q 2344 -856 2625 -561 
Q 2906 -266 2906 331 
L 2906 616 
Q 2728 306 2450 153 
Q 2172 0 1784 0 
Q 1141 0 747 490 
Q 353 981 353 1791 
Q 353 2603 747 3093 
Q 1141 3584 1784 3584 
Q 2172 3584 2450 3431 
Q 2728 3278 2906 2969 
L 2906 3500 
L 3481 3500 
L 3481 434 
z
" transform="scale(0.015625)"/>
      <path id="DejaVuSans-48" d="M 628 4666 
L 1259 4666 
L 1259 2753 
L 3553 2753 
L 3553 4666 
L 4184 4666 
L 4184 0 
L 3553 0 
L 3553 2222 
L 1259 2222 
L 1259 0 
L 628 0 
L 628 4666 
z
" transform="scale(0.015625)"/>
      <path id="DejaVuSans-64" d="M 2906 2969 
L 2906 4863 
L 3481 4863 
L 3481 0 
L 2906 0 
L 2906 525 
Q 2725 213 2448 61 
Q 2172 -91 1784 -91 
Q 1150 -91 751 415 
Q 353 922 353 1747 
Q 353 2572 751 3078 
Q 1150 3584 1784 3584 
Q 2172 3584 2448 3432 
Q 2725 3281 2906 2969 
z
M 947 1747 
Q 947 1113 1208 752 
Q 1469 391 1925 391 
Q 2381 391 2643 752 
Q 2906 1113 2906 1747 
Q 2906 2381 2643 2742 
Q 2381 3103 1925 3103 
Q 1469 3103 1208 2742 
Q 947 2381 947 1747 
z
" transform="scale(0.015625)"/>
      <path id="DejaVuSans-6c" d="M 603 4863 
L 1178 4863 
L 1178 0 
L 603 0 
L 603 4863 
z
" transform="scale(0.015625)"/>
      <path id="DejaVuSans-41" d="M 2188 4044 
L 1331 1722 
L 3047 1722 
L 2188 4044 
z
M 1831 4666 
L 2547 4666 
L 4325 0 
L 3669 0 
L 3244 1197 
L 1141 1197 
L 716 0 
L 50 0 
L 1831 4666 
z
" transform="scale(0.015625)"/>
     </defs>
     <use xlink:href="#DejaVuSans-52"/>
     <use xlink:href="#DejaVuSans-65" x="64.982422"/>
     <use xlink:href="#DejaVuSans-73" x="126.505859"/>
     <use xlink:href="#DejaVuSans-70" x="178.605469"/>
     <use xlink:href="#DejaVuSans-6f" x="242.082031"/>
     <use xlink:href="#DejaVuSans-6e" x="303.263672"/>
     <use xlink:href="#DejaVuSans-73" x="366.642578"/>
     <use xlink:href="#DejaVuSans-65" x="418.742188"/>
     <use xlink:href="#DejaVuSans-20" x="480.265625"/>
     <use xlink:href="#DejaVuSans-54" x="512.052734"/>
     <use xlink:href="#DejaVuSans-69" x="570.011719"/>
     <use xlink:href="#DejaVuSans-6d" x="597.794922"/>
     <use xlink:href="#DejaVuSans-65" x="695.207031"/>
     <use xlink:href="#DejaVuSans-20" x="756.730469"/>
     <use xlink:href="#DejaVuSans-4f" x="788.517578"/>
     <use xlink:href="#DejaVuSans-76" x="867.228516"/>
     <use xlink:href="#DejaVuSans-65" x="926.408203"/>
     <use xlink:href="#DejaVuSans-72" x="987.931641"/>
     <use xlink:href="#DejaVuSans-20" x="1029.044922"/>
     <use xlink:href="#DejaVuSans-54" x="1060.832031"/>
     <use xlink:href="#DejaVuSans-69" x="1118.791016"/>
     <use xlink:href="#DejaVuSans-6d" x="1146.574219"/>
     <use xlink:href="#DejaVuSans-65" x="1243.986328"/>
     <use xlink:href="#DejaVuSans-20" x="1305.509766"/>
     <use xlink:href="#DejaVuSans-66" x="1337.296875"/>
     <use xlink:href="#DejaVuSans-6f" x="1372.501953"/>
     <use xlink:href="#DejaVuSans-72" x="1433.683594"/>
     <use xlink:href="#DejaVuSans-20" x="1474.796875"/>
     <use xlink:href="#DejaVuSans-68" x="1506.583984"/>
     <use xlink:href="#DejaVuSans-74" x="1569.962891"/>
     <use xlink:href="#DejaVuSans-74" x="1609.171875"/>
     <use xlink:href="#DejaVuSans-70" x="1648.380859"/>
     <use xlink:href="#DejaVuSans-73" x="1711.857422"/>
     <use xlink:href="#DejaVuSans-3a" x="1763.957031"/>
     <use xlink:href="#DejaVuSans-2f" x="1797.648438"/>
     <use xlink:href="#DejaVuSans-2f" x="1831.339844"/>
     <use xlink:href="#DejaVuSans-61" x="1865.03125"/>
     <use xlink:href="#DejaVuSans-70" x="1926.310547"/>
     <use xlink:href="#DejaVuSans-69" x="1989.787109"/>
     <use xlink:href="#DejaVuSans-2e" x="2017.570312"/>
     <use xlink:href="#DejaVuSans-62" x="2049.357422"/>
     <use xlink:href="#DejaVuSans-69" x="2112.833984"/>
     <use xlink:href="#DejaVuSans-74" x="2140.617188"/>
     <use xlink:href="#DejaVuSans-62" x="2179.826172"/>
     <use xlink:href="#DejaVuSans-75" x="2243.302734"/>
     <use xlink:href="#DejaVuSans-63" x="2306.681641"/>
     <use xlink:href="#DejaVuSans-6b" x="2361.662109"/>
     <use xlink:href="#DejaVuSans-65" x="2415.947266"/>
     <use xlink:href="#DejaVuSans-74" x="2477.470703"/>
     <use xlink:href="#DejaVuSans-2e" x="2516.679688"/>
     <use xlink:href="#DejaVuSans-6f" x="2548.466797"/>
     <use xlink:href="#DejaVuSans-72" x="2609.648438"/>
     <use xlink:href="#DejaVuSans-67" x="2649.011719"/>
     <use xlink:href="#DejaVuSans-2f" x="2712.488281"/>
     <use xlink:href="#DejaVuSans-32" x="2746.179688"/>
     <use xlink:href="#DejaVuSans-2e" x="2809.802734"/>
     <use xlink:href="#DejaVuSans-30" x="2841.589844"/>
     <use xlink:href="#DejaVuSans-20" x="2905.212891"/>
     <use xlink:href="#DejaVuSans-28" x="2937"/>
     <use xlink:href="#DejaVuSans-34" x="2976.013672"/>
     <use xlink:href="#DejaVuSans-2d" x="3039.636719"/>
     <use xlink:href="#DejaVuSans-48" x="3075.720703"/>
     <use xlink:href="#DejaVuSans-6f" x="3150.916016"/>
     <use xlink:href="#DejaVuSans-75" x="3212.097656"/>
     <use xlink:href="#DejaVuSans-72" x="3275.476562"/>
     <use xlink:href="#DejaVuSans-20" x="3316.589844"/>
     <use xlink:href="#DejaVuSans-61" x="3348.376953"/>
     <use xlink:href="#DejaVuSans-6e" x="3409.65625"/>
     <use xlink:href="#DejaVuSans-64" x="3473.035156"/>
     <use xlink:href="#DejaVuSans-20" x="3536.511719"/>
     <use xlink:href="#DejaVuSans-32" x="3568.298828"/>
     <use xlink:href="#DejaVuSans-34" x="3631.921875"/>
     <use xlink:href="#DejaVuSans-2d" x="3695.544922"/>
     <use xlink:href="#DejaVuSans-48" x="3731.628906"/>
     <use xlink:href="#DejaVuSans-6f" x="3806.824219"/>
     <use xlink:href="#DejaVuSans-75" x="3868.005859"/>
     <use xlink:href="#DejaVuSans-72" x="3931.384766"/>
     <use xlink:href="#DejaVuSans-20" x="3972.498047"/>
     <use xlink:href="#DejaVuSans-52" x="4004.285156"/>
     <use xlink:href="#DejaVuSans-6f" x="4069.267578"/>
     <use xlink:href="#DejaVuSans-6c" x="4130.449219"/>
     <use xlink:href="#DejaVuSans-6c" x="4158.232422"/>
     <use xlink:href="#DejaVuSans-69" x="4186.015625"/>
     <use xlink:href="#DejaVuSans-6e" x="4213.798828"/>
     <use xlink:href="#DejaVuSans-67" x="4277.177734"/>
     <use xlink:href="#DejaVuSans-20" x="4340.654297"/>
     <use xlink:href="#DejaVuSans-41" x="4372.441406"/>
     <use xlink:href="#DejaVuSans-76" x="4434.974609"/>
     <use xlink:href="#DejaVuSans-65" x="4494.154297"/>
     <use xlink:href="#DejaVuSans-72" x="4555.677734"/>
     <use xlink:href="#DejaVuSans-61" x="4596.791016"/>
     <use xlink:href="#DejaVuSans-67" x="4658.070312"/>
     <use xlink:href="#DejaVuSans-65" x="4721.546875"/>
     <use xlink:href="#DejaVuSans-73" x="4783.070312"/>
     <use xlink:href="#DejaVuSans-29" x="4835.169922"/>
    </g>
   </g>
   <g id="legend_1">
    <g id="patch_7">
     <path d="M 484.05625 176.040514 
L 702.2 176.040514 
Q 704.2 176.040514 704.2 174.040514 
L 704.2 131.006139 
Q 704.2 129.006139 702.2 129.006139 
L 484.05625 129.006139 
Q 482.05625 129.006139 482.05625 131.006139 
L 482.05625 174.040514 
Q 482.05625 176.040514 484.05625 176.040514 
z
" style="fill: #ffffff; opacity: 0.8; stroke: #cccccc; stroke-linejoin: miter"/>
    </g>
    <g id="line2d_28">
     <path d="M 486.05625 137.104576 
L 496.05625 137.104576 
L 506.05625 137.104576 
" style="fill: none; stroke: #1f77b4; stroke-opacity: 0.5; stroke-width: 1.5; stroke-linecap: square"/>
     <g>
      <use xlink:href="#m11defc86f2" x="496.05625" y="137.104576" style="fill: #1f77b4; fill-opacity: 0.5; stroke: #1f77b4; stroke-opacity: 0.5"/>
     </g>
    </g>
    <g id="text_16">
     <!-- 4-Hour Rolling Average -->
     <g transform="translate(514.05625 140.604576) scale(0.1 -0.1)">
      <use xlink:href="#DejaVuSans-34"/>
      <use xlink:href="#DejaVuSans-2d" x="63.623047"/>
      <use xlink:href="#DejaVuSans-48" x="99.707031"/>
      <use xlink:href="#DejaVuSans-6f" x="174.902344"/>
      <use xlink:href="#DejaVuSans-75" x="236.083984"/>
      <use xlink:href="#DejaVuSans-72" x="299.462891"/>
      <use xlink:href="#DejaVuSans-20" x="340.576172"/>
      <use xlink:href="#DejaVuSans-52" x="372.363281"/>
      <use xlink:href="#DejaVuSans-6f" x="437.345703"/>
      <use xlink:href="#DejaVuSans-6c" x="498.527344"/>
      <use xlink:href="#DejaVuSans-6c" x="526.310547"/>
      <use xlink:href="#DejaVuSans-69" x="554.09375"/>
      <use xlink:href="#DejaVuSans-6e" x="581.876953"/>
      <use xlink:href="#DejaVuSans-67" x="645.255859"/>
      <use xlink:href="#DejaVuSans-20" x="708.732422"/>
      <use xlink:href="#DejaVuSans-41" x="740.519531"/>
      <use xlink:href="#DejaVuSans-76" x="803.052734"/>
      <use xlink:href="#DejaVuSans-65" x="862.232422"/>
      <use xlink:href="#DejaVuSans-72" x="923.755859"/>
      <use xlink:href="#DejaVuSans-61" x="964.869141"/>
      <use xlink:href="#DejaVuSans-67" x="1026.148438"/>
      <use xlink:href="#DejaVuSans-65" x="1089.625"/>
     </g>
    </g>
    <g id="line2d_29">
     <path d="M 486.05625 151.782701 
L 496.05625 151.782701 
L 506.05625 151.782701 
" style="fill: none; stroke: #ff7f0e; stroke-width: 1.5; stroke-linecap: square"/>
    </g>
    <g id="text_17">
     <!-- 24-Hour Rolling Average -->
     <g transform="translate(514.05625 155.282701) scale(0.1 -0.1)">
      <use xlink:href="#DejaVuSans-32"/>
      <use xlink:href="#DejaVuSans-34" x="63.623047"/>
      <use xlink:href="#DejaVuSans-2d" x="127.246094"/>
      <use xlink:href="#DejaVuSans-48" x="163.330078"/>
      <use xlink:href="#DejaVuSans-6f" x="238.525391"/>
      <use xlink:href="#DejaVuSans-75" x="299.707031"/>
      <use xlink:href="#DejaVuSans-72" x="363.085938"/>
      <use xlink:href="#DejaVuSans-20" x="404.199219"/>
      <use xlink:href="#DejaVuSans-52" x="435.986328"/>
      <use xlink:href="#DejaVuSans-6f" x="500.96875"/>
      <use xlink:href="#DejaVuSans-6c" x="562.150391"/>
      <use xlink:href="#DejaVuSans-6c" x="589.933594"/>
      <use xlink:href="#DejaVuSans-69" x="617.716797"/>
      <use xlink:href="#DejaVuSans-6e" x="645.5"/>
      <use xlink:href="#DejaVuSans-67" x="708.878906"/>
      <use xlink:href="#DejaVuSans-20" x="772.355469"/>
      <use xlink:href="#DejaVuSans-41" x="804.142578"/>
      <use xlink:href="#DejaVuSans-76" x="866.675781"/>
      <use xlink:href="#DejaVuSans-65" x="925.855469"/>
      <use xlink:href="#DejaVuSans-72" x="987.378906"/>
      <use xlink:href="#DejaVuSans-61" x="1028.492188"/>
      <use xlink:href="#DejaVuSans-67" x="1089.771484"/>
      <use xlink:href="#DejaVuSans-65" x="1153.248047"/>
     </g>
    </g>
    <g id="line2d_30">
     <path d="M 486.05625 166.460826 
L 496.05625 166.460826 
L 506.05625 166.460826 
" style="fill: none; stroke-dasharray: 5.55,2.4; stroke-dashoffset: 0; stroke: #ff0000; stroke-width: 1.5"/>
    </g>
    <g id="text_18">
     <!-- Average Response Time from All APIs -->
     <g transform="translate(514.05625 169.960826) scale(0.1 -0.1)">
      <defs>
       <path id="DejaVuSans-50" d="M 1259 4147 
L 1259 2394 
L 2053 2394 
Q 2494 2394 2734 2622 
Q 2975 2850 2975 3272 
Q 2975 3691 2734 3919 
Q 2494 4147 2053 4147 
L 1259 4147 
z
M 628 4666 
L 2053 4666 
Q 2838 4666 3239 4311 
Q 3641 3956 3641 3272 
Q 3641 2581 3239 2228 
Q 2838 1875 2053 1875 
L 1259 1875 
L 1259 0 
L 628 0 
L 628 4666 
z
" transform="scale(0.015625)"/>
       <path id="DejaVuSans-49" d="M 628 4666 
L 1259 4666 
L 1259 0 
L 628 0 
L 628 4666 
z
" transform="scale(0.015625)"/>
      </defs>
      <use xlink:href="#DejaVuSans-41"/>
      <use xlink:href="#DejaVuSans-76" x="62.533203"/>
      <use xlink:href="#DejaVuSans-65" x="121.712891"/>
      <use xlink:href="#DejaVuSans-72" x="183.236328"/>
      <use xlink:href="#DejaVuSans-61" x="224.349609"/>
      <use xlink:href="#DejaVuSans-67" x="285.628906"/>
      <use xlink:href="#DejaVuSans-65" x="349.105469"/>
      <use xlink:href="#DejaVuSans-20" x="410.628906"/>
      <use xlink:href="#DejaVuSans-52" x="442.416016"/>
      <use xlink:href="#DejaVuSans-65" x="507.398438"/>
      <use xlink:href="#DejaVuSans-73" x="568.921875"/>
      <use xlink:href="#DejaVuSans-70" x="621.021484"/>
      <use xlink:href="#DejaVuSans-6f" x="684.498047"/>
      <use xlink:href="#DejaVuSans-6e" x="745.679688"/>
      <use xlink:href="#DejaVuSans-73" x="809.058594"/>
      <use xlink:href="#DejaVuSans-65" x="861.158203"/>
      <use xlink:href="#DejaVuSans-20" x="922.681641"/>
      <use xlink:href="#DejaVuSans-54" x="954.46875"/>
      <use xlink:href="#DejaVuSans-69" x="1012.427734"/>
      <use xlink:href="#DejaVuSans-6d" x="1040.210938"/>
      <use xlink:href="#DejaVuSans-65" x="1137.623047"/>
      <use xlink:href="#DejaVuSans-20" x="1199.146484"/>
      <use xlink:href="#DejaVuSans-66" x="1230.933594"/>
      <use xlink:href="#DejaVuSans-72" x="1266.138672"/>
      <use xlink:href="#DejaVuSans-6f" x="1305.001953"/>
      <use xlink:href="#DejaVuSans-6d" x="1366.183594"/>
      <use xlink:href="#DejaVuSans-20" x="1463.595703"/>
      <use xlink:href="#DejaVuSans-41" x="1495.382812"/>
      <use xlink:href="#DejaVuSans-6c" x="1563.791016"/>
      <use xlink:href="#DejaVuSans-6c" x="1591.574219"/>
      <use xlink:href="#DejaVuSans-20" x="1619.357422"/>
      <use xlink:href="#DejaVuSans-41" x="1651.144531"/>
      <use xlink:href="#DejaVuSans-50" x="1719.552734"/>
      <use xlink:href="#DejaVuSans-49" x="1779.855469"/>
      <use xlink:href="#DejaVuSans-73" x="1809.347656"/>
     </g>
    </g>
   </g>
  </g>
 </g>
 <defs>
  <clipPath id="p1f76d6c006">
   <rect x="53.75" y="27.6" width="655.45" height="249.846653"/>
  </clipPath>
 </defs>
</svg>
